<svg width="96" height="96" viewBox="0 0 96 96" fill="none" xmlns="http://www.w3.org/2000/svg">
<path d="M87.8921 65.9104C88.3421 61.9129 84.7196 60.2629 82.0646 62.0854L81.5996 61.2229C81.5996 61.2229 83.2946 59.2954 85.7021 59.7379C88.1096 60.1804 89.2571 61.3429 89.4896 62.0629C89.7221 62.7829 89.4521 64.7329 89.4521 64.7329L87.8921 65.9029V65.9104Z" fill="#231F20"/>
<path d="M88.2147 62.6701C88.0572 62.1151 87.7497 61.6126 87.2322 61.2826C87.0297 61.1476 86.8047 61.0951 86.6022 60.9976C85.8672 60.6826 84.9597 60.6826 84.0372 60.9901C83.6322 61.1326 83.2422 61.3426 82.8597 61.5601C82.6122 61.7026 82.3872 61.8826 82.1172 62.0026C81.8397 62.1151 81.5472 62.2051 81.2397 62.2726C81.0447 62.3101 80.9697 62.1526 80.9697 61.8676C80.9697 61.5901 81.0147 61.1326 81.2247 60.8176C81.3147 60.6751 81.4347 60.5626 81.5622 60.4726L81.9447 60.1801C82.2072 60.0001 82.4697 59.7976 82.7847 59.6626C83.3997 59.3926 84.0897 59.1901 84.8172 59.1601C85.6722 59.1076 86.6322 59.1076 87.4647 59.4526C87.9147 59.6326 88.3272 59.8951 88.7247 60.2176C89.0847 60.5626 89.4147 60.9451 89.6397 61.3801C89.9322 61.9051 90.0972 62.4826 90.1647 63.0601C90.2697 63.9376 90.0972 64.8376 89.7222 65.6326C89.4447 66.2551 89.0547 66.8401 88.5072 67.2751C88.3872 67.3651 88.2747 67.4626 88.1397 67.5376C88.0797 67.5751 88.0197 67.6051 87.9672 67.6276C87.9072 67.6351 87.8472 67.6276 87.7947 67.6276C87.6897 67.6276 87.5997 67.6126 87.5172 67.5901C87.3597 67.5451 87.2547 67.4626 87.1572 67.3501C87.1122 67.2976 87.0597 67.2451 87.0222 67.1926C86.9097 67.0276 87.0222 66.7501 87.1797 66.3976C87.2997 66.1426 87.4422 66.0001 87.5547 65.8126C87.6447 65.6176 87.7572 65.4601 87.8097 65.2726C87.9747 64.9501 88.1397 64.6501 88.2072 64.2976C88.3497 63.7951 88.3647 63.2026 88.1697 62.6701L88.2147 62.6551V62.6701Z" fill="#231F20"/>
<path d="M90.2629 72.7429C93.4579 70.6204 90.6454 67.8604 89.5879 67.5829L91.4179 67.0879C91.4179 67.0879 92.8279 67.6879 93.2779 69.0904C93.7279 70.4929 93.6004 71.8129 93.2779 72.2779C92.9554 72.7429 90.2629 72.7429 90.2629 72.7429Z" fill="#231F20"/>
<path d="M92.8655 67.3122C93.653 68.1297 94.298 69.2172 94.3205 70.5222C94.3205 70.9872 94.283 71.4447 94.0655 71.9097C93.683 72.7272 92.918 73.2147 92.2655 73.4172C91.598 73.6347 90.9605 73.6797 90.353 73.6947C89.813 73.7097 89.2805 73.7172 88.7555 73.6797C88.418 73.6572 88.088 73.6422 87.758 73.5822L87.5105 73.5372C87.428 73.4997 87.353 73.4697 87.2705 73.4247C87.113 73.3497 86.963 73.2597 86.813 73.1697C86.6255 73.0497 86.6855 72.9222 86.8955 72.7422C87.0005 72.6447 87.1355 72.5322 87.3005 72.4047C87.383 72.3447 87.4655 72.2772 87.5555 72.2247C87.6005 72.1947 87.6455 72.1722 87.6905 72.1347C87.7355 72.1347 87.7805 72.1197 87.818 72.1197C88.4405 72.1122 89.048 72.0222 89.633 72.0222C90.218 72.0222 90.788 71.9922 91.3055 71.9247C91.628 71.8947 91.8755 71.7372 92.0555 71.5797C92.2355 71.4147 92.273 71.2197 92.3405 71.0097C92.4605 70.4922 92.2655 69.8472 91.808 69.2847C91.523 68.9472 91.1705 68.6397 90.7805 68.4147C90.1955 68.0997 89.393 67.8372 88.703 67.8747C88.1405 67.9047 87.6455 68.1597 87.1805 68.4372C87.0755 68.5047 86.978 68.5497 86.8655 68.6022C86.6555 68.6772 86.498 68.7222 86.348 68.6772C86.1905 68.6247 86.0555 68.5272 85.8905 68.3697C85.8155 68.3022 85.7405 68.2347 85.673 68.1672C85.568 68.0472 85.523 67.9122 85.538 67.7322C85.5455 67.5597 85.598 67.3272 85.7555 67.1622C86.5655 66.0222 88.313 65.6247 89.798 65.8422C90.368 65.9247 90.8405 66.0597 91.403 66.2772C91.988 66.5247 92.483 66.8397 92.903 67.2522L92.8655 67.2972V67.3122Z" fill="#231F20"/>
<path d="M71.362 47.9179C67.267 44.3029 62.0695 42.0004 56.5945 41.2204C54.592 40.9504 52.5595 40.8379 50.542 40.9054C46.9795 40.9354 43.4095 41.4679 40.027 42.6229C36.652 43.7779 33.472 45.5179 30.6895 47.7829C28.222 49.8004 26.122 52.2679 24.4195 54.9229L23.602 56.2129C23.347 56.6554 23.1295 57.1129 22.8895 57.5629C22.657 58.0129 22.4095 58.4629 22.192 58.9204L21.592 60.3229C21.157 61.2454 20.8345 62.2129 20.482 63.1729C20.092 64.1179 19.8145 65.1004 19.432 66.0679C18.8395 67.2454 18.8245 67.0804 18.682 65.9179C18.607 65.3329 18.5845 64.5079 18.6295 63.5179C18.682 63.0304 18.787 62.5129 18.8995 61.9579C19.0345 61.4104 19.1395 60.8179 19.3945 60.2479C20.917 56.1379 23.182 52.2304 26.257 49.0129C26.977 48.1654 27.847 47.4679 28.6645 46.7104C29.062 46.3204 29.5195 46.0054 29.962 45.6679L31.297 44.6704C32.2345 44.0779 33.172 43.4779 34.147 42.9454L35.647 42.2179C36.142 41.9704 36.6445 41.7304 37.1695 41.5504C37.792 41.3179 38.407 41.0779 39.037 40.8379C39.6595 40.6054 40.3195 40.4479 40.957 40.2454C42.232 39.8104 43.567 39.6079 44.887 39.3004C45.547 39.1654 46.222 39.1129 46.897 39.0154C47.572 38.9404 48.2395 38.8129 48.9145 38.8129C50.2645 38.7604 51.6145 38.6629 52.957 38.7604C55.9045 38.8804 58.852 39.3229 61.6945 40.1854C64.537 41.0329 67.252 42.3004 69.7195 43.9429C72.7795 45.9379 75.397 48.5329 77.602 51.3979C80.902 55.7854 83.1895 60.8479 84.697 66.0229C85.282 68.0404 85.7695 70.0654 86.1295 72.1129C86.302 73.1404 86.452 74.1754 86.542 75.2254L86.5795 75.8179C86.5795 76.0129 86.542 76.1779 86.527 76.3654L86.4595 76.9054L86.4445 77.0404V77.1079L86.4295 77.1454V77.1604V77.1679C86.452 77.1904 86.2195 77.0104 86.317 77.0854C86.2645 77.1529 86.212 77.1979 86.1595 77.2504C86.047 77.3554 85.942 77.4754 85.762 77.5429C85.582 77.6029 85.3795 77.6329 85.1695 77.6554L84.097 77.7604C83.1745 77.8354 82.282 77.8954 81.3595 77.9404C77.932 78.0454 76.732 77.6704 76.1245 76.9654C75.982 76.8079 75.8095 76.6279 75.7645 76.4929C75.697 76.2604 75.982 76.2229 76.5445 76.1779C77.122 76.1254 78.0295 76.1329 79.2295 76.0879C80.1145 76.0654 81.0145 75.9979 81.922 75.9154C82.372 75.8779 82.822 75.8104 83.272 75.7429C83.6845 75.6754 84.337 75.5779 84.232 75.5779C84.2845 75.5479 84.367 75.5554 84.3295 75.4654L84.307 75.3829V75.3604L84.2845 75.2104L84.2545 74.8729C84.157 73.9729 84.0445 73.0654 83.8795 72.1579C83.257 68.5279 82.2145 64.8904 80.782 61.4329C79.702 58.8754 78.4045 56.4004 76.8445 54.1129C75.2695 51.8329 73.4395 49.7404 71.3545 47.9554L71.3845 47.9104L71.362 47.9179Z" fill="#231F20"/>
<path d="M40.9047 50.0482C41.4072 49.8232 41.9397 49.7032 42.4647 49.5532L44.0472 49.1182C45.1122 48.8782 46.1922 48.7507 47.2572 48.5632C48.3297 48.4582 49.4097 48.4282 50.4897 48.3532C51.0222 48.3082 51.5772 48.3757 52.1172 48.3832C52.6572 48.4132 53.2047 48.4132 53.7447 48.4657L56.0997 48.7732C56.8797 48.9232 57.6447 49.1257 58.4172 49.3207C61.0947 50.1382 63.6147 51.4057 65.8497 53.0557C68.1072 54.6832 69.9822 56.7757 71.5422 59.0257C72.2772 60.0007 72.8322 61.0957 73.4472 62.1457C73.7247 62.6857 73.9647 63.2482 74.2272 63.7957L74.6097 64.6207L74.9172 65.4682C75.4872 66.9082 75.9147 68.4082 76.2447 69.9307C76.3572 70.6957 76.4622 71.4682 76.5522 72.2332C76.6347 73.0057 76.4922 73.7932 76.3947 74.5657C76.2297 75.5257 76.2522 75.3907 75.8997 74.6107C75.7347 74.2207 75.3822 73.6807 75.1047 73.0432C74.8647 72.3982 74.5647 71.6632 74.3997 70.8382C73.7472 67.9432 72.8397 65.1232 71.4297 62.5282C70.0347 59.9332 68.2122 57.5632 65.9922 55.5682C63.3222 53.1907 59.8197 51.6232 56.2497 50.8807C55.7697 50.7307 55.2597 50.7232 54.7572 50.6407C54.2547 50.5807 53.7597 50.4832 53.2572 50.4532L51.7422 50.4007L50.9847 50.3707C50.7297 50.3707 50.4747 50.4007 50.2197 50.4082L48.6972 50.5057C48.1872 50.5357 47.6772 50.5582 47.1822 50.6632L45.6747 50.9182L44.9247 51.0457C44.6772 51.0982 44.4372 51.1807 44.1897 51.2482L42.3822 51.7657C41.7822 51.9532 41.2197 52.2232 40.6422 52.4482L39.7722 52.8007C39.4872 52.9282 39.2247 53.0932 38.9472 53.2432C38.4072 53.5507 37.8447 53.8282 37.3122 54.1582C34.1097 56.1907 31.4022 59.0332 29.4447 62.2807C29.0322 62.8957 28.7322 63.5707 28.3947 64.2157C28.0497 64.8607 27.7797 65.5432 27.5097 66.2182L27.0897 67.2307L26.7372 68.2657C26.4972 68.9557 26.2572 69.6382 26.0847 70.3507C25.9272 70.9732 25.7322 71.5732 25.6047 72.2107C25.0197 74.5432 24.8547 75.2932 24.2997 75.7357C24.1872 75.8407 24.0747 75.9832 23.9847 76.0432C23.7072 76.2457 23.4747 75.1957 23.6847 73.3657C23.9997 70.6582 24.6897 67.9057 25.7322 65.2132C26.8272 62.5507 28.2972 59.9632 30.1722 57.6532C32.9772 54.2482 36.7122 51.5107 40.8822 49.9732L40.9047 50.0182V50.0482Z" fill="#231F20"/>
<path d="M44.363 58.7916C47.2805 57.6441 50.438 57.2691 53.5055 57.6216L55.178 57.8616C55.7255 57.9891 56.273 58.1241 56.8205 58.2741C60.608 59.5266 63.863 62.0466 66.0755 65.2191C66.6005 65.9016 67.0205 66.6516 67.4855 67.3716C67.703 67.7391 67.883 68.1291 68.0855 68.5041C68.288 68.8791 68.483 69.2616 68.633 69.6591C69.083 70.6566 69.4655 71.6841 69.758 72.7341C69.8705 73.2666 69.9755 73.8066 70.0655 74.3466C70.1705 74.8791 70.0655 75.4566 69.983 76.0041C69.863 76.6941 69.8705 76.5891 69.518 76.0791C69.353 75.8166 69.008 75.4716 68.723 75.0516C68.468 74.6241 68.2055 74.1366 68.0405 73.5816C66.9005 69.6441 64.9055 65.9466 61.853 63.1416C60.023 61.4691 57.608 60.3741 55.1555 59.8191C54.8255 59.7141 54.4805 59.6766 54.1355 59.6316L53.1005 59.4816C52.403 59.4741 51.7055 59.3841 51.008 59.4366C50.3105 59.5041 49.598 59.4891 48.9155 59.6241L47.8805 59.8191C47.5355 59.8791 47.1905 59.9466 46.8605 60.0666L45.623 60.4566C45.2105 60.5916 44.828 60.7941 44.4305 60.9666C43.613 61.2741 42.908 61.7916 42.143 62.2041C39.938 63.6516 38.0105 65.5791 36.518 67.7766C35.9255 68.6241 35.4455 69.5316 34.9955 70.4391C34.7855 70.9041 34.553 71.3541 34.358 71.8191L33.788 73.2291C33.638 73.6491 33.5105 74.0691 33.353 74.4891C32.8205 76.0716 32.633 76.5591 32.1305 76.8291C32.0255 76.8891 31.9205 76.9791 31.8305 77.0166C31.5755 77.1366 31.3505 76.3641 31.5905 75.0816C31.9355 73.1841 32.5205 71.2566 33.383 69.4116C34.283 67.5891 35.4305 65.8491 36.788 64.2591C38.828 61.9266 41.393 59.9391 44.3405 58.7616L44.363 58.8066V58.7916Z" fill="#231F20"/>
<path d="M22.1626 76.4549C22.7701 76.4924 23.3776 76.5299 23.9926 76.5524C24.2176 76.5599 24.4351 76.5224 24.6601 76.5374C25.4476 76.6124 26.2501 76.7249 27.0451 76.7849C27.3976 76.8074 27.7501 76.8074 28.1026 76.8449C28.5526 76.8749 29.0101 76.9124 29.4526 77.0549C29.5876 77.0999 29.5651 77.2199 29.4376 77.3549C29.3101 77.4899 29.0926 77.6774 28.8451 77.7374C28.4026 77.8349 27.9601 77.9924 27.5101 78.0374C27.0601 78.0599 26.6101 78.0524 26.1526 78.0074C25.6051 77.9399 25.0426 78.0974 24.4801 78.0749C23.8576 78.0599 23.2426 78.0449 22.6201 78.0299C22.2376 78.0149 21.8551 77.9999 21.4726 77.9924C20.8951 77.9624 20.3101 77.9024 19.7326 77.8949C19.2826 77.8799 18.8326 77.9624 18.3751 77.9324C18.2776 77.9324 18.1726 77.9324 18.0751 77.9249C17.7001 77.8349 17.6026 77.6624 17.5726 77.4074C17.5726 77.3474 17.5576 77.2874 17.5576 77.2274C17.5576 77.0399 17.7376 76.8899 18.0076 76.7699C18.7801 76.5224 19.5526 76.5074 20.3626 76.4474C20.9626 76.4024 21.5701 76.4024 22.1776 76.4249V76.4624L22.1626 76.4549Z" fill="#231F20"/>
<path d="M17.0102 68.07C18.3902 68.46 19.8602 70.05 19.3952 72.9C19.1102 74.6625 17.3327 76.515 14.3252 77.2575V77.9925C14.3252 77.9925 19.4477 77.295 20.3552 75.4875C21.2627 73.68 21.4352 71.88 21.1502 71.0925C20.8652 70.305 19.4177 68.265 19.4177 68.265L17.0102 68.0625V68.07Z" fill="#231F20"/>
<path d="M3.13469 75.2479C3.88469 71.8204 6.13469 71.5504 7.28969 72.3079L6.30719 70.9204C6.30719 70.9204 4.16219 70.5679 3.32969 72.1429C2.49719 73.7179 3.13469 75.2479 3.13469 75.2479Z" fill="#231F20"/>
<path d="M8.37748 76.6656C10.2075 76.8006 12.06 76.8381 13.8825 76.7406C14.55 76.7031 15.2025 76.5981 15.855 76.5156C16.98 76.3656 18.1725 76.1481 18.945 75.6531C19.215 75.4731 19.53 75.0006 19.725 74.5281C19.92 74.0481 20.07 73.5381 20.1 73.0056C20.1825 72.0606 19.95 71.0931 19.5225 70.2906C19.2525 69.7656 18.8475 69.3456 18.39 69.0306C18.2775 68.9406 18.165 68.8656 18.0375 68.8131C17.9175 68.7456 17.7975 68.6481 17.6625 68.6031L17.2575 68.4306C17.1225 68.3556 16.965 68.3856 16.8225 68.2581C16.6425 68.0781 16.545 67.9731 16.5525 67.9206C16.5525 67.8606 16.6575 67.8081 16.8525 67.6131C17.055 67.4181 17.355 67.2606 17.7525 67.1931C18.15 67.1106 18.6525 67.1106 19.1175 67.3356C19.935 67.7406 20.61 68.3856 21.105 69.1131C21.6075 69.8406 21.9375 70.6731 22.005 71.5206C22.2075 73.2006 21.78 74.9556 20.6925 76.2756C20.55 76.4706 20.2575 76.7106 20.04 76.8981C19.8075 77.0406 19.5675 77.1681 19.335 77.2956L18.6525 77.5731C18.4275 77.6481 18.2025 77.7156 17.9775 77.7831C17.085 78.0306 16.1925 78.2031 15.3075 78.2856C13.365 78.4881 11.4525 78.4656 9.53248 78.3981C8.34748 78.3381 7.19998 78.2631 5.97748 78.0981C4.99498 77.9406 4.07248 77.4531 3.37498 76.7631C2.67748 76.0581 2.18998 75.2031 1.99498 74.2056C1.85248 73.4481 1.90498 72.6381 2.19748 71.8956C2.49748 71.1606 3.04498 70.4931 3.78748 70.0806C4.10998 69.9006 4.45498 69.7506 4.82248 69.6906C5.50498 69.5706 5.95498 69.6606 6.23248 69.8031C6.50248 69.9906 6.59998 70.2306 6.65998 70.4406C6.68998 70.5381 6.73498 70.6281 6.74248 70.6956C6.75748 70.8156 6.63748 70.8756 6.41248 71.0031C6.17998 71.1231 5.89498 71.2506 5.57998 71.2431C4.64998 71.3256 3.94498 71.8281 3.68248 72.6306C3.40498 73.4331 3.56998 74.3181 4.15498 75.1206C4.55998 75.6831 5.15248 76.1106 5.81998 76.3131C5.98498 76.3656 6.15748 76.4031 6.32998 76.4256L6.99748 76.5006C7.45498 76.5381 7.91248 76.5756 8.36998 76.5981V76.6431L8.37748 76.6656Z" fill="#231F20"/>
<path d="M6.61502 66.8926C7.01252 66.3376 7.50752 65.8801 8.06252 65.5126C8.62502 65.1601 9.23252 64.9276 9.85502 64.7776C10.3125 64.6801 10.7625 64.5526 11.2425 64.5676C12.915 64.5901 14.49 65.4301 15.3975 66.7201C15.8025 67.2826 16.11 67.8901 16.335 68.5051C16.6425 69.2851 16.815 70.1176 16.5225 70.9501C16.4475 71.2051 16.3725 71.1751 16.155 70.9951C15.9975 70.8676 15.8475 70.7401 15.7125 70.6276C15.6225 70.5526 15.51 70.4776 15.435 70.3951C15.3675 70.3126 15.3075 70.2151 15.2625 70.1251C15.1875 69.9526 15.0825 69.7951 15.03 69.6226C14.985 69.4501 14.925 69.2851 14.865 69.1276C14.7525 68.8051 14.6175 68.4976 14.46 68.2276C14.16 67.6651 13.7775 67.2226 13.2675 66.8326C12.615 66.3526 11.775 66.3001 10.9725 66.4126C10.0875 66.5251 9.23252 66.9301 8.55002 67.5226C8.13002 67.8976 7.79252 68.3626 7.61252 68.8951C7.47752 69.3001 7.40252 69.7351 7.40252 70.1851C7.41752 70.6276 7.50752 71.0776 7.66502 71.4976C7.92752 72.1501 8.41502 72.6676 8.93252 73.0576C9.04502 73.1551 9.18002 73.2001 9.29252 73.2901C9.72752 73.5901 9.82502 73.7626 9.83252 74.1301C9.83252 74.2126 9.84752 74.2951 9.84002 74.3626C9.84002 74.5801 9.48752 74.7601 8.93252 74.6401C7.33502 74.1751 6.07502 72.6076 5.74502 70.8376C5.49002 69.5251 5.76002 68.0176 6.57002 66.8701L6.60752 66.8926H6.61502Z" fill="#231F20"/>
<path d="M62.8197 67.8084C61.7022 66.8259 58.5447 67.8084 59.4747 70.3134L57.4346 70.0809C57.4346 70.0809 56.8272 68.3559 57.8397 67.2309C58.8522 66.1059 60.1796 65.7834 60.8471 65.9109C61.5146 66.0384 62.8197 67.8159 62.8197 67.8159V67.8084Z" fill="#231F20"/>
<path d="M57.8403 76.4107C56.0853 75.6082 55.4328 74.2882 56.1603 73.0807C57.1878 71.3932 59.2128 71.3182 60.0378 72.0007C60.0378 72.0007 58.6278 70.0357 56.6628 70.7182C54.6978 71.4007 53.9328 72.8257 53.7903 73.6732C53.6478 74.5207 55.4328 76.6582 55.4328 76.6582L57.8403 76.4182V76.4107Z" fill="#231F20"/>
<path d="M57.4048 66.6973C57.9223 66.0073 58.6723 65.5723 59.4223 65.3848C59.6998 65.3398 59.9623 65.2123 60.2473 65.2198C61.2448 65.1748 62.1598 65.6398 62.8498 66.2173C63.0073 66.3448 63.1423 66.4948 63.2923 66.6223C63.4423 66.7573 63.5323 66.9373 63.6598 67.0873C63.8173 67.2823 63.9373 67.4998 64.0123 67.7398C64.0648 67.9873 64.0273 68.2573 64.0123 68.4973C63.9898 68.6548 63.9148 68.6473 63.7273 68.5948C63.5473 68.5348 63.1723 68.4673 62.9323 68.3698C62.8798 68.3473 62.8123 68.3323 62.7673 68.3098L62.6698 68.2273C62.6023 68.1748 62.5498 68.1073 62.4748 68.0698C62.3323 67.9798 62.2048 67.8973 62.0923 67.8073C61.8973 67.5898 61.6573 67.4248 61.3948 67.2073C61.0573 66.9898 60.6298 67.0273 60.2398 67.0273C59.8048 67.0423 59.3623 67.1773 59.0173 67.4548C58.8223 67.6348 58.6273 67.8448 58.5223 68.1148C58.3273 68.5123 58.2748 68.9848 58.4173 69.4423C58.5298 69.7948 58.7848 70.0798 59.0323 70.3423C59.0923 70.3948 59.1598 70.4398 59.1898 70.5223C59.3398 70.7773 59.2723 70.9873 59.1523 71.2198C59.1223 71.2723 59.0998 71.3323 59.0698 71.3773C58.9798 71.5273 58.7398 71.5798 58.3873 71.5048C57.8923 71.3623 57.5923 70.9798 57.2998 70.5748C57.0223 70.1548 56.8273 69.6523 56.7598 69.0973C56.7073 68.6923 56.7223 68.2423 56.8498 67.8373C56.9398 67.4248 57.1348 67.0273 57.3748 66.6673L57.4123 66.6898L57.4048 66.6973Z" fill="#231F20"/>
<path d="M55.0572 73.3195C54.9747 73.642 55.0197 74.0995 55.1997 74.512C55.2897 74.722 55.4097 74.917 55.5522 75.097C55.6947 75.2695 55.8897 75.412 56.0622 75.562C56.2197 75.6445 56.3697 75.727 56.5347 75.7945C56.7147 75.8395 56.8872 75.892 57.0747 75.952C58.4247 76.2745 60.0972 76.0795 61.7472 75.862C62.4897 75.7645 63.2322 75.6145 63.9972 75.502C64.4922 75.4345 65.0022 75.3895 65.5272 75.4195C65.7822 75.4195 66.0597 75.472 66.3147 75.5545C66.4422 75.5995 66.5697 75.6445 66.6897 75.727C66.8097 75.8095 66.9072 75.9595 67.0047 76.0645C67.2297 76.3795 67.1622 76.372 66.8172 76.612C66.6522 76.717 66.4047 77.002 66.2097 77.122C66.0972 77.2045 65.9847 77.302 65.8797 77.347C65.7747 77.392 65.6772 77.407 65.5647 77.407L64.9572 77.4445C64.7472 77.4745 64.5372 77.5045 64.3197 77.5195C63.8847 77.557 63.4347 77.5945 62.9697 77.647C62.0397 77.7445 61.0572 77.857 60.0297 77.8645C58.8147 77.8645 57.4722 78.067 56.0847 77.6095C55.8972 77.5645 55.7172 77.482 55.5372 77.3845C55.3572 77.2945 55.1772 77.212 55.0047 77.0995C54.6897 76.8445 54.3447 76.627 54.0897 76.3045C53.5647 75.6895 53.2122 74.9545 53.0772 74.152C52.9947 73.657 53.0097 73.132 53.1597 72.6295C53.3172 72.1045 53.5572 71.7295 53.8422 71.3245C54.2922 70.747 54.9147 70.3045 55.5747 70.0345C56.2422 69.7795 56.9397 69.6745 57.6222 69.682C58.1622 69.6895 58.6722 69.7345 59.2272 69.877C59.8122 70.042 60.3222 70.327 60.7647 70.7395C60.9597 70.9195 61.1547 71.107 61.2972 71.347C61.5447 71.8045 61.5822 72.172 61.5372 72.4195C61.4847 72.6745 61.3122 72.817 61.0722 72.922C60.9672 72.967 60.8622 73.0195 60.7722 73.042C60.4722 73.102 60.0672 72.817 59.8197 72.5695C59.6022 72.382 59.4072 72.217 59.1822 72.0745C58.9572 71.9395 58.6872 71.8195 58.5072 71.797C57.9222 71.6695 57.2472 71.662 56.6997 71.8195C56.2872 71.9245 55.9497 72.127 55.6647 72.3895C55.5372 72.532 55.3947 72.6745 55.2897 72.862C55.1547 73.072 55.1322 73.1395 55.0947 73.3195H55.0422H55.0572Z" fill="#231F20"/>
<path d="M15.7722 51.8318C15.9447 51.7718 15.9372 52.0343 15.8247 52.4843C15.7872 52.6268 15.5922 53.0243 15.5247 53.0618C15.4047 53.1368 15.2847 53.2118 15.1797 53.2493C15.1122 53.2718 14.3622 53.1293 14.0997 53.0918C13.8447 53.0543 13.6272 52.9568 13.4097 52.8443L12.0972 52.1843C11.9997 52.1318 11.9172 52.0643 11.8347 51.9818C11.5722 51.6893 11.2497 51.5018 10.9047 51.3593C10.8447 51.3368 10.7997 51.2918 10.7097 51.3293C10.5672 51.3818 9.68975 50.9168 9.59975 50.8043C9.37475 50.5418 9.12725 50.3168 8.89475 50.0843C8.85725 50.0468 8.80475 50.0543 8.80475 49.9643C8.80475 49.7543 8.69975 49.7393 8.61725 49.6793C8.50475 49.5968 8.39225 49.5143 8.29475 49.3943C8.24975 49.3343 8.23475 49.2143 8.21225 49.1093C8.18975 49.0118 8.33975 48.7793 8.37725 48.7643C8.47475 48.7118 8.48225 48.5768 8.52725 48.4643C8.54225 48.4268 8.56475 48.3818 8.57975 48.3518C8.61725 48.2918 9.55475 48.2168 9.62975 48.2618C9.63725 48.2618 9.92225 48.3668 10.2222 48.4718C10.5222 48.5768 10.8372 48.6818 10.9047 48.6968C10.9722 48.7118 11.0172 48.7793 11.0697 48.8393C11.0922 48.8618 11.9997 49.1543 12.0297 49.1768C12.1947 49.2818 12.3972 49.3118 12.4872 49.5443C12.5022 49.5893 12.5472 49.5968 12.5772 49.6118C12.8847 49.7393 13.1472 49.9493 13.4247 50.1368C13.5672 50.2343 13.7247 50.2868 13.8747 50.3693C13.9047 50.3843 13.9197 50.4218 13.9347 50.4443C13.9647 50.4743 13.9872 50.5118 14.0172 50.5268C14.3847 50.6918 14.6922 50.9543 15.0822 51.0593C15.1722 51.0818 15.4722 51.4568 15.5772 51.4793C15.6372 51.4943 15.6747 51.8468 15.7422 51.8243L15.7722 51.8318Z" fill="#231F20"/>
<path d="M29.8353 34.702C30.0078 34.777 29.8353 34.9795 29.4678 35.257C29.3478 35.347 28.9428 35.5195 28.8678 35.512C28.7253 35.4895 28.5828 35.467 28.4778 35.4295C28.4103 35.407 27.9078 34.792 27.7278 34.5895C27.5478 34.3945 27.4353 34.1695 27.3303 33.937C27.1203 33.472 26.8878 33.007 26.6778 32.542C26.6328 32.437 26.6028 32.3245 26.5953 32.2045C26.5653 31.792 26.4078 31.432 26.2203 31.087C26.1903 31.027 26.1753 30.967 26.0853 30.937C25.9428 30.8845 25.5078 29.917 25.5003 29.767C25.4853 29.3995 25.4178 29.0545 25.3728 28.702C25.3728 28.6495 25.3203 28.612 25.3728 28.5445C25.5003 28.372 25.4253 28.2895 25.3953 28.192C25.3503 28.0495 25.3203 27.907 25.3203 27.742C25.3203 27.667 25.3878 27.5545 25.4328 27.457C25.4778 27.367 25.7403 27.2845 25.7778 27.292C25.8828 27.3145 25.9803 27.217 26.0853 27.1645C26.1228 27.1495 26.1678 27.127 26.1978 27.112C26.2653 27.0895 27.0528 27.6595 27.0828 27.742C27.0903 27.7645 27.7428 28.822 27.8328 28.9345C27.8778 28.9945 27.8703 29.077 27.8778 29.152C27.8778 29.1895 28.4328 30.0145 28.4478 30.052C28.5153 30.247 28.6653 30.4045 28.5978 30.652C28.5828 30.7045 28.6128 30.7345 28.6278 30.772C28.8003 31.0795 28.8903 31.4245 28.9953 31.7545C29.0478 31.927 29.1453 32.077 29.2203 32.242C29.2353 32.272 29.2203 32.3095 29.2203 32.347C29.2203 32.392 29.2203 32.437 29.2353 32.4745C29.4303 32.8495 29.5203 33.277 29.7753 33.6295C29.8353 33.712 29.8428 34.2145 29.9103 34.312C29.9478 34.3645 29.7603 34.672 29.8278 34.702H29.8353Z" fill="#231F20"/>
<path d="M52.7477 26.948C52.8752 27.0905 52.6427 27.218 52.1927 27.338C52.0502 27.3755 51.6077 27.383 51.5402 27.338C51.4202 27.2555 51.3002 27.1805 51.2102 27.0905C51.1577 27.038 50.9402 26.2205 50.8502 25.943C50.7602 25.673 50.7452 25.403 50.7452 25.133L50.7227 23.483C50.7227 23.363 50.7452 23.243 50.7827 23.1155C50.9252 22.703 50.9402 22.283 50.9102 21.863C50.9102 21.7955 50.9177 21.7205 50.8502 21.653C50.7377 21.5405 50.7752 20.408 50.8277 20.258C50.9702 19.898 51.0677 19.5305 51.1877 19.1705C51.2027 19.118 51.1877 19.0655 51.2627 19.0205C51.4502 18.9155 51.4277 18.803 51.4502 18.6905C51.4802 18.533 51.5177 18.3755 51.5852 18.2255C51.6227 18.1505 51.7277 18.083 51.8177 18.008C51.9002 17.9405 52.1702 18.008 52.2002 18.023C52.2827 18.098 52.4177 18.053 52.5302 18.053C52.5677 18.053 52.6202 18.053 52.6502 18.053C52.7177 18.068 53.1527 18.968 53.1452 19.0655C53.1452 19.073 53.1752 19.403 53.1977 19.748C53.2277 20.093 53.2652 20.453 53.2877 20.528C53.3027 20.603 53.2577 20.678 53.2352 20.753C53.2202 20.7905 53.3627 21.8255 53.3627 21.863C53.3402 22.073 53.4077 22.2905 53.2427 22.5005C53.2127 22.5455 53.2202 22.583 53.2202 22.628C53.2502 22.9955 53.1827 23.363 53.1452 23.7305C53.1227 23.918 53.1452 24.1055 53.1452 24.293C53.1452 24.3305 53.1227 24.3605 53.1077 24.398C53.0927 24.443 53.0702 24.4805 53.0702 24.5255C53.0927 24.968 53.0027 25.418 53.0927 25.8605C53.1152 25.9655 52.9202 26.453 52.9502 26.573C52.9652 26.6405 52.6727 26.858 52.7252 26.918L52.7477 26.948Z" fill="#231F20"/>
<path d="M78.3074 37.9359C78.3524 38.1084 78.0974 38.0784 77.6549 37.9359C77.5124 37.8909 77.1299 37.6659 77.0924 37.5984C77.0249 37.4784 76.9574 37.3584 76.9199 37.2534C76.8974 37.1934 77.0774 36.4809 77.1299 36.2259C77.1749 35.9859 77.2874 35.7759 77.4149 35.5809C77.6624 35.1759 77.9024 34.7634 78.1574 34.3659C78.2174 34.2759 78.2924 34.2009 78.3824 34.1334C78.6974 33.9084 78.9074 33.6159 79.0799 33.3009C79.1099 33.2484 79.1549 33.2034 79.1324 33.1209C79.0949 32.9784 79.6724 32.1834 79.7849 32.1159C80.0774 31.9434 80.3324 31.7409 80.6024 31.5534C80.6399 31.5234 80.6474 31.4709 80.7374 31.4934C80.9399 31.5309 80.9774 31.4334 81.0449 31.3659C81.1424 31.2684 81.2474 31.1859 81.3824 31.1184C81.4499 31.0884 81.5699 31.1034 81.6749 31.1034C81.7724 31.1034 81.9674 31.2984 81.9824 31.3359C82.0124 31.4334 82.1474 31.4784 82.2374 31.5459C82.2674 31.5684 82.3124 31.5984 82.3349 31.6209C82.3799 31.6734 82.3049 32.5584 82.2524 32.6184C82.2524 32.6259 82.1174 32.8659 81.9674 33.1284C81.8324 33.3834 81.6899 33.6609 81.6674 33.7209C81.6449 33.7809 81.5699 33.8109 81.5174 33.8484C81.4874 33.8634 81.1199 34.6659 81.1049 34.6959C80.9849 34.8309 80.9474 35.0184 80.7074 35.0784C80.6624 35.0859 80.6474 35.1234 80.6324 35.1534C80.4899 35.4234 80.2649 35.6484 80.0624 35.8884C79.9574 36.0084 79.8974 36.1584 79.8074 36.2859C79.7924 36.3084 79.7549 36.3234 79.7324 36.3384C79.7024 36.3609 79.6649 36.3759 79.6424 36.4134C79.4624 36.7434 79.1849 37.0134 79.0649 37.3734C79.0349 37.4559 78.6524 37.7034 78.6299 37.8084C78.6149 37.8609 78.2624 37.8684 78.2849 37.9359H78.3074Z" fill="#231F20"/>
<path d="M87.0974 52.7633C87.0599 52.9283 86.8724 52.7633 86.5874 52.3958C86.4974 52.2758 86.2949 51.8858 86.2949 51.8108C86.2949 51.6758 86.2949 51.5408 86.3099 51.4433C86.3174 51.3833 86.7599 50.9183 86.9024 50.7458C87.0374 50.5808 87.2099 50.4758 87.3824 50.3858C87.7424 50.1983 88.0874 49.9958 88.4474 49.8008C88.5299 49.7558 88.6124 49.7333 88.7174 49.7333C89.0549 49.7108 89.3324 49.5833 89.5874 49.4033C89.6324 49.3733 89.6849 49.3583 89.6924 49.2758C89.7149 49.1408 90.4574 48.7583 90.5774 48.7583C90.8774 48.7583 91.1549 48.6983 91.4399 48.6683C91.4774 48.6683 91.5074 48.6233 91.5749 48.6758C91.7324 48.8033 91.7924 48.7358 91.8749 48.7133C91.9874 48.6758 92.0999 48.6533 92.2349 48.6533C92.3024 48.6533 92.3999 48.7208 92.4899 48.7733C92.5724 48.8183 92.6699 49.0733 92.6699 49.1108C92.6699 49.2083 92.7599 49.3058 92.8199 49.4108C92.8424 49.4483 92.8649 49.4858 92.8799 49.5158C92.9099 49.5833 92.5424 50.3108 92.4749 50.3483C92.4599 50.3558 91.6724 50.9408 91.5974 51.0233C91.5524 51.0683 91.4849 51.0533 91.4249 51.0608C91.3949 51.0608 90.7874 51.5708 90.7574 51.5783C90.6074 51.6383 90.5024 51.7733 90.2849 51.7058C90.2399 51.6908 90.2174 51.7133 90.1874 51.7358C89.9549 51.8933 89.6849 51.9608 89.4224 52.0583C89.2874 52.1033 89.1749 52.1933 89.0549 52.2608C89.0324 52.2758 88.9949 52.2608 88.9724 52.2608C88.9349 52.2608 88.8974 52.2608 88.8749 52.2758C88.5899 52.4483 88.2524 52.5233 87.9974 52.7558C87.9374 52.8083 87.5174 52.8008 87.4574 52.8683C87.4199 52.9058 87.1424 52.7108 87.1199 52.7783L87.0974 52.7633Z" fill="#231F20"/>
</svg>
