<svg width="96" height="96" viewBox="0 0 96 96" fill="none" xmlns="http://www.w3.org/2000/svg">
<path d="M16.1997 44.2051C16.2054 44.1344 16.2251 44.0655 16.2577 44.0025C16.2903 43.9395 16.3352 43.8837 16.3897 43.8383C16.4442 43.7929 16.5072 43.7588 16.575 43.7381C16.6429 43.7173 16.7142 43.7104 16.7847 43.7176C18.2622 43.8526 16.0497 45.7501 16.1997 44.2051Z" stroke="#231F20" stroke-width="0.5" stroke-miterlimit="10"/>
<path d="M39.7497 43.5013C37.9497 43.5013 36.1497 43.5013 34.3347 43.3288C32.4652 43.2147 30.6204 42.8437 28.8522 42.2263C28.5738 42.126 28.3052 42.0005 28.0497 41.8513C27.7415 41.6712 27.4525 41.4601 27.1872 41.2213C26.9819 40.9544 26.8338 40.648 26.7522 40.3213C26.6922 40.0438 26.6697 39.8713 26.6322 39.6538C26.5722 39.2413 26.5347 38.8438 26.4972 38.4463C26.1297 33.8038 26.0322 29.2513 25.7697 24.7513C25.6647 22.7338 25.5072 20.7088 25.3122 18.7513C25.0572 16.1863 24.7047 13.6438 24.6072 11.0713C24.5697 10.2763 24.8247 10.3213 25.2522 10.9513C25.5361 11.3711 25.7868 11.8125 26.0022 12.2713C26.2736 12.9057 26.4675 13.5705 26.5797 14.2513C27.2988 19.471 27.6746 24.7324 27.7047 30.0013C27.7047 31.5913 27.8172 33.2113 27.9297 34.8313C28.0422 36.4513 28.1622 38.1013 28.3722 39.6163L28.4247 39.8938C28.4247 39.9388 28.4247 39.9913 28.4922 40.0138C28.5597 40.0363 28.6422 40.1488 28.7847 40.2463C28.9272 40.3438 29.0847 40.4113 29.2347 40.5088C29.3944 40.5992 29.5597 40.6794 29.7297 40.7488C29.8978 40.833 30.0736 40.9008 30.2547 40.9513C30.6258 41.07 31.004 41.1652 31.3872 41.2363C31.7622 41.3263 32.1372 41.3863 32.5497 41.4463C34.1507 41.6635 35.764 41.7788 37.3797 41.7913C39.5547 41.8288 41.7447 41.7913 43.9272 41.6338C47.2347 41.4388 50.5572 41.1388 53.8347 40.7263C56.3772 40.4038 58.8522 39.9763 61.3347 39.5413L62.9847 39.2638C63.7243 39.1111 64.4813 39.0606 65.2347 39.1138C65.6051 39.1232 65.9648 39.2405 66.2697 39.4513C66.3844 39.5206 66.4901 39.6038 66.5847 39.6988C66.6822 39.8413 66.5247 39.9838 66.1797 40.1338C65.6392 40.354 65.0826 40.5321 64.5147 40.6663C60.0672 41.5513 55.3122 42.2638 50.5122 42.7663C46.9422 43.1413 43.3347 43.3888 39.7122 43.4713L39.7497 43.5013Z" fill="#231F20"/>
<path d="M66.322 27.6749L66.397 24.5249C66.397 24.1424 66.397 23.7749 66.397 23.3774C66.397 22.0274 66.4645 20.6699 66.4495 19.3124C66.4495 18.7124 66.3745 18.1124 66.3445 17.5199C66.2495 16.7614 66.2219 15.9959 66.262 15.2324C66.262 14.9924 66.562 14.9924 66.8695 15.1649C67.0539 15.2628 67.2158 15.398 67.345 15.5621C67.4741 15.7261 67.5676 15.9152 67.6195 16.1174C67.9279 17.6697 68.0313 19.2558 67.927 20.8349C67.8745 21.7874 68.017 22.7624 68.047 23.7299C68.077 24.6974 68.107 25.8599 68.0995 26.9249V28.8899C68.0995 29.8799 68.0995 30.8774 68.0995 31.8899C68.0995 32.6399 68.2495 33.3899 68.302 34.1849C68.302 34.3574 68.302 34.5224 68.302 34.6949C68.302 35.3399 68.092 35.5499 67.6345 35.6249C67.5332 35.6491 67.4305 35.6666 67.327 35.6774C66.982 35.6774 66.712 35.4074 66.577 34.9799C66.3426 33.6229 66.2346 32.247 66.2545 30.8699C66.2545 29.8124 66.2545 28.7549 66.2545 27.7049L66.322 27.6749Z" fill="#231F20"/>
<path d="M50.3246 8.07109C48.3746 8.17609 46.4196 8.29859 44.4596 8.43859C43.7096 8.49109 43.0346 8.59609 42.3146 8.64109C39.7871 8.82109 37.2521 8.94109 34.7021 8.96359C33.5771 8.96359 32.4521 8.96359 31.3121 8.96359C30.5621 8.96359 29.8646 8.96359 29.1371 8.86609C28.4107 8.78805 27.6944 8.63473 26.9996 8.40859C26.5646 8.26609 26.6771 8.10109 27.0821 7.96609C27.7047 7.77388 28.3507 7.6679 29.0021 7.65109C31.8296 7.80109 34.7171 7.65109 37.6346 7.53859C39.3821 7.49359 41.1971 7.23859 42.9896 7.05859C44.9546 6.87109 46.9346 6.69109 48.9146 6.54859C50.1371 6.45859 51.3596 6.39859 52.5821 6.33859C54.4346 6.24859 56.3321 6.24109 58.1546 6.25609C59.5871 6.25609 61.0046 6.25609 62.4446 6.30859C62.7596 6.30859 63.0671 6.34609 63.3896 6.38359C64.5671 6.53359 64.8896 6.75109 65.0771 7.21609C65.1212 7.31974 65.1539 7.42788 65.1746 7.53859C65.1746 7.89109 64.6946 8.08609 63.8696 8.04859C61.4021 7.96609 58.8296 7.86859 56.2121 7.89109C54.2621 7.89109 52.3046 7.98109 50.3396 8.11609L50.3246 8.07109Z" fill="#231F20"/>
<path d="M59.2494 20.033C57.6294 22.0055 56.0919 24.0755 54.6369 26.2055C54.1044 26.9555 53.6469 27.803 53.1369 28.5905L51.6369 30.953L50.8869 32.153L49.7094 34.0505C49.4724 34.3896 49.1556 34.6653 48.7869 34.853C48.753 34.8813 48.7128 34.9008 48.6696 34.91C48.6265 34.9191 48.5818 34.9176 48.5394 34.9055C48.4523 34.8788 48.3691 34.841 48.2919 34.793C48.1213 34.694 47.9628 34.5757 47.8194 34.4405C47.4571 34.0458 47.1494 33.6043 46.9044 33.128C46.7619 32.8805 46.6194 32.633 46.4844 32.378L46.1919 31.8305C45.4949 30.5353 44.721 29.2831 43.8744 28.0805C43.3344 27.3305 42.7719 26.5805 42.1794 25.9055C41.64 25.234 41.0146 24.6364 40.3194 24.128C39.9294 23.903 39.9969 23.513 40.6644 23.378C41.1639 23.3259 41.6687 23.3857 42.1422 23.5531C42.6157 23.7204 43.046 23.9911 43.4019 24.3455C44.8496 25.7667 46.1098 27.3672 47.1519 29.108C47.4144 29.5205 47.6694 29.948 47.9019 30.368L48.2769 30.998C48.2769 31.073 48.2769 31.058 48.2769 31.0655V31.1405C48.2981 31.2396 48.3257 31.3373 48.3594 31.433C48.3594 31.433 48.4119 31.613 48.4419 31.5755L48.5394 31.523L48.5994 31.4705C48.6505 31.424 48.6981 31.3739 48.7419 31.3205L48.8169 31.223L49.0194 30.878C49.3119 30.3905 49.5969 29.8955 49.8894 29.378C50.4669 28.3955 51.0369 27.398 51.6594 26.438C53.1194 24.213 54.6494 22.0405 56.2494 19.9205C57.2394 18.623 58.2594 17.348 59.3244 16.1105C60.9566 14.2207 62.7103 12.4394 64.5744 10.778C65.9861 9.42663 67.546 8.2391 69.2244 7.23796C69.6059 7.00722 70.0076 6.81142 70.4244 6.65296C72.0219 6.06046 72.6744 6.24046 73.0644 6.84046C73.1674 6.97162 73.2578 7.11225 73.3344 7.26046C73.3787 7.39411 73.3801 7.53826 73.3384 7.67275C73.2967 7.80723 73.214 7.92531 73.1019 8.01046C72.7878 8.27529 72.4365 8.49261 72.0594 8.65546C69.2096 10.1258 66.6222 12.0568 64.4019 14.3705C62.5945 16.1751 60.8965 18.086 59.3169 20.093L59.2494 20.033Z" fill="#231F20"/>
<path d="M38.2495 44.3255C36.5915 44.3051 34.9362 44.1874 33.292 43.973C31.6094 43.7625 29.9609 43.3365 28.387 42.7055C28.102 42.563 27.802 42.4505 27.532 42.2855L27.1345 42.0005L26.917 41.8655C26.8186 41.7925 26.7303 41.7068 26.6545 41.6105C26.4128 41.3021 26.2436 40.9432 26.1595 40.5605C26.0725 40.2546 26.0024 39.9441 25.9495 39.6305C25.6608 37.531 25.478 35.4183 25.402 33.3005L25.0945 27.0005C25.0045 25.148 24.8845 23.2505 24.7195 21.4505C24.502 19.088 24.2095 16.7405 24.052 14.3855C23.9995 13.6355 24.1795 13.7105 24.502 14.2955C24.7167 14.6925 24.9047 15.1034 25.0645 15.5255C25.2695 16.1273 25.4152 16.7478 25.4995 17.378C26.1028 22.2134 26.4408 27.0781 26.512 31.9505C26.512 33.4055 26.6395 34.8905 26.7745 36.3755C26.8345 37.1255 26.917 37.8755 27.022 38.6255C27.1026 39.3201 27.2483 40.0056 27.457 40.673C27.4824 40.7352 27.5125 40.7954 27.547 40.853C27.5634 40.8872 27.5895 40.9159 27.622 40.9355L28.087 41.2355C28.4095 41.4305 28.7545 41.6105 29.0995 41.783C29.4589 41.9494 29.8299 42.0898 30.2095 42.203C30.5888 42.3257 30.9744 42.4284 31.3645 42.5105C32.9436 42.8572 34.5494 43.0679 36.1645 43.1405C38.1631 43.2447 40.1659 43.2447 42.1645 43.1405C45.2095 42.998 48.2695 42.728 51.277 42.338C53.617 42.038 55.897 41.6255 58.207 41.258L59.707 41.0105C61.6195 40.718 62.287 40.883 62.707 41.1155C62.808 41.1524 62.9059 41.1975 62.9995 41.2505C63.1645 41.453 62.437 41.603 61.0645 41.918C56.977 42.668 52.6045 43.358 48.187 43.8005C44.8877 44.1737 41.5698 44.359 38.2495 44.3555V44.3255Z" fill="#231F20"/>
<path d="M40.4994 89.2005C38.7069 89.2005 36.8994 89.2005 35.0919 89.028C33.2201 88.9132 31.3729 88.5423 29.6019 87.9255C29.2509 87.7896 28.9122 87.624 28.5894 87.4305L28.0344 86.9955C27.9184 86.9199 27.8292 86.8097 27.7794 86.6805C27.7015 86.5649 27.6409 86.4386 27.5994 86.3055C27.5477 86.1826 27.51 86.0543 27.4869 85.923C27.4869 85.833 27.4494 85.728 27.4344 85.6455L27.3594 85.1355C27.3144 84.798 27.2769 84.4755 27.2544 84.1455C26.9169 79.5405 26.8194 75.0105 26.5569 70.4505C26.4519 68.433 26.2944 66.408 26.0994 64.4505C25.8369 61.8855 25.4844 59.343 25.3944 56.7705C25.3569 55.9755 25.6044 56.0205 26.0319 56.6505C26.3134 57.0719 26.564 57.513 26.7819 57.9705C27.0533 58.6049 27.2472 59.2697 27.3594 59.9505C28.067 65.1887 28.4328 70.4673 28.4544 75.753C28.4544 77.343 28.5669 78.963 28.6794 80.583C28.7919 82.203 28.9044 83.853 29.1144 85.368C29.1969 85.818 29.1144 85.668 29.4369 85.9305C29.7545 86.1454 30.0908 86.3312 30.4419 86.4855C31.2249 86.7994 32.0435 87.016 32.8794 87.1305C34.6168 87.397 36.3716 87.5349 38.1294 87.543C40.3044 87.5805 42.4944 87.543 44.6769 87.3855C47.9844 87.1905 51.3144 86.8905 54.5844 86.478C57.1344 86.1555 59.6094 85.728 62.0844 85.293L63.7344 85.0155C64.474 84.8628 65.231 84.8123 65.9844 84.8655C66.3565 84.8789 66.7175 84.9958 67.0269 85.203C67.1376 85.2747 67.2407 85.3576 67.3344 85.4505C67.4394 85.593 67.2819 85.7355 66.9294 85.8855C66.3894 86.1069 65.8326 86.285 65.2644 86.418C60.8244 87.303 56.0694 88.0155 51.2619 88.518C47.6919 88.893 44.0919 89.148 40.4694 89.2305L40.4994 89.2005Z" fill="#231F20"/>
<path d="M67.0648 73.4197L67.1398 70.2622C67.1398 69.8797 67.1398 69.5122 67.1398 69.1147C67.1398 67.7647 67.2148 66.4072 67.1923 65.0497C67.1923 64.4497 67.1173 63.8572 67.0873 63.2572C66.9933 62.5111 66.9682 61.758 67.0123 61.0072C67.0123 60.7747 67.3123 60.7672 67.6198 60.9397C67.8042 61.0376 67.9661 61.1728 68.0953 61.3368C68.2244 61.5009 68.3179 61.69 68.3698 61.8922C68.6819 63.444 68.7853 65.0306 68.6773 66.6097C68.6248 67.5622 68.7673 68.5372 68.8048 69.5047C68.8423 70.4722 68.8573 71.6347 68.8498 72.6997V74.6272C68.8498 75.6172 68.8498 76.6147 68.8498 77.6273C68.8498 78.3773 68.9923 79.1272 69.0523 79.9222C69.0523 80.0947 69.0523 80.2597 69.0523 80.4322C69.0073 81.0772 68.8423 81.2873 68.3848 81.3623C68.2811 81.387 68.1759 81.4046 68.0698 81.4148C67.7248 81.4148 67.4548 81.1448 67.3198 80.7173C67.0777 79.3611 66.9697 77.9845 66.9973 76.6072C66.9973 75.5497 66.9973 74.4922 66.9973 73.4422L67.0648 73.4197Z" fill="#231F20"/>
<path d="M51.075 53.8055C49.125 53.9105 47.17 54.033 45.21 54.173C44.46 54.233 43.7775 54.3305 43.065 54.3755C40.5375 54.5555 37.995 54.683 35.4525 54.698C34.32 54.698 33.2025 54.698 32.055 54.698C31.305 54.698 30.6075 54.698 29.88 54.608C29.1567 54.5218 28.4434 54.3661 27.75 54.143C27.315 54.0005 27.4275 53.8355 27.84 53.7005C28.4601 53.5089 29.1036 53.4029 29.7525 53.3855C32.58 53.5355 35.4675 53.3855 38.385 53.273C40.14 53.228 41.9475 52.973 43.74 52.793C45.7125 52.6055 47.685 52.4255 49.6725 52.283C50.8875 52.193 52.1175 52.133 53.34 52.073C55.1925 51.9905 57.09 51.983 58.905 51.9905C60.345 51.9905 61.7625 51.9905 63.195 52.043C63.51 52.043 63.825 52.043 64.14 52.118C65.3175 52.268 65.64 52.4855 65.8275 52.9505C65.8705 53.0552 65.9056 53.163 65.9325 53.273C65.9325 53.6255 65.4525 53.8205 64.62 53.783C62.16 53.7005 59.58 53.603 56.9625 53.6255C55.02 53.6255 53.055 53.7155 51.09 53.8505L51.075 53.8055Z" fill="#231F20"/>
<path d="M59.9994 65.7705C58.3794 67.743 56.8419 69.813 55.3869 71.943C54.8619 72.693 54.3969 73.5405 53.8869 74.328L52.4994 76.4205L51.8319 77.478L51.5019 78.003L50.9994 78.888C50.8418 79.1761 50.6664 79.4541 50.4744 79.7205L50.2044 80.0805C50.1631 80.1384 50.118 80.1935 50.0694 80.2455L49.9344 80.3355L49.6719 80.523L49.4394 80.643C49.1919 80.643 49.0494 80.523 48.8619 80.4105C48.4102 80.0562 48.0437 79.6051 47.7894 79.0905C47.4594 78.5505 47.0919 77.853 46.9419 77.5905C46.2477 76.2937 45.4737 75.0413 44.6244 73.8405C44.0991 73.0873 43.5359 72.3614 42.9369 71.6655C42.3929 70.9956 41.7653 70.3982 41.0694 69.888C40.6794 69.663 40.7469 69.273 41.4144 69.138C41.9139 69.0854 42.4189 69.1449 42.8925 69.3123C43.3661 69.4797 43.7963 69.7507 44.1519 70.1055C45.5996 71.5267 46.8598 73.1272 47.9019 74.868C48.1644 75.288 48.4194 75.708 48.6519 76.128L49.0194 76.758C49.0644 76.833 49.0194 76.818 49.0194 76.8255V76.9005C49.0336 77.0004 49.0587 77.0985 49.0944 77.193C49.0944 77.193 49.1544 77.373 49.1844 77.3355L49.2819 77.283C49.3324 77.2439 49.3778 77.1985 49.4169 77.148L49.4994 77.058V77.0055L49.5519 76.9155L50.4669 75.363C51.0744 74.3205 51.6819 73.2705 52.3344 72.258C53.7669 70.008 55.2819 67.848 56.8869 65.7405C57.8869 64.4355 58.9144 63.163 59.9694 61.923C61.5874 60.0325 63.3287 58.2511 65.1819 56.5905C66.5963 55.2391 68.1587 54.0516 69.8394 53.0505C70.2194 52.8168 70.6213 52.6209 71.0394 52.4655C72.6294 51.873 73.2894 52.053 73.6794 52.653C73.7802 52.7842 73.8681 52.9248 73.9419 53.073C73.9873 53.2065 73.9893 53.351 73.9476 53.4858C73.9058 53.6205 73.8224 53.7386 73.7094 53.823C73.3982 54.088 73.0494 54.3053 72.6744 54.468C69.8723 55.9173 67.3242 57.8119 65.1294 60.078C63.3245 61.8827 61.629 63.7936 60.0519 65.8005L59.9994 65.7705Z" fill="#231F20"/>
<path d="M40.0568 90.0005C36.6818 90.0005 33.2543 89.8505 29.9093 88.748L29.3168 88.5455L28.7393 88.268C28.3429 88.0777 27.9618 87.857 27.5993 87.608C27.3497 87.39 27.161 87.1109 27.0518 86.798C26.9657 86.5707 26.8956 86.3376 26.8418 86.1005C26.4615 83.9468 26.2334 81.7689 26.1593 79.583L25.8218 73.133C25.7243 71.228 25.5893 69.3155 25.4243 67.433C25.1993 65.0105 24.8993 62.603 24.7268 60.188C24.6743 59.438 24.8543 59.498 25.1768 60.098C25.398 60.5043 25.591 60.9253 25.7543 61.358C25.9637 61.9678 26.1169 62.5954 26.2118 63.233C26.8216 68.1938 27.1696 73.1832 27.2543 78.1805C27.3068 79.6805 27.4043 81.1805 27.5543 82.6805C27.6293 83.4305 27.7193 84.1805 27.8393 84.9305C27.9068 85.2905 27.9743 85.6805 28.0643 85.988C28.1048 86.2428 28.205 86.4844 28.3568 86.693L28.4243 86.738C29.7888 87.6068 31.3229 88.1745 32.9243 88.403C34.5659 88.6801 36.225 88.8405 37.8893 88.883C39.9443 88.943 42.0068 88.883 44.0693 88.778C47.1968 88.598 50.3318 88.283 53.4218 87.878C55.8218 87.5555 58.1618 87.128 60.5243 86.7455L62.0843 86.498C64.0418 86.1905 64.7243 86.348 65.1593 86.588C65.2615 86.6358 65.3572 86.6963 65.4443 86.768C65.5343 86.873 65.3768 86.963 65.0393 87.0605C64.7018 87.158 64.1618 87.3005 63.4568 87.4505C59.2643 88.2005 54.7868 88.9505 50.2568 89.423C46.8968 89.7905 43.5068 90.0455 40.0793 90.083L40.0568 90.0005Z" fill="#231F20"/>
<path d="M77.6021 13.2442C77.6077 13.1735 77.6274 13.1046 77.66 13.0416C77.6926 12.9786 77.7375 12.9227 77.792 12.8773C77.8465 12.8319 77.9095 12.7978 77.9774 12.7771C78.0452 12.7564 78.1165 12.7495 78.1871 12.7567C79.6646 12.8917 77.4521 14.7967 77.6021 13.2442Z" stroke="#231F20" stroke-width="0.5" stroke-miterlimit="10"/>
<path d="M78.7049 65.0254C78.7115 64.9544 78.732 64.8854 78.7654 64.8223C78.7988 64.7593 78.8444 64.7035 78.8995 64.6582C78.9546 64.6128 79.0181 64.5789 79.0864 64.5582C79.1547 64.5376 79.2264 64.5307 79.2974 64.5379C80.7749 64.6729 78.5624 66.5779 78.7049 65.0254Z" stroke="#231F20" stroke-width="0.5" stroke-miterlimit="10"/>
<path d="M71.4072 22.0743C71.52 22.121 71.6103 22.2096 71.6593 22.3214C71.7082 22.4333 71.712 22.5597 71.6697 22.6743C71.2497 23.8443 70.1772 21.6018 71.4072 22.0743Z" fill="#231F20"/>
</svg>
