<svg width="96" height="96" viewBox="0 0 96 96" fill="none" xmlns="http://www.w3.org/2000/svg">
<path d="M19.387 77.9632C19.567 78.8332 19.987 79.6958 20.647 80.3708C20.887 80.6183 21.187 80.7982 21.4645 80.9932C22.4245 81.6682 23.7595 82.0208 25.042 81.9233C25.6195 81.8933 26.1745 81.6982 26.6545 81.4282C26.812 81.3457 26.962 81.2482 27.097 81.1357C27.247 81.0457 27.3895 80.9407 27.532 80.8282C27.7945 80.5957 28.177 80.4533 28.477 80.1833C28.687 80.0333 28.762 80.0932 28.822 80.3857C28.867 80.6557 29.0095 81.3007 28.7095 81.8332C28.147 82.7182 27.157 83.1832 26.2195 83.4682C25.267 83.7532 24.262 83.7457 23.332 83.5282C22.237 83.2582 21.0595 82.9807 20.0995 82.2532C19.072 81.4882 18.277 80.4382 17.8345 79.2532C17.557 78.5257 17.4145 77.7607 17.3995 76.9882C17.377 75.8182 17.6995 74.6782 18.217 73.6657C18.6145 72.8707 19.147 72.0907 19.837 71.5132C19.987 71.3857 20.1445 71.2732 20.3095 71.1682C20.6245 70.9957 20.8495 70.9207 21.037 70.9282C21.232 70.9582 21.3745 71.0407 21.5245 71.1832C21.592 71.2507 21.667 71.3032 21.7195 71.3707C21.8095 71.4832 21.817 71.6182 21.772 71.7832C21.727 71.9482 21.637 72.1732 21.472 72.3307C21.022 72.8707 20.602 73.3132 20.2945 73.7782C19.9795 74.2432 19.792 74.7607 19.5745 75.3532C19.3045 76.1707 19.222 77.0632 19.432 77.9332L19.387 77.9482V77.9632Z" fill="#231F20"/>
<path d="M65.2722 12.0898C65.0547 12.1423 57.6222 15.1798 57.5997 16.5598C57.5772 18.0973 55.4697 15.6448 55.4697 15.6448L63.3372 12.1798L65.2722 12.0973V12.0898Z" fill="#231F20"/>
<path d="M61.5597 21.3305C59.7372 21.6755 56.5046 18.683 54.6071 18.6005C53.1596 18.5405 44.8196 19.868 38.9696 31.493L37.7021 30.7505C37.7021 30.7505 42.4946 22.3505 44.5421 20.978C46.5896 19.6055 56.0472 15.1055 56.0472 15.1055L58.5297 19.028C58.5297 19.028 61.5521 21.3305 61.5521 21.323L61.5597 21.3305Z" fill="#231F20"/>
<path d="M34.5452 59.0841C34.4177 59.0016 28.6352 54.0591 31.6202 50.0991C32.9102 48.3891 37.4402 53.9841 41.6102 54.8241C44.4902 55.4016 38.0177 51.6891 36.5777 49.8066C35.1377 47.9241 31.8527 44.9316 31.8527 44.9316L29.1377 52.6116L29.3702 55.1391L34.5377 59.0916L34.5452 59.0841Z" fill="#231F20"/>
<path d="M49.3802 67.6501L48.0902 67.1401L46.7477 64.5751L46.4102 63.5551L52.0727 57.0226L57.2252 52.0801L58.0502 55.5376C58.0502 55.5376 51.6302 59.5201 48.9677 63.1501C48.1577 64.2526 48.2027 66.3151 49.3802 67.6426V67.6501Z" fill="#231F20"/>
<path d="M29.6176 50.9771C29.6176 50.9771 27.5326 52.3121 27.3226 51.2021L24.7276 51.2996L22.6201 50.7071C22.7701 50.7296 26.5576 51.0821 27.7801 49.3946C29.2951 47.3171 31.3126 42.7946 32.0101 37.6571L34.7701 36.7871L29.6251 50.9696L29.6176 50.9771Z" fill="#231F20"/>
<path d="M59.4522 18.3384C59.9397 18.7734 60.4422 19.2234 61.0047 19.5984C61.2147 19.7334 61.4322 19.8309 61.6497 19.9584C62.3847 20.4309 63.1797 20.8359 64.0122 21.1659C64.3872 21.2934 64.7772 21.3909 65.1597 21.4734C65.4072 21.5259 65.6547 21.5709 65.9022 21.6234C66.1497 21.6909 66.3897 21.8109 66.6297 21.9384C66.7797 22.0284 66.7422 22.2009 66.5847 22.4109C66.4272 22.6134 66.1272 22.9284 65.7897 23.0184C65.4972 23.0559 65.2197 23.0184 64.9347 23.0109C64.6497 22.9959 64.3647 22.9809 64.0947 22.8759C63.5472 22.7184 63.0222 22.4784 62.5197 22.2084C61.9272 21.8559 61.2522 21.6684 60.6447 21.3309C59.9847 20.9484 59.3397 20.5434 58.7547 20.0484C58.3872 19.7634 58.0572 19.4184 57.7122 19.1034C57.2172 18.5934 56.7522 18.0459 56.3322 17.4759C56.1597 17.2584 55.9797 17.0484 55.8072 16.8309C55.7172 16.7184 55.6197 16.6209 55.5372 16.5009C55.4622 16.3809 55.3947 16.2534 55.3272 16.1334C55.2672 16.0209 55.1922 15.9234 55.1547 15.8034C55.0947 15.5709 55.1097 15.4059 55.1922 15.2634C55.2597 15.1284 55.3572 15.0384 55.4997 14.9559C55.5597 14.9184 55.6197 14.8734 55.6797 14.8434C55.8597 14.7534 56.1447 14.8584 56.4672 15.0384C57.2022 15.6234 57.5847 16.2834 58.1472 16.9359C58.5447 17.4234 59.0022 17.8809 59.4972 18.3159L59.4672 18.3534L59.4522 18.3384Z" fill="#231F20"/>
<path d="M37.3955 49.8831C37.763 50.2431 38.1605 50.5656 38.5505 50.9181C38.9555 51.2406 39.3755 51.5556 39.803 51.8706C40.1255 52.0806 40.4705 52.2381 40.793 52.4556C41.933 53.1981 43.118 53.8956 44.3705 54.4656C44.918 54.7281 45.5105 54.9156 46.088 55.0731C46.8455 55.2381 47.5655 55.4556 48.2705 55.8606C48.4955 55.9881 48.4655 56.0931 48.2405 56.2881C48.128 56.3856 47.9555 56.5131 47.7455 56.6556C47.6405 56.7231 47.513 56.8131 47.4005 56.8506C47.2805 56.8881 47.1605 56.9031 47.033 56.9106C46.8155 56.9106 46.583 56.9181 46.3655 56.9106C46.148 56.8956 45.9455 56.8281 45.7355 56.7906C45.3155 56.7006 44.9105 56.5731 44.5055 56.4456C43.703 56.1756 42.923 55.8456 42.1955 55.3956C41.753 55.1406 41.2955 54.9156 40.8305 54.6906C40.358 54.4806 39.8855 54.2556 39.443 53.9931C38.948 53.7156 38.4679 53.4081 38.0029 53.0856C37.5229 52.7781 37.073 52.4256 36.623 52.0731C36.053 51.6681 35.5579 51.1431 35.0329 50.6856L33.938 49.5006C33.608 49.0731 33.2704 48.6531 32.9404 48.2331C32.7079 47.8806 32.4455 47.5506 32.183 47.2206C31.943 46.8681 31.7404 46.4856 31.5379 46.1031C31.4404 45.9381 31.3505 45.7731 31.313 45.5781C31.193 45.2331 31.2905 44.9631 31.373 44.7831C31.463 44.5956 31.598 44.4831 31.7855 44.3781C31.868 44.3331 31.9504 44.2806 32.0329 44.2506C32.2879 44.1531 32.6405 44.3631 33.0455 44.6931C33.863 45.7206 34.4405 46.7331 35.333 47.7231C35.948 48.4731 36.6754 49.1706 37.4404 49.8531L37.4105 49.8981L37.3955 49.8831Z" fill="#231F20"/>
<path d="M16.9126 47.0179C17.5126 46.2379 18.1126 45.4729 18.7501 44.7304C19.3951 44.0029 20.0476 43.2829 20.7151 42.5704C21.1951 42.0454 21.6376 41.4904 22.1401 40.9804C23.0326 40.0804 23.9326 39.2104 24.9901 38.3929C25.2901 38.1904 25.5226 37.9879 25.9126 37.7854C26.0926 37.6804 26.2801 37.6054 26.4601 37.5454L26.9476 37.4029C27.5701 37.2379 28.1776 37.0954 28.7776 36.9529C29.8501 36.6979 30.9076 36.3904 31.9426 36.0604C32.6101 35.8579 33.2476 35.5804 33.9226 35.4229C34.5901 35.2429 35.2351 35.0479 35.9551 35.0254C36.4651 35.1529 36.4351 35.1604 36.2551 35.6929C36.1726 35.9779 35.9926 36.2704 35.7676 36.6079C35.5276 36.9154 35.2126 37.1854 34.8301 37.3654C34.4926 37.5154 34.1626 37.6879 33.8101 37.8004L32.7676 38.1229C32.0701 38.3329 31.3801 38.5204 30.6826 38.6929C29.9851 38.8654 29.2876 39.0304 28.5976 39.1879C27.9301 39.3454 27.1351 39.4804 26.8351 39.6304C26.2576 39.9154 25.5901 40.5454 24.9976 41.1379C24.3976 41.7529 23.8126 42.4054 23.2201 43.0429C21.9001 44.4304 20.6551 45.9079 19.3576 47.3254L18.2776 48.5629C18.2101 48.6679 18.0751 48.7654 18.0901 48.9079C18.1276 49.0354 18.2476 49.1179 18.3676 49.1779C18.4651 49.2379 18.5701 49.2829 18.6826 49.3279C18.7426 49.3579 18.7726 49.3654 18.8701 49.4029L19.1776 49.5004C19.5901 49.6279 20.0176 49.7404 20.4526 49.8379C21.3151 50.0329 22.1926 50.1904 23.0776 50.2954C24.4501 50.4679 25.8151 50.4679 27.1726 50.4754C27.4726 50.4754 27.7651 50.4604 28.0651 50.4604C28.6201 50.4604 28.9726 50.4904 29.2201 50.5879C29.4676 50.7004 29.6176 50.8654 29.7451 51.1129C29.8051 51.2254 29.8876 51.3304 29.9251 51.4429C29.9926 51.6304 29.9251 51.8029 29.7076 51.9754C29.4976 52.1404 29.1526 52.2979 28.7176 52.3354C26.1526 52.5979 23.5276 52.3429 20.8726 51.8554C20.0026 51.6829 19.1551 51.4879 18.2401 51.1879C17.8276 51.0679 17.4301 50.9179 17.0701 50.7379C16.7251 50.5354 16.4101 50.3179 16.2076 50.0404C16.0876 49.9129 16.0276 49.7554 15.9526 49.6054L15.8701 49.3504C15.8626 49.2604 15.8476 49.1704 15.8476 49.0879C15.8401 48.9229 15.8776 48.7579 15.9226 48.6004C15.9451 48.4429 16.0276 48.2779 16.1176 48.1054L16.4926 47.5279L16.6951 47.2354L16.8751 46.9954L16.9201 47.0254L16.9126 47.0179Z" fill="#231F20"/>
<path d="M52.6279 71.6395C52.6279 71.6395 52.6354 71.6395 52.6504 71.602L52.7329 71.437L52.8904 71.107L53.1979 70.4395L53.8054 69.082L54.9829 66.3295C55.2679 65.6545 55.4779 64.957 55.7629 64.2895L57.2629 60.757L57.4054 60.4045C57.4279 60.3445 57.4354 60.292 57.4354 60.217C57.4354 60.1345 57.4354 59.9695 57.4129 59.8195C57.4054 59.6695 57.3829 59.5195 57.3679 59.362C57.2929 58.7395 57.1954 58.102 57.0979 57.457C56.9254 56.317 56.6854 55.1845 56.4679 54.0445C56.3629 53.3095 56.2429 52.5745 56.1829 51.817C56.1604 51.442 56.1979 51.052 56.2204 50.677C56.2504 50.2945 56.3929 49.912 56.5054 49.5295C56.6779 49.0645 56.7754 49.147 57.0679 49.5295C57.2179 49.7245 57.4279 49.987 57.7054 50.287C57.9379 50.587 58.1554 50.9395 58.2829 51.3295L58.7929 53.4295C58.9504 54.1345 59.0554 54.862 59.1829 55.5895C59.3104 56.317 59.4229 57.052 59.5354 57.802C59.5879 58.177 59.6404 58.552 59.6779 58.9495C59.7004 59.137 59.7154 59.347 59.7304 59.557C59.7379 59.7445 59.7679 60.007 59.7454 60.352C59.7454 60.742 59.5654 61.1695 59.4979 61.342L59.2429 62.002C59.0854 62.437 58.9204 62.8795 58.7629 63.3145C58.4554 64.192 58.1254 65.0695 57.7654 65.9245C56.9779 67.807 56.1379 69.6595 55.2379 71.512L54.8329 72.322L54.5854 72.8095L54.2704 73.3945C54.0529 73.7695 53.8204 74.122 53.5504 74.362C53.4154 74.4745 53.2879 74.5945 53.1079 74.632C53.0179 74.6845 52.9279 74.6245 52.8454 74.6245C52.7554 74.6095 52.6654 74.5945 52.5904 74.5645L52.3804 74.452C52.1104 74.3095 51.8629 74.077 51.6079 73.897C51.3754 73.642 51.1429 73.387 50.9179 73.1245L50.4379 72.487L50.0179 71.887C49.4779 71.0845 48.9604 70.267 48.4804 69.442C47.7304 68.1595 46.9579 66.907 46.3654 65.5195C46.2304 65.212 46.1179 64.9045 46.0129 64.582C45.8479 63.9745 45.7804 63.5545 45.8329 63.247C45.9154 62.932 46.0504 62.7445 46.2529 62.5795C46.3429 62.5045 46.4329 62.422 46.5229 62.377C46.6729 62.302 46.8379 62.377 47.0254 62.557C47.2204 62.737 47.4154 63.007 47.5879 63.382C48.6304 65.5645 49.8304 67.867 51.2929 70.0045C51.6304 70.4995 51.9979 70.987 52.3654 71.4295C52.4929 71.5795 52.4704 71.5645 52.4704 71.5645V71.5795C52.4704 71.5795 52.4704 71.602 52.4854 71.6095C52.5079 71.662 52.5304 71.6245 52.5604 71.5945L52.6129 71.6245L52.6279 71.6395Z" fill="#231F20"/>
<path d="M56.4829 31.7184C55.9729 32.5284 55.0354 33.1059 53.8579 33.1209C53.2729 33.1209 52.6804 32.9709 52.1854 32.6559C50.7079 31.7184 50.3029 29.6484 51.3304 28.2234C52.5604 26.5134 54.9154 26.9709 56.1679 28.4259C57.0754 29.4834 57.0829 30.7659 56.4829 31.7184Z" fill="#231F20"/>
<path d="M49.6047 60.8776C48.9372 61.5301 48.2622 62.1826 47.5272 62.8051C47.1672 63.1201 46.7847 63.4276 46.3647 63.7276C46.1547 63.8776 45.9447 64.0276 45.6822 64.1701C45.4722 64.3051 45.0822 64.4701 44.7597 64.5601C43.5372 64.8226 42.4797 64.6351 41.5047 64.4101C40.5297 64.1701 39.6147 63.8176 38.7447 63.4201C36.9972 62.6176 35.3847 61.6351 33.8622 60.5176C32.3472 59.3926 30.9222 58.1551 29.6622 56.6476C29.2122 56.0851 28.7772 55.4926 28.4472 54.7576C28.2822 54.3901 28.1472 53.9776 28.1022 53.4901C28.0572 52.9501 28.1847 52.5451 28.2597 52.2001C28.6197 50.8276 29.0547 49.5751 29.5197 48.3151C31.1772 43.8901 33.0297 39.5626 35.0397 35.2951C36.0447 33.1651 37.0872 31.0501 38.2047 28.9651C39.3297 26.8876 40.4922 24.8251 41.8872 22.8601C42.5322 21.9976 43.1772 21.1276 44.1297 20.3851C45.0147 19.7401 45.8997 19.1926 46.7922 18.6301C48.5847 17.5276 50.4147 16.5001 52.2522 15.5326C54.6222 14.2876 57.0372 13.1176 59.5347 12.1126C62.0322 11.1151 64.6122 10.2526 67.3122 9.90759C69.0147 9.78009 68.8047 10.1101 67.5447 10.8676C66.9147 11.2351 66.0297 11.7376 64.9647 12.2701C63.8997 12.8026 62.6397 13.3351 61.2447 13.8751C56.3172 15.7876 51.5097 18.2401 46.9797 21.0001C46.4172 21.3451 45.8697 21.7051 45.3597 22.0576C44.9772 22.3501 44.5647 22.7776 44.1672 23.2576C43.3722 24.2176 42.6372 25.3276 41.9397 26.4526C40.5372 28.7176 39.2547 31.0951 38.0097 33.5026C36.5247 36.3826 35.1597 39.4126 33.8547 42.4801C32.5647 45.5476 31.2972 48.6826 30.2622 51.7876C30.1272 52.2076 29.9997 52.6426 29.9172 53.0176C29.8797 53.1901 29.8797 53.3026 29.8947 53.4376C29.9097 53.5801 29.9622 53.7451 30.0147 53.9101C30.2922 54.5926 30.7947 55.3126 31.3647 55.9576C32.5197 57.2626 33.9222 58.4026 35.3847 59.4226C36.8622 60.4351 38.4222 61.3276 40.0572 61.9876C40.8747 62.3176 41.7072 62.5801 42.5322 62.7151C42.9447 62.7751 43.3572 62.8051 43.7322 62.7676C43.9272 62.7676 44.0997 62.7151 44.2797 62.6851C44.4147 62.6251 44.5347 62.5876 44.7072 62.4676C45.5247 61.9501 46.3572 61.1476 47.1372 60.3826C47.9247 59.6026 48.6747 58.7701 49.4397 57.9526C50.9472 56.2951 52.4097 54.5776 53.8422 52.8451C56.0022 50.2051 58.1172 47.5126 60.1647 44.7826C61.1847 43.4176 62.1822 42.0376 63.1422 40.6351C63.6222 39.9376 64.0797 39.2251 64.5222 38.5201C64.7397 38.1601 64.9497 37.8076 65.1447 37.4476C65.2272 37.2751 65.3322 37.0876 65.3922 36.9301L65.4897 36.6901L65.5797 36.3901C67.0947 31.3951 67.8822 26.2726 68.1672 21.1426C68.1897 20.5801 68.2122 20.0176 68.2272 19.4551C68.2272 18.8926 68.2347 18.3301 68.2422 17.7676C68.2347 13.5526 68.1822 12.2176 68.6997 11.2426C68.8122 11.0176 68.9172 10.7251 69.0372 10.5901C69.2397 10.3576 69.4797 10.6651 69.7347 11.4301C69.8622 11.8126 69.9972 12.3151 70.1172 12.9226C70.2147 13.5301 70.3197 14.2351 70.4022 15.0376C70.7397 19.8001 70.4247 24.7276 69.5322 29.6101C69.0897 32.0551 68.5122 34.4851 67.7772 36.9151L67.6347 37.3726C67.5747 37.5451 67.4772 37.7926 67.3947 37.9726C67.2372 38.3101 67.0722 38.6251 66.9072 38.9101C66.5772 39.4951 66.2397 40.0276 65.8947 40.5676C65.2047 41.6326 64.4922 42.6601 63.7722 43.6876C61.6197 46.7176 59.3697 49.6501 57.0147 52.5226C54.6522 55.3876 52.2747 58.2301 49.6347 60.9076L49.5897 60.8776H49.6047Z" fill="#231F20"/>
<path d="M58.8671 27.9604L59.1371 28.5229L59.2646 28.8079L59.3396 29.1154C59.3921 29.3179 59.4371 29.5204 59.4746 29.7229L59.4971 30.3454C59.4821 31.1704 59.2571 31.9729 58.8371 32.6254C58.7021 32.8804 58.5446 33.1054 58.3646 33.3229C58.1996 33.5554 58.0046 33.7504 57.7871 33.9379C57.0371 34.5829 56.0921 34.9804 55.1171 35.0779C54.1271 35.1754 53.1821 34.8754 52.3571 34.4554C51.6371 34.0654 50.9171 33.4354 50.5571 32.6479C50.3321 32.1454 50.1971 31.6279 50.1521 31.1179C50.1446 30.6004 50.2721 30.1054 50.4296 29.6479C50.5346 29.3554 50.7146 29.4229 50.9696 29.6779C51.2096 29.9329 51.6296 30.3679 51.8621 30.7804C51.9821 31.1554 52.0946 31.4929 52.2596 31.7479C52.4396 31.9954 52.5371 32.2279 52.7396 32.4229C52.9346 32.6104 53.2046 32.8354 53.5346 32.9629C53.8421 33.1354 54.1721 33.2479 54.5246 33.3379C55.3796 33.5104 56.3321 33.0679 56.9396 32.3854C57.2921 32.0104 57.5021 31.5379 57.6446 31.0654C57.7346 30.5779 57.7421 30.0754 57.5771 29.5954C57.3521 29.0254 56.9846 28.4554 56.4221 28.0429C55.6796 27.3829 54.6071 27.1504 53.6771 27.4954C53.3171 27.6304 53.0096 27.8629 52.7546 28.1254C52.5146 28.4104 52.3121 28.7104 52.1621 29.0329C52.0721 29.1604 52.0496 29.3254 51.9671 29.4529C51.8921 29.5804 51.8546 29.7004 51.7946 29.7829C51.7271 29.8654 51.6446 29.9329 51.5771 29.9854C51.4421 30.0979 51.2246 30.1354 50.9696 30.1579C50.8571 30.1654 50.7521 30.1954 50.6621 30.2029C50.4146 30.2329 49.9871 29.8354 50.0171 29.1454C50.0471 28.8979 50.0846 28.6429 50.1596 28.3954C50.2271 28.1404 50.3171 27.8929 50.4446 27.6454C50.7071 27.1729 51.0821 26.7454 51.5171 26.3854C52.4021 25.6729 53.5796 25.2679 54.7646 25.3354C55.6421 25.3729 56.5196 25.6804 57.2246 26.1829C57.5696 26.4304 57.8321 26.7004 58.1321 26.9629C58.4021 27.2554 58.6571 27.5929 58.8896 27.9304L58.8521 27.9604H58.8671Z" fill="#231F20"/>
<path d="M36.6678 84.7801C39.8328 84.8851 43.3428 78.7801 36.1953 75.3301C36.1953 75.3301 38.8203 75.8026 40.0278 76.7251C41.2353 77.6476 42.2553 80.0251 42.0828 80.9626C41.9103 81.9001 41.0628 83.6251 40.5078 84.0151C39.9528 84.4051 36.6678 84.7801 36.6678 84.7801Z" fill="#231F20"/>
<path d="M18.4504 71.1009C14.8354 70.1334 14.6179 67.3959 15.0154 66.4659C15.6004 65.1084 17.3029 64.4259 19.0879 65.1384L18.7879 64.0809C18.7879 64.0809 16.1779 63.4134 14.6629 64.2909C13.1479 65.1684 13.2304 66.6609 13.1404 67.4709C13.0504 68.2734 14.3029 70.2234 14.3029 70.2234L18.4429 71.1009H18.4504Z" fill="#231F20"/>
<path d="M26.0398 63.8479C25.6498 64.2604 25.2298 64.6504 24.8173 65.0479C24.6673 65.1904 24.5398 65.3629 24.3823 65.4979C23.8198 65.9854 23.1598 66.3679 22.5223 66.7504C22.2223 66.9079 21.9598 67.1029 21.6673 67.2679C21.4723 67.3654 21.2698 67.4404 21.0598 67.5004C20.8498 67.5529 20.5948 67.5004 20.3773 67.4704C20.2348 67.4404 20.2423 67.3579 20.3023 67.1854C20.3698 67.0129 20.4523 66.6904 20.5648 66.4579C20.6923 66.2929 20.8273 66.2029 20.9473 66.0529C21.0748 65.9254 21.2398 65.8729 21.3823 65.7604C21.6823 65.5729 21.9973 65.3704 22.3348 65.1829C22.5373 65.0704 22.7173 64.9129 22.8748 64.7404L23.3773 64.2304C23.7598 63.8704 24.1423 63.4879 24.5098 63.0979C24.7348 62.8504 24.9598 62.6104 25.1773 62.3479C25.4998 61.9579 25.8373 61.5679 26.0998 61.1404C26.3173 60.8179 26.4598 60.4504 26.6473 60.1054C26.6848 60.0304 26.7148 59.9479 26.7823 59.8879C26.8948 59.7679 27.0073 59.7154 27.1423 59.7154C27.2623 59.7079 27.3673 59.7154 27.4873 59.7604C27.5398 59.7754 27.5923 59.7829 27.6373 59.8054C27.7723 59.8579 27.8548 60.0679 27.9298 60.3979C27.9748 60.8479 27.8173 61.1779 27.7048 61.5529C27.6373 61.7329 27.5698 61.9129 27.4873 62.0779C27.3898 62.2354 27.2773 62.3929 27.1723 62.5504C26.8423 63.0079 26.4673 63.4429 26.0998 63.8779L26.0698 63.8554L26.0398 63.8479Z" fill="#231F20"/>
<path d="M14.1296 70.9509C13.6196 70.5084 13.1696 69.9834 12.8396 69.3759C12.5171 68.7609 12.2996 68.0784 12.2621 67.3659C12.2396 66.8484 12.2621 66.3159 12.4421 65.8209C12.7496 64.9509 13.3796 64.2534 14.0771 63.7809C14.7746 63.3009 15.5846 63.0234 16.4246 62.9409C17.1596 62.8659 17.9471 62.9409 18.6371 63.2559C18.8621 63.3459 19.0796 63.4584 19.2821 63.6009C19.4921 63.7284 19.6871 63.8784 19.8371 64.0659C20.0021 64.2459 20.1071 64.4559 20.1971 64.6809C20.2871 64.9059 20.3021 65.1534 20.3471 65.3709C20.3846 65.6559 20.2646 65.6634 19.9571 65.5959C19.7996 65.5659 19.5821 65.5284 19.3421 65.4984C19.2221 65.4834 19.0721 65.4984 18.9671 65.4759C18.8621 65.4534 18.7646 65.4234 18.6896 65.3784C18.6146 65.3484 18.5321 65.3259 18.4646 65.2959C18.4046 65.2584 18.3596 65.1984 18.2996 65.1684C18.1796 65.1084 18.0746 65.0109 17.9471 64.9809C17.7146 64.8534 17.4521 64.8309 17.1896 64.7559C16.6571 64.6584 16.0046 64.6959 15.3671 64.9284C14.5796 65.1984 14.0846 65.9409 13.9196 66.6759C13.8296 67.0884 13.8446 67.5309 13.9721 67.9659C14.1146 68.3934 14.3696 68.8059 14.6996 69.1659C15.0896 69.6009 15.6221 69.9759 16.1921 70.2834C17.0396 70.7484 17.9846 71.0334 18.9521 71.0259C19.7096 71.0259 20.4296 70.7859 21.1646 70.6059C21.3296 70.5684 21.4871 70.5159 21.6521 70.4859C21.9671 70.4259 22.1771 70.4034 22.3421 70.4559C22.5146 70.5309 22.6421 70.6284 22.7546 70.7784C22.8071 70.8459 22.8671 70.8984 22.9046 70.9584C22.9721 71.0634 22.9496 71.1759 22.8671 71.3334C22.7846 71.4834 22.6496 71.7009 22.4246 71.8209C22.0946 72.0234 21.7496 72.2109 21.3896 72.3834C21.0221 72.5559 20.6246 72.6534 20.2121 72.7359C19.3946 72.9159 18.4796 72.9084 17.6021 72.7134C16.9496 72.5859 16.3121 72.3459 15.7346 72.0459C15.1421 71.7384 14.6396 71.4159 14.0996 70.9884L14.1221 70.9509H14.1296Z" fill="#231F20"/>
<path d="M38.0478 84.1344C39.0378 83.7969 39.9003 83.1294 40.3953 82.1994C40.5753 81.8619 40.6353 81.5094 40.6953 81.1494C40.9128 79.8819 40.3503 78.3219 39.2253 77.3394C38.7453 76.8969 38.1453 76.5594 37.5153 76.4244C37.3128 76.3794 37.1178 76.3644 36.9153 76.3194C36.7128 76.2894 36.5103 76.3194 36.3078 76.2969C36.2028 76.2819 36.1053 76.3119 36.0003 76.3194L35.6778 76.2969C35.5653 76.2819 35.4603 76.2969 35.3478 76.3044C35.2353 76.3044 35.1003 76.2594 34.9653 76.2519C34.6203 76.1844 34.6653 76.2294 34.8153 75.9369C34.8903 75.8019 34.9728 75.4869 35.1603 75.2619C35.2503 75.1344 35.3628 75.0369 35.4903 74.9244C35.5578 74.8644 35.6253 74.8269 35.7003 74.7594C35.7753 74.7294 35.8578 74.6919 35.9403 74.6694C36.2328 74.5944 36.5478 74.5644 36.8553 74.5119C37.1628 74.4969 37.4778 74.5119 37.7928 74.5344C38.0928 74.6019 38.3928 74.6994 38.6853 74.7894C38.9628 74.9094 39.2403 75.0444 39.5103 75.1794C40.5753 75.7719 41.3703 76.7319 41.8503 77.7894C42.4053 79.0419 42.8478 80.5194 42.4803 81.9744C42.0378 83.5344 40.9578 84.7719 39.6378 85.4994C38.8128 85.9194 37.9278 86.1969 37.0278 86.2644C35.6628 86.3919 34.2828 86.0469 33.1053 85.3869C32.1678 84.9069 31.3653 84.2019 30.7203 83.3619C30.5928 83.1669 30.4503 82.9869 30.3303 82.7844C29.9928 81.9819 30.1278 81.6444 30.4353 81.3669C30.5028 81.3069 30.5553 81.2394 30.6078 81.1944C30.7053 81.1269 30.8253 81.1569 31.0203 81.2319C31.2228 81.3069 31.4253 81.4494 31.5828 81.6519C32.5428 82.8669 33.5853 83.7969 34.9428 84.1719C35.9328 84.4494 37.0353 84.4194 38.0178 84.0744L38.0403 84.1194L38.0478 84.1344Z" fill="#231F20"/>
<path d="M35.4222 72.5471C35.7147 72.1346 36.0222 71.7296 36.3222 71.3396C36.4272 71.1971 36.5097 71.0321 36.6222 70.8971C37.0347 70.4096 37.4622 69.9371 37.8897 69.4796C38.0772 69.2771 38.2497 69.0596 38.4222 68.8496C38.5347 68.7221 38.6397 68.5721 38.7672 68.4521C38.9022 68.3396 39.0522 68.2346 39.2097 68.1446C39.3072 68.0921 39.3597 68.1596 39.3897 68.3096C39.4122 68.4521 39.4422 68.6996 39.3747 68.8871C39.0522 69.4946 38.6922 70.0496 38.2647 70.5821C38.0022 70.8971 37.8672 71.3096 37.6797 71.6771C37.4772 72.0821 37.2672 72.4946 37.0797 72.9071C36.9597 73.1621 36.8397 73.4171 36.7422 73.6871C36.5847 74.0846 36.3972 74.4821 36.3147 74.9021C36.2472 75.2321 36.2997 75.5846 36.3222 75.9296C36.3222 76.0046 36.3522 76.0871 36.3222 76.1546C36.2397 76.4096 36.0747 76.4546 35.5497 76.3796L35.2047 76.3346C34.8447 76.2746 34.5072 76.0721 34.4097 75.8246C34.2147 75.4496 34.2822 75.1346 34.3272 74.8046C34.3872 74.4821 34.5072 74.1596 34.6347 73.8521C34.8222 73.3871 35.0997 72.9521 35.3697 72.5246L35.4072 72.5396L35.4222 72.5471Z" fill="#231F20"/>
<path d="M32.5051 68.0172C32.2951 68.2872 32.0851 68.5647 31.9051 68.8497C31.8376 68.9547 31.8151 69.0822 31.7476 69.1872C31.4701 69.5472 31.2001 69.9222 30.9976 70.3272C30.9001 70.5072 30.8626 70.7022 30.7951 70.8897C30.7126 71.1297 30.6376 71.3697 30.4651 71.5947C30.4126 71.6622 30.2851 71.6322 30.1426 71.5347C30.0076 71.4372 29.8201 71.2722 29.7826 71.1072C29.6251 70.5147 29.7826 69.9747 30.0451 69.4722C30.2176 69.1797 30.2251 68.8197 30.3601 68.5047C30.5101 68.1597 30.6901 67.8297 30.8776 67.5072C30.9976 67.3122 31.1101 67.1097 31.2226 66.9147C31.3876 66.6072 31.6126 66.3372 31.7701 66.0372C31.8976 65.8047 31.9351 65.5272 32.0401 65.2722C32.0626 65.2197 32.0776 65.1597 32.1076 65.1072C32.2201 64.9197 32.4151 64.9647 32.7226 65.1222L32.9401 65.2347C33.1651 65.3697 33.3226 65.5797 33.3751 65.7897C33.4351 66.3522 33.2476 66.7497 33.0751 67.1697C32.9551 67.4847 32.7076 67.7247 32.5351 68.0172L32.4976 68.0022L32.5051 68.0172Z" fill="#231F20"/>
<path d="M83.6321 35.94C83.3546 36.4275 82.7996 36.6825 82.3046 36.7425C82.1246 36.7575 81.9371 36.795 81.7571 36.7425C81.1196 36.585 80.7446 35.9925 80.7071 35.4525C80.6921 35.2125 80.6771 34.98 80.7446 34.7475C80.7896 34.4775 80.9321 34.1325 81.2696 34.0575C81.3746 34.035 81.4946 34.305 81.6296 34.56C81.7496 34.815 81.9521 35.025 81.9746 35.0325C82.0646 35.1225 81.9296 35.01 81.8471 35.2275C81.8096 35.3625 81.9296 35.3625 82.0046 35.3775C82.0871 35.4075 82.2146 35.4 82.3196 35.3325C82.3871 35.295 82.4471 35.22 82.4621 35.1375C82.4996 35.01 82.4621 34.8525 82.3496 34.7625C82.2596 34.71 82.1171 34.695 82.0271 34.7025C82.0046 34.7025 81.9896 34.7175 81.9746 34.7175C81.9146 34.7025 81.8846 34.62 81.7871 34.395L81.7196 34.245C81.6446 34.0875 81.6596 33.8925 81.8396 33.7725C82.1096 33.615 82.4546 33.6 82.7546 33.69C83.0846 33.75 83.4146 34.02 83.6171 34.335C83.9171 34.8 84.0146 35.475 83.6771 35.955L83.6396 35.94H83.6321Z" fill="#231F20"/>
<path d="M76.088 39.322C75.818 39.7795 75.4355 40.042 75.008 40.1245C74.8505 40.1545 74.708 40.2145 74.5355 40.1845C74.243 40.1545 73.9505 40.0195 73.7555 39.817C73.5605 39.622 73.448 39.397 73.3955 39.187C73.3505 38.9995 73.3055 38.8195 73.298 38.632C73.2755 38.407 73.3055 38.0845 73.583 37.957C73.673 37.9195 73.853 38.137 74.0555 38.332C74.1605 38.4295 74.2655 38.5195 74.363 38.5795C74.4305 38.617 74.393 38.5945 74.408 38.6095C74.423 38.6095 74.4305 38.617 74.438 38.6245C74.5055 38.6545 74.618 38.647 74.603 38.647C74.603 38.647 74.498 38.692 74.453 38.7445C74.423 38.7745 74.4155 38.8045 74.423 38.782C74.4305 38.767 74.423 38.6695 74.4305 38.692C74.438 38.692 74.5205 38.7145 74.5805 38.707C74.618 38.707 74.6555 38.6995 74.6705 38.677C74.708 38.662 74.7155 38.557 74.633 38.5045C74.573 38.4595 74.468 38.5045 74.4455 38.557C74.4455 38.5645 74.4305 38.587 74.4305 38.587C74.4305 38.5195 74.4005 38.3995 74.303 38.1145L74.228 37.927C74.1455 37.7245 74.1455 37.4995 74.318 37.327C74.5805 37.0645 74.933 37.0945 75.233 37.162C75.5405 37.237 75.8255 37.432 76.0055 37.732C76.3055 38.1445 76.3505 38.857 76.0955 39.3445L76.058 39.3295L76.088 39.322Z" fill="#231F20"/>
<path d="M76.6877 53.7384C76.5527 54.2409 76.1402 54.6084 75.7202 54.7884C75.5627 54.8409 75.4202 54.9609 75.2477 54.9459C75.0602 54.9459 74.8802 54.9084 74.7152 54.8334C74.5427 54.7659 74.4077 54.6384 74.2652 54.5484C74.1452 54.4284 74.0552 54.2784 73.9877 54.1359C73.9052 53.9409 73.8077 53.7684 73.7927 53.5659C73.7627 53.4459 73.7477 53.3184 73.7402 53.1834C73.7627 53.0559 73.8152 52.9284 73.9352 52.8459C74.0102 52.7934 74.2202 52.9284 74.4677 53.0709C74.7077 53.2134 74.9702 53.2959 74.9777 53.2884H75.0452C75.0452 53.2884 75.0302 53.2884 75.0077 53.2959C74.9852 53.3184 74.9477 53.3634 74.9402 53.4609C74.9402 53.5059 74.9552 53.5284 74.9777 53.5434C75.0152 53.5509 75.0527 53.5434 75.0977 53.5434C75.1727 53.5434 75.2627 53.5134 75.3302 53.4384C75.3752 53.3934 75.4052 53.3259 75.4052 53.2509C75.4052 53.1384 75.3527 53.0259 75.2552 52.9509C75.1727 52.8759 75.0602 52.8609 74.9627 52.8534C74.9402 52.8534 74.9177 52.8534 74.9027 52.8534C74.8277 52.8384 74.7902 52.8009 74.7077 52.6734L74.6552 52.5909C74.6027 52.5009 74.6177 52.3809 74.7377 52.2909C74.9177 52.1559 75.1652 52.0809 75.4127 52.0884C75.5402 52.0884 75.6677 52.1184 75.7952 52.1634C75.8702 52.1709 75.9002 52.2384 76.0202 52.2309C76.0877 52.2759 76.1552 52.3209 76.2152 52.3734C76.5902 52.6809 76.8002 53.2209 76.7177 53.7459H76.6802L76.6877 53.7384Z" fill="#231F20"/>
<path d="M37.6204 17.8116C37.4179 18.3216 37.0204 18.6966 36.5929 18.9066C36.4354 18.9816 36.2854 19.0866 36.1129 19.1091C35.4529 19.2066 34.7929 18.9216 34.4629 18.3441C34.3204 18.0891 34.2378 17.7666 34.2678 17.4966C34.2828 17.3166 34.3204 17.1291 34.4254 16.9641C34.5304 16.7991 34.7254 16.6566 34.9429 16.6491C35.0929 16.6491 35.1229 16.9941 35.2279 17.3166C35.2504 17.3841 35.3029 17.4966 35.3179 17.5191V17.5341C35.3179 17.5341 35.3629 17.5716 35.3854 17.5866C35.4379 17.6241 35.4829 17.6391 35.4829 17.6316C35.4829 17.6316 35.4304 17.6316 35.3854 17.6466L35.3553 17.6616L35.4679 17.6016C35.4679 17.6016 35.4978 17.5791 35.5128 17.5641C35.5428 17.5416 35.5954 17.4366 35.5879 17.4591C35.5654 17.5191 35.5954 17.5416 35.6179 17.5416C35.6329 17.5416 35.6629 17.5266 35.7079 17.5266C35.8054 17.5266 35.9178 17.4891 36.0078 17.3916C36.0603 17.3316 36.1054 17.2566 36.1129 17.1666C36.1279 17.0391 36.0904 16.8816 35.9629 16.7991C35.8654 16.7316 35.7153 16.7766 35.6328 16.8216C35.6178 16.8366 35.5953 16.8516 35.5803 16.8591C35.5278 16.8891 35.5053 16.7766 35.4078 16.4391L35.3329 16.2141C35.2954 16.0941 35.2729 15.9741 35.2954 15.8541C35.3179 15.7341 35.3704 15.5991 35.4679 15.5391C36.0904 15.0816 37.0354 15.5166 37.4479 16.1616C37.7704 16.6491 37.8229 17.2716 37.6654 17.7966L37.6278 17.7816L37.6204 17.8116Z" fill="#231F20"/>
</svg>
