<svg width="96" height="96" viewBox="0 0 96 96" fill="none" xmlns="http://www.w3.org/2000/svg">
<path d="M33.5179 28.1467C33.1204 28.1467 23.8204 27.1042 23.6029 27.2017C23.3854 27.2992 15.9004 31.7467 15.9004 31.7467L33.7654 32.2567L33.5104 28.1467H33.5179Z" fill="#231F20"/>
<path d="M54.7954 25.7927L67.9729 24.8477L54.5029 33.2327L54.7954 25.7927Z" fill="#231F20"/>
<path d="M61.8975 83.3628C61.8975 83.3628 66.7425 85.3128 67.3425 84.5778C68.01 83.7603 66.915 81.3828 66.915 81.3828L70.05 86.8503L62.4525 84.3003L61.905 83.3628H61.8975Z" fill="#231F20"/>
<path d="M78.0003 80.1525C80.4678 78.8625 78.9003 75.2925 76.1328 75.4275C76.1328 75.4275 80.4303 72.825 81.5328 73.26C82.6353 73.695 83.5278 76.575 83.4153 77.19C83.3028 77.805 79.8903 79.845 79.8903 79.845L78.0078 80.16L78.0003 80.1525Z" fill="#231F20"/>
<path d="M26.8954 80.0399C23.0329 79.7999 23.3929 74.0624 23.9329 73.9199C23.9329 73.9199 19.6429 73.3349 18.8029 73.5149C17.9629 73.6949 17.7379 78.6899 18.3904 79.3949C19.0429 80.0999 24.5704 80.3024 24.5704 80.3024L26.8954 80.0399Z" fill="#231F20"/>
<path d="M67.9204 23.6558C68.3554 23.7083 68.5954 23.8508 68.7754 23.9858C68.9629 24.1358 69.0304 24.2258 69.1429 24.4733C69.1429 24.6683 69.0904 24.8258 69.0604 24.9983L69.0454 25.0658L68.9629 25.1633L68.7979 25.3658L68.4679 25.7633C68.0329 26.0933 67.5679 26.4083 67.1329 26.7233L65.9854 27.5408L65.6029 27.8108L65.2579 28.0283C63.6304 29.0333 61.9579 29.9483 60.2929 30.8558C59.5429 31.2458 58.8079 31.6658 58.0804 32.0708C57.1504 32.6033 56.2279 33.1733 55.1404 33.4058C54.7954 33.4583 54.7729 33.3233 54.9154 32.9783C55.0354 32.6033 55.3354 32.0558 55.8304 31.6958C57.6529 30.5258 59.5129 29.4458 61.4779 28.4858C62.6479 27.9008 63.7429 27.0908 64.8454 26.3558L65.5204 25.9358L66.0079 25.6133L66.1429 25.5233C66.1429 25.5233 66.1954 25.4933 66.2029 25.4708C66.2029 25.4483 66.1804 25.4408 66.1654 25.4333C66.0979 25.4108 66.0229 25.4033 65.9404 25.3958C65.6029 25.3583 65.1904 25.3508 64.7179 25.3583C63.4054 25.4033 61.9804 25.4483 60.6304 25.5683C59.5729 25.6658 58.5454 25.8683 57.5029 26.0333C57.2704 26.0708 57.0529 26.1233 56.8204 26.1458C55.9654 26.2583 55.6729 26.1308 55.4479 25.6883C55.3954 25.5983 55.3354 25.5083 55.2979 25.4258C55.1929 25.1933 55.5079 24.7283 56.1304 24.5858C57.9829 24.1133 59.9554 23.8958 61.9504 23.7458C62.6929 23.6933 63.4354 23.6483 64.1779 23.6183L64.8979 23.5883C65.2579 23.5733 65.6329 23.5508 65.9779 23.5508C66.6904 23.5508 67.3654 23.5508 67.9429 23.6108L67.8904 23.6558H67.9204Z" fill="#231F20"/>
<path d="M60.3597 81.3831C60.3597 81.3831 55.5897 81.3306 56.2947 82.5831C56.9997 83.8356 69.0222 87.7731 69.0222 87.7731L61.7472 84.2181L60.3597 81.3831Z" fill="#231F20"/>
<path d="M59.895 77.2804C60.4275 78.7279 60.9675 80.1679 61.545 81.5929C61.755 82.1104 62.0325 82.5979 62.25 83.1004L62.3775 83.3854C62.3775 83.3854 62.4 83.4529 62.415 83.4829C62.4825 83.5429 62.445 83.5354 62.7225 83.6629L64.0575 84.2404C64.965 84.6229 65.8875 84.9829 66.8175 85.3204C67.6425 85.6279 68.4975 85.8454 69.3225 86.1004L70.935 86.5354C71.205 86.6104 71.46 86.7304 71.7225 86.8279C71.985 86.9254 72.24 87.0454 72.48 87.2254C72.7875 87.4429 72.735 87.5104 72.39 87.7129C72.0375 87.9604 71.3925 88.2679 70.71 88.2304C68.3775 87.8779 66.1875 87.1054 64.0425 86.1454C63.405 85.8529 62.7375 85.6129 62.04 85.3354C61.9425 85.2904 61.89 85.2829 61.755 85.2154L61.3575 85.0129C61.08 84.8854 60.9375 84.6229 60.78 84.3679L60.6225 84.0604L60.5025 83.8129L60.2775 83.3179C59.6475 81.8779 59.04 80.4379 58.455 78.9829L57.3825 76.3054C56.835 74.9554 56.355 73.5754 55.7925 72.2404C55.365 71.1979 54.84 70.2229 54.3825 69.1954C54.285 68.9704 54.165 68.7529 54.075 68.5204C53.79 67.6429 53.85 67.3054 54.255 66.9754C54.345 66.9004 54.435 66.8104 54.5325 66.7504C54.855 66.5554 55.275 66.8104 55.6425 67.3804C56.6775 69.0829 57.4275 71.0029 58.2225 72.9229C58.815 74.3479 59.355 75.8029 59.9175 77.2504L59.8725 77.2729L59.895 77.2804Z" fill="#231F20"/>
<path d="M63.0296 68.752C64.1921 71.857 65.3997 74.947 66.7047 77.992C67.1847 79.102 67.7171 80.182 68.2271 81.2695C68.6696 82.2145 69.1121 83.152 69.5921 84.0595C69.8321 84.5095 70.0796 84.9594 70.3421 85.3794C70.4696 85.6044 70.6121 85.777 70.7396 85.972L70.9271 86.197C70.9721 86.257 71.0021 86.2645 71.0396 86.3095C71.1371 86.362 71.1821 86.3695 71.4146 86.3695C71.6246 86.362 71.8646 86.3395 72.1046 86.287C72.5921 86.197 73.0946 86.0695 73.5971 85.912C74.6021 85.6045 75.6071 85.2145 76.5971 84.8095C78.3296 84.0895 80.0321 83.2345 81.6746 82.342C82.7246 81.757 83.7821 81.172 84.8321 80.587C85.8821 79.9945 86.9246 79.3945 88.0646 78.952C88.8221 78.7495 88.7996 78.892 88.4621 79.5669C88.2971 79.9119 88.0121 80.3245 87.6521 80.7895C87.2696 81.232 86.7596 81.652 86.1596 82.0195C85.0871 82.6645 84.0071 83.302 82.9046 83.887C81.7946 84.4645 80.6696 85.012 79.5221 85.537C78.3746 86.0545 77.2121 86.542 76.0121 86.9845C74.8046 87.412 73.6046 87.8245 72.2096 88.027C71.9471 88.057 71.6696 88.0869 71.3621 88.0869C71.0546 88.0869 70.5821 88.0195 70.2296 87.832C70.0271 87.667 69.7647 87.5019 69.6522 87.3369C69.5172 87.1869 69.3821 87.037 69.2921 86.8945C69.0746 86.602 68.8947 86.317 68.7147 86.032C68.3622 85.462 68.0397 84.8845 67.7247 84.307C67.1022 83.1445 66.5321 81.9745 65.9921 80.797C64.5971 77.722 63.3371 74.5945 62.1221 71.4595C61.3721 69.532 60.6596 67.5895 59.9471 65.647C58.8671 62.707 57.8547 59.722 56.8497 56.782C56.0622 54.4945 55.2297 52.2745 54.4947 49.987C54.3297 49.4845 54.1646 48.997 54.0146 48.487C53.4971 46.582 53.5046 45.922 53.8346 45.412C53.9021 45.2995 53.9547 45.157 54.0072 45.082C54.1722 44.8495 54.7572 45.532 55.2447 46.8745C56.6547 50.8945 58.1247 55.0945 59.6097 59.3245C60.7197 62.467 61.8521 65.6245 63.0596 68.7445L63.0221 68.767L63.0296 68.752Z" fill="#231F20"/>
<path d="M26.2646 28.2979L24.9221 28.1404L23.8121 28.0354C23.8121 28.0354 23.7821 28.0354 23.7596 28.0504L23.6021 28.1254C23.2796 28.2904 22.9571 28.5154 22.6196 28.6954C22.0196 29.0179 21.4046 29.3404 20.7896 29.6479L18.9146 30.5404C18.3596 30.8029 17.8121 31.0954 17.2646 31.3654C16.5746 31.7404 15.8171 32.0779 14.9546 31.9954C14.6921 31.9729 14.7146 31.9129 14.8646 31.6879C15.0146 31.4779 15.2246 30.9754 15.5771 30.7504C15.8771 30.4879 16.2146 30.3304 16.5521 30.1579L17.5721 29.6254C18.2546 29.2654 18.9521 28.9054 19.6721 28.5754C20.5346 28.1779 21.3521 27.6304 22.2071 27.1429L22.7396 26.8504L23.0246 26.7079C23.1371 26.6404 23.3096 26.5879 23.4521 26.5354C23.5871 26.5354 23.7371 26.5054 23.8571 26.5129L24.1346 26.5279L24.6596 26.5654L25.6871 26.6629L27.6671 26.8804C28.6646 26.9854 29.6621 27.1204 30.6521 27.1804C31.4246 27.2329 32.1896 27.1954 32.9546 27.1954C33.1271 27.1954 33.2846 27.2029 33.4571 27.2254C33.7721 27.2704 33.9746 27.3229 34.1096 27.4204C34.2446 27.5404 34.3121 27.6679 34.3646 27.8404C34.3871 27.9154 34.4171 27.9904 34.4321 28.0654C34.4471 28.1854 34.3871 28.2829 34.2671 28.3879C34.1396 28.4854 33.9521 28.6129 33.7196 28.6354C33.0221 28.7854 32.3171 28.8004 31.6121 28.7704C30.8996 28.7479 30.1871 28.7029 29.4746 28.6354C28.4171 28.5304 27.3446 28.4254 26.2796 28.3204V28.2829L26.2646 28.2979Z" fill="#231F20"/>
<path d="M13.508 82.582C13.193 82.657 6.84796 83.287 7.23796 85.042C7.73296 87.2545 26.123 88.072 26.123 88.072C26.123 88.072 15.698 85.642 14.723 84.937C13.748 84.232 13.508 82.5895 13.508 82.5895V82.582Z" fill="#231F20"/>
<path d="M29.4746 87.8182C29.4746 87.8182 32.0621 88.4632 36.6071 88.1107C40.6046 87.8032 33.3521 86.9707 33.3521 86.9707L29.4746 87.8182Z" fill="#231F20"/>
<path d="M12.7872 68.8275C12.8922 64.1475 13.0347 59.475 13.1997 54.795C13.2597 53.0925 13.2597 51.3825 13.3347 49.68C13.4622 46.7925 13.6197 43.9125 13.8072 41.025L14.1222 36.6975L14.3172 34.53L14.4297 33.4425L14.4972 32.835L14.6022 32.0175L14.7672 31.5675C14.8347 31.4325 14.8422 31.2375 15.0147 31.1775C15.3897 30.975 15.8997 30.96 16.4097 30.975L17.0697 30.9975L17.5797 31.0275L19.5897 31.1475C20.9247 31.23 22.2447 31.305 23.5647 31.3575C25.2522 31.455 26.9472 31.5075 28.6422 31.5675C30.3372 31.6275 32.0172 31.6425 33.7122 31.8675C34.7697 32.13 34.6422 32.1525 33.7572 32.595C33.3147 32.8275 32.6772 33.0525 31.9047 33.3C31.1322 33.51 30.2172 33.63 29.2272 33.6525C26.7972 33.675 24.3747 33.675 21.9672 33.51L18.3672 33.2625L16.7922 33.1575C16.7922 33.1575 16.6722 33.1125 16.6647 33.18L16.6497 33.2175C16.6497 33.2175 16.6497 33.21 16.6197 33.3825L16.5222 34.1625L16.3497 35.7375C16.2447 36.795 16.1397 37.86 16.0347 38.925C15.6372 43.0725 15.5922 47.43 15.4422 51.6975C15.2772 56.3925 15.1272 61.095 15.0222 65.7975C14.9547 68.6925 14.9022 71.5875 14.8797 74.475V79.4475L14.9097 81.9225L14.9397 83.145C14.9547 83.34 14.9547 83.5575 14.9772 83.7375C14.9997 83.91 14.9922 84 15.0522 84.1125C15.1422 84.255 15.2547 84.315 15.4047 84.42C15.5997 84.54 15.8097 84.645 16.0347 84.7425C16.4922 84.9375 16.9872 85.0725 17.4747 85.2075C19.0722 85.605 20.7222 85.8075 22.3647 85.9425C24.0072 86.0775 25.6572 86.13 27.3147 86.145C28.0422 86.145 28.7547 86.1225 29.4822 86.115C32.1897 86.07 33.0222 86.055 33.6672 86.595C33.8097 86.7075 34.0047 86.805 34.0947 86.9025C34.4097 87.2025 33.3147 87.8775 31.2522 88.02C28.4322 88.2525 25.5522 88.2075 22.6347 87.9375C21.1722 87.795 19.7022 87.6 18.2172 87.2925C17.4747 87.1275 16.7247 86.9625 15.9522 86.715C15.5697 86.5875 15.1722 86.4525 14.7447 86.265C14.5047 86.1525 14.3772 86.1 13.9947 85.83C13.7022 85.6125 13.4697 85.335 13.2522 85.05C13.1847 84.825 13.1097 84.615 13.0347 84.39C12.9972 84.2775 12.9972 84.165 12.9822 84.0525L12.9522 83.835L12.8772 83.0625C12.7647 81.8475 12.7497 80.67 12.7347 79.4775L12.7197 75.9225L12.7722 68.835H12.8247L12.7872 68.8275Z" fill="#231F20"/>
<path d="M78.0295 44.4067C79.012 47.1667 79.987 49.9267 80.932 52.6942C81.277 53.7067 81.682 54.6967 82.012 55.7092C83.2045 59.2792 84.3295 62.8642 85.477 66.4492C85.987 68.0392 86.5495 69.6142 87.097 71.1817C87.442 72.1867 87.7945 73.1917 88.147 74.1967C88.477 75.2092 88.8145 76.2217 88.8595 77.3242C88.8595 78.0217 88.7995 77.9467 88.312 77.5192C88.072 77.3017 87.6895 77.0092 87.3745 76.6117C87.2095 76.4092 87.0295 76.1992 86.8795 75.9592C86.7445 75.7117 86.617 75.4417 86.512 75.1567C84.952 71.1067 83.692 66.9592 82.4695 62.7592C81.7495 60.2392 80.7595 57.7042 79.8895 55.1842C78.922 52.4092 77.962 49.6342 76.957 46.8667C76.342 45.1642 75.7195 43.4692 75.0745 41.7742C74.0995 39.2167 73.117 36.6442 72.0445 34.1467C71.212 32.2042 70.282 30.3517 69.367 28.4692C69.1645 28.0567 68.962 27.6517 68.7595 27.2392C68.3995 26.4592 68.182 25.9342 68.1145 25.5292C68.0695 25.1167 68.137 24.8317 68.2645 24.5692C68.3245 24.4492 68.362 24.3142 68.4145 24.2317C68.512 24.0967 68.6845 24.1642 68.9695 24.3817C69.262 24.5917 69.6145 24.9742 69.907 25.5367C71.752 28.8217 73.3645 32.4442 74.8645 36.1192C75.982 38.8492 77.0245 41.6242 78.067 44.3917L78.022 44.4142L78.0295 44.4067Z" fill="#231F20"/>
<path d="M17.2729 76.9502C17.2729 76.3427 17.3029 75.7502 17.3629 75.1427L17.4154 74.6852L17.4904 74.1377C17.5954 73.6277 17.7304 73.1327 17.9779 72.7352C18.0529 72.6752 18.1279 72.6077 18.2029 72.5402L18.2329 72.5177V72.5102C18.2329 72.5102 18.1879 72.4427 18.2779 72.5702H18.2929L18.3604 72.5327L18.4954 72.4802C18.6904 72.4202 18.8404 72.3002 19.0654 72.3002L19.7329 72.2852C19.9429 72.2852 20.0104 72.2927 20.1604 72.3002C20.7679 72.3227 21.3679 72.3002 21.9679 72.3377C23.0254 72.4052 24.0829 72.4952 25.1329 72.5852L26.7154 72.7277L28.3654 72.9227C28.5754 72.9602 28.7854 72.9527 28.9879 73.0202C29.1829 73.0877 29.3854 73.1402 29.5729 73.2227C29.7004 73.4102 29.7829 73.5977 29.8579 73.8077C29.9029 74.0402 29.9479 74.2727 29.9704 74.5202C30.0079 74.7977 30.0004 74.9027 30.0229 75.0827L30.0529 75.5702C30.0829 76.1777 30.1204 76.7852 30.1129 77.3927C30.0979 77.6927 30.1129 78.0002 30.0379 78.3077C29.9554 78.6077 29.8579 78.9152 29.7154 79.2077C29.5279 79.5752 29.4904 79.5152 29.2654 79.1852C29.1604 79.0202 28.9504 78.7952 28.7779 78.5252C28.6879 78.3902 28.5754 78.2477 28.5079 78.0977C28.4629 77.9477 28.4254 77.7902 28.4104 77.6177C28.3579 76.9877 28.2979 76.3502 28.2304 75.7277C28.2154 75.5702 28.1854 75.4202 28.1779 75.2627L28.1554 75.0377V74.9252C28.1554 74.9252 28.1479 74.9252 28.1479 74.9177C28.1479 74.9177 28.1704 74.8877 28.1704 74.8652C28.1704 74.8427 28.1704 74.8352 28.0804 74.8127C28.0579 74.8127 28.0579 74.8052 28.0129 74.7977L27.8029 74.7827L27.3904 74.7452C26.8354 74.7002 26.2729 74.6102 25.7104 74.5277C24.2629 74.3102 22.7329 74.3477 21.2404 74.2802L19.9429 74.2277H19.7479L19.6204 74.2052C19.5454 74.2052 19.4254 74.1677 19.4104 74.2802C19.3729 74.3402 19.3504 74.4077 19.3279 74.4827C19.3054 74.5652 19.2904 74.5952 19.2529 74.8202C19.1779 75.1727 19.1329 75.5477 19.0954 75.9152C19.0504 76.4027 19.0204 76.8902 19.0204 77.3777C19.0204 77.8502 19.0504 78.4127 19.1104 78.5777C19.1179 78.6152 19.1329 78.6527 19.1479 78.6902C19.1929 78.7802 19.3129 78.7727 19.3954 78.8027L19.5379 78.8327L19.7854 78.8777L20.8579 79.0352C21.5779 79.1327 22.2979 79.2152 23.0254 79.2677C24.2029 79.3577 25.3654 79.3352 26.5279 79.3202C26.7829 79.3202 27.0379 79.2977 27.2929 79.3052C27.5329 79.3052 27.7279 79.3127 27.8929 79.3352C28.0579 79.3577 28.1854 79.4177 28.2979 79.4627C28.5154 79.5602 28.6429 79.7027 28.7404 79.9052C28.7854 79.9952 28.8529 80.0777 28.8754 80.1602C28.9729 80.4227 28.5754 80.7227 27.8479 80.8802C25.7029 81.1052 23.4754 80.9702 21.2329 80.7302C20.7679 80.6777 20.3029 80.6252 19.8379 80.5577L18.9604 80.4227C18.4729 80.3852 18.1729 80.1077 17.8204 79.8902C17.4529 79.3577 17.3179 78.4577 17.2879 78.1652C17.2504 77.7527 17.2204 77.3552 17.2129 76.9652H17.2579L17.2729 76.9502Z" fill="#231F20"/>
<path d="M38.6174 29.6856C38.3849 30.3156 38.1899 31.8756 38.4749 32.2356C38.9249 32.7981 48.6749 33.4056 49.0349 32.6406C49.2524 32.1756 49.7023 30.3156 49.1924 30.0456C49.0274 29.9556 46.4624 29.9331 43.8899 29.7906C41.3174 29.6481 38.7224 29.4006 38.6099 29.6931L38.6174 29.6856Z" fill="#231F20"/>
<path d="M59.0775 38.9321C59.1825 39.5921 59.5575 40.7621 59.9775 40.9271C60.645 41.1971 70.0125 36.6146 69.9525 35.7671C69.915 35.2571 69.4275 33.6371 68.85 33.6446C68.6625 33.6446 65.8425 35.3321 63.5325 36.4646C61.2225 37.5971 59.025 38.6171 59.07 38.9246L59.0775 38.9321Z" fill="#231F20"/>
<path d="M61.5004 45.0082C61.6054 45.6682 61.9804 46.8382 62.4004 47.0032C63.0679 47.2732 72.4354 42.6907 72.3754 41.8432C72.3379 41.3332 71.8504 39.7132 71.2729 39.7207C71.0854 39.7207 68.2654 41.4082 65.9554 42.5407C63.6304 43.6807 61.4479 44.6932 61.4929 45.0007L61.5004 45.0082Z" fill="#231F20"/>
<path d="M37.7696 70.7253C37.5371 71.3553 37.6346 72.9903 37.9196 73.3428C38.3696 73.9053 49.5371 74.1978 50.0096 73.5303C50.3021 73.1103 50.3546 71.3253 49.8446 71.0478C49.6871 70.9653 46.6646 70.8303 43.7696 70.8603C40.5446 70.8978 37.8821 70.4253 37.7696 70.7253Z" fill="#231F20"/>
<path d="M37.6422 76.8906C37.4097 77.5206 37.4697 79.2006 37.7547 79.5531C38.2047 80.1156 49.3422 80.5056 49.7697 79.6731C50.0022 79.2156 50.2422 77.4831 49.7397 77.2131C49.5822 77.1231 46.6872 77.1156 43.7697 76.9806C40.8522 76.8456 37.7547 76.5981 37.6422 76.8906Z" fill="#231F20"/>
<path d="M17.0098 42.3522C16.7773 42.9822 16.8748 44.6172 17.1598 44.9697C17.6098 45.5322 30.4423 45.8247 30.9148 45.1572C31.2073 44.7372 31.2598 42.9522 30.7498 42.6747C30.5923 42.5922 26.7373 42.4572 23.8423 42.4872C20.6173 42.5247 17.1223 42.0522 17.0098 42.3522Z" fill="#231F20"/>
<path d="M16.8824 48.5176C16.6499 49.1476 16.7099 50.8276 16.9949 51.1801C17.4449 51.7426 30.2474 52.1326 30.6749 51.3001C30.9074 50.8426 31.1474 49.1101 30.6449 48.8401C30.4874 48.7501 26.7599 48.7426 23.8424 48.6076C20.9249 48.4726 16.9949 48.2251 16.8824 48.5176Z" fill="#231F20"/>
<path d="M82.3497 76.8002V76.7777C82.3497 76.7777 82.3647 76.7702 82.3347 76.6727C82.2972 76.5302 82.2447 76.3802 82.1997 76.2302C82.1022 75.9302 81.9747 75.6302 81.8547 75.3377C81.7197 75.0527 81.5847 74.7602 81.4272 74.5127C81.3897 74.4527 81.3447 74.3777 81.3222 74.3402C81.3222 74.3252 81.3072 74.3102 81.2997 74.2877C81.2772 74.2502 81.2547 74.2127 81.2247 74.1752C81.1872 74.1077 81.1122 74.1302 81.0597 74.1602L80.9772 74.1977L80.7297 74.2952C79.0572 74.9327 77.3547 75.6527 75.7197 76.4252C75.3597 76.5977 74.9997 76.7852 74.6547 76.9877L74.1597 77.3027C74.0772 77.3552 74.0022 77.4152 73.9347 77.4752C73.8297 77.5502 73.8972 77.7077 73.9197 77.8052C73.9347 77.8577 73.9572 77.9177 73.9722 77.9552L74.0697 78.2852L74.1822 78.6227L74.2497 78.9827C74.2872 79.2302 74.3622 79.4627 74.3697 79.7177C74.2797 80.0852 74.2497 80.1227 73.7622 80.0702C73.5072 80.0477 73.2447 79.9427 72.9597 79.7927C72.8172 79.7177 72.6747 79.6202 72.5472 79.5152C72.4797 79.4552 72.4197 79.3952 72.3522 79.3352C72.3072 79.2677 72.2697 79.1927 72.2397 79.1102C72.1797 78.9677 72.1272 78.8252 72.0747 78.6752C72.0447 78.5927 72.0297 78.5402 71.9997 78.4352C71.9622 78.3002 71.9172 78.1802 71.9022 78.0452C71.7972 77.5352 71.7447 76.9802 72.0297 76.5677C72.2247 76.1327 72.7272 75.8402 73.1622 75.6077C73.4097 75.4727 73.6572 75.3527 73.9047 75.2327C74.8647 74.7227 75.8322 74.2727 76.8447 73.8752C77.4447 73.6427 78.0372 73.3502 78.6297 73.0502L79.5222 72.6002L79.9797 72.3827L80.2797 72.2477L80.6547 72.0902C80.9322 71.9927 81.2172 71.9027 81.4647 71.9627H81.5622C81.5622 71.9627 81.6222 72.0302 81.6747 71.9477L81.8547 72.0377C81.9822 72.0902 82.0947 72.1727 82.1997 72.2627C82.6347 72.6002 83.0397 73.1702 83.1972 73.4552C83.6172 74.1452 83.9172 74.8352 84.1797 75.5627L84.2922 75.9002L84.3447 76.0802C84.3672 76.1552 84.3897 76.2377 84.4122 76.3202C84.5022 76.6502 84.5472 76.9727 84.4872 77.2877C84.4647 77.4452 84.3522 77.5802 84.2847 77.7227L83.9847 78.1052C83.8872 78.2252 83.7297 78.3452 83.6322 78.4352C83.5347 78.5252 83.4372 78.5927 83.3397 78.6677C82.1397 79.5152 80.8722 80.0252 79.6272 80.5877C78.6597 81.0077 77.7147 81.4802 76.7022 81.8252C76.4772 81.9002 76.2672 81.9977 76.0272 82.0502C75.1572 82.2602 74.8347 82.1402 74.6022 81.6302C74.5497 81.5102 74.4822 81.3977 74.4447 81.2777C74.3247 80.8652 74.6172 80.4902 75.1572 80.2802C76.7547 79.6277 78.4572 78.9902 80.0697 78.1802C81.1797 77.6552 82.6722 76.5302 82.3047 76.7852H82.3572L82.3497 76.8002Z" fill="#231F20"/>
<path d="M52.6347 88.0123C50.4222 88.7398 48.1497 89.1148 45.8772 89.2423C43.6047 89.3698 41.3397 89.2873 39.0897 88.9873C37.9647 88.8298 36.8547 88.6048 35.7372 88.3423C35.4597 88.2748 35.1822 88.1923 34.9047 88.1173L34.4847 87.9973L33.9747 87.8173C33.8622 87.7723 33.7272 87.7423 33.6297 87.6823L33.3522 87.4948C33.2922 87.2548 33.0447 87.1648 33.0372 86.8948C33.0072 86.7823 32.9772 86.6623 32.9622 86.5348L32.9247 86.2348L32.8797 85.8073C32.6847 83.5648 32.5947 81.3673 32.4972 79.1473C32.3847 75.9223 32.2497 72.6973 32.1972 69.4723C32.0247 58.1098 32.0772 46.7473 32.4447 35.3773C32.5347 32.8573 32.6322 30.3223 32.7822 27.7948C32.8572 26.5273 32.9472 25.2673 33.0747 23.9998C33.1347 23.3698 33.2172 22.7323 33.3072 22.0873C33.4197 21.4348 33.5097 20.8198 33.7722 20.0848L33.9672 19.6948C34.0422 19.5748 34.1397 19.4548 34.2297 19.3423C34.4622 19.1623 34.6572 19.0048 34.8522 18.8623C35.0547 18.7273 35.2497 18.6523 35.4522 18.5473C35.8572 18.3223 36.2547 18.2323 36.6597 18.0823C37.4622 17.8423 38.2647 17.6773 39.0597 17.5498C40.6572 17.3098 42.2547 17.2123 43.8447 17.1973C45.4347 17.1823 47.0322 17.2498 48.6072 17.4673C49.3947 17.5723 50.1822 17.7223 50.9622 17.8723C51.7422 18.0673 52.5072 18.2998 53.2572 18.5998C54.2097 19.0273 54.5847 19.2823 54.5247 19.3498C54.4647 19.4323 53.9622 19.3498 53.0997 19.3648C52.2297 19.3723 51.0147 19.4848 49.5822 19.5148C48.8697 19.5373 48.0972 19.5673 47.2797 19.5973C46.4622 19.5973 45.6072 19.5823 44.7072 19.5748C43.0572 19.5523 41.4072 19.6198 39.8097 19.8223C39.0147 19.9198 38.2347 20.0698 37.5072 20.2573C37.1772 20.3698 36.7872 20.4673 36.5172 20.6098L36.1047 20.8048C36.0222 20.8798 35.9247 20.9473 35.9097 20.9473C35.9097 20.9623 35.9322 20.8798 35.8422 21.1423C35.7747 21.3673 35.7147 21.6148 35.6622 21.8848C35.5572 22.4248 35.4597 22.9948 35.3847 23.5723C35.2272 24.7348 35.1147 25.9273 35.0172 27.1198C34.8222 29.5123 34.6872 31.9273 34.5672 34.3423C34.3347 39.1798 34.1697 44.0473 34.0347 48.9298C33.8097 56.8273 33.9597 65.0473 34.0497 73.1323L34.1697 79.7923L34.2597 83.1148L34.3347 84.7723L34.3872 85.5898L34.4172 85.9948L34.4472 86.2498C34.4547 86.3023 34.4547 86.3623 34.4847 86.4073C34.5297 86.4298 34.5822 86.4523 34.6347 86.4673L34.8972 86.5648C35.0172 86.6173 35.1522 86.6473 35.2797 86.6923C35.7897 86.8573 36.3072 86.9998 36.8397 87.1273C37.9047 87.3448 38.9772 87.5248 40.0647 87.6223C42.2397 87.8398 44.4372 87.8398 46.6047 87.6148C47.9397 87.4873 49.2597 87.2548 50.5497 86.9173C51.1947 86.7598 51.8247 86.5423 52.4472 86.3248C52.7397 86.2198 53.0922 86.0548 53.3247 85.9573C53.3997 85.9198 53.4972 85.9123 53.5497 85.8448C53.5947 85.7773 53.6172 85.6948 53.6397 85.6123C53.6847 85.4098 53.7297 85.0198 53.7597 84.7123C53.7897 84.3823 53.8047 84.0523 53.8197 83.7148C53.8497 83.0398 53.8647 82.3648 53.8722 81.6823C53.8947 80.3248 53.8872 78.9598 53.8722 77.5948C53.7522 69.3073 53.6397 60.9748 53.5197 52.7473C53.4372 46.3498 53.3022 40.0723 53.2647 33.7423C53.2647 32.3473 53.2347 30.9823 53.2422 29.5798C53.2647 26.9773 53.3247 25.2598 53.4747 24.0523C53.6322 22.8523 53.8572 22.1623 54.1647 21.6148C54.3072 21.3673 54.4422 21.0298 54.5622 20.8873C54.7797 20.6473 54.9522 21.0598 55.1097 22.0048C55.2747 22.9573 55.3872 24.4348 55.3872 26.3398C55.4022 31.9873 55.4247 37.7848 55.4397 43.6648C55.4922 49.5448 55.5522 55.5073 55.6122 61.4848C55.6572 65.9323 55.7022 70.3873 55.7472 74.8423C55.7622 77.0773 55.7697 79.3123 55.7247 81.5623C55.6797 82.6948 55.6422 83.8123 55.5147 84.9973C55.4772 85.3123 55.4472 85.5748 55.3572 85.9648C55.2372 86.4823 55.0422 87.0298 54.5697 87.2848C54.4647 87.3598 54.3447 87.4123 54.2247 87.4648L53.9097 87.5923L53.4972 87.7573C53.2272 87.8773 52.9422 87.9673 52.6647 88.0498L52.6422 88.0123H52.6347Z" fill="#231F20"/>
<path d="M74.34 14.8509C74.445 14.9409 74.3175 15.0909 74.0925 15.2784C74.025 15.3384 73.785 15.4284 73.7325 15.4059C73.635 15.3684 73.53 15.3309 73.4475 15.2859C73.38 15.2634 72.93 14.6634 72.765 14.4534C72.6 14.2584 72.4875 14.0334 72.39 13.8084C72.18 13.3584 72.075 12.8784 71.9475 12.3984C71.925 12.2934 71.9175 12.1809 71.9325 12.0684C71.9925 11.6859 71.94 11.3184 71.8575 10.9434C71.8425 10.8834 71.85 10.8159 71.775 10.7634C71.6325 10.6734 71.5575 9.63839 71.6175 9.50339C71.745 9.17339 71.88 8.84339 72.015 8.52839C72.0375 8.48339 72.015 8.43089 72.105 8.39339C72.315 8.31839 72.2925 8.21339 72.3225 8.11589C72.3825 7.98089 72.45 7.85339 72.555 7.73339C72.6225 7.67339 72.75 7.62839 72.84 7.58339C72.93 7.53839 73.125 7.60589 73.155 7.63589C73.215 7.70339 73.335 7.68089 73.425 7.68839C73.455 7.68839 73.5 7.69589 73.5225 7.70339C73.5825 7.73339 74.145 8.51339 74.1075 8.57339C74.0925 8.59589 74.235 9.59339 74.2575 9.69839C74.2725 9.75839 74.2275 9.81839 74.1975 9.87839C74.175 9.90839 74.34 10.6959 74.34 10.7259C74.3175 10.8909 74.4 11.0484 74.2425 11.2359C74.2125 11.2734 74.22 11.3034 74.2275 11.3409C74.28 11.6259 74.2425 11.9184 74.2425 12.2184C74.2425 12.3684 74.2875 12.5109 74.31 12.6609C74.31 12.6909 74.295 12.7209 74.2875 12.7509C74.28 12.7884 74.265 12.8259 74.2725 12.8559C74.3475 13.2009 74.295 13.5834 74.4225 13.9209C74.445 13.9959 74.37 14.4384 74.4225 14.5209C74.445 14.5659 74.2875 14.8134 74.3325 14.8509H74.34Z" fill="#231F20"/>
<path d="M76.7099 18.5475C76.6199 18.63 76.4924 18.51 76.3499 18.2925C76.3049 18.225 76.2524 18 76.2749 17.955C76.3199 17.8725 76.3649 17.79 76.4099 17.715C76.4399 17.685 76.9799 17.295 77.1749 17.175C77.3549 17.0475 77.5499 16.9725 77.7374 16.905C78.1349 16.77 78.5249 16.605 78.9299 16.5C79.0199 16.4775 79.1099 16.47 79.2074 16.4775C79.5374 16.515 79.8449 16.4475 80.1524 16.3425C80.2049 16.3275 80.2574 16.32 80.2949 16.2525C80.3549 16.1175 81.2024 15.96 81.3224 15.99C81.6149 16.065 81.8999 16.08 82.1924 16.2C82.2374 16.215 82.2749 16.1925 82.3199 16.26C82.4249 16.425 82.5074 16.3875 82.5974 16.4025C82.7174 16.4175 82.8374 16.44 82.9649 16.485C83.0249 16.5075 83.0924 16.5825 83.1599 16.6425C83.2199 16.695 83.2199 16.8975 83.2049 16.9275C83.1599 17.0025 83.2199 17.0925 83.2349 17.175C83.2349 17.205 83.2499 17.2425 83.2499 17.265C83.2499 17.3025 82.6574 17.865 82.5899 17.9025C82.5824 17.9025 82.3499 18.0375 82.1099 18.1275C81.8624 18.2025 81.6074 18.285 81.5549 18.315C81.5024 18.345 81.4349 18.315 81.3749 18.2925C81.3449 18.2925 80.6099 18.5475 80.5799 18.5325C80.4149 18.5325 80.2724 18.615 80.0849 18.4875C80.0474 18.465 80.0174 18.4725 79.9874 18.4875C79.7174 18.5475 79.4399 18.5325 79.1624 18.54C79.0199 18.54 78.8849 18.585 78.7424 18.6C78.7199 18.6 78.6899 18.585 78.6599 18.5775C78.6224 18.5775 78.5924 18.555 78.5549 18.5625C78.2249 18.615 77.8799 18.5925 77.5649 18.6975C77.4899 18.72 77.0924 18.6375 77.0099 18.66C76.9649 18.6675 76.7549 18.51 76.7174 18.5475H76.7099Z" fill="#231F20"/>
</svg>
