<svg width="96" height="96" viewBox="0 0 96 96" fill="none" xmlns="http://www.w3.org/2000/svg">
<path d="M64.3724 59.4237C64.3223 57.4668 64.5189 55.5114 64.9574 53.6037C65.4199 51.7211 66.0942 49.897 66.9674 48.1662C67.2824 47.5437 67.5974 46.9137 67.9274 46.3062L68.4299 45.4062C68.5949 45.1062 68.8274 44.7537 69.0149 44.4837C69.8549 43.3062 70.6874 42.1962 71.4224 41.0412C71.7877 40.4861 72.1111 39.9044 72.3899 39.3012C72.6337 38.8772 72.7581 38.3952 72.7499 37.9062C72.7338 37.8621 72.7079 37.8223 72.6741 37.7898C72.6403 37.7573 72.5995 37.733 72.5549 37.7187L72.4124 37.6662L72.1349 37.6212C71.7021 37.5845 71.2665 37.5996 70.8374 37.6662C69.9327 37.8039 69.0532 38.0743 68.2274 38.4687C67.3218 38.8885 66.5008 39.4706 65.8049 40.1862C65.1259 40.9326 64.5439 41.7616 64.0724 42.6537C62.7749 44.9637 61.8749 47.5362 60.4424 49.9137C59.9774 50.6637 59.6924 50.3487 59.6924 49.5537C59.7355 48.3257 60.0103 47.117 60.5024 45.9912C61.0499 44.7162 61.6199 43.4262 62.2874 42.1512C62.6273 41.5011 63.0107 40.8747 63.4349 40.2762C63.876 39.6301 64.3977 39.0428 64.9874 38.5287C66.1518 37.5169 67.5203 36.7674 68.9999 36.3312C69.7459 36.1061 70.5166 35.9726 71.2949 35.9337C71.7139 35.9113 72.1341 35.9365 72.5474 36.0087C72.8361 36.0595 73.1163 36.1504 73.3799 36.2787C73.6481 36.4141 73.8796 36.6122 74.0549 36.8562C74.0999 36.9462 74.1524 37.0212 74.1899 37.1112C74.3149 37.4467 74.3735 37.8033 74.3624 38.1612C74.3545 38.4295 74.3168 38.6962 74.2499 38.9562C74.1899 39.1962 74.1074 39.4212 74.0324 39.6462L73.7624 40.2837C73.3793 41.0756 72.9459 41.8421 72.4649 42.5787C71.9924 43.3287 71.5049 44.0037 71.0174 44.6937L70.3124 45.7512C70.1024 46.0587 69.8999 46.4112 69.6899 46.7787C68.7526 48.3537 67.9546 50.0074 67.3049 51.7212C66.685 53.4222 66.2916 55.1975 66.1349 57.0012C65.9712 59.2491 66.1431 61.5089 66.6449 63.7062C67.459 67.0591 68.7577 70.2754 70.4999 73.2537C71.838 75.5383 73.3421 77.7217 74.9999 79.7862L76.0874 81.1362C77.4599 82.8312 77.7974 83.4537 77.7524 84.0987C77.7652 84.2434 77.7652 84.389 77.7524 84.5337C77.6249 84.9087 76.8224 84.4062 75.7199 83.2062C72.328 79.4597 69.4939 75.2438 67.3049 70.6887C66.4816 68.9315 65.7946 67.1137 65.2499 65.2512C64.7356 63.3514 64.4189 61.4036 64.3049 59.4387L64.3724 59.4237Z" fill="#231F20"/>
<path d="M52.1928 17.8813C52.3945 17.3466 52.7873 16.9057 53.2953 16.6438C53.5419 16.5327 53.8115 16.4822 54.0815 16.4965C54.3516 16.5109 54.6143 16.5897 54.8478 16.7263C54.9766 16.7844 55.0935 16.8657 55.1928 16.9663C55.3037 17.0518 55.4066 17.1471 55.5003 17.2513C55.6803 17.4913 55.8978 17.7163 56.0478 17.9638C56.2468 18.2844 56.4295 18.6148 56.5953 18.9538C57.2029 20.2244 57.6537 21.5643 57.9378 22.9438C58.1835 23.9282 58.3441 24.9319 58.4178 25.9438C58.6203 29.4238 58.5303 32.8513 58.4628 36.2788C58.4628 37.7788 58.4628 39.3238 58.4628 40.8313V43.7263C58.4628 44.6788 58.3728 45.6613 58.4628 46.5613C58.4628 46.8313 58.4628 46.8838 58.4103 46.9438C58.3578 47.0038 58.1778 46.9438 58.0053 46.6738C57.7895 46.351 57.6132 46.0035 57.4803 45.6388C57.2804 45.1605 57.154 44.6548 57.1053 44.1388C56.8639 40.1808 56.8288 36.2129 57.0003 32.2513C57.0412 29.8516 56.9008 27.4523 56.5803 25.0738C56.3803 23.7961 56.0589 22.5404 55.6203 21.3238C55.4075 20.7211 55.157 20.1325 54.8703 19.5613C54.8052 19.42 54.7326 19.2823 54.6528 19.1488L54.5478 18.9688L54.4878 18.8638C54.4103 18.7352 54.3084 18.6231 54.1878 18.5338C54.1457 18.5126 54.0997 18.5002 54.0526 18.4974C54.0056 18.4947 53.9585 18.5016 53.9142 18.5178C53.8699 18.5339 53.8294 18.559 53.7952 18.5914C53.761 18.6238 53.7338 18.6629 53.7153 18.7063C53.6634 18.7852 53.623 18.871 53.5953 18.9613C53.5487 19.091 53.5111 19.2238 53.4828 19.3588C53.3112 20.1463 53.2033 20.9464 53.1603 21.7513C52.9803 24.2113 52.9428 26.7313 52.8603 29.2513C52.8573 31.1743 52.737 33.0954 52.5003 35.0038C52.433 35.4413 52.3403 35.8745 52.2228 36.3013C51.7353 37.9438 50.9478 38.4013 50.4303 38.2513C50.32 38.2452 50.2112 38.2224 50.1078 38.1838C49.9878 38.1088 50.0628 37.9663 50.1078 37.7038C50.1528 37.4413 50.3328 37.1413 50.5128 36.6838C50.7742 35.939 50.9478 35.1663 51.0303 34.3813C51.1428 33.5563 51.2103 32.7088 51.2553 31.8388C51.3453 30.1063 51.3678 28.3288 51.3903 26.5288C51.3903 25.1938 51.4353 23.8438 51.4953 22.4788C51.4953 21.7963 51.5778 21.1063 51.6528 20.4088C51.6528 20.0563 51.7203 19.6963 51.7803 19.3288C51.7803 19.1488 51.8403 18.9688 51.8778 18.7663C51.9466 18.4579 52.0368 18.1546 52.1478 17.8588L52.1928 17.8813Z" fill="#231F20"/>
<path d="M53.9327 50.8438C53.3073 49.1677 52.5784 47.532 51.7502 45.9463C51.4502 45.3613 51.0827 44.8213 50.7527 44.2588C49.6846 42.2533 48.2819 40.4448 46.6052 38.9113C45.8552 38.3263 44.9327 37.8988 44.2652 38.2738C43.793 38.5456 43.4258 38.9682 43.2227 39.4738C42.9777 39.9969 42.8546 40.5687 42.8627 41.1463C42.8627 41.4838 42.6527 41.5813 42.2852 41.2663C42.0335 40.992 41.8587 40.6562 41.7784 40.2928C41.698 39.9293 41.715 39.5511 41.8277 39.1963C42.0648 38.3335 42.5952 37.5803 43.3277 37.0663C43.7622 36.7884 44.2604 36.6258 44.7752 36.5938C45.0271 36.5799 45.2798 36.6027 45.5252 36.6613C45.7466 36.6953 45.9631 36.7557 46.1702 36.8413C47.5876 37.4635 48.8013 38.4719 49.6727 39.7513C50.7497 41.1102 51.7512 42.5274 52.6727 43.9963C53.6267 45.618 54.4711 47.3018 55.2002 49.0363C55.6427 50.1013 56.0477 51.1888 56.4077 52.2913C56.6856 53.1354 56.9061 53.9974 57.0677 54.8713C57.2752 55.8049 57.2752 56.7727 57.0677 57.7063C56.9269 58.1222 56.6876 58.4979 56.3702 58.8013C56.0255 59.1343 55.5735 59.3337 55.0952 59.3638C54.2684 59.3736 53.4616 59.11 52.8002 58.6138C52.538 58.435 52.2875 58.2396 52.0502 58.0288C51.7251 57.754 51.4683 57.4074 51.3002 57.0163C51.265 56.8915 51.2548 56.761 51.2702 56.6323C51.2857 56.5036 51.3264 56.3792 51.3902 56.2663C51.4286 56.1646 51.4763 56.0667 51.5327 55.9738C51.6227 55.8388 51.7877 55.8313 52.0277 55.8838C52.3345 55.9477 52.6206 56.0869 52.8602 56.2888C53.2698 56.6056 53.7008 56.8938 54.1502 57.1513C54.4167 57.3411 54.7381 57.4386 55.0652 57.4288C55.1102 57.4288 55.0652 57.4288 55.1552 57.3463C55.1935 57.3058 55.2263 57.2604 55.2527 57.2113C55.3202 57.1438 55.2527 57.1438 55.3052 57.1213C55.3791 56.7071 55.3791 56.283 55.3052 55.8688C55.0276 54.1521 54.5519 52.4734 53.8877 50.8663L53.9327 50.8438Z" fill="#231F20"/>
<path d="M49.0953 53.6026C48.1493 51.541 46.9528 49.6039 45.5328 47.8351C45.0078 47.1826 44.4378 46.5676 43.8753 45.9526C42.8937 44.857 41.8361 43.8319 40.7103 42.8851C40.1517 42.4303 39.5573 42.0215 38.9328 41.6626C38.3748 41.316 37.7366 41.1197 37.0803 41.0926C36.851 41.1032 36.6319 41.1903 36.4578 41.3401C36.3671 41.4324 36.2819 41.5301 36.2028 41.6326C36.1503 41.7601 36.0678 41.8651 36.0228 42.0001C35.8232 42.5705 35.7341 43.1738 35.7603 43.7776C35.7993 44.595 35.9199 45.4066 36.1203 46.2001C36.3303 47.0026 36.4803 47.8201 36.7128 48.6226C36.8553 49.1101 36.6003 49.1701 36.1578 48.8626C35.4947 48.3511 35.0072 47.646 34.7628 46.8451C34.5216 45.9403 34.3758 45.0127 34.3278 44.0776C34.2406 43.0401 34.4513 41.9993 34.9353 41.0776C35.0876 40.799 35.2824 40.5459 35.5128 40.3276C35.7774 40.0968 36.0899 39.9278 36.4278 39.8326C36.7345 39.7586 37.0505 39.7308 37.3653 39.7501C37.6433 39.7743 37.9191 39.8195 38.1903 39.8851C39.122 40.1667 39.9975 40.6083 40.7778 41.1901C42.5861 42.4666 44.2531 43.9324 45.7503 45.5626C47.3796 47.3558 48.8035 49.3256 49.9953 51.4351C50.7798 52.7635 51.3208 54.2214 51.5928 55.7401C51.6979 56.3891 51.628 57.0545 51.3903 57.6676C51.3352 57.8371 51.2487 57.9949 51.1353 58.1326C51.0434 58.2856 50.9269 58.4225 50.7903 58.5376C50.5177 58.8097 50.1706 58.995 49.7928 59.0701C49.1196 59.1453 48.4398 59.0062 47.8503 58.6726C47.3256 58.41 46.8239 58.1039 46.3503 57.7576C44.9564 56.7386 43.6333 55.626 42.3903 54.4276C42.1278 54.1576 41.8653 53.9101 41.6403 53.6251C40.6953 52.5976 40.5828 52.1251 40.6803 51.6301C40.6958 51.5132 40.7209 51.3978 40.7553 51.2851C40.8903 50.9701 41.5053 51.1951 42.3378 51.8026L44.0553 53.2501L45.7503 54.7501C46.3278 55.2451 46.8828 55.7401 47.4528 56.1826C47.9495 56.5943 48.5026 56.9328 49.0953 57.1876C49.2004 57.2306 49.3119 57.256 49.4253 57.2626C49.4253 57.2626 49.4253 57.2626 49.5153 57.1951C49.6128 57.0967 49.689 56.9794 49.7393 56.8504C49.7896 56.7214 49.813 56.5834 49.8078 56.4451C49.7616 55.4432 49.5061 54.4622 49.0578 53.5651L49.0953 53.6026Z" fill="#231F20"/>
<path d="M32.7979 56.2877C30.9657 53.0434 28.9317 49.9172 26.7079 46.9277C25.9579 45.7877 25.1179 44.6777 24.3604 43.5152C23.6842 42.4778 23.0755 41.3981 22.5379 40.2827C22.263 39.7068 22.0275 39.1129 21.8329 38.5052C21.6084 37.8777 21.477 37.2208 21.4429 36.5552C21.4279 36.378 21.4279 36.1999 21.4429 36.0227C21.4429 35.9327 21.4429 35.8427 21.4429 35.7527L21.5329 35.4002C21.5763 35.1664 21.6716 34.9453 21.8118 34.7532C21.9519 34.5611 22.1334 34.4029 22.3429 34.2902C22.7799 34.0961 23.2719 34.0642 23.7304 34.2002C24.0683 34.3113 24.3928 34.4597 24.6979 34.6427C25.759 35.3133 26.7513 36.087 27.6604 36.9527C29.2582 38.4296 30.7377 40.0295 32.0854 41.7377C33.8674 43.8741 35.2863 46.2887 36.2854 48.8852C36.5554 49.7177 36.3454 49.6352 35.8579 49.0877C35.0738 48.1759 34.3403 47.222 33.6604 46.2302C32.1092 43.9927 30.3838 41.8812 28.5004 39.9152C27.5613 38.9357 26.5592 38.0188 25.5004 37.1702C25.0017 36.7561 24.4728 36.3801 23.9179 36.0452C23.7943 35.9728 23.6665 35.9077 23.5354 35.8502L23.2729 35.7452C23.2381 35.7232 23.1978 35.7115 23.1566 35.7115C23.1155 35.7115 23.0751 35.7232 23.0404 35.7452C22.9204 35.7452 22.8079 36.6752 22.9804 37.3802C23.1561 38.1619 23.4308 38.918 23.7979 39.6302C24.57 41.1398 25.4471 42.5934 26.4229 43.9802C28.5004 47.1152 30.7879 50.1452 32.7754 53.4152C33.3904 54.4202 33.9679 55.4477 34.4929 56.5127C35.0179 57.5777 35.4829 58.6802 35.9929 59.7077C37.4336 62.8922 39.3729 65.8265 41.7379 68.4002C43.5436 70.3472 45.5554 72.0924 47.7379 73.6052C48.2104 73.9427 48.6829 74.2652 49.1704 74.5802C50.9779 75.7877 51.5479 76.1552 51.8779 76.5902C51.9564 76.6831 52.029 76.7808 52.0954 76.8827C52.2379 77.1302 51.2854 77.0102 49.7479 76.3352C48.6173 75.8089 47.5313 75.1919 46.5004 74.4902C45.4569 73.7568 44.4553 72.9656 43.5004 72.1202C41.5586 70.4007 39.7993 68.4855 38.2504 66.4052C37.0849 64.8388 36.0562 63.1752 35.1754 61.4327C34.9429 61.0052 34.7629 60.5477 34.5529 60.1052C34.3429 59.6627 34.1554 59.2127 33.9754 58.8002C33.6079 57.9527 33.2254 57.1277 32.7604 56.3102L32.7979 56.2877Z" fill="#231F20"/>
<path d="M55.1395 85.8823C54.637 84.9898 54.142 84.1048 53.6395 83.2273C53.452 82.9048 53.227 82.6198 53.0395 82.2973C52.3795 81.1648 51.727 80.0473 51.007 78.9598C50.6893 78.4824 50.3437 78.0241 49.972 77.5873C49.492 77.0398 48.9895 76.5148 48.5695 75.9673C48.442 75.7873 48.637 75.5698 48.982 75.4798C49.1847 75.4223 49.3984 75.4162 49.604 75.462C49.8096 75.5078 50.0005 75.6042 50.1595 75.7423C50.7279 76.2843 51.2544 76.8684 51.7345 77.4898C52.1925 78.1119 52.6133 78.7605 52.9945 79.4323C53.4445 80.2423 54.052 80.9773 54.5695 81.7573C55.087 82.5373 55.687 83.4898 56.2345 84.3598L57.2395 85.9648C57.757 86.7598 58.2445 87.5923 58.7995 88.3648C59.227 88.9573 59.7445 89.4823 60.2245 90.0298C60.3295 90.1573 60.442 90.2698 60.5395 90.3973C60.6199 90.5084 60.6902 90.6263 60.7495 90.7498C60.7714 90.8461 60.7714 90.9461 60.7495 91.0423C60.7216 91.2308 60.641 91.4076 60.517 91.5523C60.4682 91.625 60.4156 91.6951 60.3595 91.7623C60.202 91.9498 59.7745 91.9423 59.332 91.7173C58.3044 90.8066 57.4218 89.7443 56.7145 88.5673C56.1445 87.7198 55.6495 86.8123 55.1095 85.9423L55.1395 85.8823Z" fill="#231F20"/>
<path d="M64.5753 82.3285L62.8653 82.6285C62.2953 82.7035 61.7328 82.7935 61.1553 82.8535C60.7428 82.8535 60.3303 82.966 59.9103 83.0035C58.4411 83.0981 56.9669 83.0806 55.5003 82.951C54.8478 82.951 54.1953 82.831 53.5503 82.7935L52.2978 82.606C51.8823 82.5204 51.4774 82.3897 51.0903 82.216C50.8503 82.111 50.9703 81.871 51.2553 81.6835C51.5882 81.448 52.0007 81.3536 52.4028 81.421C53.9971 81.6387 55.6019 81.7714 57.2103 81.8185C57.7107 81.8446 58.2124 81.8296 58.7103 81.7735C59.2128 81.7285 59.7153 81.676 60.2103 81.601C60.7053 81.526 61.3128 81.4735 61.8603 81.376C62.4078 81.2785 62.9553 81.2035 63.4953 81.076C64.1703 80.9485 64.8303 80.7685 65.4903 80.5885C65.9853 80.4385 66.4728 80.2585 66.9903 80.1085C67.5078 79.9585 67.9503 79.7335 68.4003 79.4935C69.0743 79.1296 69.6972 78.6782 70.2528 78.151C70.3558 78.0317 70.4687 77.9213 70.5903 77.821C71.0328 77.4385 71.1753 77.341 71.5503 77.416C71.6303 77.4118 71.7104 77.4118 71.7903 77.416C72.0378 77.4835 72.0528 77.821 71.7903 78.3535C71.5895 78.7225 71.3369 79.0609 71.0403 79.3585C70.7416 79.6283 70.4259 79.8788 70.0953 80.1085C69.424 80.5546 68.7106 80.9339 67.9653 81.241C66.872 81.6856 65.743 82.0369 64.5903 82.291L64.5753 82.3285Z" fill="#231F20"/>
<path d="M66.1347 84.9532C66.0972 84.8707 66.0147 84.7432 65.8797 84.7507C65.7447 84.7582 65.8122 84.8707 65.8197 84.9607C65.8164 85.0106 65.8164 85.0608 65.8197 85.1107V85.1932V85.3057L65.8947 85.5382C66.0972 86.1682 66.3222 86.7982 66.5247 87.5182C66.5697 87.7057 66.6147 87.8932 66.6522 88.1182C66.6522 88.2232 66.6522 88.3507 66.6897 88.5007C66.698 88.5855 66.698 88.6709 66.6897 88.7557C66.6824 88.8799 66.6623 89.0031 66.6297 89.1232C66.6068 89.2047 66.5792 89.2848 66.5472 89.3632C66.4856 89.4841 66.4101 89.5973 66.3222 89.7007C66.125 89.9191 65.8615 90.0667 65.5722 90.1207C65.3885 90.1512 65.201 90.1512 65.0172 90.1207C64.8822 90.1207 64.8222 90.0607 64.7172 90.0307C64.5805 89.9747 64.4477 89.9095 64.3197 89.8357L63.9972 89.6107C63.9297 89.6107 63.8847 89.5057 63.8172 89.4607C63.5279 89.1378 63.2763 88.783 63.0672 88.4032L62.5647 87.5332L61.6197 85.8307C61.3422 85.3432 61.0572 84.8557 60.7722 84.4132C60.6418 84.2097 60.499 84.0143 60.3447 83.8282C60.3188 83.7968 60.2913 83.7667 60.2622 83.7382C60.3061 83.6961 60.344 83.6482 60.3747 83.5957C60.4956 83.4348 60.5754 83.2469 60.6072 83.0482C60.6182 83.0668 60.6337 83.0822 60.6522 83.0932L60.7422 83.1532C60.8288 83.2189 60.9286 83.2649 61.0347 83.2882C61.1094 83.3065 61.1822 83.3316 61.2522 83.3632H61.3122V83.4232C61.3036 83.528 61.3036 83.6334 61.3122 83.7382C61.3122 83.8507 61.3122 83.9857 61.3122 84.1132C61.3192 84.2113 61.3317 84.309 61.3497 84.4057C61.465 84.9335 61.6103 85.4544 61.7847 85.9657L62.3022 87.6157C62.4985 88.2175 62.644 88.8346 62.7372 89.4607C62.7733 89.6943 62.7733 89.9321 62.7372 90.1657C62.7111 90.2686 62.676 90.369 62.6322 90.4657C62.5602 90.6022 62.4636 90.7243 62.3472 90.8257C62.2284 90.9184 62.0921 90.9861 61.9465 91.0248C61.8008 91.0635 61.6489 91.0723 61.4997 91.0507C61.4107 91.0379 61.323 91.0178 61.2372 90.9907L61.0647 90.9232C60.9655 90.8788 60.8702 90.8261 60.7797 90.7657C60.5961 90.6579 60.4272 90.5268 60.2772 90.3757C60.0362 90.093 59.8367 89.7773 59.6847 89.4382C59.5572 89.1532 59.4447 88.8757 59.3322 88.6057C58.9422 87.6382 58.5822 86.6857 58.1697 85.7857C57.9794 85.3567 57.7562 84.9429 57.5022 84.5482C57.4159 84.4175 57.3096 84.301 57.1872 84.2032C57.1872 84.2032 57.1872 84.2032 57.1872 84.1282C57.2123 84.0892 57.2301 84.046 57.2397 84.0007C57.2378 83.9757 57.2378 83.9507 57.2397 83.9257C57.2397 83.8657 57.2397 83.9257 57.2397 83.9257V83.9707C57.2563 84.0161 57.279 84.059 57.3072 84.0982C57.3228 84.1175 57.3404 84.1351 57.3597 84.1507C57.2922 84.2257 57.2697 84.3232 57.2847 84.5332C57.3172 84.773 57.3881 85.006 57.4947 85.2232C57.7507 85.7499 58.0545 86.252 58.4022 86.7232C58.7547 87.2332 59.1522 87.7282 59.5347 88.2232C59.9172 88.7182 60.2847 89.2582 60.6822 89.7682C61.1622 90.4132 60.8697 90.5707 60.0972 90.3607C59.5768 90.2161 59.0738 90.0149 58.5972 89.7607C57.9762 89.3897 57.4274 88.9095 56.9772 88.3432C56.5045 87.7682 56.0899 87.1476 55.7397 86.4907C55.5402 86.1042 55.3842 85.6967 55.2747 85.2757C55.1201 84.6947 55.1436 84.0807 55.3422 83.5132C55.4717 83.1637 55.6825 82.8501 55.9572 82.5982C56.0535 82.5095 56.1591 82.4315 56.2722 82.3657C56.4068 82.2746 56.5567 82.2085 56.7147 82.1707C57.0393 82.0683 57.3876 82.0683 57.7122 82.1707C58.0875 82.2936 58.422 82.5166 58.6797 82.8157C58.8359 82.9916 58.9812 83.177 59.1147 83.3707C59.5187 83.9928 59.8699 84.6476 60.1647 85.3282C60.4572 85.9582 60.7122 86.5807 60.9672 87.1807L61.3497 88.0582C61.4772 88.3282 61.6197 88.6282 61.6947 88.7632V88.8082H61.7397L61.6797 88.9357L61.5897 89.2132C61.5336 89.3278 61.5029 89.4531 61.4997 89.5807C61.4757 89.6486 61.4757 89.7228 61.4997 89.7907C61.4997 89.8282 61.4997 89.7907 61.4997 89.7907C61.4311 89.7501 61.3582 89.7174 61.2822 89.6932C61.2147 89.6932 61.0047 89.6182 60.8622 89.6182C60.7749 89.6252 60.6871 89.6252 60.5997 89.6182H60.7497C60.7497 89.6182 60.7497 89.5507 60.7497 89.5207C60.6764 88.9314 60.5535 88.3493 60.3822 87.7807C60.1572 87.0007 59.9322 86.2132 59.7072 85.4182C59.5605 84.9583 59.4699 84.4823 59.4372 84.0007C59.4208 83.751 59.4208 83.5004 59.4372 83.2507C59.4422 83.1048 59.4572 82.9595 59.4822 82.8157L59.5497 82.5382C59.5947 82.3968 59.6604 82.2628 59.7447 82.1407C59.8232 82.033 59.9167 81.937 60.0222 81.8557C60.1365 81.7663 60.2701 81.7047 60.4122 81.6757C60.5584 81.6479 60.7085 81.6479 60.8547 81.6757C60.9541 81.6962 61.0518 81.7238 61.1472 81.7582C61.355 81.8388 61.544 81.9613 61.7022 82.1182C61.8968 82.2975 62.0727 82.496 62.2272 82.7107C62.496 83.0651 62.7464 83.433 62.9772 83.8132C63.4197 84.5632 63.8247 85.2682 64.2297 85.9807L64.8597 87.0682C64.9647 87.2407 65.0697 87.4207 65.1672 87.5707C65.2647 87.7207 65.2872 87.7657 65.3622 87.8257L65.4747 87.9007L65.5572 87.9457L65.5122 88.0732C65.5122 88.1482 65.5122 88.2757 65.4597 88.3207C65.4346 88.4166 65.4346 88.5173 65.4597 88.6132C65.5122 88.7032 65.4597 88.6132 65.4597 88.6132C65.4072 88.5232 65.4597 88.6132 65.3997 88.6132C65.3499 88.5867 65.297 88.5665 65.2422 88.5532C65.1672 88.5532 64.9497 88.5082 64.7697 88.5082C64.7738 88.4608 64.7738 88.4131 64.7697 88.3657C64.7697 88.2532 64.7097 88.1032 64.6722 87.9607C64.5147 87.3682 64.2897 86.7307 64.0872 86.0857L63.9072 85.5232C63.8272 85.2682 63.7522 85.0182 63.6822 84.7732C63.5513 84.3018 63.461 83.82 63.4122 83.3332C63.3495 82.9547 63.3707 82.5671 63.4744 82.1977C63.5781 81.8283 63.7617 81.4862 64.0122 81.1957C64.0875 81.1678 64.1654 81.1477 64.2447 81.1357C64.5566 81.0625 64.8806 81.0567 65.1949 81.1188C65.5092 81.1809 65.8066 81.3094 66.0672 81.4957C66.6503 81.986 67.1362 82.5813 67.4997 83.2507L67.8522 83.7682L68.0997 84.1582L68.5497 84.8407C68.8192 85.2611 69.1335 85.6508 69.4872 86.0032C69.623 86.1341 69.7803 86.2407 69.9522 86.3182C70.0123 86.3408 70.0756 86.3534 70.1397 86.3557H70.2747C70.1322 85.8157 70.4772 87.1057 70.4397 86.9632C70.4397 86.9632 70.3797 86.9632 70.2972 86.9632C70.2137 86.9717 70.1309 86.9868 70.0497 87.0082H69.8997H69.8247V86.9632L69.7572 86.8282L69.5697 86.4907L69.1272 85.7932L68.2047 84.3682C68.0472 84.1282 67.8972 83.8807 67.7472 83.6182C67.571 83.3312 67.43 83.024 67.3272 82.7032C67.2597 82.4332 67.1847 82.1632 67.1172 81.8557C67.0799 81.6831 67.0598 81.5073 67.0572 81.3307C67.0446 81.0657 67.1154 80.8033 67.2597 80.5807C67.3678 80.4238 67.5188 80.3014 67.6947 80.2282C67.8254 80.1728 67.9653 80.1423 68.1072 80.1382C68.3066 80.1281 68.5064 80.1483 68.6997 80.1982C68.855 80.2332 69.0078 80.2783 69.1572 80.3332C69.3362 80.3958 69.5073 80.4789 69.6672 80.5807C70.1997 80.9482 70.6047 81.2782 71.0547 81.5857C71.4738 81.8901 71.9179 82.1586 72.3822 82.3882C72.7611 82.5921 73.1822 82.705 73.6122 82.7182C73.7523 82.7121 73.8883 82.6694 74.0067 82.5944C74.1251 82.5194 74.2219 82.4147 74.2872 82.2907L74.5572 83.5732L73.6272 83.0557C73.1247 82.7632 72.6297 82.4932 72.1272 82.1707C71.4489 81.773 70.8407 81.2662 70.3272 80.6707C70.1779 80.4782 70.066 80.2594 69.9972 80.0257C69.9592 79.8174 69.9592 79.604 69.9972 79.3957C70.0172 79.2448 70.0826 79.1035 70.1847 78.9907C70.2597 78.9457 70.3272 78.9907 70.4397 78.9907H70.5822H70.8147C71.0334 79.0212 71.2417 79.1035 71.4222 79.2307C71.6472 79.3582 71.9247 79.5232 72.2322 79.7182C73.2897 80.3782 74.4822 81.0307 75.6297 81.6682L77.0247 82.4182L76.0347 83.5732C75.8222 83.858 75.5695 84.1106 75.2847 84.3232C75.1311 84.4353 74.9708 84.538 74.8047 84.6307C74.6267 84.7055 74.4438 84.7681 74.2572 84.8182C73.6119 84.9689 72.9376 84.9403 72.3072 84.7357C71.3793 84.4125 70.5085 83.9442 69.7272 83.3482L68.7072 82.5982C68.5722 82.4932 68.3772 82.3732 68.3772 82.3732H68.3247L68.1447 82.3282H68.0922V82.1632C68.134 81.8805 68.1187 81.5924 68.0472 81.3157C68.043 81.2884 68.043 81.2605 68.0472 81.2332C68.0472 81.2332 68.0472 81.2332 68.1447 81.2932H68.2647C68.3305 81.3153 68.3983 81.3304 68.4672 81.3382C68.6546 81.3487 68.8424 81.3487 69.0297 81.3382H69.1797C69.1785 81.3607 69.1785 81.3832 69.1797 81.4057C69.1752 81.4731 69.1752 81.5408 69.1797 81.6082L69.3372 82.1707C69.3372 82.1707 69.3372 82.1707 69.3372 82.2082C69.5013 82.5423 69.6867 82.8654 69.8922 83.1757L70.6422 84.2857C70.8972 84.6682 71.1447 85.0357 71.3922 85.4932L71.5872 85.8532C71.6944 86.0404 71.7799 86.2392 71.8422 86.4457C71.8828 86.595 71.9055 86.7486 71.9097 86.9032C71.9135 86.9631 71.9135 87.0233 71.9097 87.0832C71.9001 87.2139 71.8724 87.3427 71.8272 87.4657C71.7811 87.6057 71.7127 87.7374 71.6247 87.8557C71.5095 88.0175 71.3612 88.153 71.1897 88.2532C71.1043 88.3115 71.0108 88.357 70.9122 88.3882H70.7922H70.7322H70.6422L70.4997 88.5007C70.2512 88.5389 69.9983 88.5389 69.7497 88.5007C68.9905 88.3579 68.3012 87.9644 67.7922 87.3832C67.4347 86.9901 67.1064 86.5715 66.8097 86.1307L66.1272 85.0732C66.1246 85.0508 66.1246 85.0281 66.1272 85.0057L66.1347 84.9532Z" fill="#231F20"/>
<path d="M25.9577 58.2307C25.9759 58.1279 26.0153 58.03 26.0735 57.9434C26.1317 57.8567 26.2073 57.7831 26.2955 57.7273C26.3838 57.6716 26.4827 57.6348 26.586 57.6195C26.6892 57.6041 26.7945 57.6105 26.8952 57.6382C28.8677 58.3657 25.3202 60.7507 25.9577 58.2307Z" fill="#231F20"/>
<path d="M83.0623 49.537C83.0842 49.4043 83.1342 49.2777 83.209 49.1658C83.2838 49.054 83.3817 48.9593 83.496 48.8883C83.6103 48.8173 83.7385 48.7716 83.8719 48.7541C84.0054 48.7366 84.141 48.7479 84.2698 48.787C86.7973 49.717 82.2373 52.732 83.0623 49.537Z" fill="#231F20"/>
<path d="M30.4129 77.8803C30.6113 77.7578 30.76 77.5692 30.8329 77.3478C30.8479 77.2685 30.8479 77.1871 30.8329 77.1078C30.8313 76.9549 30.7831 76.8062 30.6946 76.6815C30.6061 76.5569 30.4817 76.4622 30.3379 76.4103C30.2857 76.3902 30.2284 76.3874 30.1744 76.4023C30.1204 76.4171 30.0726 76.4488 30.0379 76.4928C29.9644 76.6503 29.9115 76.8167 29.8804 76.9878C29.8804 77.0478 29.6704 77.0553 29.4979 76.9878C29.4021 76.9631 29.3184 76.9049 29.2619 76.8237C29.2055 76.7424 29.1801 76.6436 29.1904 76.5453C29.2256 76.3427 29.3195 76.155 29.4604 76.0053C29.6125 75.8284 29.8225 75.7115 30.0529 75.6753C30.2453 75.6512 30.4406 75.6742 30.6221 75.7421C30.8037 75.81 30.9661 75.9209 31.0954 76.0653C31.3744 76.3591 31.5507 76.7354 31.5979 77.1378C31.6087 77.3536 31.5728 77.5692 31.4925 77.7699C31.4123 77.9705 31.2896 78.1514 31.1329 78.3003C30.9668 78.4721 30.7744 78.6164 30.5629 78.7278C30.3927 78.8313 30.2035 78.8999 30.0065 78.9295C29.8095 78.9591 29.6086 78.9492 29.4154 78.9003C29.2497 78.8403 29.1052 78.733 28.9998 78.5917C28.8945 78.4504 28.833 78.2812 28.8229 78.1053C28.8155 78.0355 28.8155 77.9651 28.8229 77.8953C28.8679 77.6628 28.9504 77.6028 29.1529 77.6103H29.2504C29.3215 77.622 29.3882 77.6526 29.4436 77.6987C29.499 77.7449 29.541 77.8049 29.5654 77.8728C29.6179 78.0753 29.6929 78.1728 29.7154 78.1428C29.7379 78.1128 29.7154 78.1428 29.7604 78.1428C29.9862 78.1104 30.1988 78.0171 30.3754 77.8728L30.4129 77.8803Z" fill="#231F20"/>
<path d="M13.0654 53.5652C13.2642 53.4432 13.4131 53.2544 13.4854 53.0327C13.5004 52.9534 13.5004 52.872 13.4854 52.7927C13.4838 52.6399 13.4356 52.4911 13.3471 52.3665C13.2586 52.2418 13.1342 52.1472 12.9904 52.0952C12.9386 52.0765 12.8824 52.0737 12.829 52.0871C12.7756 52.1004 12.7273 52.1294 12.6904 52.1702C12.6169 52.3278 12.564 52.4941 12.5329 52.6652C12.5329 52.7252 12.3229 52.7327 12.1504 52.6652C11.9779 52.5977 11.7979 52.4402 11.8429 52.2302C11.8861 52.0281 11.9789 51.84 12.1129 51.6827C12.2658 51.5081 12.4758 51.3938 12.7054 51.3602C12.8979 51.3342 13.0938 51.3562 13.2757 51.4243C13.4576 51.4923 13.6198 51.6043 13.7479 51.7502C14.0283 52.0431 14.2048 52.4199 14.2504 52.8227C14.2591 53.0399 14.223 53.2565 14.1443 53.4591C14.0655 53.6617 13.9459 53.8459 13.7929 54.0002C13.6225 54.1703 13.4279 54.3143 13.2154 54.4277C13.0456 54.529 12.8575 54.5957 12.6619 54.624C12.4662 54.6523 12.2669 54.6417 12.0754 54.5927C11.9133 54.5395 11.7703 54.4403 11.6637 54.3071C11.5571 54.1739 11.4917 54.0125 11.4754 53.8427C11.4717 53.7728 11.4717 53.7027 11.4754 53.6327C11.5279 53.4002 11.6029 53.3402 11.8129 53.3477H11.9479C12.0193 53.3587 12.0864 53.389 12.1419 53.4352C12.1974 53.4815 12.2392 53.542 12.2629 53.6102C12.3154 53.8052 12.3904 53.9027 12.4129 53.8727C12.4354 53.8427 12.4129 53.8727 12.4654 53.8727C12.687 53.8385 12.8962 53.7482 13.0729 53.6102L13.0654 53.5652Z" fill="#231F20"/>
<path d="M49.3502 5.82727C49.2527 5.74477 49.3502 5.62477 49.5227 5.47477C49.6165 5.42052 49.722 5.38965 49.8302 5.38477C49.9035 5.41864 49.9738 5.45879 50.0402 5.50477C50.0402 5.50477 50.3702 6.02977 50.4902 6.18727C50.5976 6.34218 50.6881 6.50812 50.7602 6.68227C50.9177 7.02727 51.0902 7.37227 51.2702 7.70977C51.3088 7.78551 51.3366 7.8663 51.3527 7.94977C51.4266 8.23438 51.5456 8.50531 51.7052 8.75227C51.7223 8.80079 51.7571 8.84101 51.8027 8.86477C52.0053 9.13586 52.1693 9.43369 52.2902 9.74977C52.3577 10.0048 52.3877 10.2823 52.4552 10.5448C52.4552 10.5823 52.4552 10.6123 52.4552 10.6573C52.4552 10.7023 52.4552 10.8373 52.4552 10.9198C52.5014 11.0233 52.5366 11.1314 52.5602 11.2423C52.5713 11.3068 52.5713 11.3727 52.5602 11.4373C52.5602 11.4973 52.4477 11.5273 52.4252 11.5198C52.4027 11.5123 52.3427 11.5198 52.3052 11.5798C52.0889 11.4342 51.8811 11.2765 51.6827 11.1073L51.3527 10.7173C51.227 10.5739 51.1093 10.4237 51.0002 10.2673C50.9682 10.2174 50.9477 10.1611 50.9402 10.1023L50.4827 9.41977C50.3899 9.28478 50.3379 9.12599 50.3327 8.96227C50.3392 8.93262 50.3392 8.90191 50.3327 8.87227C50.2076 8.63215 50.1047 8.3811 50.0252 8.12227C49.9802 7.98727 49.9127 7.86727 49.8602 7.73977C49.8077 7.61227 49.8602 7.68727 49.8602 7.66477C49.8682 7.63275 49.8682 7.59928 49.8602 7.56727C49.7252 7.26727 49.6427 6.94477 49.4927 6.64477C49.4552 6.57727 49.4327 6.20227 49.3877 6.11977C49.3427 6.03727 49.3877 5.86477 49.3502 5.82727Z" fill="#231F20"/>
<path d="M61.8677 4.40292C61.8677 4.29792 61.9802 4.26792 62.2127 4.28292C62.3202 4.30065 62.4226 4.3416 62.5127 4.40292C62.5489 4.47007 62.579 4.54035 62.6027 4.61292C62.6027 4.61292 62.5277 5.17542 62.4977 5.36292C62.4698 5.53538 62.422 5.70402 62.3552 5.86542C62.2202 6.18792 62.0927 6.51792 61.9427 6.84042C61.9129 6.91118 61.8724 6.97694 61.8227 7.03542C61.6513 7.24208 61.5146 7.47509 61.4177 7.72542C61.4016 7.76898 61.4016 7.81685 61.4177 7.86042C61.3314 8.13082 61.1995 8.38447 61.0277 8.61042C60.8627 8.78292 60.6527 8.93292 60.4802 9.09792C60.4802 9.09792 60.4802 9.15792 60.3902 9.15792C60.3002 9.15792 60.2477 9.24042 60.2027 9.29292L59.9927 9.51792C59.9416 9.54582 59.889 9.57086 59.8352 9.59292C59.7827 9.59292 59.7002 9.53292 59.7002 9.51792C59.7002 9.50292 59.6252 9.46542 59.5802 9.44292H59.5352C59.5352 9.44292 59.5352 8.81292 59.5877 8.75292L59.7077 8.32542C59.7491 8.16446 59.8018 8.00658 59.8652 7.85292C59.8652 7.80042 59.9252 7.77042 59.9552 7.73292C59.9852 7.69542 60.1952 7.10292 60.2102 7.08042C60.2252 7.05792 60.3077 6.83292 60.4577 6.75792C60.4792 6.74056 60.4949 6.717 60.5027 6.69042C60.6082 6.4845 60.7285 6.28648 60.8627 6.09792C60.9227 6.00042 60.9677 5.88792 61.0202 5.78292C61.0727 5.67792 61.0202 5.78292 61.0652 5.73792L61.1177 5.67042C61.2494 5.42848 61.3647 5.17791 61.4627 4.92042C61.4627 4.85292 61.7027 4.61292 61.7177 4.54542C61.7327 4.47792 61.8752 4.44792 61.8677 4.40292Z" fill="#231F20"/>
<path d="M14.6026 21.1577C14.4826 21.1202 14.5126 20.9777 14.6026 20.7677C14.6627 20.6778 14.7455 20.6054 14.8426 20.5577C14.9225 20.5537 15.0026 20.5537 15.0826 20.5577C15.1276 20.5577 15.6151 20.9402 15.7801 21.0677C15.9402 21.1857 16.0839 21.3244 16.2076 21.4802C16.4701 21.7877 16.7326 22.0877 16.9576 22.4027C17.0151 22.4722 17.0607 22.5508 17.0926 22.6352C17.2254 22.9033 17.389 23.155 17.5801 23.3852C17.6176 23.4227 17.6401 23.4677 17.7001 23.4902C17.9335 23.7342 18.1282 24.0124 18.2776 24.3152C18.3676 24.5702 18.4201 24.8477 18.5026 25.1027C18.5026 25.1027 18.5401 25.1702 18.5026 25.2227C18.4828 25.2623 18.4725 25.306 18.4725 25.3502C18.4725 25.3945 18.4828 25.4381 18.5026 25.4777C18.5504 25.5847 18.5905 25.695 18.6226 25.8077C18.6304 25.87 18.6304 25.933 18.6226 25.9952C18.6226 26.0552 18.5101 26.0927 18.4951 26.0852C18.4801 26.0777 18.4126 26.0852 18.3751 26.1527H18.3376C18.1161 26.0186 17.9032 25.8708 17.7001 25.7102L17.3476 25.3502C17.1601 25.1777 17.0101 24.9677 16.9651 24.9302C16.9337 24.8847 16.9108 24.8339 16.8976 24.7802C16.8976 24.7802 16.4026 24.1952 16.3876 24.1652C16.3726 24.1352 16.1926 23.9327 16.1851 23.7527C16.1761 23.7224 16.1607 23.6943 16.1401 23.6702C15.9895 23.4561 15.8518 23.2332 15.7276 23.0027C15.6601 22.8902 15.5701 22.7927 15.4876 22.6802C15.4051 22.5677 15.4876 22.6352 15.4876 22.6127C15.4771 22.583 15.4619 22.5551 15.4426 22.5302C15.267 22.2656 15.0715 22.0149 14.8576 21.7802C14.8051 21.7277 14.6626 21.3977 14.5951 21.3452C14.5276 21.2927 14.6476 21.1727 14.6026 21.1577Z" fill="#231F20"/>
<path d="M11.1675 31.5012C11.07 31.5537 11.0025 31.4262 10.965 31.1937C10.9564 31.086 10.9744 30.9778 11.0175 30.8787C11.068 30.8255 11.1262 30.78 11.19 30.7437C11.2275 30.7437 11.7375 30.6687 11.94 30.6312C12.1044 30.6125 12.2705 30.6125 12.435 30.6312H13.44C13.5145 30.6199 13.5904 30.6199 13.665 30.6312C13.9087 30.6994 14.1629 30.7223 14.415 30.6987C14.4566 30.711 14.5008 30.711 14.5425 30.6987C14.8257 30.6534 15.1143 30.6534 15.3975 30.6987C15.63 30.7587 15.855 30.8712 16.08 30.9312C16.1175 30.9312 16.1475 30.9312 16.1775 30.9762C16.2075 31.0212 16.32 31.0587 16.395 31.0737C16.494 31.0891 16.5917 31.1116 16.6875 31.1412C16.7399 31.1659 16.788 31.1988 16.83 31.2387C16.875 31.2387 16.83 31.3812 16.83 31.3962C16.83 31.4112 16.83 31.4787 16.83 31.5312C16.8335 31.546 16.8335 31.5614 16.83 31.5762C16.6278 31.6961 16.4172 31.8014 16.2 31.8912L15.765 32.0037C15.602 32.0458 15.4367 32.0783 15.27 32.1012C15.2206 32.1125 15.1693 32.1125 15.12 32.1012L14.37 32.1837C14.235 32.1837 14.0925 32.1837 13.9575 32.1087C13.9305 32.101 13.9019 32.101 13.875 32.1087C13.6356 32.106 13.3971 32.0809 13.1625 32.0337C13.0401 32.026 12.9173 32.026 12.795 32.0337H12.735H12.6525C12.36 32.0337 12.075 31.9437 11.79 31.9512C11.7225 31.9512 11.415 31.8162 11.34 31.8237C11.265 31.8312 11.25 31.5012 11.1675 31.5012Z" fill="#231F20"/>
<path d="M77.3252 60.5847C77.2421 60.8021 77.2421 61.0424 77.3252 61.2597C77.4189 61.4257 77.5637 61.5569 77.738 61.6339C77.9123 61.711 78.1069 61.7297 78.2927 61.6872C78.3462 61.6689 78.3928 61.6347 78.4263 61.5891C78.4598 61.5435 78.4786 61.4888 78.4802 61.4323C78.4403 61.2654 78.3799 61.1041 78.3002 60.9522C78.3002 60.8847 78.4127 60.7647 78.5927 60.7122C78.6817 60.6731 78.7817 60.6667 78.875 60.6941C78.9684 60.7216 79.049 60.7811 79.1027 60.8622C79.1981 61.0448 79.2446 61.2489 79.2377 61.4548C79.2292 61.6874 79.1358 61.9088 78.9752 62.0772C78.8422 62.2191 78.6755 62.3251 78.4907 62.3854C78.3058 62.4458 78.1087 62.4584 77.9177 62.4223C77.5158 62.3704 77.1418 62.1887 76.8527 61.9047C76.7145 61.7395 76.6114 61.548 76.5495 61.3417C76.4876 61.1354 76.4683 60.9187 76.4927 60.7048C76.5148 60.4641 76.5756 60.2286 76.6727 60.0073C76.7421 59.8223 76.8475 59.6528 76.9826 59.5087C77.1177 59.3645 77.28 59.2485 77.4602 59.1672C77.6267 59.109 77.8068 59.1014 77.9777 59.1454C78.1485 59.1895 78.3025 59.2832 78.4202 59.4148C78.4756 59.459 78.5259 59.5093 78.5702 59.5647C78.6752 59.7747 78.6527 59.8722 78.4877 59.9922C78.4507 60.0239 78.4105 60.0516 78.3677 60.0747C78.3058 60.1096 78.2361 60.1279 78.1652 60.1279C78.0942 60.1279 78.0245 60.1096 77.9627 60.0747C77.7977 59.9472 77.6777 59.9248 77.6777 59.9548C77.6777 59.9848 77.6777 59.9547 77.6777 59.9997C77.5255 60.1672 77.4196 60.3714 77.3702 60.5922L77.3252 60.5847Z" fill="#231F20"/>
</svg>
