<svg width="96" height="96" viewBox="0 0 96 96" fill="none" xmlns="http://www.w3.org/2000/svg">
<path d="M66.0303 37.6424C66.0303 37.6424 69.0378 37.9649 69.3303 37.2074C69.6228 36.4424 69.3078 35.0474 69.8103 34.5899C70.3128 34.1324 70.6053 40.0049 70.0053 39.8549C69.4053 39.7049 66.0303 37.6499 66.0303 37.6499V37.6424Z" fill="#231F20"/>
<path d="M48.2779 39.8551C48.2779 39.8551 49.0954 41.5501 49.6804 41.1976C50.2654 40.8451 51.6379 37.7626 52.9654 37.1176C53.7679 36.7276 49.8754 43.5826 49.4704 43.6351C49.0654 43.6876 47.1079 40.4176 47.3404 39.8551C47.5729 39.2926 48.2779 39.8551 48.2779 39.8551Z" fill="#231F20"/>
<path d="M30.2252 36.1501C30.2252 36.1501 30.0377 37.9126 30.9902 38.1076C31.8377 38.2801 33.3602 37.2901 33.4052 37.2451C33.4502 37.2001 29.3027 41.1826 29.3027 41.1826L30.2327 36.1426L30.2252 36.1501Z" fill="#231F20"/>
<path d="M56.0321 74.999L55.4246 77.3615C55.3496 77.6465 55.3196 77.9465 55.2446 78.239C54.9746 79.259 54.7121 80.279 54.4796 81.314C54.3596 81.7715 54.2621 82.229 54.1646 82.6865C54.0746 83.279 53.8646 83.849 53.6396 84.419C53.5646 84.5915 53.5271 84.5615 53.4671 84.389C53.4146 84.2165 53.2871 83.9015 53.2496 83.549C53.1521 82.304 53.2421 81.089 53.6021 79.904C53.7971 79.1915 53.8496 78.419 53.9846 77.6765C54.1271 76.859 54.3146 76.049 54.5171 75.239L54.8996 73.7465C55.0796 72.989 55.3196 72.2465 55.5446 71.504C55.7171 70.9265 55.8146 70.334 56.0246 69.764C56.0771 69.644 56.1221 69.5165 56.1821 69.3965C56.4371 68.9615 56.5871 68.849 56.8196 68.849C56.8721 68.849 56.9321 68.8415 56.9771 68.849C57.1346 68.879 57.1796 69.119 57.1496 69.4715C57.1121 69.734 57.1121 70.004 57.0971 70.274C57.0446 70.529 56.9996 70.7915 56.9546 71.054C56.8571 71.579 56.7521 72.104 56.6546 72.6365C56.4896 73.424 56.2496 74.204 56.0771 74.999H56.0396H56.0321Z" fill="#231F20"/>
<path d="M60.5323 75.0221C59.7898 75.9146 59.0698 76.8296 58.3723 77.7596C58.1173 78.0971 57.8998 78.4646 57.6448 78.8021C56.7373 79.9946 55.8223 81.1871 54.9748 82.4246C54.5923 82.9721 54.2548 83.5496 53.9248 84.1196C53.4973 84.8546 53.0473 85.5746 52.4023 86.1821C52.2073 86.3771 52.1473 86.3021 52.1173 86.0246C52.1023 85.8821 52.0873 85.6946 52.0723 85.4621C52.0723 85.3496 52.0723 85.2221 52.0723 85.1021C52.0723 85.0346 52.0873 84.9746 52.0798 84.9071C52.1023 84.8471 52.1173 84.7871 52.1398 84.7346C52.3123 84.3296 52.4773 83.9171 52.6723 83.5196L53.3623 82.4021C53.8423 81.6671 54.3448 80.9471 54.8923 80.2496C55.5523 79.4171 56.0848 78.4571 56.7223 77.5871C57.4198 76.6271 58.1398 75.6821 58.8748 74.7446L60.2548 73.0346C60.9673 72.1871 61.7248 71.3696 62.4448 70.5371C63.0073 69.8921 63.5473 69.2471 64.1398 68.6396C64.2748 68.5046 64.3873 68.3696 64.5298 68.2421C65.0623 67.7846 65.2948 67.7096 65.5198 67.7321C65.5723 67.7321 65.6323 67.7321 65.6698 67.7546C65.8048 67.7996 65.6773 68.0846 65.3998 68.5121C64.5223 69.7346 63.6523 71.0321 62.6848 72.2621L61.6423 73.6646L60.5548 75.0371L60.5248 75.0146L60.5323 75.0221Z" fill="#231F20"/>
<path d="M30.2103 63.412C31.7778 65.137 33.3753 66.847 34.9878 68.5495L36.7653 70.3945C38.8128 72.607 40.8453 74.8495 42.7803 77.1745C43.6503 78.1945 44.5053 79.237 45.3603 80.257C45.8928 80.9245 46.4103 81.6145 46.9203 82.3045C47.3928 83.0245 47.9028 83.7145 48.2778 84.4945C48.5103 84.982 48.3828 84.9745 47.9553 84.727C47.5053 84.487 46.8153 83.977 46.2153 83.212L44.5578 81.232C44.0403 80.542 43.4703 79.8895 42.9378 79.2145C41.8428 77.8795 40.7328 76.5445 39.6003 75.2095C38.2578 73.6045 36.7053 72.0745 35.2278 70.522L30.3528 65.3845C29.3553 64.327 28.3728 63.247 27.4053 62.167C26.6553 61.357 25.9503 60.502 25.2228 59.677C24.5103 58.8295 23.8053 57.9895 23.1003 57.1495C22.5678 56.482 22.0278 55.837 21.4728 55.192L19.8978 53.2045C19.6578 52.912 19.4478 52.6195 19.2528 52.297C18.8853 51.7045 18.6528 51.307 18.5478 50.992C18.4503 50.6695 18.4503 50.4595 18.5028 50.2495C18.5253 50.152 18.5403 50.047 18.5703 49.9795C18.6303 49.867 18.7728 49.9045 18.9978 50.0545C19.2228 50.212 19.5378 50.4745 19.8453 50.872C20.3028 51.457 20.7903 52.0345 21.2628 52.6345C21.7203 53.242 22.1853 53.8495 22.6503 54.4645C23.1228 55.072 23.6028 55.687 24.0828 56.302C24.5778 56.9095 25.0728 57.517 25.5678 58.132C26.3103 59.032 27.0978 59.902 27.8628 60.7945C28.6578 61.6645 29.4303 62.5495 30.2328 63.4045L30.2103 63.427V63.412Z" fill="#231F20"/>
<path d="M64.4854 46.1998C64.4854 46.1998 70.4403 44.6548 74.5878 44.2048C76.9353 43.9498 81.0378 43.8148 80.5053 43.3273C80.4078 43.2373 79.3204 42.0823 79.1629 42.0148C78.2254 41.6248 67.8529 44.2048 67.8529 44.2048L64.4928 46.1998H64.4854Z" fill="#231F20"/>
<path d="M51.0749 48.4641C50.0249 48.5616 48.9674 48.6366 47.9024 48.6816C47.5199 48.7041 47.1299 48.7491 46.7474 48.7566C45.3824 48.7791 44.0174 48.7566 42.6524 48.6591C42.0449 48.6291 41.4374 48.5916 40.8374 48.5616L39.6824 48.4191C39.5849 48.4041 39.4949 48.3816 39.3974 48.3666L39.1199 48.2391C38.9399 48.1566 38.7674 48.0666 38.5799 47.9766C38.3549 47.8641 38.3849 47.8941 38.5949 47.8416C38.6999 47.8116 38.8574 47.7591 39.0449 47.6691C39.1574 47.6166 39.2549 47.5716 39.3449 47.5266C39.3974 47.4966 39.4499 47.4891 39.5099 47.4441C39.5624 47.4441 39.6149 47.4441 39.6674 47.4441C41.1974 47.3991 42.6974 47.5416 44.2574 47.6316C45.1874 47.6991 46.1474 47.5791 47.0999 47.5191C48.1424 47.4516 49.1924 47.3691 50.2349 47.2791C50.8799 47.2191 51.5249 47.1591 52.1699 47.0766C53.1449 46.9566 54.1274 46.8441 55.0874 46.6791C55.8374 46.5441 56.5574 46.3416 57.2924 46.1691C57.4574 46.1316 57.6149 46.1016 57.7799 46.0791C58.3949 46.0116 58.6049 46.0791 58.7774 46.3416C58.8149 46.4016 58.8674 46.4616 58.8899 46.5216C58.9799 46.7241 58.7549 46.9491 58.3274 47.1216C57.6899 47.3991 57.0224 47.5716 56.3399 47.7066C55.6574 47.8491 54.9524 47.9691 54.2474 48.0816C53.1974 48.2391 52.1399 48.3666 51.0824 48.4866V48.4566L51.0749 48.4641Z" fill="#231F20"/>
<path d="M15.6221 44.2129C15.6221 44.2129 16.5146 45.3154 17.1146 45.6004C17.5421 45.8029 20.2196 46.0504 23.3471 46.0879C26.4746 46.1254 29.9396 46.2079 30.9296 46.2079C32.2271 46.2079 33.6821 45.9979 33.6821 45.9979L15.6221 44.2129Z" fill="#231F20"/>
<path d="M38.5051 37.6942L40.0726 34.9192C40.2601 34.5817 40.4101 34.2217 40.5976 33.8767C41.2651 32.6767 41.9401 31.4692 42.5776 30.2542C42.8626 29.7142 43.1476 29.1667 43.4176 28.6267C43.7326 27.9142 44.1901 27.2617 44.6551 26.6242C44.8051 26.4292 44.8351 26.4817 44.8426 26.7067C44.8426 26.9317 44.8651 27.3667 44.7676 27.8167C44.4076 29.3992 43.7476 30.8317 42.9451 32.2267C42.4651 33.0592 42.1201 33.9967 41.6926 34.8817C41.2276 35.8567 40.7326 36.8242 40.2151 37.7692L39.2476 39.5242C38.7451 40.4017 38.2426 41.2867 37.7476 42.1567C37.3651 42.8392 37.0651 43.5517 36.6976 44.2417C36.6151 44.3917 36.5551 44.5567 36.4576 44.6992C36.0526 45.2017 35.8501 45.3067 35.4376 45.1792C35.3551 45.1567 35.2726 45.1492 35.2051 45.1267C35.0251 45.0742 34.8526 44.6317 35.0176 44.1967C35.4676 42.8842 36.2326 41.7142 36.9151 40.4617C37.4326 39.5392 37.9726 38.6242 38.4751 37.6792L38.5126 37.6942H38.5051Z" fill="#231F20"/>
<path d="M22.3052 34.3048C25.1852 31.4773 28.1327 28.7248 31.2077 26.0923L32.8952 24.6523L33.3227 24.2998C33.4802 24.1723 33.5552 24.1048 33.8627 23.8723C34.1327 23.7373 34.4702 23.6473 34.7477 23.6398L35.3177 23.6173C40.5152 23.5723 45.6527 23.6473 50.8202 23.6473C53.1077 23.6473 55.4102 23.5873 57.6752 23.5048C59.1302 23.4448 60.5927 23.3773 62.0477 23.3473L64.2377 23.2948C64.9652 23.2648 65.7002 23.3323 66.4277 23.3323C67.3427 23.3623 67.2302 23.4448 66.4727 23.6923C66.0377 23.8348 65.5052 24.0073 64.9052 24.2023C64.2527 24.3823 63.4802 24.5098 62.6402 24.5998C59.6627 24.9298 56.6702 24.9823 53.6777 25.0798C50.6852 25.1473 47.6927 25.1848 44.6852 25.1248C42.8852 25.0873 41.0477 25.0948 39.2102 25.1248C38.2877 25.1398 37.3652 25.1548 36.4427 25.1773L35.0777 25.2148L34.7927 25.2298C34.7927 25.2298 34.7177 25.2298 34.6802 25.2448L34.2902 25.5523C31.1777 28.0723 28.2077 30.8098 25.3052 33.6073C23.5202 35.3323 21.7652 37.0873 20.0477 38.8873C19.2077 39.7648 18.3752 40.6573 17.5727 41.5573L17.1227 42.0673L16.7927 42.4573C16.7402 42.5248 16.6877 42.5923 16.6352 42.6673C16.5827 42.7273 16.5152 42.8548 16.6502 42.8248L17.1527 42.8548C18.3452 42.9448 19.5302 43.0348 20.7077 43.1248C23.6177 43.3723 26.4752 43.6198 29.3477 44.0848C29.9777 44.1973 30.6002 44.2798 31.2377 44.4223C32.4152 44.6548 33.1652 44.9548 33.6752 45.1798C34.1852 45.4123 34.4477 45.6523 34.6352 45.9073C34.7177 46.0273 34.8377 46.1548 34.8752 46.2598C34.9877 46.6123 34.0127 46.5298 32.3327 46.2598C29.8427 45.8173 27.2702 45.4198 24.6377 45.1348C23.3252 44.9848 21.9977 44.8498 20.6552 44.7373L18.6452 44.5798L15.6077 44.3848H15.5852L14.8802 43.9198L14.7002 43.7998L14.6102 43.7398L14.5652 43.6348C14.5202 43.5148 14.4827 43.4098 14.4827 43.2673C14.3927 42.7348 15.1727 41.8423 15.7952 41.1073L16.4402 40.3648L16.9577 39.7948L18.0002 38.6698C19.3952 37.1848 20.8202 35.7298 22.2602 34.2898L22.2902 34.3123L22.3052 34.3048Z" fill="#231F20"/>
<path d="M57.4421 37.9583C57.1646 37.0433 56.8646 36.1358 56.5946 35.2058C56.4896 34.8683 56.3396 34.5458 56.2346 34.2083L55.7021 32.4083L55.2146 30.5858C55.0646 30.0458 54.8771 29.5208 54.7046 28.9958C54.5921 28.6583 54.4721 28.3283 54.3671 27.9908C54.2846 27.6458 54.2471 27.2783 54.2021 26.9258C54.1796 26.7008 54.2546 26.7083 54.4346 26.8433C54.6071 26.9858 54.9371 27.2333 55.1846 27.5708C55.8221 28.8608 56.4371 30.1508 56.8871 31.5233C57.1571 32.3483 57.5396 33.1658 57.8696 33.9908C58.2221 34.9058 58.5521 35.8283 58.8296 36.7808L59.3471 38.5283C59.5946 39.4133 59.8346 40.3058 60.0821 41.1908C60.2696 41.8733 60.5546 42.5258 60.7346 43.2158C60.7796 43.3658 60.8246 43.5158 60.8471 43.6658C60.8696 43.8083 60.8846 43.9283 60.8846 44.0333C60.8846 44.1383 60.8396 44.2283 60.8021 44.3033C60.7271 44.4533 60.6296 44.5433 60.4871 44.6333C60.4196 44.6708 60.3596 44.7158 60.2996 44.7458C60.1046 44.8283 59.8421 44.6408 59.5571 44.2733C58.9646 43.1483 58.6571 41.9333 58.2671 40.7108C57.9896 39.8033 57.7121 38.8883 57.3971 37.9808L57.4346 37.9658L57.4421 37.9583Z" fill="#231F20"/>
<path d="M51.0977 47.5495L47.4452 47.5645C47.0027 47.5645 46.5602 47.602 46.1102 47.587C44.5427 47.5345 42.9752 47.437 41.4077 47.287C40.7177 47.2195 40.0127 47.167 39.3227 47.092C38.8802 47.0545 38.4377 46.987 37.9952 46.8745C37.7777 46.822 37.5602 46.777 37.3427 46.702C37.1252 46.6345 36.9302 46.4995 36.7277 46.402C36.4802 46.2595 36.5252 46.2295 36.7877 46.1545C36.9677 46.0945 37.1552 46.0345 37.3202 45.982C37.5302 45.937 37.7627 45.922 38.0102 45.922L38.6627 45.9595C38.8802 45.9595 39.1052 45.967 39.3152 45.997C39.7502 46.0495 40.1852 46.0795 40.6277 46.117C41.5052 46.1845 42.3902 46.2595 43.2902 46.327C44.3627 46.4245 45.4802 46.327 46.5827 46.3195C47.7902 46.297 49.0052 46.2745 50.2202 46.2295C50.9702 46.1995 51.7127 46.177 52.4627 46.132C53.5952 46.072 54.7352 46.0195 55.8527 45.8995C56.7227 45.817 57.5702 45.652 58.4327 45.5245C58.6202 45.4945 58.8077 45.457 58.9952 45.4345C59.3477 45.382 59.5877 45.397 59.7602 45.487C59.9327 45.562 60.0377 45.667 60.1277 45.817C60.1652 45.8845 60.2177 45.952 60.2477 46.0195C60.3302 46.2295 60.0602 46.4845 59.5577 46.702C58.0352 47.0845 56.4152 47.3095 54.7727 47.3995C53.5577 47.482 52.3277 47.5195 51.0977 47.5645V47.5345V47.5495Z" fill="#231F20"/>
<path d="M77.9327 36.4884L79.6577 38.9034L80.8577 40.6059C81.0977 40.9584 81.3302 41.3259 81.3902 41.6259C81.4577 41.9334 81.4427 42.1284 81.3527 42.3759L80.8802 42.6834C80.7077 42.7809 80.6477 42.9159 80.2577 42.9309L78.4202 43.0284C75.9527 43.1634 73.4702 43.5309 71.0477 44.1534C69.9752 44.4309 68.9177 44.7984 67.8752 45.1584C67.2077 45.3984 66.5552 45.6759 65.8952 45.9309C65.2277 46.1709 64.5302 46.3659 63.8477 46.5834C63.4127 46.7109 63.4127 46.5684 63.6602 46.2234C63.9152 45.8859 64.4027 45.2634 65.1077 44.7759C66.4202 44.0634 67.7852 43.4334 69.2102 42.9459C70.6427 42.5034 72.1127 42.1584 73.6127 41.9409C74.5052 41.7984 75.4127 41.6559 76.3277 41.5134C76.7852 41.4459 77.2427 41.3784 77.7077 41.3184L78.3302 41.2509L78.5552 41.2359H78.6302H78.9002H79.0427C79.0952 41.2284 79.0427 41.1684 79.0277 41.1459C78.9527 41.0109 78.8627 40.8684 78.7652 40.7109C78.7427 40.6584 78.3677 40.1334 78.1127 39.7734L77.2802 38.6109L75.1202 35.6484C74.0177 34.1559 72.9152 32.6559 71.8277 31.1784C70.9727 30.0309 70.0577 28.9584 69.2027 27.8259C69.0077 27.5784 68.8352 27.3234 68.6627 27.0609C68.3477 26.5659 68.1752 26.2134 68.1077 25.9359C68.0327 25.6584 68.0402 25.4709 68.0927 25.2834C68.1152 25.2009 68.1302 25.1034 68.1602 25.0434C68.2652 24.8484 68.6852 25.1334 69.3302 25.7184C70.2302 26.6184 71.0777 27.5934 71.9102 28.5984C72.7427 29.6109 73.6052 30.6234 74.4002 31.6884C75.5927 33.2709 76.7852 34.8684 77.9777 36.4584L77.9402 36.4884H77.9327Z" fill="#231F20"/>
<path d="M27.923 61.3433C29.768 63.3983 31.643 65.4308 33.533 67.4558C34.223 68.1908 34.9505 68.8958 35.6405 69.6383C38.048 72.2708 40.448 74.9258 42.743 77.6633C43.7705 78.8708 44.8055 80.0858 45.8255 81.2858C46.478 82.0583 47.1305 82.8458 47.753 83.6483C48.338 84.4808 48.8555 85.3733 49.268 86.3108C49.5305 86.8958 49.3805 86.8883 48.8705 86.5958C48.368 86.2958 47.393 85.8008 46.6055 84.9758C44.063 81.8183 41.363 78.7733 38.693 75.6158C37.1105 73.7183 35.2505 71.9258 33.503 70.0883L27.758 63.9908C26.588 62.7308 25.4255 61.4558 24.278 60.1733C22.5305 58.2308 20.8505 56.2133 19.238 54.1658C17.9855 52.5758 16.7255 51.0158 15.6605 49.2683C15.413 48.8933 15.188 48.5033 14.978 48.0983C14.2505 46.5533 14.318 45.9233 14.648 45.4508C14.7155 45.3458 14.7755 45.2183 14.8355 45.1508C15.038 44.9333 15.6005 45.4508 16.193 46.4183C17.888 49.3358 20.108 52.2233 22.4855 55.0508C24.248 57.1583 26.078 59.2433 27.9605 61.2833L27.9305 61.3208L27.923 61.3433Z" fill="#231F20"/>
<path d="M44.9929 73.2076C44.2504 71.2426 43.5004 69.2851 42.7204 67.3426C42.4429 66.6301 42.0979 65.9476 41.8204 65.2351C40.8304 62.7301 39.8479 60.2176 38.7304 57.7726C38.2429 56.6776 37.6879 55.6126 37.1329 54.5701C36.7579 53.9101 36.4204 53.2276 36.0904 52.5376C35.7304 51.8626 35.4604 51.1426 35.1979 50.4151C35.0404 49.9576 35.1829 49.9501 35.5654 50.1976C35.7604 50.3176 36.0154 50.5051 36.3079 50.7376C36.6154 50.9626 36.9229 51.2626 37.1629 51.6376C37.3879 51.9601 37.5904 52.2976 37.8079 52.6276L38.1304 53.1226L38.4079 53.6401C38.7829 54.3301 39.1204 55.0426 39.4654 55.7476C40.1479 57.1651 40.7854 58.6051 41.3629 60.0826C42.0529 61.8451 42.9379 63.6001 43.6654 65.3926C44.4679 67.3576 45.2329 69.3376 45.9904 71.3176L47.3779 74.9776C48.0754 76.8226 48.7654 78.6826 49.5004 80.4976C50.0779 81.9076 50.7229 83.2501 51.3454 84.6226C51.4804 84.9226 51.6229 85.2151 51.7579 85.5226C52.0129 86.0851 52.1329 86.4751 52.1554 86.7826C52.1854 87.0826 52.1479 87.2776 52.0504 87.4576C52.0054 87.5401 51.9754 87.6451 51.9229 87.7051C51.7654 87.9001 51.3604 87.5251 50.8579 86.7526C49.5679 84.3676 48.4279 81.7651 47.3404 79.1326C46.5304 77.1751 45.7429 75.2101 44.9629 73.2376L45.0004 73.2226L44.9929 73.2076Z" fill="#231F20"/>
<path d="M55.11 72.3608C55.635 70.4708 56.1675 68.5808 56.67 66.6833L57.1725 64.5983C57.825 62.1608 58.485 59.7233 59.1375 57.2858C59.4225 56.2058 59.6475 55.0958 59.865 54.0083C60 53.3033 60.15 52.6058 60.315 51.9158C60.405 51.5708 60.4575 51.2183 60.6 50.8808C60.7425 50.5433 60.9 50.2133 61.0875 49.8833C61.3275 49.4783 61.3425 49.5383 61.4925 49.9583C61.56 50.1683 61.7175 50.4683 61.83 50.8208C61.8825 51.0008 61.965 51.1958 61.9875 51.3908C62.0025 51.5858 61.995 51.7883 61.9725 51.9908C61.875 52.7183 61.7775 53.4458 61.65 54.1733C61.4925 54.8933 61.32 55.6058 61.1475 56.3183C60.795 57.7433 60.3975 59.1608 59.94 60.5708C59.3775 62.2508 58.9725 64.0433 58.4775 65.7833C57.9225 67.6883 57.345 69.5933 56.7675 71.4908L55.6875 74.9933C55.1475 76.7633 54.5625 78.5258 54.0825 80.2958C53.6925 81.6683 53.385 83.0333 53.0325 84.3983C52.9575 84.6983 52.89 84.9983 52.8 85.2983C52.635 85.8533 52.515 86.2208 52.365 86.4533C52.1925 86.6783 52.0425 86.7983 51.8625 86.8733C51.78 86.9108 51.6975 86.9633 51.63 86.9708C51.5175 86.9933 51.4575 86.8808 51.4125 86.6483C51.375 86.4158 51.3375 86.0558 51.45 85.6508C51.9675 83.1758 52.7625 80.6558 53.52 78.0983C54.0375 76.1933 54.555 74.2733 55.065 72.3608H55.095H55.11Z" fill="#231F20"/>
<path d="M62.6404 70.358L67.3954 64.013L69.0978 61.6805C71.1453 58.973 73.2079 56.2805 75.1729 53.528C76.0579 52.313 76.9129 51.068 77.7079 49.8155C78.2254 49.013 78.7129 48.188 79.2154 47.378C79.7554 46.583 80.2654 45.788 80.8729 45.023C81.2479 44.543 81.2329 44.6255 81.1429 45.143C81.0979 45.4055 81.0454 45.7805 80.9854 46.253C80.9104 46.718 80.7454 47.213 80.5129 47.7305C80.1379 48.6605 79.5678 49.4855 79.0654 50.333C78.5554 51.188 78.0154 52.013 77.4679 52.838C76.3954 54.4955 75.1803 56.063 73.9503 57.6155C72.4803 59.4755 71.0854 61.508 69.6379 63.443L64.8454 69.8255L61.9279 73.7705C60.4729 75.773 59.0179 77.7905 57.6604 79.838C56.6029 81.428 55.6579 83.048 54.6979 84.668C54.4879 85.028 54.2854 85.3805 54.0829 85.7405C53.2354 87.038 52.8754 87.398 52.4329 87.518C52.3354 87.548 52.2229 87.6005 52.1404 87.6005C51.8854 87.623 52.0129 86.9555 52.4929 85.913C53.9629 82.8305 55.9579 79.8455 57.9679 76.8755C59.4679 74.6705 61.0429 72.503 62.6029 70.343L62.6329 70.358H62.6404Z" fill="#231F20"/>
<path d="M30.2104 38.303C30.1054 39.1055 30.0979 38.8955 30.0529 39.083L30.0004 39.2855C29.9779 39.353 29.9554 39.488 30.0229 39.443C30.0904 39.413 30.1729 39.293 30.2404 39.2555C30.3079 39.2105 30.3679 39.1805 30.4879 39.0905L31.3129 38.3555C31.8679 37.868 32.4229 37.388 32.9929 36.908C33.4954 36.4805 33.9979 36.0455 34.5154 35.6405C35.1829 35.1455 35.8504 34.4705 36.8329 34.493C37.1404 34.5305 37.1029 34.583 36.9904 34.8755C36.8854 35.198 36.7504 35.7155 36.4204 35.9855C35.7979 36.428 35.1904 36.953 34.5754 37.4855C33.9304 37.9955 33.2854 38.513 32.6254 39.038C32.2279 39.3455 31.8529 39.7055 31.4854 40.073L30.5704 40.988C30.2629 41.2805 29.9404 41.573 29.6779 41.7005C29.4679 41.8205 29.3029 41.858 29.1379 41.888C29.0629 41.8955 28.9804 41.903 28.8979 41.8955C28.8229 41.903 28.6654 41.8355 28.6579 41.768L28.5004 41.3105L28.4629 41.1905V40.988L28.4404 40.5905L28.6279 38.933L28.7104 38.3255L28.7929 37.793L28.9729 36.7355C29.1679 35.663 29.4679 34.598 29.8129 33.5705C30.0829 32.7755 30.3679 31.988 30.7204 31.2305C30.8029 31.0655 30.8704 30.9005 30.9754 30.743C31.3579 30.173 31.5604 30.0455 31.8604 30.053C31.9279 30.053 32.0029 30.053 32.0554 30.0605C32.2504 30.1055 32.2654 30.428 32.1304 30.908C31.7329 32.318 31.2754 33.6755 30.8779 35.063C30.5929 36.0905 30.3979 37.163 30.2554 38.273H30.2179L30.2104 38.303Z" fill="#231F20"/>
<path d="M51.4348 41.8132L49.9948 43.9657C49.9573 44.1532 49.8748 44.1832 49.8073 44.2732C49.7323 44.3782 49.6873 44.3557 49.6273 44.3932L49.2898 44.5582C48.9523 44.5957 48.6523 44.2732 48.3448 43.8007C48.0823 43.4182 47.8348 42.7732 47.7673 42.5782L47.4448 41.7007L46.8298 39.9457C46.6573 39.4282 46.4473 38.9182 46.2373 38.4157C46.1098 38.0932 45.9373 37.7857 45.8473 37.4407C45.7948 37.2757 45.7423 37.1032 45.7048 36.9307C45.6523 36.7657 45.6898 36.5632 45.6748 36.3757C45.6823 36.1357 45.7573 36.1432 45.9898 36.2482C46.1623 36.3232 46.3348 36.3982 46.4848 36.4582C46.6648 36.5557 46.8073 36.6982 46.9273 36.8632C47.1373 37.1632 47.2873 37.4857 47.4298 37.8082L47.8573 38.7832C48.1423 39.4357 48.3673 40.1107 48.5548 40.8082C48.6673 41.2207 48.8323 41.6257 49.0123 42.0232L49.1848 42.3982L49.2748 42.6007L49.3273 42.7282C49.3273 42.7282 49.3498 42.7732 49.3648 42.7882C49.3798 42.7882 49.3873 42.7657 49.4023 42.7582C49.4473 42.7132 49.4923 42.6307 49.5598 42.5857L49.7098 42.3232L50.0923 41.7232L51.0523 40.2232C51.5248 39.4582 52.0198 38.7007 52.4623 37.9282C52.8073 37.3282 53.0773 36.6982 53.3848 36.0757C53.4523 35.9407 53.5048 35.7982 53.5798 35.6707C53.8423 35.1682 54.0223 35.0707 54.3823 35.1382C54.4573 35.1532 54.5323 35.1532 54.5923 35.1682C54.7573 35.2057 54.9298 35.5732 54.7648 35.9557C54.3298 37.1257 53.6848 38.2432 53.0173 39.3607C52.5223 40.1857 51.9898 41.0032 51.4798 41.8207L51.4498 41.8057L51.4348 41.8132Z" fill="#231F20"/>
<path d="M71.0176 38.1833V38.8808C71.0176 39.2408 70.9726 39.5858 70.8676 39.8708C70.7551 40.1483 70.5976 40.3658 70.3276 40.4858C70.0801 40.5683 69.7876 40.5008 69.4876 40.4408L68.8126 40.1708C68.6026 40.0733 68.5276 40.0433 68.3851 39.9608C67.5076 39.4508 66.6601 38.9408 65.8576 38.3558C65.4976 38.1008 65.1226 37.8683 64.7551 37.6358C64.2751 37.3433 63.8476 36.9533 63.4726 36.5333C63.3526 36.3983 63.4126 36.3608 63.5926 36.3683C63.7651 36.3758 64.0876 36.3908 64.3951 36.4883C64.9501 36.6458 65.4376 36.9158 65.9326 37.1708C66.4201 37.4333 66.9226 37.6808 67.3801 38.0183C67.9351 38.4083 68.5876 38.6708 69.1951 38.9558C69.3451 39.0308 69.4426 39.1208 69.6151 39.1358C69.7276 39.0458 69.7201 38.8733 69.7501 38.7083C69.7651 38.2958 69.7576 37.8008 69.7351 37.3433C69.6901 36.6383 69.6451 35.9183 69.5476 35.2208C69.4651 34.6733 69.3151 34.1483 69.2326 33.6083C69.2101 33.4883 69.1876 33.3758 69.1726 33.2558C69.1426 32.8058 69.2401 32.6483 69.4501 32.5283C69.5026 32.4983 69.5476 32.4683 69.5926 32.4458C69.7501 32.3858 69.9226 32.5508 70.0801 32.8583C70.2826 33.3233 70.4401 33.8033 70.5601 34.2983C70.6726 34.7933 70.7551 35.3033 70.8301 35.8208C70.9426 36.5858 71.0176 37.3658 71.0626 38.1683H71.0326L71.0176 38.1833Z" fill="#231F20"/>
<path d="M32.0629 56.4366L33.7954 59.4066C34.0129 59.7666 34.2604 60.0966 34.4704 60.4641C35.2054 61.7391 35.9629 63.0066 36.6829 64.3041C37.0054 64.8741 37.3504 65.4366 37.6954 65.9841C38.1679 66.6741 38.5129 67.4466 38.8429 68.2191C38.9404 68.4666 38.8579 68.4741 38.6404 68.3466C38.4304 68.2191 38.0329 67.9866 37.6954 67.6341C37.0654 67.0341 36.6229 66.3141 36.1129 65.6316C35.6179 64.9416 35.1454 64.2366 34.7479 63.4716C34.2604 62.5716 33.6004 61.7316 33.0229 60.8541L31.1479 57.9441L30.0004 56.1441C29.4379 55.2291 28.9054 54.2841 28.3204 53.3841C27.8779 52.6791 27.3454 52.0491 26.9179 51.3441C26.8204 51.1941 26.7154 51.0441 26.6329 50.8866C26.2954 50.3016 26.3404 50.0241 26.4679 49.7766C26.4979 49.7166 26.5279 49.6491 26.5654 49.6116C26.6854 49.4691 26.9779 49.6116 27.3754 49.9491C28.4329 51.0141 29.3254 52.2591 30.2104 53.5191L31.1854 54.9366C31.5004 55.4166 31.7779 55.9191 32.0854 56.4141L32.0554 56.4366H32.0629Z" fill="#231F20"/>
<path d="M51.7352 58.237C51.7502 59.0245 51.7576 59.8195 51.7426 60.607C51.7426 60.892 51.7801 61.1845 51.7726 61.4695C51.7576 62.4895 51.7427 63.502 51.7502 64.522C51.7352 64.972 51.7501 65.422 51.7726 65.872C51.7801 66.157 51.7952 66.4495 51.8027 66.7345C51.7952 67.0195 51.7502 67.312 51.7202 67.6045C51.6977 67.7845 51.6677 67.762 51.5852 67.6195C51.5102 67.477 51.3226 67.207 51.2026 66.8845C50.9626 65.7295 50.7227 64.5745 50.7827 63.382C50.7977 62.677 50.6777 61.942 50.6327 61.222C50.5802 60.427 50.5352 59.6395 50.5202 58.8445L50.4677 57.382C50.4302 56.6395 50.4152 55.897 50.3402 55.1695C50.2952 54.5995 50.1902 54.0445 50.1227 53.4895C50.1077 53.3695 50.0777 53.2495 50.0852 53.122C50.0627 52.657 50.2202 52.4995 50.4152 52.387C50.4602 52.357 50.5127 52.327 50.5502 52.312C50.6927 52.2595 50.8652 52.432 51.0377 52.762C51.2402 53.2495 51.3452 53.767 51.4577 54.2845C51.5777 54.802 51.6301 55.3345 51.6601 55.867C51.7126 56.662 51.7351 57.457 51.7726 58.252H51.7426L51.7352 58.237Z" fill="#231F20"/>
<path d="M70.2299 56.9634C69.7424 57.6159 69.2624 58.2759 68.7899 58.9434C68.6099 59.1834 68.4674 59.4384 68.2874 59.6784C67.6574 60.5184 67.0349 61.3659 66.4349 62.2284C66.1574 62.6034 65.9024 63.0009 65.6549 63.3909L65.1749 64.1409C65.0024 64.3809 64.7999 64.6134 64.6124 64.8459C64.4924 64.9884 64.4849 64.9584 64.5149 64.7934C64.5449 64.6284 64.5599 64.3059 64.6499 63.9609C65.1299 62.8359 65.5874 61.6884 66.3449 60.7134C66.7724 60.1134 67.1174 59.4309 67.5149 58.7934C67.9499 58.0884 68.4374 57.4209 68.9024 56.7384L69.7799 55.4859C70.2149 54.8559 70.6724 54.2259 71.0924 53.5884C71.4299 53.1009 71.7074 52.5834 72.0224 52.0959C72.0899 51.9834 72.1499 51.8784 72.2324 51.7734C72.5624 51.4134 72.7274 51.3384 72.9524 51.3759C73.0049 51.3834 73.0574 51.3834 73.1024 51.3984C73.2524 51.4434 73.2524 51.6834 73.1549 52.0434C73.0124 52.5834 72.7424 53.0484 72.5099 53.5434C72.2699 54.0384 71.9999 54.5184 71.6774 54.9684C71.2049 55.6359 70.7324 56.3109 70.2599 56.9784L70.2299 56.9634Z" fill="#231F20"/>
<path d="M24.7729 22.1855C24.9304 22.223 24.9754 22.3955 24.9754 22.613C24.9754 22.6805 24.8779 22.838 24.8254 22.838C24.7204 22.838 24.6229 22.853 24.5254 22.853C24.4654 22.8455 23.6404 22.6205 23.3404 22.583C23.0554 22.538 22.7854 22.463 22.5304 22.373C21.9904 22.223 21.4954 21.9755 20.9704 21.788C20.8579 21.743 20.7529 21.683 20.6554 21.6005C20.3179 21.3305 19.9354 21.1655 19.5304 21.0455C19.4629 21.023 19.4029 20.9855 19.3129 21.023C19.1479 21.1055 18.1129 20.648 18.0079 20.528C17.7379 20.2505 17.4229 20.048 17.1454 19.7705C17.1079 19.733 17.0479 19.7255 17.0329 19.6355C17.0029 19.418 16.8904 19.3955 16.7929 19.328C16.6579 19.238 16.5304 19.1405 16.4104 19.0205C16.3504 18.9605 16.3204 18.8405 16.2754 18.7355C16.2379 18.6455 16.3654 18.4355 16.3954 18.4205C16.4929 18.3755 16.4779 18.248 16.5154 18.1505C16.5229 18.1205 16.5379 18.0755 16.5529 18.053C16.5754 18.008 17.6329 17.8805 17.7379 17.903C17.7754 17.873 19.0879 18.263 19.2454 18.3005C19.3279 18.3155 19.3804 18.3905 19.4479 18.4505C19.4629 18.4655 19.7404 18.533 20.0029 18.638C20.2654 18.743 20.5279 18.848 20.5504 18.863C20.7379 18.9905 20.9629 19.0505 21.0904 19.298C21.1129 19.3505 21.1579 19.3655 21.2029 19.3805C21.5479 19.553 21.8554 19.8005 22.1704 20.033C22.3354 20.153 22.5079 20.2355 22.6804 20.3405C22.7104 20.3555 22.7329 20.393 22.7554 20.423C22.7854 20.453 22.8154 20.498 22.8604 20.5205C23.2654 20.7605 23.6029 21.1055 24.0079 21.338C24.0979 21.398 24.4504 21.8105 24.5629 21.863C24.6229 21.9005 24.7354 22.163 24.7954 22.1705L24.7729 22.1855Z" fill="#231F20"/>
<path d="M28.9205 17.9026C29.0405 17.9851 28.973 18.1501 28.823 18.3601C28.778 18.4276 28.5755 18.5476 28.5305 18.5326C28.433 18.5026 28.3355 18.4726 28.253 18.4351C28.2005 18.4126 27.653 17.8576 27.443 17.6776C27.248 17.5051 27.0905 17.3026 26.948 17.0926C26.663 16.6726 26.3555 16.2601 26.078 15.8251C26.0255 15.7276 25.988 15.6151 25.973 15.5026C25.913 15.1051 25.7555 14.7601 25.5605 14.4226C25.5305 14.3701 25.5155 14.3026 25.4255 14.2726C25.283 14.2276 24.8555 13.2601 24.8555 13.1101C24.8555 12.6976 24.863 12.3826 24.8705 12.0301C24.8705 11.9776 24.833 11.9401 24.893 11.8726C25.028 11.7226 24.9905 11.6251 24.983 11.5201C24.983 11.3701 24.983 11.2201 25.0055 11.0626C25.0205 10.9876 25.088 10.8901 25.133 10.8076C25.178 10.7326 25.3805 10.7101 25.4105 10.7251C25.493 10.7701 25.5755 10.6951 25.6505 10.6651C25.6805 10.6576 25.7105 10.6426 25.7405 10.6426C25.763 10.6426 25.943 10.8001 26.138 10.9501C26.333 11.1076 26.558 11.2576 26.5655 11.3026C26.5655 11.3326 27.1805 12.3076 27.2255 12.4276C27.263 12.4876 27.248 12.5626 27.2405 12.6376C27.2405 12.6751 27.683 13.4701 27.698 13.5076C27.743 13.6951 27.878 13.8376 27.803 14.0776C27.788 14.1226 27.803 14.1601 27.8255 14.1901C27.9605 14.4826 28.0505 14.7976 28.118 15.1276C28.1555 15.2926 28.2305 15.4426 28.283 15.6001C28.2905 15.6301 28.283 15.6676 28.283 15.6976C28.283 15.7351 28.283 15.7801 28.298 15.8176C28.448 16.1851 28.5305 16.5826 28.733 16.9276C28.778 17.0101 28.8305 17.4676 28.898 17.5576C28.928 17.6101 28.8605 17.8726 28.913 17.9026H28.9205Z" fill="#231F20"/>
<path d="M35.393 14.5358C35.4305 14.6408 35.3105 14.7158 35.138 14.7833C35.078 14.8058 34.9205 14.7908 34.8905 14.7608C34.8455 14.7008 34.793 14.6408 34.7555 14.5808C34.7405 14.5433 34.583 13.9733 34.508 13.7708C34.433 13.5833 34.3955 13.3958 34.3655 13.2083C34.283 12.8258 34.2605 12.4433 34.253 12.0683C34.253 11.9858 34.2605 11.9033 34.2905 11.8208C34.388 11.5358 34.3955 11.2508 34.358 10.9583C34.358 10.9133 34.358 10.8608 34.3055 10.8083C34.208 10.7258 34.1855 9.94581 34.2605 9.84831C34.3955 9.60081 34.478 9.36081 34.5905 9.11331C34.6055 9.07581 34.5905 9.03831 34.658 9.00831C34.823 8.94081 34.8005 8.86581 34.8155 8.78331C34.838 8.67831 34.868 8.57331 34.928 8.46831C34.958 8.41581 35.048 8.37081 35.123 8.31831C35.1905 8.27331 35.423 8.31831 35.453 8.33331C35.528 8.38581 35.6405 8.35581 35.738 8.35581C35.768 8.35581 35.813 8.35581 35.843 8.35581C35.903 8.36331 36.2855 9.00831 36.2855 9.07581C36.2855 9.07581 36.308 9.31581 36.338 9.55581C36.368 9.79581 36.398 10.0508 36.413 10.1033C36.428 10.1558 36.3905 10.2083 36.3605 10.2608C36.3455 10.2833 36.3905 11.0108 36.383 11.0408C36.3455 11.1908 36.383 11.3408 36.233 11.4833C36.203 11.5133 36.2105 11.5433 36.203 11.5733C36.1955 11.8283 36.113 12.0833 36.053 12.3383C36.023 12.4658 36.023 12.6008 36.008 12.7283C36.008 12.7508 35.9855 12.7733 35.9705 12.7958C35.9555 12.8258 35.933 12.8558 35.9255 12.8858C35.8655 13.1933 35.7455 13.5008 35.723 13.8083C35.7155 13.8833 35.5355 14.2133 35.5355 14.2958C35.5355 14.3408 35.3705 14.4833 35.3855 14.5283L35.393 14.5358Z" fill="#231F20"/>
</svg>
