<svg width="96" height="96" viewBox="0 0 96 96" fill="none" xmlns="http://www.w3.org/2000/svg">
<path d="M46.5 81.7496C45.0495 81.7363 43.6062 81.5448 42.2025 81.1796C41.6712 81.045 41.152 80.8669 40.65 80.6471C39.737 80.2314 38.9199 79.6313 38.25 78.8846C37.9273 78.5146 37.6433 78.1125 37.4025 77.6846C37.1428 77.2227 36.9819 76.712 36.93 76.1846C36.8722 75.7202 36.9053 75.2489 37.0275 74.7971C37.1582 74.3522 37.3609 73.9316 37.6275 73.5521C37.9619 73.0877 38.4079 72.7151 38.9244 72.4686C39.4409 72.2222 40.0111 72.1099 40.5825 72.1421C40.9275 72.1421 40.875 72.3371 40.6575 72.6071C40.3853 72.9614 40.0843 73.2925 39.7575 73.5971C39.4703 73.8416 39.218 74.1242 39.0075 74.4371C38.8112 74.7086 38.6803 75.0217 38.625 75.3521C38.5334 75.6769 38.5205 76.0189 38.5875 76.3496C38.6843 76.7439 38.8465 77.1191 39.0675 77.4596C39.3649 77.9199 39.7496 78.3174 40.2 78.6296C40.6732 78.9299 41.1758 79.1812 41.7 79.3796C42.9333 79.8272 44.2288 80.0802 45.54 80.1296C46.3718 80.1783 47.2057 80.1783 48.0375 80.1296C49.307 80.0806 50.566 79.8791 51.7875 79.5296C52.697 79.2605 53.5727 78.8881 54.3975 78.4196C54.585 78.3221 54.75 78.2096 54.93 78.1046C55.5975 77.7146 55.845 77.6396 56.145 77.7521C56.2139 77.7701 56.2815 77.7927 56.3475 77.8196C56.5125 77.9021 56.3925 78.2846 55.9275 78.7196C55.2237 79.3739 54.4339 79.9291 53.58 80.3696C53.1452 80.5969 52.6968 80.7972 52.2375 80.9696C51.765 81.1196 51.285 81.2396 50.805 81.3446C49.3802 81.6268 47.9297 81.7575 46.4775 81.7346L46.5 81.7496Z" fill="#231F20"/>
<path d="M50.3399 82.2874C49.5713 82.486 48.7927 82.6437 48.0074 82.7599L47.1449 82.8724C46.1246 82.9513 45.0988 82.9211 44.0849 82.7824C43.6349 82.7224 43.1849 82.6474 42.7424 82.5499C42.1614 82.4446 41.6078 82.2226 41.1149 81.8974C40.9649 81.7849 41.1149 81.6499 41.3024 81.5674C41.5457 81.4851 41.8092 81.4851 42.0524 81.5674C43.0887 81.9239 44.1686 82.1384 45.2624 82.2049C45.9523 82.2396 46.6438 82.1994 47.3249 82.0849C48.0832 81.99 48.8347 81.8472 49.5749 81.6574C50.0324 81.5449 50.4824 81.3949 50.9324 81.2524L51.9524 80.8924L52.9349 80.4724C53.4374 80.2249 53.8949 79.9324 54.3824 79.6699L54.7499 79.4974C55.1474 79.2799 55.3049 79.2649 55.4999 79.3324L55.6049 79.3774C55.6949 79.4374 55.6049 79.6099 55.3199 79.8424C54.5224 80.5318 53.6247 81.0958 52.6574 81.5149C51.9324 81.8537 51.1796 82.1297 50.4074 82.3399L50.3399 82.2874Z" fill="#231F20"/>
<path d="M51.8403 87.1267C52.0957 86.8915 52.3133 86.6183 52.4853 86.3167C52.5603 86.2042 52.5828 86.0617 52.6503 85.9492C52.8932 85.5068 53.111 85.0511 53.3028 84.5842C53.4003 84.3817 53.4753 84.1567 53.5578 83.9392C53.6278 83.6173 53.8017 83.3274 54.0528 83.1142C54.1428 83.0392 54.2403 83.1817 54.3378 83.3542C54.4353 83.5267 54.5403 83.6842 54.5103 83.8267C54.4165 84.3883 54.2369 84.9322 53.9778 85.4392C53.7903 85.7542 53.7153 86.1367 53.5503 86.4892C53.368 86.8827 53.1469 87.2571 52.8903 87.6067C52.7165 87.8218 52.5204 88.0179 52.3053 88.1917L52.0653 88.3942L51.7803 88.5442C51.5977 88.6482 51.404 88.7312 51.2028 88.7917C51.0559 88.8611 50.9027 88.9163 50.7453 88.9567C50.5886 89.0106 50.4281 89.0532 50.2653 89.0842C50.1955 89.0917 50.1251 89.0917 50.0553 89.0842C49.7928 89.0842 49.7178 88.9717 49.6953 88.7092C49.6953 88.6492 49.6953 88.5967 49.6953 88.5442C49.7008 88.455 49.7284 88.3686 49.7755 88.2927C49.8226 88.2168 49.8878 88.1537 49.9653 88.1092C50.4378 87.8767 50.7828 87.8017 51.1203 87.6367C51.3812 87.4996 51.6191 87.3224 51.8253 87.1117L51.8403 87.1267Z" fill="#231F20"/>
<path d="M40.0276 73.8873C39.8116 73.9638 39.6071 74.0698 39.4201 74.2023C39.3526 74.2548 39.3151 74.3298 39.2401 74.3898C38.9798 74.5877 38.7498 74.8227 38.5576 75.0873C38.4902 75.206 38.4565 75.3409 38.4601 75.4773C38.4601 75.6498 38.5201 75.7473 38.3851 75.8823C38.1838 76.0024 37.9584 76.0766 37.7251 76.0998C37.4176 76.1523 36.9751 76.0023 36.9751 75.7923C36.9048 75.4701 36.939 75.1338 37.0726 74.8323C37.1818 74.5668 37.3483 74.3286 37.5601 74.1348C37.8076 73.9098 37.9201 73.6098 38.1376 73.3848C38.3813 73.1408 38.6532 72.9268 38.9476 72.7473C39.1368 72.6359 39.335 72.5406 39.5401 72.4623C39.6901 72.3948 39.8701 72.3648 40.0276 72.3123C40.1851 72.2598 40.3726 72.2598 40.5451 72.2448C40.7176 72.2298 40.8226 72.2073 40.9651 72.2073C41.111 72.2049 41.2568 72.2175 41.4001 72.2448C41.4642 72.2507 41.5247 72.277 41.5726 72.3198C41.7601 72.4623 41.7676 72.5973 41.6326 72.8673C41.6046 72.9273 41.572 72.9849 41.5351 73.0398C41.4311 73.2058 41.2866 73.3426 41.1151 73.4373C40.6951 73.6698 40.6726 73.7373 40.5001 73.7823C40.3433 73.8167 40.192 73.8722 40.0501 73.9473L40.0276 73.8873Z" fill="#231F20"/>
<path d="M27.1645 61.2828C25.3451 59.2158 23.7628 56.9517 22.447 54.5328C22.1995 54.0903 21.982 53.6328 21.772 53.1753C21.546 52.7245 21.3456 52.2613 21.172 51.7878C19.8505 48.4724 19.3016 44.8995 19.567 41.3403C19.612 40.5903 19.7395 39.7728 19.837 38.9928C19.9345 38.2128 20.0995 37.4478 20.317 36.6978C20.7352 34.7265 21.5408 32.8578 22.687 31.2003C23.0545 30.6903 23.0845 30.8178 22.9045 31.3203C22.7245 31.8228 22.4095 32.7003 21.997 33.7503C21.8095 34.2078 21.652 34.6728 21.5095 35.1453C21.367 35.6178 21.262 36.1053 21.1195 36.5853C20.9805 37.0612 20.8678 37.5445 20.782 38.0328C20.692 38.5203 20.5645 39.0003 20.512 39.5328C20.2062 41.5183 20.1583 43.535 20.3695 45.5328C20.6433 47.9517 21.3229 50.3072 22.3795 52.5003C23.5165 54.969 24.9523 57.2889 26.6545 59.4078C27.6899 60.7198 28.7992 61.9719 29.977 63.1578C31.7574 64.9822 33.6298 66.7145 35.587 68.3478C37.087 69.6228 38.587 70.8003 40.1395 72.0303C40.4695 72.3078 40.807 72.5628 41.1295 72.8553C42.3445 73.9203 42.6295 74.3553 42.787 74.7078C42.8232 74.7854 42.8532 74.8656 42.877 74.9478C42.877 75.1353 42.352 74.7603 41.4445 74.0253C38.7445 71.8653 35.812 69.6228 33.0295 67.1628C30.9405 65.3388 28.9761 63.3769 27.1495 61.2903L27.1645 61.2828Z" fill="#231F20"/>
<path d="M23.5873 29.7526C24.77 28.1927 26.1432 26.7868 27.6748 25.5676C29.2204 24.393 30.8874 23.3873 32.6473 22.5676C37.4677 20.3431 42.8717 19.7126 48.0748 20.7676C48.7573 20.9026 49.4473 21.0676 50.1223 21.2701C50.7973 21.4726 51.4648 21.7501 52.1323 22.0201C54.4347 23.0439 56.4832 24.5624 58.1323 26.4676C59.7592 28.3443 61.03 30.5022 61.8823 32.8351C63.5379 37.4493 64.0274 42.4011 63.3073 47.2501C63.036 49.3777 62.6124 51.4831 62.0398 53.5501C61.4706 55.591 60.7895 57.599 59.9998 59.5651C59.021 62.1028 57.8709 64.571 56.5573 66.9526C55.2645 69.3384 53.8111 71.6337 52.2073 73.8226C51.2098 75.1876 51.1648 74.8651 51.7273 73.5376C52.0123 72.8776 52.4248 71.9476 52.9423 70.8451C53.4598 69.7426 54.0673 68.4601 54.7798 67.0951C56.0473 64.6876 57.1348 62.1976 58.1698 59.7001C59.2099 57.2068 60.0721 54.6428 60.7498 52.0276C62.1979 46.8398 62.36 41.3772 61.2223 36.1126C60.8404 34.5438 60.2923 33.0202 59.5873 31.5676C58.8718 30.1135 57.9581 28.7657 56.8723 27.5626C55.7972 26.3494 54.5304 25.3207 53.1223 24.5176C51.7104 23.7279 50.196 23.1373 48.6223 22.7626C45.0976 21.9283 41.4284 21.915 37.8978 22.7239C34.3672 23.5327 31.0697 25.1421 28.2598 27.4276C26.5461 28.8297 25.1025 30.5326 23.9998 32.4526C23.7523 32.9476 23.4898 33.4351 23.2498 33.9526L22.6798 35.5051C22.3589 36.5777 22.1084 37.67 21.9298 38.7751L21.8248 39.3976L21.7723 40.0351L21.6748 41.3026V43.2076L21.7348 43.8376C21.8681 45.5344 22.1953 47.2103 22.7098 48.8326C23.2233 50.4591 23.8835 52.0356 24.6823 53.5426C25.4945 55.0453 26.404 56.4934 27.4048 57.8776C30.5398 62.1676 34.3948 65.7376 38.3548 69.2326C39.2248 69.9826 40.0948 70.7326 40.9648 71.5426C44.2048 74.4751 45.0823 75.7651 45.2473 76.7926C45.293 77.0121 45.3131 77.236 45.3073 77.4601C45.3073 77.5801 45.2173 77.5726 45.0898 77.4601C44.9623 77.3476 44.8198 77.1526 44.5423 76.8826C44.0248 76.3501 43.1698 75.5101 41.9848 74.4676C38.4298 71.4151 34.6048 68.3176 31.1098 64.7176C27.4393 61.1353 24.4261 56.9366 22.2073 52.3126C21.4135 50.5298 20.8053 48.67 20.3923 46.7626C19.9973 44.8341 19.8412 42.8643 19.9273 40.8976C20.025 38.9337 20.3522 36.988 20.9023 35.1001C21.5001 33.1847 22.3906 31.3733 23.5423 29.7301L23.5873 29.7526Z" fill="#231F20"/>
<path d="M42.9748 80.5422C44.9404 80.8796 46.9491 80.8796 48.9148 80.5422C49.6648 80.4147 50.3697 80.2122 51.0672 80.0622C52.2889 79.7194 53.4592 79.2149 54.5473 78.5622C55.6392 77.9347 56.5973 77.0989 57.3672 76.1022C57.6739 75.7041 57.8572 75.2248 57.8945 74.7237C57.9318 74.2225 57.8215 73.7214 57.5772 73.2822C57.1894 72.7136 56.6762 72.2414 56.0772 71.9022C55.4558 71.5286 54.8004 71.2147 54.1198 70.9647C53.6923 70.8222 53.7523 70.6797 54.1948 70.5597C54.9282 70.3741 55.7021 70.432 56.3997 70.7247C57.2415 71.0696 57.9876 71.6125 58.5747 72.3072C58.8883 72.7089 59.1271 73.1636 59.2798 73.6497C59.4215 74.1581 59.4395 74.693 59.3323 75.2097C59.1289 76.1404 58.681 76.9999 58.0347 77.6997C57.4683 78.3393 56.8113 78.8927 56.0847 79.3422C55.2479 79.8979 54.3761 80.3989 53.4748 80.8422C53.0154 81.0641 52.5447 81.2618 52.0647 81.4347C51.8322 81.5247 51.5697 81.5922 51.3147 81.6672L50.5647 81.8247C48.4461 82.3251 46.2642 82.5046 44.0923 82.3572C42.7399 82.2432 41.4098 81.9429 40.1398 81.4647C39.1715 81.0506 38.2792 80.4778 37.4998 79.7697C36.6876 79.0638 36.0856 78.1478 35.7598 77.1222C35.5085 76.2882 35.5085 75.3987 35.7598 74.5647C36.058 73.7565 36.559 73.0385 37.2148 72.4797C37.4915 72.2385 37.7875 72.0203 38.0998 71.8272C38.5079 71.5718 38.9654 71.4057 39.4423 71.3397C39.5674 71.3235 39.6945 71.3331 39.8157 71.3679C39.937 71.4027 40.0498 71.4621 40.1472 71.5422C40.2342 71.5951 40.3126 71.6608 40.3798 71.7372C40.5598 71.9772 40.1398 72.3297 39.4423 72.7722C38.4474 73.2964 37.6849 74.174 37.3048 75.2322C37.1771 75.6987 37.1771 76.1908 37.3048 76.6572C37.4628 77.1707 37.7173 77.6492 38.0548 78.0672C39.3586 79.4101 41.0804 80.2696 42.9373 80.5047L42.9748 80.5422Z" fill="#231F20"/>
<path d="M40.9725 76.9953C42.0766 77.4453 43.2376 77.7406 44.4225 77.8728C44.865 77.9253 45.3075 77.9178 45.75 77.9328C47.3353 78.017 48.9244 77.8705 50.4675 77.4978C51.1475 77.319 51.8063 77.0675 52.4325 76.7478C53.1938 76.3508 53.8936 75.8455 54.51 75.2478C54.705 75.0678 54.8475 75.1728 54.8775 75.4953C54.893 75.7407 54.8524 75.9864 54.7589 76.2138C54.6653 76.4412 54.5212 76.6443 54.3375 76.8078C52.7755 78.1171 50.8424 78.904 48.81 79.0578C47.6191 79.2187 46.4192 79.3038 45.2175 79.3128C43.8822 79.2921 42.5566 79.0825 41.28 78.6903C40.4881 78.4382 39.7319 78.0853 39.03 77.6403C38.4854 77.2883 37.9995 76.853 37.59 76.3503C37.3875 76.0922 37.2092 75.8161 37.0575 75.5253C36.8567 75.1926 36.7504 74.8114 36.75 74.4228C36.7714 73.8689 36.951 73.3328 37.2675 72.8778C37.5583 72.4483 37.9241 72.0748 38.3475 71.7753C38.5306 71.6369 38.7265 71.5164 38.9325 71.4153C39.735 71.0553 40.1025 71.1978 40.2825 71.5128C40.3287 71.5804 40.3665 71.6535 40.395 71.7303C40.455 71.9703 40.1925 72.1953 39.81 72.4053C39.2163 72.7155 38.7164 73.179 38.3625 73.7478C38.2316 73.9514 38.1613 74.1882 38.16 74.4303C38.1675 74.509 38.1904 74.5855 38.2275 74.6553C38.2275 74.7378 38.3775 74.9178 38.445 75.0528C39.0743 75.9299 39.9559 76.5945 40.9725 76.9578V76.9953Z" fill="#231F20"/>
<path d="M45.2922 83.8565C46.3214 84.0807 47.3797 84.1389 48.4272 84.029C48.8208 83.984 49.2115 83.9164 49.5972 83.8265C50.9985 83.5889 52.3643 83.1757 53.6622 82.5965C54.2344 82.3312 54.7774 82.007 55.2822 81.629C55.9008 81.1483 56.4778 80.6164 57.0072 80.039C57.1872 79.874 57.3447 79.9715 57.4272 80.2865C57.4704 80.4867 57.4704 80.6938 57.4272 80.894C57.3607 81.1378 57.2487 81.3668 57.0972 81.569C55.891 82.9316 54.3348 83.938 52.5972 84.479C51.568 84.8437 50.5188 85.1492 49.4548 85.394C48.2587 85.6201 47.0369 85.6782 45.8247 85.5665C45.0577 85.4831 44.3028 85.312 43.5747 85.0565C42.5043 84.6511 41.5253 84.0366 40.6947 83.249C40.0202 82.6652 39.4473 81.9732 38.9997 81.2015C38.9097 81.0215 38.8197 80.849 38.7447 80.669C38.5272 79.919 38.6547 79.6865 38.9547 79.469C39.0161 79.4167 39.0813 79.369 39.1497 79.3265C39.3597 79.214 39.6747 79.4315 39.9522 79.814C40.3572 80.384 40.7022 80.924 41.1147 81.419C41.5206 81.9149 41.9984 82.3471 42.5322 82.7015C43.3697 83.2469 44.3041 83.6263 45.2847 83.819L45.2922 83.8565Z" fill="#231F20"/>
<path d="M53.9178 86.9986C53.5153 87.6106 53.0074 88.1464 52.4178 88.5811C52.1887 88.7575 51.9363 88.9014 51.6678 89.0086C51.1926 89.2007 50.6742 89.2603 50.1678 89.1811C49.7043 89.1074 49.2575 88.9526 48.8478 88.7236C48.5028 88.5361 48.1653 88.3486 47.8428 88.1386C47.6403 88.0036 47.4303 87.8686 47.2428 87.7186C47.064 87.5485 46.91 87.3541 46.7853 87.1411C46.7028 87.0061 46.8453 86.8936 47.0778 86.8261C47.3222 86.7514 47.5834 86.7514 47.8278 86.8261C48.5049 87.3157 49.2375 87.7235 50.0103 88.0411C50.2298 88.1081 50.4615 88.1254 50.6886 88.0917C50.9156 88.058 51.1323 87.9741 51.3228 87.8461C51.8085 87.5533 52.2254 87.1594 52.5453 86.6911C52.7668 86.381 52.9697 86.0579 53.1528 85.7236C53.4303 85.2061 53.7153 84.6736 53.9553 84.1186C54.1428 83.6911 54.2703 83.2336 54.4728 82.7911C54.5178 82.6936 54.5553 82.5961 54.6078 82.4986C54.8253 82.1611 55.0053 82.1236 55.3203 82.2511C55.3878 82.2511 55.4553 82.2961 55.5078 82.3261C55.6103 82.3955 55.6894 82.4942 55.7349 82.6092C55.7804 82.7243 55.7901 82.8504 55.7628 82.9711C55.561 83.7699 55.2612 84.5408 54.8703 85.2661C54.5778 85.8361 54.2553 86.4286 53.8803 87.0211L53.9178 86.9986Z" fill="#231F20"/>
<path d="M41.16 37.8199C41.1337 37.4353 41.1337 37.0494 41.16 36.6649L41.205 36.0574L41.25 35.6224C41.295 35.4574 41.355 35.3074 41.4 35.1499C41.4915 34.8619 41.6577 34.6033 41.8817 34.4004C42.1056 34.1975 42.3794 34.0576 42.675 33.9949C42.9719 33.9457 43.2762 33.9661 43.5638 34.0546C43.8515 34.1432 44.1146 34.2973 44.3325 34.5049C44.4501 34.615 44.5604 34.7328 44.6625 34.8574C44.7539 34.9587 44.8343 35.0693 44.9025 35.1874C45.0164 35.3658 45.1191 35.5512 45.21 35.7424C45.3806 36.0915 45.526 36.4524 45.645 36.8224C45.8899 37.5539 46.0632 38.3074 46.1625 39.0724C46.5497 42.035 46.0704 45.0464 44.7825 47.7424C44.5415 48.2378 44.2632 48.7142 43.95 49.1674C43.7811 49.4102 43.5983 49.6431 43.4025 49.8649C43.1859 50.0849 42.9527 50.288 42.705 50.4724C42.1964 50.8232 41.6203 51.0644 41.0135 51.1806C40.4066 51.2968 39.7822 51.2855 39.18 51.1474C38.209 50.9303 37.2845 50.5417 36.45 49.9999C35.6392 49.4844 34.8959 48.8696 34.2375 48.1699C33.5849 47.4421 33.0371 46.6267 32.61 45.7474C32.1548 44.8972 31.8263 43.9851 31.635 43.0399C31.4059 42.0377 31.4951 40.989 31.89 40.0399C32.1148 39.5447 32.448 39.1065 32.865 38.7574C33.3319 38.3982 33.9117 38.2174 34.5 38.2474C35.544 38.3505 36.5107 38.8432 37.2075 39.6274C37.8773 40.3053 38.4639 41.0607 38.955 41.8774C40.7025 44.6749 41.685 47.8174 42.6075 50.8324C43.2423 52.7963 43.7434 54.8008 44.1075 56.8324C44.4329 58.8539 44.4808 60.9104 44.25 62.9449C44.1 64.2274 43.905 64.0249 43.71 62.9449L43.2975 60.7474C43.1025 59.8549 42.9 58.8199 42.7125 57.7024C42.3423 55.7066 41.8412 53.7374 41.2125 51.8074C40.62 49.8274 40.035 47.8624 39.315 45.9874C38.6743 44.123 37.7095 42.3863 36.465 40.8574C36.1714 40.5152 35.8392 40.2082 35.475 39.9424C35.1754 39.7281 34.8224 39.6009 34.455 39.5749C34.2975 39.5723 34.1413 39.603 33.9965 39.6651C33.8518 39.7271 33.7217 39.8191 33.615 39.9349C33.3378 40.2173 33.132 40.5618 33.015 40.9399C32.7814 42.0268 32.9132 43.1605 33.39 44.1649C33.8336 45.2726 34.4768 46.2894 35.2875 47.1649C36.1277 48.0245 37.116 48.7258 38.205 49.2349C38.6867 49.4891 39.2152 49.6421 39.7582 49.6847C40.3012 49.7272 40.8471 49.6584 41.3625 49.4824C41.8857 49.2376 42.3356 48.8601 42.6675 48.3874C43.0399 47.8458 43.3613 47.2708 43.6275 46.6699C44.1558 45.437 44.4995 44.133 44.6475 42.7999C44.8094 41.4667 44.7715 40.1169 44.535 38.7949C44.406 38.1473 44.2203 37.5124 43.98 36.8974C43.8603 36.6088 43.7173 36.3303 43.5525 36.0649C43.4759 35.9069 43.3529 35.7761 43.2 35.6899C43.1561 35.668 43.1081 35.6556 43.0591 35.6537C43.0102 35.6518 42.9613 35.6604 42.9159 35.6789C42.8705 35.6973 42.8295 35.7252 42.7957 35.7608C42.762 35.7963 42.7361 35.8386 42.72 35.8849C42.6788 35.9728 42.651 36.0663 42.6375 36.1624C42.5923 36.3468 42.5646 36.5352 42.555 36.7249C42.5231 37.5522 42.5885 38.3804 42.75 39.1924C42.9013 40.0114 43.1349 40.8129 43.4475 41.5849C43.6969 42.3234 44.1367 42.9831 44.7225 43.4974C45.1663 43.7843 45.7016 43.8941 46.2225 43.8049C46.7776 43.6851 47.2936 43.4271 47.7225 43.0549C48.6562 42.2622 49.3476 41.2225 49.7175 40.0549C49.8767 39.4891 49.9125 38.8957 49.8225 38.3149C49.7714 37.7786 49.5477 37.2733 49.185 36.8749C49.1105 36.8053 49.0225 36.7516 48.9265 36.7172C48.8305 36.6827 48.7285 36.6682 48.6267 36.6745C48.5249 36.6809 48.4255 36.7079 48.3345 36.7539C48.2435 36.8 48.1629 36.8641 48.0975 36.9424C47.6911 37.3744 47.3772 37.8848 47.175 38.4424C47.0101 38.8649 46.8846 39.3018 46.8 39.7474C46.6714 40.2412 46.5712 40.7421 46.5 41.2474C46.3552 42.2162 46.2701 43.1931 46.245 44.1724C46.2006 46.1322 46.3488 48.0916 46.6875 50.0224C46.845 50.8699 47.025 51.6949 47.2425 52.5349C47.625 54.1024 47.9925 55.1074 48.1425 55.8349C48.302 56.3436 48.3581 56.8791 48.3075 57.4099C48.2946 57.5914 48.2695 57.7718 48.2325 57.9499C48.1125 58.3624 47.1825 57.2749 46.35 54.9499C45.1065 51.379 44.5492 47.6053 44.7075 43.8274C44.7559 42.8577 44.856 41.8914 45.0075 40.9324C45.0975 40.4524 45.1575 39.9574 45.27 39.4774L45.4275 38.7274C45.5025 38.4499 45.585 38.2024 45.675 37.9774C45.8681 37.4509 46.1197 36.9478 46.425 36.4774C46.8138 35.8265 47.4232 35.3368 48.1425 35.0974C48.5997 34.9725 49.0854 35.0042 49.5225 35.1874C49.929 35.3392 50.2866 35.5984 50.5575 35.9374C50.9909 36.454 51.2829 37.0742 51.405 37.7374C51.5872 38.5993 51.5744 39.4911 51.3675 40.3474C51.143 41.1498 50.7883 41.9099 50.3175 42.5974C49.8577 43.2767 49.2961 43.8812 48.6525 44.3899C47.9419 44.9642 47.0791 45.3187 46.17 45.4099C45.9206 45.4333 45.6695 45.4333 45.42 45.4099C45.1725 45.3724 44.94 45.2974 44.67 45.2374C44.4 45.1774 44.235 45.0424 44.025 44.9374C43.8001 44.8013 43.5913 44.6403 43.4025 44.4574C42.8376 43.8399 42.397 43.1192 42.105 42.3349C41.5421 40.9277 41.1956 39.4434 41.0775 37.9324L41.16 37.8199Z" fill="#231F20"/>
<path d="M70.8748 39.636C70.8748 39.7635 70.6798 39.711 70.4098 39.5535C70.293 39.4683 70.1937 39.3613 70.1173 39.2385C70.1067 39.1438 70.1067 39.0482 70.1173 38.9535C70.2597 38.6959 70.4149 38.4456 70.5823 38.2035C70.6935 38.0225 70.8356 37.8626 71.0023 37.731C71.3238 37.4568 71.6647 37.2061 72.0223 36.981C72.1052 36.9282 72.1965 36.8902 72.2923 36.8685C72.6108 36.7827 72.9144 36.6486 73.1923 36.471C73.2448 36.471 73.2973 36.426 73.3273 36.351C73.6293 36.1265 73.9779 35.9727 74.3473 35.901C74.652 35.882 74.9576 35.882 75.2623 35.901C75.3073 35.901 75.3448 35.901 75.3973 35.901C75.4271 35.9448 75.4701 35.9779 75.52 35.9954C75.57 36.013 75.6242 36.014 75.6748 35.9985C75.8017 35.9975 75.9281 36.0152 76.0498 36.051C76.1211 36.0951 76.1845 36.1509 76.2373 36.216C76.27 36.3159 76.27 36.4236 76.2373 36.5235C76.1923 36.5985 76.2373 36.696 76.2373 36.7935C76.241 36.8259 76.241 36.8586 76.2373 36.891C76.0532 37.0856 75.8525 37.2638 75.6373 37.4235C75.6373 37.4235 75.4273 37.506 75.2248 37.581C75.0665 37.6404 74.9134 37.7132 74.7673 37.7985C74.7223 37.7985 74.6623 37.7985 74.6098 37.7985C74.5573 37.7985 74.0023 38.1435 73.9798 38.1585C73.8448 38.2035 73.7473 38.3085 73.5598 38.256C73.5598 38.256 73.4998 38.256 73.4773 38.256C73.2628 38.375 73.0397 38.4778 72.8098 38.5635C72.6952 38.6219 72.5871 38.6923 72.4873 38.7735H72.4123C72.385 38.7691 72.3571 38.7691 72.3298 38.7735C72.0614 38.9264 71.81 39.1074 71.5798 39.3135C71.5348 39.3585 71.1823 39.471 71.1298 39.5385C71.0773 39.606 70.8748 39.5835 70.8748 39.636Z" fill="#231F20"/>
<path d="M63.6449 22.9258C63.6449 23.0608 63.4424 23.0008 63.1649 22.8358C63.0416 22.7502 62.937 22.6405 62.8574 22.5133C62.847 22.4135 62.847 22.313 62.8574 22.2133C62.8574 22.1608 63.1799 21.5833 63.2924 21.3733C63.3952 21.1777 63.5295 21.0003 63.6899 20.8483C64.0049 20.5483 64.3349 20.2708 64.6649 20.0008C64.7399 19.9408 64.8268 19.8974 64.9199 19.8733C65.2263 19.776 65.5061 19.6091 65.7374 19.3858C65.7824 19.3483 65.8274 19.3258 65.8349 19.2508C65.8424 19.1758 66.5174 18.6208 66.6224 18.5983C66.8999 18.5383 67.1549 18.4408 67.4174 18.3583C67.4624 18.3583 67.4774 18.3058 67.5524 18.3583C67.6274 18.4108 67.7699 18.3583 67.8449 18.3583C67.9522 18.3049 68.0655 18.2647 68.1824 18.2383C68.2728 18.2423 68.3617 18.2626 68.4449 18.2983C68.5274 18.2983 68.6624 18.5308 68.6699 18.5608C68.6774 18.5908 68.7824 18.7258 68.8499 18.8008L68.9249 18.8833C68.8739 19.1946 68.7806 19.4974 68.6474 19.7833C68.6474 19.7833 67.8974 20.4883 67.8149 20.5783C67.7324 20.6683 67.7024 20.6308 67.6349 20.6383C67.5674 20.6458 67.0274 21.2008 66.9974 21.2083C66.8549 21.2833 66.7574 21.4258 66.5399 21.3883C66.4949 21.3883 66.4724 21.3883 66.4499 21.4258C66.215 21.5851 65.9635 21.7184 65.6999 21.8233C65.5799 21.8908 65.4824 21.9883 65.3699 22.0633C65.345 22.0666 65.3198 22.0666 65.2949 22.0633C65.2627 22.0568 65.2295 22.0568 65.1974 22.0633C64.935 22.2364 64.6844 22.4268 64.4474 22.6333C64.2832 22.699 64.1229 22.7741 63.9674 22.8583C63.9674 22.8583 63.6524 22.8658 63.6449 22.9258Z" fill="#231F20"/>
<path d="M43.7997 14.4212C43.8822 14.5412 43.7172 14.6462 43.4247 14.7437C43.2863 14.7736 43.1431 14.7736 43.0047 14.7437C42.9211 14.6863 42.8433 14.621 42.7722 14.5487C42.7347 14.5112 42.5097 13.8737 42.3972 13.6712C42.3086 13.4745 42.2431 13.2681 42.2022 13.0562C42.1122 12.6363 41.9847 12.2313 41.9097 11.8188C41.8947 11.7243 41.8947 11.6282 41.9097 11.5338C41.9608 11.2107 41.9272 10.8799 41.8122 10.5738C41.8122 10.5213 41.8122 10.4612 41.7147 10.4237C41.529 10.1076 41.4307 9.74786 41.4297 9.38125C41.4991 9.08007 41.5467 8.77428 41.5722 8.46625C41.5722 8.42125 41.5722 8.38375 41.5722 8.33125C41.5722 8.27875 41.6697 8.12875 41.6772 8.03125C41.6793 7.89666 41.6994 7.76296 41.7372 7.63375C41.7822 7.55875 41.8722 7.46875 41.9247 7.39375C41.9571 7.36772 41.9943 7.34836 42.0342 7.33677C42.0741 7.32519 42.1159 7.32161 42.1572 7.32625C42.2322 7.37125 42.2997 7.32625 42.3672 7.28125H42.4422C42.7528 7.43974 43.0303 7.65612 43.2597 7.91875C43.2597 7.91875 43.3722 8.17375 43.4922 8.44375C43.5733 8.64882 43.666 8.84914 43.7697 9.04375C43.8072 9.10375 43.7697 9.17875 43.7697 9.24625C43.7697 9.31375 44.0622 10.1013 44.0622 10.1388C44.0622 10.3188 44.1597 10.4913 44.0622 10.6938C44.053 10.7111 44.0482 10.7304 44.0482 10.75C44.0482 10.7696 44.053 10.7889 44.0622 10.8062C44.1048 11.1168 44.1173 11.4308 44.0997 11.7437C44.0997 11.9088 44.0997 12.0587 44.0997 12.2237C44.1018 12.2537 44.1018 12.2838 44.0997 12.3138C44.0972 12.3487 44.0972 12.3838 44.0997 12.4187C44.0997 12.7937 44.0547 13.1687 44.0997 13.5437C44.0997 13.6337 43.9497 14.0463 43.9722 14.1438C43.9947 14.2413 43.7622 14.3762 43.7997 14.4212Z" fill="#231F20"/>
<path d="M19.5 15.7497C19.3425 15.7497 19.425 15.5097 19.6575 15.1947C19.7794 15.0593 19.921 14.943 20.0775 14.8497L20.4075 14.8047C20.46 14.8047 21.0075 15.1047 21.2175 15.1647C21.4 15.2337 21.5698 15.3325 21.72 15.4572L22.68 16.1322C22.7569 16.1816 22.8211 16.2484 22.8675 16.3272C23.055 16.5913 23.3157 16.7946 23.6175 16.9122C23.67 16.9122 23.7075 16.9722 23.7825 16.9497C24.126 17.0478 24.4452 17.2164 24.72 17.4447C24.9002 17.6823 25.093 17.9101 25.2975 18.1272C25.2975 18.1272 25.38 18.1272 25.3725 18.2472C25.365 18.3672 25.4475 18.4572 25.515 18.5172C25.6172 18.5946 25.7059 18.6883 25.7775 18.7947C25.8101 18.8811 25.8279 18.9724 25.83 19.0647C25.83 19.1547 25.6725 19.3647 25.6425 19.3797C25.6125 19.3947 25.53 19.5522 25.4775 19.6497C25.4619 19.6847 25.4418 19.7175 25.4175 19.7472C25.1118 19.8103 24.7984 19.828 24.4875 19.7997L24 19.5822C23.745 19.4772 23.475 19.3722 23.415 19.3572C23.355 19.3422 23.3175 19.2747 23.28 19.2222C23.2425 19.1697 22.4625 18.8997 22.4325 18.8697C22.4025 18.8397 22.11 18.7272 22.0425 18.4947C22.0425 18.4572 21.9975 18.4422 21.9675 18.4272C21.6944 18.2667 21.4425 18.0727 21.2175 17.8497C21.095 17.7481 20.9673 17.653 20.835 17.5647C20.835 17.5647 20.835 17.5122 20.7825 17.4897C20.7715 17.4524 20.7508 17.4187 20.7225 17.3922C20.4225 17.1597 20.1975 16.8447 19.8825 16.6422C19.8 16.5972 19.6425 16.1622 19.56 16.1022C19.4775 16.0422 19.575 15.7497 19.5 15.7497Z" fill="#231F20"/>
</svg>
