<svg width="96" height="96" viewBox="0 0 96 96" fill="none" xmlns="http://www.w3.org/2000/svg">
<path d="M65.7222 18.6821C66.8922 19.2446 68.0697 19.9196 69.0147 20.9996C69.3597 21.3671 69.6822 21.8771 69.8622 22.3271C70.4472 23.9321 70.5897 25.5446 70.6722 27.1196C70.7172 27.8246 70.7172 28.5221 70.7247 29.2196C70.7247 30.1121 70.7247 31.0046 70.5372 31.8821C70.4847 32.1521 70.4097 32.1146 70.2972 31.8821C70.1997 31.6496 69.9597 31.2146 69.9147 30.7121C69.8247 29.8196 69.7122 28.9421 69.5922 28.0646C69.5022 27.1946 69.4347 26.3171 69.3297 25.4546C69.2022 24.4346 68.8347 23.3471 68.3472 22.5521C67.8372 21.7196 66.8547 21.0746 65.8122 20.6096C65.1597 20.3246 64.4772 20.0771 63.7797 19.8596C62.7297 19.5296 61.6347 19.2521 60.5322 19.1096C59.6772 18.9896 58.8222 19.0121 57.9747 18.9446C57.7872 18.9221 57.6072 18.9146 57.4197 18.8921C56.7222 18.8021 56.5122 18.6521 56.3697 18.3221C56.3397 18.2471 56.2947 18.1796 56.2722 18.1121C56.2122 17.8946 56.5122 17.6621 57.0522 17.5346C58.6572 17.1221 60.3672 17.1896 62.0397 17.5346C63.2772 17.7896 64.5447 18.0821 65.7447 18.6371L65.7297 18.6821H65.7222Z" fill="#231F20"/>
<path d="M14.8125 59.8501C14.9025 60.1576 15.0225 60.4351 15.1425 60.6976C15.2025 60.8251 15.2625 60.9526 15.33 61.0576C15.39 61.1551 15.465 61.2676 15.5775 61.3726C15.72 61.5301 15.9075 61.6426 16.0875 61.7776C16.395 62.0251 16.755 62.2426 17.1375 62.4226C17.52 62.6176 17.925 62.7826 18.3525 62.9176C18.7275 63.0376 19.1175 63.1051 19.5075 63.1651C20.01 63.2476 20.5125 63.3676 21.0075 63.5476C21.165 63.6076 21.1275 63.6901 20.9775 63.7951C20.8275 63.8926 20.565 64.0576 20.2575 64.1026C19.9875 64.1326 19.7175 64.1776 19.44 64.1851C19.17 64.1701 18.9 64.1401 18.63 64.1101C18.09 64.0351 17.5425 63.9076 17.0175 63.6901C16.395 63.4276 15.705 63.2101 15.09 62.7901C14.7525 62.5576 14.4525 62.3026 14.1675 61.9426C13.9125 61.5976 13.7175 61.2451 13.5825 60.8851C13.4025 60.4426 13.2675 60.0001 13.1475 59.5651C12.9675 58.8976 12.855 58.2226 12.7125 57.5626C12.6075 57.0526 12.405 56.5576 12.33 56.0401C12.315 55.9276 12.2775 55.8151 12.2775 55.6951C12.255 55.2601 12.3525 55.1101 12.69 55.0126C12.765 54.9901 12.84 54.9601 12.915 54.9451C13.17 54.9001 13.395 55.0576 13.5225 55.3426C13.9425 56.1751 14.1075 57.0601 14.31 57.9376C14.4675 58.5901 14.6175 59.2426 14.8425 59.8351L14.805 59.8501H14.8125Z" fill="#231F20"/>
<path d="M67.3574 49.8538C67.7024 50.1388 68.0549 50.4238 68.3549 50.7463C68.6774 51.0538 68.9699 51.3763 69.2549 51.7063C69.4724 51.9388 69.7049 52.1563 69.8924 52.4113C70.5674 53.2963 71.1224 54.2563 71.6249 55.2163C71.8649 55.6363 72.0749 56.0713 72.3149 56.4838C72.4724 56.7463 72.5849 57.0388 72.6899 57.3313C72.8174 57.6163 72.7724 57.9688 72.7949 58.2838C72.7949 58.4863 72.6749 58.5088 72.4199 58.4413C72.2924 58.4113 72.1274 58.3588 71.9399 58.2913C71.8499 58.2613 71.7524 58.2238 71.6624 58.1863C71.6099 58.1638 71.5799 58.1413 71.5199 58.1263C71.4899 58.0963 71.4599 58.0663 71.4299 58.0363C70.9874 57.6013 70.7174 57.0988 70.4324 56.5963C70.1324 56.1013 69.9224 55.5538 69.6749 55.0138C69.3899 54.3538 68.8649 53.8288 68.4149 53.2738C68.1674 52.9663 67.8974 52.6813 67.6349 52.3813C67.3499 52.1113 67.0874 51.8188 66.7799 51.5713L66.2249 51.1138C66.0299 50.9713 65.8274 50.8438 65.6249 50.7163C65.3249 50.4988 64.9874 50.3713 64.6724 50.1988C64.3424 50.0488 63.9974 49.9513 63.6524 49.8613C63.3749 49.8238 63.1049 49.8163 62.8349 49.8163C62.5649 49.8463 62.3024 49.8838 62.0399 49.8913C61.9274 49.8913 61.8149 49.9288 61.7024 49.9438C61.5974 49.9588 61.5074 49.9663 61.4324 49.9588C61.3574 49.9438 61.2824 49.8913 61.2224 49.8463C61.1024 49.7563 61.0199 49.6438 60.9374 49.4938C60.8999 49.4263 60.8549 49.3588 60.8249 49.2988C60.7349 49.0963 60.8699 48.8338 61.2299 48.5413C61.5074 48.4138 61.7999 48.2788 62.1074 48.2338C62.4149 48.1738 62.7374 48.0988 63.0599 48.1213C63.3749 48.1438 63.6974 48.1813 64.0199 48.2263C64.3349 48.2938 64.6349 48.3988 64.9499 48.4888C65.4074 48.6313 65.8199 48.8638 66.2399 49.0738C66.6224 49.3288 67.0424 49.5538 67.3949 49.8388L67.3724 49.8763L67.3574 49.8538Z" fill="#231F20"/>
<path d="M7.45549 60.8189C7.62049 61.7264 7.84549 62.6114 8.04799 63.4814C8.15299 63.9239 8.30299 64.3289 8.43049 64.7639C8.60299 65.1464 8.73049 65.5889 8.94799 65.9114C9.02299 66.0314 9.09049 66.1739 9.17299 66.2789L9.44299 66.5714C9.61549 66.7739 9.89299 66.9239 10.0955 67.1264C10.958 67.7564 12.053 68.1989 13.148 68.6039C14.2505 69.0014 15.4055 69.2939 16.5755 69.5489C17.6105 69.7889 18.668 69.9314 19.718 70.0289C21.068 70.1639 22.4255 70.3139 23.7905 70.3439C24.218 70.3589 24.173 70.4114 23.8205 70.5464C23.468 70.6814 22.808 70.9364 21.998 71.0564C21.2855 71.1539 20.5655 71.2364 19.8455 71.2589C19.1255 71.2589 18.413 71.2289 17.693 71.1689C16.9805 71.1089 16.2605 71.0339 15.548 70.8914C14.843 70.7264 14.138 70.5389 13.448 70.3064C11.798 69.7514 10.013 69.2189 8.49799 67.9139C7.63549 67.1114 7.25299 66.1064 6.90049 65.1839C6.59299 64.2389 6.32299 63.2939 6.17299 62.3339C5.95549 61.1564 5.82799 59.9789 5.70049 58.8089C5.52049 57.0314 5.46049 55.2389 5.40799 53.4764C5.36299 52.1039 5.33299 50.7539 5.40799 49.3964C5.43049 49.0964 5.43049 48.8039 5.46799 48.5039C5.58049 47.3864 5.71549 47.0339 5.88799 46.8239C5.92549 46.7714 5.97049 46.7114 6.00049 46.6814C6.12049 46.5989 6.12799 47.0564 6.11299 47.8589C6.08299 50.2514 6.33799 52.7714 6.63049 55.2764C6.87799 57.1364 7.11049 58.9964 7.49299 60.8114H7.45549V60.8189Z" fill="#231F20"/>
<path d="M7.61959 16.7161C8.05459 16.0186 8.83459 15.4336 9.50959 15.1261C10.1996 14.8186 10.8896 14.5786 11.5871 14.3911C12.0896 14.2486 12.5846 14.0911 13.0946 14.0011C14.8871 13.6786 16.6871 13.5286 18.4796 13.4311C19.2746 13.3936 20.0696 13.3336 20.8646 13.3636C21.8771 13.3636 22.9046 13.4536 23.8946 13.6936C24.2021 13.7611 24.1571 13.7686 23.8871 13.7911C23.6171 13.7911 23.1221 13.8661 22.5521 13.9261C21.5396 14.0311 20.5346 14.1286 19.5221 14.2336C18.5096 14.3236 17.5046 14.4286 16.4846 14.5411C15.2696 14.6686 14.0321 14.9986 12.8396 15.3211C11.5571 15.6661 10.1621 16.0786 9.26959 16.8361C8.74459 17.3086 8.38459 18.0736 8.10709 18.8386C7.68709 20.0161 7.38709 21.2761 7.19959 22.5361C7.04959 23.5186 7.05709 24.5011 6.98959 25.4761C6.97459 25.6936 6.97459 25.9036 6.95959 26.1211C6.81709 26.9236 6.67459 27.1711 6.38209 27.3211C6.31459 27.3586 6.24709 27.4036 6.18709 27.4186C5.97709 27.4786 5.81959 27.1336 5.72209 26.5261C5.46709 24.7186 5.69959 22.8211 6.05209 20.9161C6.20209 20.2111 6.35209 19.4986 6.61459 18.7936C6.86209 18.0886 7.14709 17.3836 7.59709 16.6936L7.62709 16.7086L7.61959 16.7161Z" fill="#231F20"/>
<path d="M10.8304 42.2482C10.9579 42.1132 11.0179 41.9482 11.0704 41.7682C11.0704 41.7007 11.0479 41.6407 11.0629 41.5732C11.0704 41.3407 11.0629 41.0482 10.9054 40.7857C10.8304 40.6807 10.7404 40.5832 10.6204 40.5157C10.4704 40.4257 10.3204 40.3582 10.1929 40.1782C10.1554 40.1182 10.2154 39.9757 10.3279 39.8332C10.4404 39.6907 10.6204 39.5407 10.7704 39.5557C11.2654 39.6382 11.7304 39.9982 11.9479 40.5007C12.0604 40.8007 12.2629 41.0782 12.3004 41.4157C12.3604 41.7757 12.3004 42.1357 12.2029 42.4582C12.1354 42.6607 12.0454 42.8482 11.9404 43.0282C11.7829 43.2982 11.5504 43.5082 11.3479 43.7257C11.1829 43.8907 11.0554 44.0932 10.8604 44.2582C10.8229 44.2957 10.7854 44.3407 10.7329 44.3632C10.5529 44.4532 10.4554 44.3932 10.3054 44.0932L10.2079 43.8907C10.1104 43.6582 10.0954 43.4332 10.1404 43.3132C10.2754 42.9757 10.4029 42.8107 10.5229 42.6232C10.6054 42.4807 10.7104 42.3682 10.8004 42.2332H10.8304V42.2482Z" fill="#231F20"/>
<path d="M4.41765 30.7059C4.52265 28.1634 4.68015 25.6209 4.93515 23.0709C5.08515 21.7884 5.23515 20.5134 5.48265 19.2159C5.59515 18.5709 5.75265 17.9184 5.91765 17.2584C6.00765 16.9284 6.12766 16.5909 6.23266 16.2609C6.27766 16.0959 6.34515 15.9234 6.42765 15.7509L6.69015 15.1584C6.96015 14.6784 7.36515 14.2359 7.88265 13.9734C8.28015 13.7559 8.63265 13.6209 8.97765 13.5009C9.66015 13.2684 10.3127 13.1109 10.9652 12.9684C12.2552 12.6909 13.5302 12.5034 14.8052 12.3309C17.3477 12.0009 19.8752 11.7834 22.4102 11.6034C26.1002 11.3484 29.7902 11.1159 33.4727 11.0184C39.9752 10.8609 46.4701 10.8834 52.9726 11.1234C56.2201 11.2434 59.4752 11.4234 62.7226 11.6934C65.9701 11.9934 69.2177 12.3384 72.4726 13.1184C73.1926 13.2984 73.9202 13.5159 74.6627 13.8234C75.0302 13.9809 75.4127 14.1759 75.7952 14.4684L76.0876 14.7309C76.1702 14.8209 76.2376 14.9184 76.3127 15.0159C76.4702 15.2109 76.5676 15.3984 76.6727 15.5859C77.0552 16.3434 77.2802 17.0784 77.4677 17.8134C77.6552 18.5484 77.7902 19.2759 77.9026 20.0034C78.3527 22.9134 78.5327 25.8009 78.6451 28.6734C78.7802 32.3634 78.7952 36.0534 78.6676 39.7359C78.5251 43.4184 78.3151 47.1159 77.4677 50.7309C77.1601 51.8484 76.9651 52.3209 76.8901 52.2834C76.8001 52.2384 76.7926 51.6684 76.6501 50.6859C76.5227 49.7034 76.3127 48.3084 76.2001 46.6509C76.1402 45.8184 76.0651 44.9184 76.0426 43.9659C76.0426 43.0134 76.0426 42.0084 76.0876 40.9659C76.2301 37.2609 76.2676 33.5484 76.1777 29.8509C76.1327 28.0059 76.0501 26.1609 75.9077 24.3309C75.7577 22.5159 75.5777 20.6784 75.2102 18.9759C75.0377 18.1434 74.7976 17.2809 74.5051 16.7259C74.4677 16.6659 74.4377 16.5834 74.4077 16.5384C74.3776 16.5084 74.3476 16.4709 74.3251 16.4334C74.3326 16.4109 74.2877 16.4334 74.3402 16.3809C74.2727 16.4334 74.3102 16.3884 74.2952 16.4034C74.2877 16.4034 74.2802 16.3884 74.2727 16.3809C74.2652 16.3584 74.1826 16.3209 74.1451 16.2909C73.9127 16.1484 73.5676 15.9909 73.1777 15.8634C71.6102 15.3384 69.7727 15.0309 67.9726 14.7759C64.3276 14.2809 60.6002 13.9584 56.8652 13.7034C47.9102 13.1184 38.5277 13.2834 29.3477 13.6509C24.3077 13.8759 19.2452 14.1609 14.2877 14.8509C13.0577 15.0309 11.8202 15.2334 10.6652 15.5334C10.0952 15.6834 9.50265 15.8559 9.09765 16.0734C8.96265 16.1409 8.86515 16.2084 8.80515 16.3434L8.66265 16.6509C8.60265 16.7709 8.54265 16.8984 8.50515 17.0409C7.73265 19.2534 7.42515 21.8034 7.14765 24.2709C6.54015 30.4284 6.50265 36.6759 6.58515 42.8934C6.67515 47.6109 6.86265 52.3359 7.22265 57.0384C7.40265 59.3859 7.62765 61.7334 7.96515 64.0359C8.06265 64.6059 8.14515 65.1834 8.26515 65.7384C8.37015 66.2859 8.52765 66.8784 8.69265 67.2534C8.82015 67.5084 9.30015 67.8309 9.77265 68.0484C10.2452 68.2884 10.7777 68.4609 11.3177 68.6259C14.7227 69.5484 18.3602 69.7434 21.9227 69.8934C25.5002 70.0134 29.0852 69.9984 32.6852 69.9459C34.2677 69.9084 35.8202 69.8784 37.4177 69.8409C43.3502 69.7434 45.2477 69.8484 46.5302 70.4934C46.8227 70.6359 47.2052 70.7709 47.3702 70.8984C47.9327 71.3259 45.5252 71.7984 41.1827 71.9484C34.7327 72.1884 28.0877 72.3684 21.3002 72.0384C19.6052 71.9484 17.8952 71.8284 16.1777 71.6334C14.4527 71.4384 12.7202 71.1984 10.9502 70.7409C10.0577 70.4859 9.15765 70.2009 8.19765 69.6384C7.95765 69.4959 7.71765 69.3459 7.47015 69.1134C7.15515 68.8959 6.94515 68.4909 6.72015 68.1459C6.63015 67.9734 6.60015 67.8459 6.54765 67.7109C6.50265 67.5834 6.44265 67.4334 6.41265 67.3134L6.22515 66.6159C5.82016 64.8159 5.61015 63.1134 5.40766 61.3884C4.84516 56.2809 4.56016 51.1809 4.38016 46.0734C4.22266 40.9584 4.18515 35.8434 4.35765 30.7134H4.41765V30.7059Z" fill="#231F20"/>
<path d="M36.2848 16.4702C41.2273 16.4252 46.1623 16.4777 51.1048 16.6427C52.9048 16.7027 54.7123 16.7177 56.5198 16.8377C58.7248 16.9802 60.9298 17.1677 63.1348 17.4452C64.2373 17.5877 65.3473 17.7527 66.4573 17.9852C67.0123 18.1052 67.5748 18.2402 68.1448 18.4352C68.4298 18.5327 68.7223 18.6452 69.0298 18.7952C69.3223 18.9377 69.7273 19.2302 69.9748 19.5752C70.2748 20.1302 70.5298 20.5952 70.6723 21.1052C70.8673 21.6077 70.9648 22.1102 71.0773 22.6127C71.2873 23.6102 71.3998 24.6077 71.4898 25.5902C71.7148 28.4477 71.7373 31.2902 71.6848 34.0877C71.6548 35.8877 71.6023 37.6877 71.5198 39.4802C71.4298 41.2727 71.3398 43.0652 70.9423 44.8352C70.6648 45.9377 70.6348 45.7877 70.3273 44.8352C70.1773 44.3552 69.9148 43.6727 69.7648 42.8552C69.6823 42.4427 69.5848 42.0002 69.5398 41.5277C69.5023 41.0552 69.4873 40.5602 69.5023 40.0427C69.5848 36.6752 69.6298 33.3227 69.6223 30.0077C69.6073 28.3502 69.5698 26.6927 69.3973 25.0802C69.3673 24.6677 69.2998 24.2852 69.2473 23.8877C69.2023 23.4827 69.1198 23.1077 69.0373 22.7327C68.9698 22.3427 68.8498 21.9977 68.7373 21.6452C68.6848 21.4652 68.6248 21.2927 68.5498 21.1577L68.3548 20.7527C68.3173 20.6927 68.3323 20.6852 68.1373 20.5727C67.9573 20.4752 67.7323 20.3852 67.4998 20.3027C66.5698 19.9802 65.4898 19.7777 64.4173 19.6127C63.3373 19.4477 62.2273 19.3352 61.1098 19.2452C58.8823 19.0577 56.6173 18.9677 54.3748 18.8702C49.4473 18.6527 44.4973 18.5702 39.5473 18.5777C36.5023 18.5852 33.4573 18.6302 30.4123 18.7277C28.1098 18.8027 25.7998 18.9002 23.4973 19.0427C21.2023 19.1927 18.8998 19.3652 16.6873 19.7402C16.3123 19.8077 15.9298 19.8827 15.5923 19.9802C15.3973 20.0327 15.2998 20.0702 15.2098 20.1077C15.1123 20.1527 15.0073 20.2052 14.9848 20.3177C14.9473 20.4152 14.9098 20.4602 14.8648 20.6027L14.7298 21.0452C14.6623 21.3602 14.5873 21.6677 14.5423 21.9977C14.4448 22.6502 14.3773 23.3102 14.3323 23.9852C14.2423 25.3277 14.2123 26.6777 14.1973 28.0427C14.1973 28.8152 14.1973 29.5727 14.1973 30.3452C14.1823 31.7927 14.1598 32.7452 14.0323 33.4202C13.8598 34.0952 13.6798 34.4777 13.4473 34.7852C13.3423 34.9277 13.2373 35.1077 13.1473 35.1902C12.9898 35.3252 12.8548 35.0927 12.6973 34.5677C12.5473 34.0427 12.3223 33.2177 12.2998 32.1527C12.1948 30.1427 12.1198 28.0877 12.1573 25.9802C12.1798 24.9227 12.2173 23.8652 12.3298 22.7627C12.3823 22.2152 12.4573 21.6602 12.5773 21.0827C12.6373 20.7902 12.6898 20.5052 12.7948 20.1902C12.8473 20.0252 12.8773 19.8977 12.9598 19.6952L13.3048 18.9902L13.4398 18.8252L13.4698 18.7802C13.4698 18.7802 13.4698 18.7502 13.5073 18.7802L13.5223 18.7577L13.5973 18.6827C13.6873 18.5702 13.8148 18.4952 13.9273 18.4052C14.1748 18.2552 14.4448 18.1352 14.7298 18.0452C15.1348 17.9177 15.4273 17.8577 15.7648 17.7827C16.4023 17.6477 17.0248 17.5577 17.6398 17.4677C18.8698 17.3027 20.0923 17.1752 21.3148 17.0702C26.3098 16.6577 31.2973 16.5077 36.2848 16.4102V16.4627V16.4702Z" fill="#231F20"/>
<path d="M16.9123 62.3341C18.9223 62.8591 21.1873 63.0616 23.4148 63.1966C24.2323 63.2416 25.0573 63.2116 25.8748 63.2416L30.2398 63.3691C31.7023 63.4291 33.1573 63.4666 34.6273 63.4891C35.9248 63.5116 37.2298 63.4516 38.5198 63.4516C40.1773 63.4516 41.8573 63.4741 43.5148 63.8941C44.0248 64.0516 43.9498 64.0516 43.5073 64.1941C43.0573 64.3591 42.2623 64.6891 41.3173 64.8541C39.6523 65.1391 37.9723 65.3191 36.2848 65.3566C34.5973 65.4166 32.8948 65.4391 31.1848 65.3791C29.1373 65.3116 27.0073 65.3941 24.9073 65.3416C22.5973 65.2591 20.2798 65.1241 17.9398 64.7266C17.2198 64.5991 16.4998 64.4491 15.7798 64.2166C15.0598 63.9766 14.3173 63.7291 13.6273 63.0841C13.0573 62.5366 12.9148 61.9066 12.7273 61.3516L12.5473 60.5116L12.4273 59.6791C12.3073 58.5766 12.2623 57.4966 12.2323 56.4166C12.1873 54.7441 12.1123 53.1166 12.1198 51.4666C12.1198 51.1066 12.1048 50.7466 12.1648 50.3866C12.3448 49.0441 12.6148 48.6316 12.9973 48.3766C13.0873 48.3166 13.1773 48.2416 13.2598 48.2116C13.5298 48.1066 13.7323 48.6766 13.9123 49.6591C13.9648 50.0266 14.0173 50.3941 14.0623 50.7616C14.1148 51.1291 14.0998 51.4966 14.1223 51.8641C14.1448 52.5991 14.1748 53.3416 14.1973 54.0916C14.2423 55.5766 14.3098 57.0841 14.4298 58.5316C14.4823 59.0641 14.5423 59.5891 14.6248 60.0916L14.7823 60.7966L14.8798 61.0891C14.8948 61.1341 14.9098 61.1941 14.9248 61.2316L14.9773 61.3216C15.0073 61.3666 15.0298 61.4791 15.0598 61.4791C15.0973 61.5016 15.0598 61.5241 15.1423 61.5616C15.2023 61.5991 15.2398 61.6441 15.3148 61.6891L15.5698 61.8241C15.9523 62.0041 16.4173 62.1691 16.9198 62.2816V62.3341H16.9123Z" fill="#231F20"/>
<path d="M14.2048 41.0716C14.3398 41.7316 14.2048 42.3316 14.0323 42.8341C13.8373 43.3891 13.4473 43.8916 12.9973 44.2216C12.6748 44.4691 12.3448 44.6866 11.9698 44.7916C11.3098 44.9716 10.6198 44.9266 9.99728 44.6866C9.38228 44.4391 8.84228 43.9741 8.57978 43.4041C8.35478 42.9091 8.22728 42.4066 8.22728 41.9041C8.19728 41.2666 8.51228 40.5991 9.04478 40.2616C9.21728 40.1566 9.30728 40.3141 9.40478 40.5466C9.47978 40.7791 9.67478 41.1166 9.73478 41.3116C9.75728 41.4916 9.89228 41.6641 9.90728 41.7991C9.95228 41.9416 10.0123 42.0691 10.0798 42.1741C10.1398 42.2866 10.2223 42.3541 10.2598 42.4366C10.2973 42.5266 10.3348 42.6241 10.4098 42.7216C10.6123 42.9841 11.0623 42.8641 11.3473 42.7216C11.6998 42.5566 11.9023 42.3166 11.9848 41.8666C12.0373 41.6266 11.9923 41.4241 11.8423 41.2291C11.6323 40.9216 11.1148 40.6891 10.6798 40.7791C10.3273 40.8466 10.1848 41.1391 10.1848 41.3641C10.1698 41.4091 10.1998 41.4616 10.1923 41.5066C10.1773 41.6491 10.0198 41.7166 9.38228 41.7391L8.94728 41.7691C8.46728 41.8066 8.07728 41.5891 8.00228 41.0791C7.96478 40.3141 8.39228 39.4216 9.17228 38.9341C9.97478 38.4541 10.8373 38.3641 11.6173 38.5291C12.2023 38.6641 12.7648 38.9116 13.2523 39.3466C13.7248 39.7816 14.1448 40.3891 14.2648 41.0641L14.2123 41.0791L14.2048 41.0716Z" fill="#231F20"/>
<path d="M43.792 41.2587C42.832 41.7762 41.8795 42.3162 40.9345 42.8787C40.5895 43.0812 40.2745 43.3212 39.922 43.5237C38.6995 44.2362 37.4695 44.9487 36.247 45.6537C35.707 45.9762 35.182 46.3212 34.6645 46.6737C33.997 47.1237 33.352 47.6037 32.5945 47.9112C32.1295 48.1137 32.1445 46.9212 32.872 46.3812C34.1845 45.4362 35.512 44.4987 36.952 43.6962C37.822 43.2312 38.6245 42.5862 39.4645 42.0312C40.3945 41.4237 41.332 40.8387 42.277 40.2537L44.032 39.1887C44.917 38.6487 45.832 38.1462 46.717 37.6212C47.4145 37.2237 48.037 36.7137 48.7495 36.3387C48.907 36.2562 49.0495 36.1587 49.2145 36.0912C49.8295 35.8362 50.0695 35.8662 50.3545 36.1587C50.422 36.2262 50.4895 36.2862 50.542 36.3612C50.7145 36.6012 50.572 36.9387 50.2045 37.2537C49.1545 38.2362 47.917 38.9412 46.657 39.6837C45.712 40.2237 44.7445 40.7337 43.7995 41.2962L43.777 41.2587H43.792Z" fill="#231F20"/>
<path d="M41.3697 35.4391C40.0797 36.1291 38.7747 36.8041 37.4997 37.5166L36.1197 38.3341C34.4622 39.2341 32.8197 40.1566 31.1847 41.0866C30.4647 41.5066 29.7522 41.9566 29.0622 42.4141C28.1772 42.9991 27.3147 43.6291 26.3622 44.1241C26.0697 44.2741 25.9647 44.0566 26.0547 43.6966C26.1447 43.3366 26.4222 42.8191 26.9172 42.4441C28.6722 41.1316 30.4572 39.8716 32.3922 38.8216C33.5547 38.1991 34.6647 37.3891 35.8047 36.6841C37.0647 35.9116 38.3397 35.1616 39.6147 34.4116L41.9847 33.0541C43.1772 32.3641 44.3997 31.7041 45.5772 30.9991C46.4922 30.4516 47.3397 29.8291 48.2397 29.2591C48.4347 29.1316 48.6222 28.9966 48.8247 28.8766C49.5897 28.4491 49.9047 28.4416 50.2872 28.8016C50.3772 28.8841 50.4747 28.9591 50.5422 29.0491C50.7822 29.3566 50.6097 29.7991 50.1072 30.1816C48.6222 31.3141 46.9572 32.3491 45.2322 33.3241C43.9497 34.0366 42.6597 34.7566 41.3772 35.4766L41.3547 35.4391H41.3697Z" fill="#231F20"/>
<path d="M79.1323 13.8211C79.1323 13.9561 79.0648 14.0836 79.0123 14.1961C78.9898 14.2336 78.9148 14.2411 78.8923 14.1961C78.8548 14.1286 78.8173 14.0536 78.7498 13.9861C78.7423 13.9636 78.5848 13.7911 78.4573 13.5811C78.3373 13.3711 78.1723 13.1461 78.0973 13.0336C77.9773 12.8011 77.8873 12.5686 77.8123 12.3286C77.6698 11.8411 77.4673 11.3686 77.3548 10.8811C77.3323 10.7761 77.3248 10.6636 77.3323 10.5436C77.3623 10.1536 77.2948 9.77859 77.1823 9.41109C77.1673 9.35109 77.1598 9.28359 77.0848 9.23109C76.9648 9.14859 76.7398 8.13609 76.7623 7.99359C76.8148 7.64859 76.8148 7.31109 76.8823 6.95859C76.8898 6.90609 76.8598 6.86109 76.9273 6.80859C77.0923 6.68109 77.0473 6.58359 77.0473 6.47859C77.0398 6.33609 77.0698 6.18609 77.1148 6.03609C77.1598 5.95359 77.2348 5.87109 77.3323 5.78859C77.4148 5.71359 77.5798 5.72109 77.6098 5.73609C77.6923 5.78859 77.7823 5.72109 77.8573 5.69859C77.8873 5.69859 77.9173 5.68359 77.9473 5.68359C77.9923 5.68359 78.2173 5.85609 78.3898 6.04359C78.5623 6.23859 78.7123 6.44109 78.7198 6.48609C78.7198 6.48609 78.7423 6.56859 78.7798 6.68109C78.8098 6.79359 78.8773 6.94359 78.9073 7.10109C78.9898 7.40859 79.0723 7.73859 79.0948 7.79859C79.1173 7.86609 79.0948 7.94109 79.0723 8.01609C79.0723 8.05359 79.3198 8.98359 79.3198 9.02109C79.3198 9.22359 79.4098 9.41109 79.2898 9.62859C79.2673 9.67359 79.2823 9.71109 79.2898 9.74859C79.3573 10.0861 79.3423 10.4311 79.3498 10.7761C79.3498 10.9561 79.3723 11.1286 79.3798 11.3011C79.3798 11.3311 79.3648 11.3686 79.3573 11.3986C79.3498 11.4436 79.3348 11.4811 79.3348 11.5186C79.3648 11.9311 79.3348 12.3586 79.4023 12.7636C79.4098 12.8611 79.2523 13.3411 79.2673 13.4536C79.2673 13.5136 79.1173 13.7461 79.1323 13.7986V13.8211Z" fill="#231F20"/>
<path d="M81.8027 16.0062C81.7877 16.1562 81.5852 16.1337 81.2852 16.0212C81.1877 15.9837 80.9627 15.7962 80.9477 15.7437C80.9252 15.6312 80.9102 15.5262 80.9102 15.4287C80.9102 15.3687 81.2177 14.6787 81.3152 14.4312C81.4052 14.1912 81.5402 13.9887 81.6827 13.7862C81.9677 13.3812 82.2602 12.9762 82.5827 12.6012C82.6502 12.5187 82.7402 12.4437 82.8377 12.3837C83.1752 12.1812 83.4302 11.9112 83.6627 11.6037C83.7002 11.5512 83.7527 11.5137 83.7452 11.4237C83.7377 11.2737 84.4352 10.5237 84.5702 10.4637C84.9302 10.2987 85.2002 10.1712 85.5152 10.0287C85.5602 10.0062 85.5827 9.95367 85.6652 9.98367C85.8602 10.0512 85.9202 9.96867 86.0102 9.92367C86.1302 9.84867 86.2727 9.79617 86.4302 9.77367C86.5127 9.75867 86.6252 9.78867 86.7227 9.79617C86.8127 9.80367 86.9177 9.97617 86.9177 10.0137C86.9177 10.1037 87.0152 10.1487 87.0752 10.2087C87.0977 10.2312 87.1202 10.2537 87.1352 10.2762C87.1502 10.2987 87.0977 10.5387 87.0602 10.8087C87.0002 11.0487 86.9477 11.3112 86.9102 11.3337C86.9102 11.3412 86.7227 11.5662 86.5352 11.8062C86.3552 12.0387 86.1677 12.2862 86.1152 12.3462C86.0777 12.4062 85.9952 12.4212 85.9277 12.4437C85.8902 12.4512 85.3427 13.1712 85.3127 13.1937C85.1627 13.3062 85.0727 13.4862 84.8327 13.5012C84.7877 13.5012 84.7652 13.5387 84.7352 13.5687C84.5252 13.8087 84.2552 13.9962 84.0002 14.2062C83.8727 14.3112 83.7752 14.4462 83.6552 14.5587C83.6327 14.5812 83.5952 14.5887 83.5652 14.6037C83.5277 14.6187 83.4902 14.6337 83.4602 14.6637C83.1977 14.9487 82.8602 15.1812 82.6352 15.5037C82.5827 15.5787 82.1702 15.7962 82.1177 15.8862C82.0877 15.9312 81.7952 15.9462 81.7877 16.0062H81.8027Z" fill="#231F20"/>
<path d="M81.5999 18.9962C81.4574 19.0637 81.3374 18.9062 81.2249 18.6287C81.1874 18.5387 81.1948 18.2762 81.2323 18.2387C81.3148 18.1637 81.3898 18.0812 81.4723 18.0212C81.5248 17.9912 82.3198 17.7587 82.5973 17.6462C82.8598 17.5412 83.1299 17.5262 83.3924 17.5037L85.0123 17.3837C85.1323 17.3837 85.2523 17.3837 85.3723 17.4212C85.7773 17.5412 86.1898 17.5412 86.6023 17.4962C86.6698 17.4962 86.7373 17.4962 86.8123 17.4287C86.9323 17.3087 88.0498 17.3687 88.1848 17.4287C88.5298 17.5937 88.8823 17.7062 89.2273 17.8412C89.2798 17.8637 89.3323 17.8412 89.3698 17.9312C89.4598 18.1487 89.5723 18.1262 89.6773 18.1487C89.8273 18.1862 89.9773 18.2387 90.1198 18.3212C90.1948 18.3662 90.2548 18.4862 90.3148 18.5837C90.3748 18.6737 90.2998 18.9737 90.2773 19.0037C90.2023 19.0937 90.2398 19.2362 90.2323 19.3637C90.2323 19.4087 90.2323 19.4612 90.2173 19.4987C90.2023 19.5737 89.2873 20.0162 89.1973 20.0087C89.1898 20.0087 88.8673 20.0162 88.5298 20.0312C88.1923 20.0462 87.8398 20.0612 87.7723 20.0762C87.6973 20.0912 87.6223 20.0387 87.5548 20.0012C87.5173 19.9787 86.5123 20.0762 86.4748 20.0462C86.2723 19.9937 86.0623 20.0462 85.8673 19.8437C85.8298 19.8062 85.7848 19.8137 85.7473 19.8062C85.3873 19.7912 85.0349 19.6862 84.6824 19.6112C84.5024 19.5737 84.3148 19.5737 84.1348 19.5587C84.1048 19.5587 84.0674 19.5287 84.0374 19.5137C83.9999 19.4987 83.9548 19.4762 83.9173 19.4687C83.4823 19.4462 83.0549 19.3412 82.6199 19.3562C82.5224 19.3562 82.0423 19.1462 81.9298 19.1612C81.8623 19.1612 81.6523 18.9437 81.5923 18.9737L81.5999 18.9962Z" fill="#231F20"/>
<path d="M71.5871 87.8113C71.5871 87.8113 67.8446 81.1662 68.9846 80.7537C70.1246 80.3412 79.5971 76.2688 79.5971 76.2688L83.0846 74.4688L88.8446 82.0288C88.8446 82.0288 85.1246 79.8012 84.8021 82.8687C84.4721 85.9813 79.9046 88.2538 78.2846 86.9863C75.5996 84.8713 72.4796 88.5837 72.5921 89.4538C72.7046 90.3238 71.5871 87.8187 71.5871 87.8187V87.8113Z" fill="#231F20"/>
<path d="M79.9645 70.0728C79.0345 68.3403 78.172 66.5853 77.3845 64.7703C77.0995 64.1028 76.7845 63.4578 76.5295 62.8053C75.622 60.5028 74.7895 58.2078 73.507 56.1978C73.2145 55.7553 72.8995 55.3353 72.547 54.9603C72.382 54.7578 72.2095 54.5703 72.0145 54.3978C71.827 54.2253 71.647 54.0378 71.4445 53.8803L70.6495 53.3103C70.372 53.1453 70.1095 52.9578 69.8395 52.7703L68.9695 52.2978C68.677 52.1403 68.3545 52.0428 68.032 51.9003C67.6345 51.7278 67.6945 51.5778 68.107 51.4203C68.317 51.3378 68.6095 51.2553 68.9845 51.1803C69.3595 51.1128 69.787 51.1353 70.252 51.2178C70.6645 51.2853 71.032 51.4578 71.437 51.5853C71.647 51.6378 71.8195 51.7503 71.9845 51.8703L72.4945 52.2078C72.847 52.4253 73.132 52.7103 73.447 52.9653C73.7695 53.2203 74.032 53.5203 74.2795 53.8278C75.292 55.0578 76.0345 56.4228 76.612 57.8178C77.302 59.4828 78.0145 61.1703 78.637 62.8278C79.2895 64.6278 80.0695 66.3978 80.9095 68.1378C81.427 69.2103 81.9745 70.2753 82.5445 71.3253C83.4145 72.9078 84.322 74.4903 85.3045 75.9978C86.0695 77.1678 86.902 78.2628 87.712 79.3803C87.892 79.6278 88.072 79.8678 88.252 80.1153C88.882 81.0678 88.9495 81.4578 88.867 81.8178C88.8445 81.9003 88.837 81.9978 88.7995 82.0578C88.6945 82.2678 88.267 81.9903 87.6595 81.3978C85.9795 79.5378 84.457 77.3853 83.002 75.1803C81.922 73.5378 80.902 71.8353 79.927 70.1178L79.9645 70.0953V70.0728Z" fill="#231F20"/>
<path d="M63.0677 49.1907C63.4202 49.4757 63.7652 49.7607 64.0652 50.0757C64.3877 50.3757 64.6802 50.6982 64.9652 51.0207C65.1827 51.2457 65.4077 51.4632 65.5952 51.7107C66.2552 52.5882 66.8327 53.5182 67.3052 54.4857C67.5227 54.9132 67.7402 55.3332 67.9727 55.7382C68.3027 56.2482 68.4452 56.8632 68.5277 57.4707C68.5502 57.6657 68.4077 57.6957 68.1677 57.6357C67.9352 57.5682 67.5377 57.4407 67.2902 57.2007L66.9602 56.8782C66.8477 56.7732 66.7952 56.6382 66.7127 56.5182C66.5552 56.2782 66.3977 56.0382 66.2477 55.7907C66.0977 55.5432 65.9402 55.3107 65.7977 55.0557C65.6702 54.7932 65.5502 54.5307 65.4227 54.2682C65.1302 53.6232 64.6127 53.1057 64.1552 52.5657C63.9152 52.2582 63.6377 51.9957 63.3752 51.7032C63.0977 51.4407 62.8202 51.1707 62.5202 50.9307L61.9577 50.5032C61.7627 50.3682 61.5602 50.2632 61.3577 50.1432C61.0577 49.9482 60.7202 49.8432 60.3977 49.6932C60.0677 49.5807 59.7227 49.4982 59.3852 49.4457C59.1152 49.4382 58.8527 49.4532 58.5902 49.4757C58.3277 49.5357 58.0802 49.6257 57.8327 49.6782C57.7202 49.6932 57.6227 49.7532 57.5102 49.7832C57.1277 49.9557 56.8952 49.5807 56.6927 49.2732C56.6477 49.1982 56.5952 49.1232 56.5577 49.0557C56.4977 48.9432 56.4977 48.8232 56.5502 48.6582C56.6027 48.5007 56.6927 48.2607 56.8652 48.1257C57.9152 47.4282 59.3777 47.4657 60.6002 47.8557C61.0652 47.9832 61.4927 48.2082 61.9202 48.4032C62.3102 48.6507 62.7377 48.8682 63.0902 49.1532L63.0677 49.1907Z" fill="#231F20"/>
<path d="M53.8728 61.7769C55.0503 62.2194 56.1978 62.6544 57.3003 62.8944C57.8478 63.0144 58.3803 63.0819 58.8228 63.0444C59.0478 63.0369 59.2278 62.9844 59.3928 62.9319L59.4378 62.9094C59.4378 62.9094 59.4603 62.9094 59.4678 62.9019C59.4903 62.8869 59.5128 62.8719 59.5353 62.8494C59.5803 62.8269 59.5878 62.7744 59.5803 62.7294C59.5653 62.6694 59.5803 62.6769 59.5203 62.5569C59.3403 62.1744 59.0853 61.7544 58.8228 61.3494C58.2903 60.5244 57.6903 59.7069 57.0753 58.8969C56.0778 57.5769 54.9903 56.3094 53.9553 54.9894C52.1253 52.6644 50.2878 50.3394 48.6153 47.8269C48.2028 47.1894 47.7978 46.5444 47.4453 45.8394C47.3478 45.6669 47.2578 45.4869 47.1678 45.3069C47.1228 45.2094 47.0778 45.1269 47.0403 45.0219C46.9953 44.8944 46.9203 44.7519 46.8903 44.6094C46.7028 44.0469 46.6578 43.4619 46.8978 42.9744C47.1528 42.4794 47.6928 42.2094 48.2178 42.0744C48.4878 41.9994 48.7803 42.0294 49.0578 42.0294C49.3578 42.0594 49.5903 42.1119 49.7853 42.1719C50.6178 42.4194 51.3153 42.8019 51.9753 43.2219C54.2703 44.7444 56.1903 46.6269 57.9678 48.5844C59.1003 49.8519 60.1878 51.1719 61.1478 52.5894C62.0928 54.0069 62.9928 55.5069 63.4053 57.2094C63.4278 57.7794 63.4053 58.0269 63.3228 58.0419C63.2403 58.0569 63.0678 57.8394 62.6853 57.5244C62.4603 57.3819 62.2878 57.1719 62.0628 56.9544C61.8378 56.7219 61.5903 56.4744 61.3278 56.2119C60.8253 55.6569 60.3003 54.9894 59.7753 54.2244C57.9228 51.5244 55.7328 48.9819 53.2953 46.8144C52.0878 45.7494 50.7453 44.7369 49.4853 44.1894C49.3353 44.1444 49.1778 44.0694 49.0503 44.0544C49.0053 44.0319 48.9903 44.0319 48.9528 44.0244C48.8928 44.0169 48.8028 44.0244 48.7578 44.0919C48.7203 44.1519 48.7353 44.2419 48.7428 44.3244C48.8253 44.6019 48.9753 45.0144 49.1703 45.3519C50.1003 47.0544 51.3903 48.7194 52.6878 50.3544C54.0153 51.9894 55.3578 53.6319 56.6853 55.2594C57.6528 56.4744 58.6203 57.6894 59.5503 58.9644C60.0153 59.6019 60.4653 60.2544 60.8928 60.9594C60.9978 61.1394 61.1028 61.3194 61.2003 61.5069C61.2528 61.6044 61.2903 61.6869 61.3503 61.8144C61.4178 61.9569 61.4703 62.0994 61.5228 62.2419C61.7328 62.8044 61.7628 63.4719 61.3578 63.9219C61.1628 64.1469 60.9303 64.3419 60.6903 64.5219C60.5778 64.6044 60.4053 64.6794 60.2778 64.7544C60.1653 64.8219 60.0453 64.8519 59.9253 64.8894C59.4528 65.0544 58.9803 65.0994 58.5378 65.0994C57.6528 65.0994 56.8428 64.9194 56.0628 64.7169C54.6228 64.3194 53.2878 63.7794 51.9753 63.2919C51.3228 63.0594 50.6628 62.8269 50.0628 62.7369C49.7703 62.6844 49.4928 62.7219 49.4553 62.7519C49.4553 62.7744 49.4328 62.7519 49.4178 62.8119C49.3953 62.8494 49.3878 62.9844 49.3878 63.0894C49.3878 63.4344 49.5678 63.8169 49.8603 64.1769C50.1378 64.5369 50.5053 64.8744 50.9103 65.1819C51.7128 65.8044 52.6353 66.3369 53.5653 66.8319C55.4478 67.8144 57.4203 68.6694 59.3928 69.5094C60.9228 70.1619 62.4528 70.7919 63.9753 71.4819C65.4903 72.1794 66.9978 72.9144 68.4153 73.9644C69.0303 74.4294 69.6528 74.9694 70.1403 75.6294C70.5528 76.1769 70.8828 76.6569 71.1303 77.0694C71.3778 77.4894 71.5278 77.8494 71.6478 78.1494C71.7603 78.4494 71.8353 78.6969 71.8653 78.9219C71.8878 79.1469 71.8653 79.3494 71.8503 79.5294C71.8278 79.6944 71.8503 79.8894 71.8203 79.9944C71.7903 80.3319 70.7628 79.6194 69.5703 78.0969L68.9103 77.2419C68.6928 76.9644 68.4453 76.6419 68.2503 76.4544C67.8303 76.0119 67.3053 75.5994 66.7278 75.2094C65.5653 74.4444 64.2528 73.7769 62.9028 73.1469C60.1878 71.8869 57.3078 70.7244 54.4278 69.4119C53.3553 68.9169 52.2903 68.3919 51.2253 67.7619C50.1753 67.1019 49.0878 66.4569 48.1428 65.2044C47.6853 64.5744 47.2878 63.6744 47.4153 62.6094C47.4153 62.4894 47.4828 62.2944 47.5278 62.1444C47.5653 61.9944 47.6628 61.8144 47.7828 61.6419C47.8878 61.4694 48.0303 61.3269 48.1953 61.1994C48.3603 61.0569 48.5253 60.9669 48.6828 60.9069C49.3428 60.6444 49.8228 60.6894 50.1978 60.7269C50.9778 60.8169 51.5703 61.0119 52.1628 61.1844C52.7478 61.3719 53.3028 61.5669 53.8503 61.7544L53.8353 61.8069L53.8728 61.7769Z" fill="#231F20"/>
<path d="M75.6526 79.3856C74.3026 79.8281 72.9226 80.1956 71.6776 80.7506C71.4526 80.8481 71.2276 80.9606 71.0251 81.0731L70.7176 81.2456C70.6276 81.2981 70.4851 81.3731 70.4776 81.3731C70.3501 81.4331 70.1626 81.4781 70.1551 81.6506C70.1551 81.7181 70.1476 81.7181 70.1551 81.8381C70.1701 81.9656 70.2226 82.1156 70.2526 82.2581L70.5001 83.1431C70.6651 83.7506 70.8751 84.3581 71.1076 84.9506C71.4001 85.6781 71.7451 86.3981 72.1126 87.0881C72.3676 87.5231 72.5851 87.9731 72.8026 88.4306C72.9076 88.6556 73.0276 88.8806 73.1026 89.1206C73.1776 89.3681 73.2526 89.6231 73.3351 89.8706C73.4251 90.1931 73.3126 90.2456 72.9301 90.2006C72.7426 90.1781 72.4726 90.1256 72.1651 90.0431C72.0151 89.9981 71.8351 89.9606 71.6926 89.8856C71.5576 89.8031 71.4226 89.7131 71.3101 89.6006C71.1001 89.3981 70.9126 89.1956 70.7176 88.9931L70.4326 88.6781L70.2001 88.3331C69.9001 87.8756 69.6076 87.4031 69.3526 86.9156C68.9101 85.9106 68.5426 84.8681 68.2951 83.7506L68.1151 82.7981C68.0851 82.6331 68.0476 82.4756 68.0251 82.2956C67.9726 82.0706 67.9576 81.8081 67.9351 81.5606C67.9276 81.2831 67.9951 80.9981 68.1076 80.7431C68.2651 80.5031 68.4826 80.3081 68.7076 80.1281C68.9251 79.9331 69.1651 79.7831 69.4051 79.6331C69.6151 79.5056 69.7576 79.4381 69.9376 79.3556C70.6276 79.0331 71.3101 78.7781 71.9926 78.5231L74.0026 77.7506C74.8276 77.4431 75.6451 77.1431 76.4626 76.8206C77.6851 76.3256 78.9301 75.8606 80.0926 75.2681C80.9926 74.8031 81.7951 74.2031 82.5751 73.6181C82.7476 73.4906 82.8976 73.3406 83.0776 73.2131C83.7301 72.7706 84.0526 72.8081 84.5251 73.1456C84.6376 73.2281 84.7576 73.2956 84.8476 73.3781C85.1701 73.6631 85.1176 74.1731 84.6976 74.7131C83.3551 76.1756 81.5401 77.0906 79.7551 77.9006C78.4201 78.4931 77.0326 78.9356 75.6826 79.4156L75.6601 79.3706L75.6526 79.3856Z" fill="#231F20"/>
</svg>
