<svg width="96" height="96" viewBox="0 0 96 96" fill="none" xmlns="http://www.w3.org/2000/svg">
<path d="M76.4995 56.8394L69.517 61.6394C68.662 62.2169 67.8295 62.8244 66.9745 63.3944C65.4745 64.3919 63.9745 65.3894 62.3395 66.3194C62.137 66.4319 61.9345 66.5444 61.7095 66.6569C61.5697 66.7267 61.4242 66.7844 61.2745 66.8294C61.1909 66.8625 61.1019 66.8803 61.012 66.8819H60.9295H60.892H60.757L60.2545 66.7469L59.8945 66.5894C59.6611 66.4733 59.4378 66.3378 59.227 66.1844C58.4357 65.5473 57.836 64.7037 57.4945 63.7469C56.9484 62.1659 56.6943 60.4988 56.7445 58.8269C56.7472 57.7709 56.84 56.7171 57.022 55.6769C57.195 54.6112 57.5801 53.591 58.1545 52.6769C58.3645 52.3769 58.5745 52.3169 58.6345 52.4069C58.6945 52.4969 58.702 52.7219 58.702 53.0144C58.6739 53.8883 58.5761 54.7585 58.4095 55.6169C58.0076 57.5516 57.9492 59.5419 58.237 61.4969C58.3684 62.4288 58.6819 63.3259 59.1595 64.1369C59.3748 64.5167 59.6598 64.8526 59.9995 65.1269C60.1694 65.2526 60.3501 65.363 60.5395 65.4569C60.6284 65.5027 60.7213 65.5403 60.817 65.5694C60.8288 65.5748 60.8416 65.5776 60.8545 65.5776C60.8674 65.5776 60.8802 65.5748 60.892 65.5694C61.1062 65.4896 61.3122 65.3891 61.507 65.2694C61.777 65.1269 62.047 64.9619 62.317 64.7969C62.857 64.4669 63.3895 64.1219 63.9295 63.7619L67.1245 61.5719C69.4645 59.9669 71.7945 58.3469 74.1145 56.7119L78.382 53.7119L81.592 51.3719L83.1595 50.1794L83.5345 49.8719C83.6245 49.7894 83.6995 49.7594 83.737 49.6619C83.7534 49.5651 83.7534 49.4662 83.737 49.3694C83.737 49.2269 83.737 49.0694 83.737 48.9119C83.3854 46.8962 83.1699 44.859 83.092 42.8144C83.0911 42.3476 83.1237 41.8814 83.1895 41.4194C83.253 40.7845 83.458 40.172 83.7895 39.6269C83.9394 39.3557 84.1776 39.144 84.4645 39.0269C84.5578 38.981 84.6559 38.9458 84.757 38.9219C85.0345 38.9219 84.8095 39.5519 84.6895 40.6694C84.4857 42.4172 84.5337 44.1852 84.832 45.9194C84.952 46.8344 85.0945 47.7344 85.1995 48.7544V49.1519C85.2102 49.3267 85.2102 49.502 85.1995 49.6769C85.1907 49.9102 85.1327 50.1391 85.0293 50.3485C84.9259 50.5579 84.7795 50.743 84.5995 50.8919L84.247 51.1844L83.9545 51.4169L83.3845 51.8594C81.1345 53.5919 78.7795 55.2419 76.4545 56.8994L76.4995 56.8394Z" fill="#231F20"/>
<path d="M10.3045 67.1931C9.55455 67.1181 8.80455 67.0356 8.00955 66.8856L7.40955 66.7506C7.19205 66.6906 6.96705 66.6156 6.74955 66.5406C6.59943 66.476 6.45407 66.4008 6.31455 66.3156L6.10455 66.1731L5.99955 66.0831L5.56455 65.6481C4.39432 64.4752 3.55586 63.013 3.13455 61.4106C2.73433 59.8379 2.68822 58.1959 2.99955 56.6031C3.3039 55.0376 3.88554 53.5391 4.71705 52.1781C5.3373 51.1487 6.1405 50.2413 7.08705 49.5006C7.21455 49.4106 7.31205 49.3206 7.50705 49.2006C7.69178 49.1065 7.88865 49.0384 8.09205 48.9981C8.39205 48.9231 8.66955 48.8781 8.95455 48.8331C9.5158 48.7447 10.0818 48.6896 10.6495 48.6681C18.3295 48.3981 25.957 48.5406 33.5995 48.7431C36.9895 48.8331 40.3945 48.9231 43.762 49.0656C45.922 49.1556 48.0895 49.2531 50.257 49.4331C51.337 49.5231 52.4245 49.6356 53.5045 49.7856C54.6078 49.9355 55.6949 50.1865 56.752 50.5356C57.0298 50.6228 57.2855 50.7686 57.502 50.9631C57.6445 51.1131 57.6745 51.2406 57.6145 51.2631C57.5545 51.2856 57.142 51.1881 56.5795 51.1806C55.4545 51.1281 53.3845 51.1806 50.932 50.9556C46.5746 50.6031 42.172 50.4681 37.7695 50.3331L24.4945 50.0256C21.8395 49.9656 19.132 49.9806 16.4095 50.0256C15.052 50.0256 13.687 50.0931 12.3295 50.1456C11.0134 50.1578 9.7008 50.2858 8.40705 50.5281C8.30621 50.5423 8.21205 50.5868 8.13705 50.6556L7.74705 50.9481C7.48211 51.1667 7.23158 51.4022 6.99705 51.6531C6.53344 52.1757 6.13084 52.7494 5.79705 53.3631C5.12348 54.6023 4.68366 55.9548 4.49955 57.3531C4.27199 58.7395 4.37216 60.1599 4.79205 61.5006C5.21997 62.8248 5.9973 64.0089 7.04205 64.9281C7.08822 64.9823 7.14765 65.0237 7.21455 65.0481L7.29705 65.0931L7.43205 65.1381C7.62521 65.2057 7.8233 65.2584 8.02455 65.2956C8.44455 65.3931 8.89455 65.4381 9.33705 65.5056C10.2295 65.6106 11.137 65.6856 12.052 65.7456C13.8745 65.8581 15.712 65.9181 17.5495 65.9631C23.107 66.0906 28.7095 66.1131 34.2445 66.0981C38.542 66.0981 42.7645 65.9781 46.9945 66.0156C47.9395 66.0156 48.8545 66.0156 49.807 66.0531C53.3246 66.1881 54.472 66.4806 55.1545 67.0131C55.3131 67.1215 55.459 67.2473 55.5895 67.3881C55.837 67.7781 54.4645 67.7331 51.9295 67.6806C48.1795 67.5981 44.2645 67.6806 40.312 67.6806L28.312 67.7331C25.312 67.7331 22.312 67.7331 19.312 67.6656C16.312 67.5981 13.312 67.5306 10.252 67.2681L10.3045 67.1931Z" fill="#231F20"/>
<path d="M25.8295 38.2502L21.7495 40.9052C21.247 41.2277 20.767 41.5802 20.2495 41.8952L14.8795 45.1652L12.5095 46.6652C11.5247 47.3564 10.4497 47.9091 9.31451 48.3077C8.95451 48.4277 8.90201 48.1652 9.06701 47.7902C9.31416 47.2865 9.6957 46.8608 10.1695 46.5602C12.202 45.3602 14.227 44.0852 16.3345 42.8702C17.602 42.1202 18.8395 41.2577 20.0845 40.4477L24.1795 37.7477L26.692 36.0677L30.4945 33.5027C31.462 32.8352 32.3845 32.1227 33.337 31.4402C33.547 31.2902 33.757 31.1552 33.982 31.0202C34.807 30.5252 35.1295 30.4652 35.482 30.6152C35.5597 30.6442 35.6349 30.6793 35.707 30.7202C35.8945 30.8552 35.707 31.2452 35.137 31.7027C34.3314 32.3969 33.4876 33.0454 32.6095 33.6452L29.932 35.5052L25.8445 38.2502H25.8295Z" fill="#231F20"/>
<path d="M81.5477 35.9974C80.2029 34.8861 78.6107 34.1144 76.9052 33.7474C75.1174 33.3294 73.2945 33.0784 71.4602 32.9974C70.1027 32.9974 68.7377 32.9974 67.3727 32.9974C64.9577 32.9974 62.5352 33.0874 60.1052 33.1999C57.6752 33.3124 55.2452 33.4624 52.7702 33.4174C50.5853 33.3536 48.4098 33.1027 46.2677 32.6674C43.5206 32.1956 40.8508 31.3502 38.3327 30.1549C37.5827 29.7649 37.7177 29.7049 38.4452 29.8249L39.9452 30.0874C40.6474 30.1954 41.3434 30.3406 42.0302 30.5224C44.7074 31.204 47.4369 31.6606 50.1902 31.8874C52.9618 32.0824 55.7437 32.0824 58.5152 31.8874C61.8977 31.7599 65.4302 31.4074 68.9402 31.4149C70.8764 31.403 72.8111 31.5258 74.7302 31.7824C76.6948 32.0173 78.6119 32.5509 80.4152 33.3649C80.6927 33.5074 80.9627 33.6649 81.2327 33.8074C81.5027 33.9499 81.7577 34.1524 81.9827 34.3324C82.2077 34.5124 82.4852 34.7224 82.7327 34.9474L83.0627 35.2849C83.2053 35.4257 83.3289 35.5845 83.4302 35.7574L83.7752 36.2824C83.8267 36.3699 83.8538 36.4696 83.8538 36.5711C83.8538 36.6727 83.8267 36.7724 83.7752 36.8599C83.5776 37.2325 83.3012 37.5575 82.9652 37.8124C82.4927 38.2174 82.0052 38.5624 81.5177 38.9074C78.5177 40.9249 75.4277 42.6574 72.4127 44.5024C70.0577 45.9124 67.7927 47.3674 65.5202 48.8299L64.0202 49.8049C62.1602 51.0124 61.5527 51.3049 60.9452 51.2524C60.8027 51.2524 60.6452 51.2524 60.5252 51.2524C60.4052 51.2524 60.3302 50.9674 60.6002 50.5849C60.9946 50.065 61.4648 49.6074 61.9952 49.2274C66.0002 46.3624 70.4327 43.8499 74.8127 41.2024C76.4402 40.2199 78.0677 39.2449 79.6352 38.2024C80.4123 37.7117 81.1633 37.181 81.8852 36.6124L81.9827 36.5299L81.5702 36.1099L81.5477 35.9974Z" fill="#231F20"/>
<path d="M17.2499 81.5755C20.9999 81.508 24.7499 81.403 28.4999 81.283L32.6099 81.103C37.4399 80.953 42.2724 80.838 47.1074 80.758L53.5499 80.608C54.9149 80.608 56.2949 80.5555 57.6674 80.608C59.0651 80.6278 60.4571 80.7886 61.8224 81.088C62.7299 81.463 62.4374 81.568 61.7174 81.6655C60.5332 81.8975 59.3314 82.028 58.1249 82.0555L41.3999 82.2805C38.0399 82.2805 34.5449 82.513 31.1024 82.633C27.3174 82.768 23.5299 82.883 19.7399 82.978C17.4049 83.038 15.0699 83.073 12.7349 83.083C10.9445 83.1191 9.15356 83.044 7.37244 82.858L7.02744 82.8055L6.64494 82.693C6.4175 82.6069 6.19897 82.4989 5.99244 82.3705C5.78058 82.2642 5.57745 82.1413 5.38494 82.003L4.83744 81.5605C4.49223 81.2428 4.16899 80.902 3.86994 80.5405C3.5998 80.1612 3.34947 79.7681 3.11994 79.363C2.45886 78.1114 2.03426 76.7486 1.86744 75.343C1.68492 73.9499 1.70513 72.5377 1.92744 71.1505C2.02797 70.5332 2.17336 69.9241 2.36244 69.328C2.61651 68.5255 3.01842 67.7777 3.54744 67.123C3.78062 66.7953 4.12879 66.5677 4.52244 66.4855C4.65371 66.4445 4.78999 66.4218 4.92744 66.418C5.10744 66.418 5.10744 66.673 4.92744 67.0405L4.22994 68.623C3.37358 70.7631 3.08174 73.0875 3.38244 75.373C3.64494 77.623 4.66494 79.9255 6.47994 81.028L6.99744 81.313C7.07994 81.358 7.12494 81.313 7.18494 81.373H7.27494H7.43244C7.82244 81.4405 8.27994 81.463 8.72994 81.5005C9.64494 81.5455 10.5824 81.568 11.5199 81.5755C13.4024 81.5755 15.2699 81.5755 17.1824 81.508L17.2499 81.5755Z" fill="#231F20"/>
<path d="M62.7675 76.1606C62.625 75.5606 62.5125 74.9381 62.43 74.3231C62.43 74.0981 62.3325 73.8806 62.3175 73.6556C62.2574 72.8592 62.2574 72.0594 62.3175 71.2631C62.3625 70.9181 62.37 70.5656 62.4075 70.2206C62.4095 69.7734 62.496 69.3306 62.6625 68.9156C62.7675 68.6606 63.555 69.1706 63.555 69.6656C63.5524 70.5032 63.4972 71.3398 63.39 72.1706C63.3741 72.6895 63.422 73.2083 63.5325 73.7156C63.6225 74.2856 63.7275 74.8481 63.87 75.4106C63.96 75.7631 64.0575 76.1081 64.17 76.4456C64.3344 76.958 64.5324 77.4591 64.7625 77.9456C64.95 78.3281 65.2275 78.6956 65.4375 79.0331C65.4825 79.1156 65.5425 79.1906 65.5875 79.2731C65.745 79.5881 65.6625 79.7531 65.3925 79.9481L65.205 80.0906C65.0955 80.1514 64.9694 80.1755 64.8452 80.1593C64.721 80.1431 64.6052 80.0875 64.515 80.0006C63.954 79.4125 63.529 78.7084 63.27 77.9381C63.0525 77.3606 62.865 76.7681 62.7 76.1681L62.7675 76.1606Z" fill="#231F20"/>
<path d="M82.2526 67.7444C81.0751 68.7419 79.8526 69.6719 78.6601 70.6319C78.2251 70.9769 77.8201 71.3819 77.3776 71.7044C75.8326 72.9194 74.2726 74.1194 72.7651 75.3644C72.0901 75.9194 71.4376 76.4969 70.8226 77.0969C70.4251 77.4794 70.0726 77.8469 69.6601 78.2669C69.2476 78.6869 68.9476 79.0169 68.5726 79.3769C68.4601 79.4969 68.0926 79.4969 67.9576 79.0094C67.9059 78.7165 67.9215 78.4157 68.0034 78.1298C68.0852 77.8439 68.2312 77.5804 68.4301 77.3594C70.0124 75.6586 71.7725 74.1324 73.6801 72.8069C74.7976 72.0044 75.8401 71.0294 76.9351 70.1444L80.5276 67.2419C81.2776 66.6494 82.0276 66.0569 82.7176 65.4419C83.2501 64.9769 83.8051 64.5044 84.2551 64.0244C84.3451 63.9194 84.4051 63.8594 84.4126 63.7544V63.3194C84.4126 62.9744 84.4126 62.6294 84.3376 62.2769C84.2101 61.2044 83.9176 60.1244 83.8501 58.9844C83.8501 58.7369 83.8501 58.4969 83.8501 58.2344C83.9101 57.3044 84.0526 57.0194 84.3376 56.8469C84.4002 56.8054 84.4653 56.7678 84.5326 56.7344C84.7426 56.6669 84.8851 57.0419 84.9901 57.6869C85.1401 58.6469 85.2676 59.5769 85.4551 60.5519C85.5451 61.0469 85.6426 61.5569 85.7176 62.0519C85.7526 62.3219 85.7826 62.5919 85.8076 62.8619V63.2819C85.8076 63.4319 85.8076 63.4994 85.8076 63.8144C85.7691 64.1892 85.6203 64.5441 85.3801 64.8344C85.2076 65.0369 85.0726 65.1794 84.9301 65.3294C84.6376 65.6294 84.3451 65.8994 84.0601 66.1694C83.4751 66.7019 82.8901 67.2194 82.3051 67.7294L82.2526 67.7444Z" fill="#231F20"/>
<path d="M19.1925 58.347C16.2675 61.7445 17.865 72.747 17.865 72.747C14.805 73.497 12.315 70.2195 12.315 70.2195C10.7175 64.137 13.215 58.332 13.215 58.332L19.1925 58.347Z" fill="#231F20"/>
<path d="M84.75 60.75C106.447 63.42 83.3175 74.9625 70.1475 77.04L84.8175 64.7325L84.75 60.75Z" fill="#231F20"/>
<path d="M4.96522 59.2945C4.84883 58.5163 4.84883 57.7252 4.96522 56.947C4.9885 56.6629 5.03873 56.3816 5.11522 56.107C5.38463 55.1518 5.84095 54.2596 6.45772 53.482C6.72022 53.1445 6.97522 52.792 7.26772 52.4845C7.61649 52.05 8.05366 51.6947 8.55022 51.442C8.71522 51.367 8.79772 51.562 8.79772 51.817C8.80724 51.9533 8.78888 52.0901 8.74374 52.2191C8.69861 52.348 8.62766 52.4664 8.53522 52.567C7.8457 53.2591 7.24599 54.0352 6.75022 54.877C6.43596 55.4111 6.22242 55.9983 6.12022 56.6095C5.97886 57.2798 5.93841 57.9673 6.00022 58.6495C6.03507 59.0732 6.11041 59.4927 6.22522 59.902L6.55522 60.817C6.69772 61.1095 6.85522 61.3945 7.02022 61.6795C7.31361 62.0875 7.6451 62.4667 8.01022 62.812C8.09272 62.887 8.18272 62.947 8.25772 63.0295C8.54272 63.322 8.58022 63.4645 8.43772 63.7345C8.40022 63.7945 8.37772 63.862 8.34022 63.9145C8.20522 64.102 7.95772 64.102 7.69522 63.9145C7.27861 63.6259 6.90708 63.2771 6.59272 62.8795C6.41207 62.6804 6.24423 62.4699 6.09022 62.2495L5.69272 61.5595C5.33418 60.8502 5.0815 60.0921 4.94272 59.3095L4.96522 59.2945Z" fill="#231F20"/>
<path d="M5.74465 73.8153C5.74988 74.4244 5.82538 75.031 5.96965 75.6228C6.02747 75.84 6.10015 76.053 6.18715 76.2603C6.42017 77.0213 6.7775 77.7385 7.24465 78.3828C7.45698 78.6678 7.70963 78.9205 7.99465 79.1328C8.1853 79.2474 8.36594 79.3778 8.53465 79.5228C8.72969 79.6394 8.91085 79.7778 9.07465 79.9353C9.16465 80.0778 9.07465 80.1903 8.90215 80.3178C8.77951 80.3949 8.64204 80.4455 8.49864 80.4662C8.35523 80.4868 8.20908 80.4772 8.06965 80.4378C7.56069 80.2114 7.10946 79.873 6.74965 79.4478C6.38396 79.0567 6.08498 78.6083 5.86465 78.1203C5.57388 77.5561 5.32326 76.9722 5.11465 76.3728C4.99465 76.0428 4.94215 75.6978 4.85215 75.3603C4.76215 75.0228 4.74715 74.6778 4.72465 74.3328C4.69465 73.9058 4.69465 73.4773 4.72465 73.0503C4.77678 72.4085 4.88979 71.7732 5.06215 71.1528C5.18274 70.6737 5.34072 70.2047 5.53465 69.7503C5.56988 69.6425 5.61771 69.5393 5.67715 69.4428C5.93965 69.0978 6.08965 69.0453 6.35965 69.1728C6.42181 69.1983 6.48198 69.2283 6.53965 69.2628C6.63127 69.3327 6.69564 69.4324 6.72166 69.5446C6.74767 69.6569 6.7337 69.7747 6.68215 69.8778C6.37217 70.5807 6.1213 71.3082 5.93215 72.0528C5.81964 72.6408 5.77435 73.2396 5.79715 73.8378L5.74465 73.8153Z" fill="#231F20"/>
<path d="M24.9525 58.822H21.4725C21.045 58.822 20.625 58.822 20.1975 58.822C18.6975 58.822 17.1975 58.7395 15.6975 58.687L13.695 58.6345C12.8157 58.6639 11.9397 58.5107 11.1225 58.1845C10.8525 58.027 10.995 57.937 11.2425 57.8695C11.6031 57.76 11.9761 57.697 12.3525 57.682C14.01 57.682 15.7275 57.682 17.46 57.7645C18.495 57.8095 19.5675 57.697 20.6325 57.6745L24.135 57.6145H26.295L29.565 57.5695C30.4125 57.5695 31.2375 57.472 32.085 57.457C32.2725 57.457 32.4525 57.457 32.64 57.457C33.3375 57.5095 33.5625 57.637 33.675 57.9295C33.7042 57.9946 33.7268 58.0625 33.7425 58.132C33.7425 58.3495 33.4875 58.477 32.9925 58.537C31.545 58.717 29.9925 58.7845 28.44 58.8295H24.9375L24.9525 58.822Z" fill="#231F20"/>
<path d="M35.6548 75.6289H32.4748C32.0923 75.6289 31.7248 75.6289 31.3198 75.6289L27.2173 75.5164C26.6098 75.5164 26.0023 75.5164 25.4023 75.5164C24.6208 75.5489 23.8381 75.491 23.0698 75.3439C22.8298 75.2989 22.8748 75.1639 23.0698 75.0139C23.378 74.8111 23.7304 74.6851 24.0973 74.6464C24.8473 74.5489 25.6573 74.5789 26.4373 74.5564C27.2173 74.5339 28.0123 74.5564 28.7998 74.5564C29.7523 74.5564 30.7348 74.4814 31.7023 74.4664L34.9048 74.4139H36.8773H39.8773C40.6273 74.4139 41.3773 74.3239 42.1798 74.3164C42.3523 74.3164 42.5173 74.3164 42.6898 74.3164C43.3273 74.3764 43.5298 74.5039 43.6273 74.7889C43.6552 74.8512 43.6753 74.9167 43.6873 74.9839C43.6873 75.1939 43.4398 75.3514 42.9973 75.3964C41.6186 75.567 40.2314 75.6597 38.8423 75.6739H35.6548V75.6289Z" fill="#231F20"/>
<path d="M55.1623 42.8616C53.9248 42.7866 52.6873 42.7116 51.4573 42.6891C50.2273 42.6666 48.9373 42.5391 47.7073 42.4191C46.4773 42.2991 45.2398 42.1716 44.0173 42.1191C43.4098 42.1191 42.8023 42.1191 42.1948 42.1191C41.8948 42.1191 41.5948 42.1191 41.3023 42.1941H41.0773H40.9198H40.7623L40.5898 42.2391C40.5223 42.2391 40.5898 42.3366 40.5898 42.3591C40.6361 42.3891 40.6867 42.4119 40.7398 42.4266C40.8576 42.4647 40.9779 42.4948 41.0998 42.5166C41.9473 42.7041 42.8473 42.8166 43.7323 42.9216C48.2698 43.4616 52.8748 43.5741 57.4573 44.4816H57.6373L57.7273 44.6241C57.7782 44.6981 57.8115 44.7827 57.8248 44.8716C57.8364 44.9844 57.81 45.0979 57.7498 45.1941C57.7137 45.2491 57.6709 45.2995 57.6223 45.3441L57.5248 45.4041C57.4395 45.4483 57.3487 45.481 57.2548 45.5016C57.1291 45.533 57.0013 45.5556 56.8723 45.5691C56.6248 45.5691 56.3923 45.6141 56.1673 45.6216C55.7023 45.6216 55.2523 45.6216 54.7948 45.6216C53.8873 45.6216 52.9873 45.6216 52.0873 45.5841L43.5823 45.3591C39.9673 45.2841 36.3373 45.3141 32.7448 45.1491C31.6348 45.1041 31.7773 44.5641 32.7448 44.0916C34.2713 43.4689 35.9264 43.2269 37.5673 43.3866L47.5348 44.0616L52.5073 44.3841C53.3323 44.3841 54.1648 44.4666 54.9898 44.4816C55.3948 44.4816 55.8073 44.4816 56.2123 44.4816H56.7823H57.0148L57.0598 44.5866C57.0745 44.6421 57.0972 44.6952 57.1273 44.7441C57.2098 44.8566 57.2173 44.9016 57.2773 44.9241C57.2691 44.9201 57.2602 44.918 57.2511 44.918C57.242 44.918 57.233 44.9201 57.2248 44.9241V45.4491C56.5348 45.2766 55.8148 45.1341 55.0948 45.0066C52.9198 44.6316 50.6623 44.4216 48.3898 44.2041C46.1173 43.9866 43.8223 43.8216 41.5423 43.4091C41.2123 43.3416 40.9498 43.2966 40.5523 43.1841C40.1348 43.1278 39.7352 42.9792 39.3823 42.7491C39.2475 42.626 39.1622 42.458 39.1423 42.2766C39.1312 42.1833 39.1496 42.0889 39.1948 42.0066L39.4048 41.8791C39.5469 41.7787 39.7005 41.6956 39.8623 41.6316L40.5598 41.4816C40.7455 41.4413 40.9333 41.4112 41.1223 41.3916L41.6023 41.3391C41.9248 41.3391 42.2473 41.2866 42.5623 41.2941C43.2073 41.2941 43.8373 41.2941 44.4673 41.2941C47.0023 41.4366 49.4623 41.8566 51.9673 41.8566C55.0573 41.9391 58.1398 42.2466 61.1923 42.2616C61.4548 42.2616 61.7173 42.2616 61.9423 42.2616C62.0657 42.2549 62.1885 42.2398 62.3098 42.2166H62.4373L62.5048 42.2916C62.4968 42.287 62.4878 42.2845 62.4786 42.2845C62.4694 42.2845 62.4603 42.287 62.4523 42.2916L62.5723 41.9316H62.6998C62.7115 41.9752 62.7265 42.0178 62.7448 42.0591C62.7448 42.1191 62.7448 42.1341 62.7448 42.1641C62.7145 42.1832 62.6889 42.2088 62.6698 42.2391C62.6698 42.2391 62.6023 42.3441 62.5873 42.3741L62.2498 42.2766L61.4998 42.0966L59.9998 41.7816L57.0598 41.2491L54.0598 40.6041L52.5598 40.2516L51.8098 40.0641L51.4348 39.9591L50.9323 39.8166C50.4868 39.6985 50.0546 39.5352 49.6423 39.3291C49.3416 39.1916 49.0828 38.9768 48.8923 38.7066C48.8464 38.6201 48.8289 38.5214 48.8424 38.4244C48.8558 38.3275 48.8996 38.2372 48.9673 38.1666C49.092 38.0548 49.2372 37.9682 49.3948 37.9116C49.7983 37.76 50.224 37.6764 50.6548 37.6641H51.4048H52.0498H53.1373C54.5923 37.7091 56.0248 37.7991 57.4648 37.8891L59.8048 38.0241C62.7223 38.2116 63.6073 38.3016 64.2223 38.7741C64.3722 38.8618 64.5107 38.9676 64.6348 39.0891C64.9423 39.4491 63.6823 39.7791 61.5223 39.6366C59.3623 39.4941 57.3223 39.3066 55.1998 39.1116C54.1423 39.0141 53.0698 38.9241 52.0123 38.8716H51.6898H51.5773H51.6223L51.8623 38.9391L52.6873 39.1716C53.7973 39.4641 54.9373 39.7341 56.0623 39.9891L59.6923 40.7766L61.4998 41.2491L62.4298 41.4666C62.5873 41.5116 62.7373 41.5491 62.9248 41.6166L63.0898 41.6766H63.1573H63.1948L63.2698 41.7291C63.3086 41.7629 63.3438 41.8006 63.3748 41.8416C63.3748 41.8866 63.4273 41.8416 63.4948 42.1041C63.511 42.1916 63.5087 42.2815 63.488 42.368C63.4673 42.4546 63.4288 42.5358 63.3748 42.6066C63.3322 42.6592 63.2816 42.7047 63.2248 42.7416C63.1084 42.8168 62.9734 42.8584 62.8348 42.8616H62.6773L63.1873 41.9991C63.2584 42.1376 63.2847 42.2949 63.2623 42.4491C63.2346 42.5902 63.1669 42.7203 63.0673 42.8241C63.0172 42.8757 62.9589 42.9188 62.8948 42.9516L62.7523 43.0191C62.6399 43.0565 62.5245 43.0841 62.4073 43.1016C62.231 43.1291 62.0532 43.1466 61.8748 43.1541C61.5373 43.1541 61.2148 43.1541 60.8848 43.1541C60.2398 43.1541 59.6023 43.1166 58.9648 43.0866L55.1623 42.8691V42.8616Z" fill="#231F20"/>
<path d="M72.7495 52.83L74.392 51.8025C74.587 51.675 74.7745 51.525 74.9695 51.405L77.0995 50.1C77.407 49.905 77.707 49.68 77.9995 49.4625C78.3571 49.1562 78.7469 48.8897 79.162 48.6675C79.4395 48.5475 79.612 49.4175 79.162 49.74C78.396 50.3285 77.5862 50.8576 76.7395 51.3225C76.2295 51.6 75.757 51.975 75.2395 52.305L73.6045 53.37L72.667 54C72.157 54.3375 71.647 54.6675 71.167 55.0275C70.792 55.305 70.4545 55.62 70.0945 55.92L69.862 56.1225C69.562 56.3475 69.427 56.37 69.217 56.205C69.172 56.205 69.1195 56.1375 69.082 56.1C69.0445 56.0625 68.9845 55.74 69.1795 55.53C69.7768 54.9067 70.4408 54.3508 71.1595 53.8725C71.692 53.4975 72.2395 53.1225 72.7795 52.785L72.7495 52.83Z" fill="#231F20"/>
<path d="M76.1322 63.0516C76.5597 62.8266 76.9797 62.5716 77.3847 62.3016C77.5347 62.2041 77.6697 62.0766 77.8122 61.9866C78.3447 61.6341 78.8622 61.2366 79.3722 60.8841C79.5949 60.7137 79.8077 60.5309 80.0097 60.3366C80.2571 60.0717 80.5311 59.833 80.8272 59.6241C81.0222 59.5041 81.2472 60.1491 80.9847 60.4791C80.5049 61.0567 79.9441 61.5619 79.3197 61.9791C78.9372 62.2191 78.5697 62.5566 78.2397 62.8341C77.9097 63.1116 77.4072 63.4266 76.9797 63.7041C76.7097 63.8691 76.4472 64.0341 76.1697 64.1916C75.7647 64.4391 75.3222 64.6416 74.8947 64.8516C74.4672 65.0616 74.2572 65.2266 73.9122 65.3691C73.8377 65.4043 73.7598 65.432 73.6797 65.4516C73.3722 65.5116 73.2597 65.4516 73.1472 65.2791L73.0722 65.1516C73.0122 65.0016 73.0722 64.8366 73.2597 64.7016C73.4472 64.5666 73.5147 64.4991 73.6422 64.3941L74.0397 64.1616L74.8572 63.7491C75.2697 63.5166 75.7047 63.3216 76.1172 63.0666L76.1322 63.0516Z" fill="#231F20"/>
<path d="M35.6022 68.5027L28.7472 68.3827H26.2422C23.3022 68.3152 20.3697 68.2402 17.4297 68.1127L13.4997 67.9628C11.8272 67.9453 10.159 67.7897 8.51215 67.4977C7.99465 67.3928 8.10715 67.1978 8.57215 67.0553C9.30545 66.8618 10.0661 66.7934 10.8222 66.8528C14.1747 67.0478 17.5722 67.0778 20.9772 67.2353C23.0172 67.3403 25.1472 67.2953 27.2397 67.3178L34.1472 67.3928L38.3922 67.4453L44.8272 67.5427C46.4846 67.5427 48.1121 67.5427 49.7546 67.5427H50.8346C52.1922 67.6102 52.6122 67.7227 52.8822 68.0227C52.9484 68.0851 53.0064 68.1557 53.0546 68.2328C53.1671 68.4578 52.6047 68.6077 51.6222 68.6077C48.7122 68.6077 45.6222 68.6077 42.5471 68.6077L35.6397 68.5252L35.6022 68.5027Z" fill="#231F20"/>
<path d="M76.612 57.6344L73.4095 59.8094L72.262 60.6194L68.107 63.3644C67.492 63.7619 66.8845 64.1894 66.292 64.6169C65.5393 65.1817 64.7528 65.7001 63.937 66.1694C63.4195 66.4469 63.6145 65.4194 64.4845 64.7669C66.0445 63.6719 67.612 62.5769 69.2545 61.5644C70.237 60.9569 71.1895 60.2294 72.157 59.5544L75.352 57.3044L77.3095 55.9244C78.292 55.2194 79.2895 54.5219 80.242 53.7944C80.992 53.2244 81.6745 52.6244 82.3795 52.0394C82.537 51.9044 82.6795 51.7694 82.8445 51.6494C83.437 51.1769 83.6995 51.1544 83.9395 51.1919C83.9995 51.1919 84.0745 51.1919 84.127 51.1919C84.3145 51.1919 84.127 51.6044 83.782 52.0394C82.5572 53.2517 81.2297 54.3559 79.8145 55.3394C78.7645 56.0894 77.692 56.8394 76.627 57.5894L76.612 57.6344Z" fill="#231F20"/>
<path d="M27.7495 82.0947C30.3145 82.0947 32.8795 82.0047 35.4445 81.9372L38.2495 81.8247C41.5495 81.7347 44.857 81.6822 48.1645 81.6447L52.567 81.5547H53.977H55.387C56.3315 81.5801 57.2734 81.6653 58.207 81.8097C58.7845 81.9447 58.687 82.0872 58.207 82.3122C57.4146 82.6092 56.578 82.7714 55.732 82.7922C53.842 82.8747 51.9445 82.8447 50.0395 82.8822C48.1345 82.9197 46.222 82.8822 44.302 82.8822C41.9995 82.8822 39.607 83.0172 37.2595 83.0997L29.4895 83.2947L24.7045 83.3622C22.2895 83.3622 19.8595 83.3622 17.4595 83.3622C15.592 83.3622 13.7545 83.3622 11.8945 83.2497L10.6645 83.1672C10.1151 83.1246 9.57457 83.0034 9.05954 82.8072C8.79529 82.7267 8.56894 82.5536 8.42204 82.3197C8.35854 82.2366 8.30563 82.1459 8.26454 82.0497C8.19704 81.7647 8.84954 81.6672 9.91454 81.7722C13.1095 82.0122 16.5595 82.1022 20.017 82.1322C22.5895 82.1322 25.1845 82.1322 27.772 82.0497L27.7495 82.0947Z" fill="#231F20"/>
<path d="M47.4679 17.618C47.3779 17.5355 47.4679 17.408 47.6479 17.2655C47.7371 17.2061 47.8409 17.1724 47.9479 17.168C48.0212 17.2018 48.0915 17.242 48.1579 17.288C48.1954 17.288 48.4954 17.8205 48.6154 17.978C48.7229 18.1355 48.8134 18.3039 48.8854 18.4805C49.0504 18.833 49.2229 19.1705 49.4029 19.5155C49.4382 19.5926 49.4658 19.673 49.4854 19.7555C49.5593 20.0424 49.6783 20.3158 49.8379 20.5655C49.8379 20.6105 49.8829 20.663 49.9354 20.6855C50.1396 20.9459 50.3062 21.2337 50.4304 21.5405C50.4979 21.7955 50.5279 22.0805 50.5954 22.343C50.5954 22.3805 50.6329 22.4105 50.5954 22.463C50.5762 22.5027 50.5662 22.5463 50.5662 22.5905C50.5662 22.6346 50.5762 22.6782 50.5954 22.718C50.5954 22.823 50.6704 22.9355 50.7004 23.048C50.7078 23.1128 50.7078 23.1782 50.7004 23.243C50.7004 23.303 50.5879 23.333 50.5654 23.3255C50.5429 23.318 50.4829 23.3255 50.4454 23.3855C50.2261 23.2415 50.018 23.081 49.8229 22.9055L49.5004 22.538C49.3739 22.3926 49.2562 22.2398 49.1479 22.0805C49.1159 22.0306 49.0954 21.9743 49.0879 21.9155L48.6304 21.2255C48.5353 21.0911 48.4807 20.9324 48.4729 20.768C48.4802 20.7384 48.4802 20.7075 48.4729 20.678C48.3481 20.4377 48.2452 20.1867 48.1654 19.928C48.1204 19.793 48.0529 19.673 47.9929 19.538C47.9892 19.5131 47.9892 19.4878 47.9929 19.463C47.9964 19.4306 47.9964 19.3979 47.9929 19.3655C47.8579 19.0655 47.7754 18.7355 47.6254 18.4355C47.6254 18.368 47.5579 17.9855 47.5204 17.9105C47.4829 17.8355 47.5054 17.648 47.4679 17.618Z" fill="#231F20"/>
<path d="M70.0121 23.9462C69.9371 24.0737 69.7646 24.0437 69.5471 23.9087C69.4721 23.8712 69.3446 23.6762 69.3596 23.6237C69.3817 23.5312 69.4118 23.4409 69.4496 23.3537C69.4496 23.3012 70.0346 22.7612 70.1996 22.5662C70.3805 22.3875 70.5762 22.2244 70.7846 22.0787L72.0446 21.1637C72.1376 21.0948 72.2383 21.0369 72.3446 20.9912C72.7095 20.8305 73.0522 20.6239 73.3646 20.3762C73.4247 20.3438 73.4761 20.2975 73.5146 20.2412C73.8602 19.9445 74.2435 19.6948 74.6546 19.4987C74.9921 19.3787 75.3446 19.2962 75.6821 19.1837C75.7346 19.1837 75.7721 19.1387 75.8321 19.1837C75.9457 19.2047 76.0632 19.1834 76.1621 19.1237C76.3011 19.0661 76.4439 19.0185 76.5896 18.9812C76.6692 18.9698 76.75 18.9698 76.8296 18.9812C76.9046 18.9812 76.9196 19.1012 76.9046 19.1162C76.8896 19.1312 76.9046 19.2062 76.9646 19.2437V19.2887C76.9646 19.2887 76.8071 19.4537 76.6496 19.6187C76.4921 19.7837 76.3196 19.9637 76.2821 19.9937L75.7721 20.3912C75.5246 20.6162 75.2471 20.7962 75.1946 20.8487C75.1339 20.892 75.065 20.9226 74.9921 20.9387C74.9921 20.9387 74.1971 21.5612 74.1671 21.5762C74.0033 21.6999 73.8175 21.7915 73.6196 21.8462C73.5789 21.8559 73.5407 21.8737 73.5071 21.8987C73.2195 22.0945 72.9215 22.2748 72.6146 22.4387C72.4571 22.5287 72.3221 22.6412 72.1721 22.7387L72.0821 22.7762C72.0426 22.7891 72.0049 22.8067 71.9696 22.8287C71.6246 23.0762 71.2196 23.2787 70.9271 23.5787C70.8521 23.6387 70.4096 23.8187 70.3271 23.8937C70.2446 23.9687 70.0421 23.8862 70.0121 23.9462Z" fill="#231F20"/>
<path d="M61.9795 18.2688C61.9795 18.3888 61.8295 18.3888 61.582 18.3138C61.4697 18.2707 61.3693 18.2012 61.2895 18.1113C61.2598 18.034 61.2397 17.9534 61.2295 17.8713C61.2295 17.8263 61.432 17.3013 61.492 17.1213C61.5516 16.9481 61.6349 16.7841 61.7395 16.6338L62.317 15.6963C62.3614 15.623 62.4171 15.5572 62.482 15.5013C62.6905 15.3099 62.8609 15.0809 62.9845 14.8263C63.018 14.7893 63.0367 14.7412 63.037 14.6913C63.1537 14.4017 63.3129 14.1312 63.5095 13.8888C63.697 13.7163 63.8995 13.5513 64.0945 13.3938C64.0945 13.3938 64.1395 13.3338 64.192 13.3263C64.2445 13.3188 64.3495 13.2588 64.402 13.1988C64.4738 13.1181 64.5515 13.0429 64.6345 12.9738C64.6917 12.9443 64.7521 12.9217 64.8145 12.9062C64.867 12.9062 64.9645 12.9813 64.9645 13.0038C64.9645 13.0263 65.047 13.0637 65.092 13.0938H65.137C65.1242 13.3459 65.0916 13.5967 65.0395 13.8438L64.8595 14.2863C64.7695 14.5113 64.642 14.7213 64.6345 14.7738C64.627 14.8263 64.5595 14.8488 64.522 14.8863C64.4845 14.9238 64.192 15.5463 64.177 15.5688C64.162 15.5913 64.042 15.8313 63.8845 15.8988C63.847 15.8988 63.8395 15.9363 63.8245 15.9663C63.6904 16.1801 63.54 16.3832 63.3745 16.5738C63.2995 16.6713 63.2395 16.7913 63.172 16.8963L63.112 16.9413L63.052 17.0013C62.8722 17.2411 62.7069 17.4916 62.557 17.7513C62.557 17.8113 62.2495 18.0288 62.2195 18.1038C62.1895 18.1788 61.9795 18.2163 61.9795 18.2688Z" fill="#231F20"/>
</svg>
