<svg width="96" height="96" viewBox="0 0 96 96" fill="none" xmlns="http://www.w3.org/2000/svg">
<path d="M33.503 20.1905L28.553 20.5055C27.953 20.5505 27.353 20.6405 26.753 20.6855C24.6305 20.8355 22.5155 21.008 20.408 21.2555C19.4705 21.3605 18.5405 21.533 17.6255 21.713L15.878 22.103C15.593 22.1705 15.293 22.208 15.0155 22.2755C14.7455 22.3655 14.4005 22.2605 14.1155 22.2755C13.718 22.2455 13.748 22.2755 13.9655 21.968C14.0705 21.8105 14.2355 21.518 14.453 21.263C14.6855 21.023 15.0005 20.858 15.338 20.753C16.553 20.363 17.7905 20.198 19.013 19.988C20.243 19.808 21.4805 19.673 22.7255 19.5905C24.218 19.5005 25.7405 19.223 27.2555 19.0655C28.9205 18.9005 30.5855 18.7505 32.258 18.638L35.3405 18.4355C36.893 18.3305 38.4605 18.263 40.0055 18.1355C41.2055 18.038 42.3755 17.858 43.5605 17.723C43.823 17.693 44.078 17.6555 44.3405 17.633C45.323 17.588 45.638 17.7305 45.863 18.1055C45.9155 18.188 45.983 18.2555 46.013 18.323C46.118 18.5105 45.7355 18.9005 45.0305 19.0655C42.938 19.5005 40.718 19.6655 38.483 19.8455C36.8255 19.973 35.1605 20.093 33.503 20.2205V20.183V20.1905Z" fill="#231F20"/>
<path d="M44.8125 16.2371L47.5425 11.2871L48.1425 13.4921L45.4725 18.3071L44.8125 16.2371Z" fill="#231F20"/>
<path d="M47.1455 9.32178L47.228 8.34678C47.2505 8.03178 47.273 7.63428 47.288 7.58178C47.2955 7.50678 47.2805 7.47678 47.2805 7.42428C47.2805 7.41678 47.2805 7.40178 47.2805 7.40178C47.243 7.37178 47.198 7.37178 47.138 7.35678L47.0405 7.34178C47.0405 7.34178 46.853 7.34928 46.763 7.34928C46.343 7.37928 45.923 7.40928 45.503 7.43928C45.128 7.46928 44.7605 7.53678 44.393 7.60428C44.1605 7.65678 43.913 7.68678 43.673 7.69428C43.4255 7.70928 43.178 7.70178 42.9155 7.55928C42.758 7.48428 42.788 7.35678 42.9005 7.14678C42.983 7.00428 43.0655 6.86178 43.1255 6.74928C43.2155 6.61428 43.328 6.53178 43.4555 6.48678C43.898 6.31428 44.3705 6.26178 44.8505 6.20928C45.3305 6.15678 45.818 6.12678 46.3205 6.12678C46.658 6.20178 47.9555 5.76678 48.4355 6.24678L48.5105 6.48678C48.563 6.71178 48.638 6.97428 48.6305 7.22178V7.58928V7.85928L48.608 8.85678C48.6005 9.26178 48.5855 9.67428 48.578 10.0793C48.578 10.6943 48.5405 11.3093 48.578 11.9168C48.5855 12.3893 48.773 12.8543 48.7805 13.3193C48.7805 13.4243 48.803 13.5218 48.803 13.6268C48.7505 14.0093 48.548 14.1368 48.278 14.2268C48.2105 14.2493 48.158 14.2718 48.098 14.2868C47.933 14.3318 47.7005 14.1743 47.483 13.8968C46.9655 13.0643 47.018 12.1793 47.018 11.2943C47.0255 10.6343 47.078 9.97428 47.1005 9.32178H47.138H47.1455Z" fill="#231F20"/>
<path d="M44.8579 12.9607C44.9704 13.5532 45.0754 14.1457 45.1879 14.7382C45.2329 14.9557 45.3154 15.1657 45.3529 15.3907C45.4804 16.1707 45.5854 16.9657 45.6529 17.7682C45.6829 18.1207 45.7504 18.4732 45.8104 18.8257C45.8929 19.2757 46.0129 19.7332 45.8779 20.1907C45.7954 20.4682 44.4304 20.1307 44.4004 19.6732C44.3254 18.8332 44.2579 17.9932 44.2654 17.0932C44.2729 16.5532 44.0779 16.0282 43.9654 15.4957C43.8454 14.8957 43.7254 14.2957 43.5979 13.7032C43.5229 13.3282 43.4554 12.9532 43.3804 12.5857C43.2829 12.0157 43.1854 11.4382 43.0954 10.8757C43.0129 10.4332 42.8704 10.0057 42.7729 9.56322C42.7504 9.46572 42.7204 9.36822 42.7129 9.27072C42.6754 8.90322 42.7654 8.77572 43.1329 8.69322C43.2154 8.67072 43.2979 8.64822 43.3879 8.64072C43.6729 8.60322 43.9204 8.74572 44.0179 8.98572C44.2879 9.71322 44.4154 10.4632 44.5654 11.2282C44.6704 11.7982 44.7754 12.3832 44.9029 12.9682H44.8729L44.8579 12.9607Z" fill="#231F20"/>
<path d="M53.0254 66.3969C53.0254 66.3969 56.4004 58.8969 57.9829 58.4694C60.9829 57.6519 68.6704 70.3719 69.2854 72.0519C69.3229 72.1569 70.4554 72.1719 69.3904 72.7044L56.8504 73.0869L53.0254 66.3969Z" fill="#231F20"/>
<path d="M60.3301 57.9679C61.7026 58.9429 62.6326 60.0679 63.6076 61.1929C63.9526 61.6054 64.3276 61.9879 64.6501 62.4154C65.7901 63.9154 66.8251 65.4754 67.8451 67.0354C68.2876 67.7329 68.7676 68.4154 69.2326 69.0904C69.8326 69.9529 70.5001 70.7929 70.8001 71.8504C70.8526 72.2029 70.6651 72.2554 70.2451 72.1879C69.8401 72.1054 69.2101 71.9104 68.8426 71.4379C67.6501 69.7054 66.4351 67.9804 65.3476 66.1279C64.6876 65.0329 63.8026 64.0354 62.9776 63.0379C62.0701 61.9429 61.1326 60.8629 60.0976 59.9629C59.7826 59.6854 59.4451 59.4454 59.1151 59.2504C58.9501 59.1529 58.7851 59.0854 58.6276 59.0329C58.4776 58.9954 58.3876 58.9654 58.2676 59.0029C58.2376 59.0104 58.2076 59.0029 58.1851 59.0254C58.1026 59.0629 58.0576 59.1004 57.9676 59.1829C57.8626 59.2729 57.7576 59.3854 57.6526 59.4904C57.4426 59.7154 57.2401 59.9554 57.0376 60.2029C56.6401 60.6979 56.2576 61.2079 55.8976 61.7404C55.3126 62.5954 54.8476 63.5104 54.3376 64.3954C54.2176 64.5904 54.1126 64.7854 53.9926 64.9729C53.5276 65.6779 53.2951 65.8429 52.9051 65.8204C52.8151 65.8204 52.7251 65.8204 52.6426 65.8054C52.3801 65.7454 52.3651 65.3254 52.5901 64.7329C52.7551 64.2904 52.9351 63.8479 53.1301 63.4054C53.3401 62.9779 53.5726 62.5504 53.8126 62.1229C54.2926 61.2754 54.8251 60.4429 55.4026 59.6179C55.6501 59.2729 55.8976 58.9279 56.1901 58.5829C56.3251 58.4104 56.4901 58.2304 56.6551 58.0579C56.7301 57.9679 56.8426 57.8779 57.0076 57.7279C57.1651 57.6079 57.3451 57.5104 57.5176 57.3979C57.6676 57.3679 57.8176 57.3154 57.9676 57.2779C58.1176 57.2329 58.2751 57.2554 58.4251 57.2479C58.5826 57.2329 58.7326 57.2479 58.8751 57.2854C59.0026 57.3079 59.1376 57.3379 59.2426 57.3829C59.6926 57.5329 60.0301 57.7354 60.3526 57.9379L60.3301 57.9754V57.9679Z" fill="#231F20"/>
<path d="M62.2124 24.9824C61.3349 24.8699 60.4574 24.7574 59.5799 24.6749C59.2574 24.6524 58.9424 24.6299 58.6124 24.5999C57.4799 24.4874 56.3474 24.3974 55.2149 24.2999C54.7124 24.2549 54.2024 24.2399 53.6999 24.2249C53.0549 24.1799 52.4099 24.1049 51.7649 24.0374C51.5624 24.0149 51.5924 23.9849 51.7649 23.9324C51.9374 23.8799 52.2524 23.7974 52.6199 23.7299L53.6099 23.5949C53.9399 23.5649 54.2699 23.5799 54.5999 23.5799C55.2599 23.5799 55.9274 23.6099 56.5874 23.6999C57.3824 23.7974 58.2074 23.8049 59.0249 23.8799C59.9174 23.9549 60.8099 24.0524 61.7024 24.1499L63.3449 24.3524C64.1699 24.4574 65.0024 24.5699 65.8274 24.6749C66.4649 24.7499 67.1024 24.7799 67.7324 24.8324L68.1524 24.8699C68.6699 24.9374 68.8274 25.0274 68.9099 25.2449C68.9249 25.2974 68.9549 25.3424 68.9624 25.3874C68.9924 25.5449 68.7599 25.6424 68.3699 25.6424C67.2299 25.6199 66.0449 25.4699 64.8599 25.3199C63.9824 25.2074 63.0899 25.1024 62.2124 24.9899V24.9674V24.9824Z" fill="#231F20"/>
<path d="M25.6127 25.3357C26.7002 25.2007 27.7952 25.0807 28.8902 24.9757C29.2877 24.9307 29.6852 24.8782 30.0827 24.8407C31.4852 24.7132 32.9027 24.6682 34.3052 24.6007C34.9277 24.5632 35.5577 24.5257 36.1727 24.4882C36.9677 24.4657 37.7702 24.4732 38.5727 24.5332C38.8202 24.5482 38.7902 24.5707 38.5802 24.6382C38.3702 24.6982 37.9952 24.8332 37.5377 24.9232L36.3302 25.1182C35.9252 25.1707 35.5202 25.1932 35.1227 25.2232C34.3127 25.2832 33.5027 25.3357 32.6852 25.3732C31.7102 25.4182 30.7052 25.5607 29.7077 25.6657C28.6127 25.7782 27.5252 25.8982 26.4377 26.0407C25.7702 26.1232 25.0952 26.2207 24.4277 26.3182C23.4152 26.4757 22.3952 26.6332 21.4052 26.8357C20.6327 27.0007 19.8827 27.2182 19.1327 27.4132L18.6377 27.5407C18.0077 27.6607 17.7827 27.5932 17.6102 27.4657C17.5727 27.4357 17.5202 27.4057 17.4977 27.3757C17.4077 27.2782 17.6402 27.1057 18.0752 26.8882C18.7277 26.5957 19.4327 26.4232 20.1452 26.2507C20.8577 26.0857 21.5852 25.9357 22.3202 25.8082C23.4077 25.6132 24.5102 25.4482 25.6052 25.2982V25.3207L25.6127 25.3357Z" fill="#231F20"/>
<path d="M46.6348 22.1483L48.5998 18.1808C48.8473 17.7008 49.0498 17.2058 49.2973 16.7258C50.1973 15.0533 51.0673 13.3733 52.1248 11.7908C52.5748 11.0783 53.0248 10.3658 53.4823 9.66829C53.7973 9.23329 54.0673 8.76829 54.4273 8.36329L54.9523 7.74829C55.1473 7.56079 55.3573 7.38829 55.5598 7.20829C55.8148 6.99079 55.7923 7.04329 55.6273 7.27579C55.4548 7.50829 55.1398 7.89829 54.8323 8.43079C54.5248 8.86579 54.2698 9.34579 54.0148 9.81079C53.7448 10.2683 53.5198 10.7633 53.2948 11.2583C52.8373 12.2333 52.4248 13.2383 51.9223 14.1983C51.2923 15.3383 50.8048 16.6058 50.2798 17.8358C49.6948 19.1783 49.1173 20.5283 48.5623 21.8858L47.5273 24.3908C47.0248 25.6583 46.4923 26.9333 46.0873 28.2233C46.0123 28.4633 45.9448 28.7033 45.8848 28.9433L45.7948 29.3033C45.7573 29.4308 45.7123 29.6558 45.6748 29.8283L45.4723 30.3833C45.3823 30.5558 45.1948 30.6533 45.0148 30.7283C44.6473 30.8558 44.2123 30.8633 43.7773 30.8258C43.4998 30.8033 43.2748 30.8033 43.0273 30.7583C42.5773 30.6908 42.2998 30.5933 42.1273 30.4358C41.9548 30.3008 41.8873 30.0983 41.8498 29.8508C41.8348 29.7383 41.8048 29.6333 41.7973 29.5433C41.7673 29.2658 42.2323 28.9433 42.8548 28.9508L43.5373 28.9883L43.8673 29.0033C44.0098 29.0108 44.0173 29.0033 44.0323 28.9883C44.0998 28.9508 44.1148 28.8908 44.0848 28.8383V28.8233C44.0848 28.8233 44.0773 28.8233 44.0698 28.8233C44.0623 28.8458 44.0698 28.8158 44.0773 28.7783L44.1823 28.4108C44.2498 28.1633 44.3248 27.9233 44.4073 27.6833C44.5648 27.2108 44.7223 26.7308 44.9023 26.2583C45.4198 24.8558 45.9823 23.4833 46.5898 22.1183L46.6273 22.1333L46.6348 22.1483Z" fill="#231F20"/>
<path d="M13.3271 79.3419C9.24707 64.1844 9.24707 34.5294 9.24707 29.7069C9.24707 28.4844 11.3546 25.8594 11.3546 25.8594C11.3546 25.8594 12.5321 58.6344 12.5996 59.5494C12.6671 60.4644 13.3196 79.3419 13.3196 79.3419H13.3271Z" fill="#231F20"/>
<path d="M18.6605 88.2516C18.5105 88.5816 20.4755 90.0816 21.218 90.2541C23.4905 90.7866 40.448 89.7816 41.738 89.9166C43.028 90.0516 65.303 88.6791 68.108 87.6891C70.913 86.7066 62.528 88.1841 62.033 87.6891C61.538 87.1941 31.4705 87.9966 31.4705 87.9966L18.6605 88.2516Z" fill="#231F20"/>
<path d="M53.4601 40.0268C52.2076 38.0393 53.8501 35.1143 55.7776 34.7393C59.2351 34.0643 60.6676 36.1043 60.6376 37.2368C60.6076 38.3693 61.2451 40.5743 58.5751 41.3318C56.9851 41.7818 54.3901 41.4893 53.4601 40.0193V40.0268Z" fill="#231F20"/>
<path d="M55.7775 72.9384C52.1025 68.6709 41.4975 50.1459 37.3725 52.6734C30.3225 57.0084 21.21 74.3934 21.21 74.3934L55.7775 72.9384Z" fill="#231F20"/>
<path d="M11.8126 63.1885C11.6101 59.956 11.4376 56.716 11.2801 53.476C11.2201 52.291 11.1226 51.1135 11.0776 49.936C10.9201 45.766 10.8301 41.6035 10.8226 37.426C10.8226 35.5735 10.8151 33.7135 10.8076 31.8685C10.8376 30.6835 10.8601 29.4985 10.9576 28.306L11.0401 27.4135L11.1901 26.521C11.2801 25.9285 11.4376 25.336 11.7376 24.781C12.1051 24.0985 12.0601 24.2185 12.1201 24.871C12.2251 25.531 12.4726 26.671 12.4276 27.991C12.3001 32.7085 12.2626 37.5085 12.2551 42.3385C12.2401 45.2335 12.4576 48.241 12.6001 51.196C12.7576 54.451 12.9376 57.6985 13.1401 60.9535C13.2751 62.956 13.4176 64.9585 13.5526 66.9535C13.7851 69.9835 14.0251 73.021 14.3401 76.021C14.5876 78.3535 14.9326 80.626 15.2776 82.906C15.3526 83.4085 15.4501 83.896 15.4951 84.406C15.6901 86.296 15.7126 86.896 15.4351 87.361C15.3826 87.466 15.3376 87.601 15.2926 87.661C15.1726 87.871 14.7001 87.1585 14.3926 85.7785C13.8601 83.746 13.5901 81.6235 13.2901 79.4785C13.0126 77.3335 12.7726 75.151 12.5626 72.961C12.2551 69.7135 12.0151 66.4435 11.7751 63.181H11.8126V63.1885Z" fill="#231F20"/>
<path d="M65.9699 19.6202L62.4149 19.3952C61.9799 19.3727 61.5449 19.3952 61.1099 19.3727C59.5799 19.2977 58.0424 19.2227 56.5049 19.1927C55.8224 19.1777 55.1399 19.2077 54.4649 19.2377C54.0299 19.2602 53.5949 19.3052 53.1599 19.3052C52.9424 19.3052 52.7249 19.3052 52.5074 19.2902C52.2899 19.2977 52.0649 19.1477 51.8474 19.0502C51.5699 18.8927 51.6074 18.9302 51.8324 18.7352C51.9449 18.6377 52.1024 18.4427 52.2899 18.2552C52.4849 18.0977 52.7099 18.0227 52.9574 17.9852C54.7349 17.8202 56.5124 17.8352 58.3124 17.9552C59.3849 18.0377 60.5024 17.9477 61.6049 17.9552C62.8124 17.9702 64.0274 18.0002 65.2349 18.0827L67.4699 18.2402C68.6024 18.3302 69.7349 18.4652 70.8599 18.6002C71.3024 18.6527 71.7374 18.6977 72.1724 18.7502C72.6149 18.7877 73.0574 18.8702 73.4999 18.9677C73.6949 18.9977 73.8974 19.0502 74.0924 19.1252C74.4674 19.2377 74.6699 19.4252 74.7974 19.5977C74.9249 19.7552 74.9324 19.9277 74.9024 20.1077C74.8874 20.1902 74.8874 20.2652 74.8649 20.3252C74.8049 20.4977 74.3699 20.6252 73.9649 20.5277C72.6224 20.2727 71.0924 20.0702 69.5249 19.9202C68.3624 19.8077 67.1699 19.7177 65.9849 19.6577V19.6202H65.9699Z" fill="#231F20"/>
<path d="M75.3221 59.8718C75.3521 56.6993 75.3596 53.5268 75.3446 50.3468L75.2771 46.8743L75.2096 34.6193C75.1946 32.8043 75.1421 30.9818 75.0896 29.1818C75.0671 28.0268 75.0446 26.8643 75.0446 25.7018C75.0296 25.1243 75.0671 24.5393 75.1271 23.9543L75.2096 23.0843C75.2396 22.7918 75.3671 22.4918 75.4421 22.1993C75.6746 21.4868 75.6596 21.6068 75.8096 22.2368C75.9746 22.8518 76.4021 23.9693 76.4546 25.2818C76.6571 29.9693 76.6496 34.6868 76.6046 39.4493C76.5596 42.2993 76.7021 45.2543 76.7396 48.1643C76.7771 51.3668 76.7996 54.5693 76.7921 57.7718C76.7846 59.7443 76.7771 61.7168 76.7696 63.6893C76.7696 65.1818 76.7396 66.6818 76.7171 68.1743C76.7021 69.6668 76.6646 71.1593 76.6271 72.6443C76.6121 73.7993 76.6121 74.9393 76.5746 76.0868C76.5446 77.2268 76.5671 78.3668 76.4696 79.5218C76.4396 80.0318 76.4096 80.5268 76.3796 81.0368C76.3571 81.2768 76.3421 81.4868 76.3196 81.6893C76.2896 81.8843 76.2446 82.0718 76.2071 82.2368C76.1321 82.5668 76.0571 82.8293 75.9746 83.0393C75.8246 83.4668 75.6146 83.6843 75.3671 83.8343C75.2546 83.9018 75.1496 83.9993 75.0671 84.0368C74.8046 84.1493 74.5346 83.3093 74.6846 82.0043C74.9396 78.0368 75.0446 73.7618 75.1646 69.4793C75.2321 66.2918 75.2996 63.0893 75.2921 59.8868H75.3296L75.3221 59.8718Z" fill="#231F20"/>
<path d="M51.8703 88.8007C48.8703 88.8907 45.8778 88.9507 42.8853 88.9957L39.6078 89.0707C35.7603 89.0857 31.9053 89.0482 28.0578 89.0032C26.3478 88.9882 24.6378 89.0032 22.9428 89.0182C21.8553 89.0182 20.7603 89.0182 19.6728 89.0182C18.5853 89.0182 17.4903 88.9582 16.4103 88.7257C15.7353 88.5907 15.8253 88.5607 16.3953 88.3657C16.6803 88.2757 17.0928 88.0882 17.5878 87.9532C17.8353 87.8857 18.1053 87.7957 18.3903 87.7432C18.6753 87.7057 18.9753 87.6832 19.2903 87.6757C23.7303 87.5407 28.1553 87.6382 32.6328 87.7357C35.3103 87.8032 38.0928 87.6907 40.8228 87.6307C43.8303 87.5782 46.8378 87.5032 49.8453 87.3907C51.6978 87.3307 53.5503 87.2482 55.3953 87.1507C56.7978 87.0832 58.2003 86.9932 59.5953 86.8957C60.9978 86.8057 62.3928 86.6932 63.7728 86.5357C65.9253 86.3332 68.0103 85.9507 70.1178 85.6207C70.5828 85.5532 71.0328 85.4407 71.4978 85.3657C73.2303 85.0957 73.8003 85.1632 74.2428 85.5307C74.3403 85.6132 74.4678 85.6882 74.5353 85.7632C74.7453 86.0182 74.0853 86.4457 72.8178 86.7532C69.0528 87.6457 64.9953 88.0207 60.9453 88.3357C57.9303 88.5532 54.9003 88.7032 51.8778 88.8307V88.7932L51.8703 88.8007Z" fill="#231F20"/>
<path d="M16.7474 46.3731C16.6124 42.7581 16.5224 39.1431 16.5824 35.5056C16.5974 34.1781 16.6199 32.8506 16.7024 31.5231C16.8149 30.3456 16.9124 29.1756 17.1674 27.9831L17.2499 27.5406C17.2874 27.3831 17.3549 27.1506 17.4449 26.9781C17.6249 26.6106 17.8799 26.3181 18.1424 26.0781C18.6824 25.5981 19.2749 25.3281 19.8524 25.1031C21.0224 24.6681 22.1849 24.4356 23.3549 24.2481C24.5174 24.0606 25.6874 23.9406 26.8499 23.8356C28.9124 23.6481 30.9824 23.5281 33.0224 23.4081C35.6474 23.2581 38.2724 23.0256 40.9049 23.3106C41.7224 23.3856 41.6174 23.4831 40.9349 23.7231C40.5374 23.8656 40.0574 24.0306 39.5249 24.2181C38.9399 24.3981 38.2499 24.5406 37.4999 24.6306C34.8374 24.8031 32.1824 24.9756 29.5124 25.1556C26.8649 25.3506 24.1949 25.5006 21.6674 26.0481C20.9249 26.2206 20.1749 26.4456 19.5749 26.7981C19.2674 26.9706 19.0199 27.1806 18.8549 27.3981C18.7724 27.5106 18.7124 27.6156 18.6824 27.7356C18.6599 27.7731 18.6449 27.8856 18.6299 27.9831L18.5849 28.2756L18.3899 29.4531L18.2849 30.6681C18.1949 31.4706 18.1874 32.2956 18.1349 33.1131C17.9849 36.7056 18.0524 40.3281 18.1724 43.9506C18.2474 46.1781 18.3524 48.4056 18.4874 50.6331C18.6899 54.0081 18.9074 57.3981 19.2224 60.7356C19.4474 63.3381 19.8374 65.8656 20.0924 68.4381C20.1524 69.0006 20.2124 69.5556 20.2799 70.1256C20.4674 72.2406 20.4449 72.9231 20.0999 73.4106C20.0324 73.5231 19.9649 73.6656 19.9049 73.7331C19.7099 73.9581 19.3049 73.1256 19.0649 71.5881C18.2474 67.0281 17.7749 62.1831 17.3849 57.3006C17.0999 53.6781 16.8674 50.0331 16.6949 46.3881H16.7324L16.7474 46.3731Z" fill="#231F20"/>
<path d="M71.2045 44.1154C71.2195 46.5079 71.2495 48.9079 71.302 51.3079L71.3995 53.9329C71.4595 57.0154 71.482 60.1054 71.497 63.1954C71.512 64.5679 71.542 65.9404 71.5945 67.3054C71.617 68.1829 71.6395 69.0529 71.6545 69.9304C71.6545 70.3654 71.617 70.8079 71.5945 71.2429C71.572 71.6779 71.527 72.1204 71.4295 72.5554C71.3095 73.0954 71.2645 73.0279 71.077 72.5629C70.852 72.0979 70.5295 71.2579 70.432 70.2604C70.2745 66.7129 70.1095 63.1654 70.087 59.5729C70.087 57.4279 69.9145 55.1929 69.832 52.9954L69.6145 45.7429L69.532 41.2729C69.502 39.0154 69.5095 36.7504 69.5095 34.5004C69.5095 32.7529 69.4195 31.0354 69.5245 29.3029C69.547 28.9204 69.562 28.5454 69.592 28.1554C69.607 27.9754 69.622 27.8104 69.6445 27.6604C69.682 27.5104 69.7195 27.3754 69.7495 27.2554C69.8245 27.0079 69.8845 26.8129 69.9595 26.6554C70.102 26.3404 70.237 26.1679 70.4095 26.0404C70.4845 25.9804 70.5595 25.9054 70.627 25.8754C70.8295 25.7779 70.9795 26.3854 71.047 27.4129C71.0845 28.1704 71.092 28.9429 71.0995 29.7154C71.1145 30.4879 71.1595 31.2829 71.137 32.0629C71.137 33.6529 71.1445 35.2579 71.152 36.8704C71.167 39.2704 71.197 41.6854 71.257 44.1004H71.2195L71.2045 44.1154Z" fill="#231F20"/>
<path d="M43.9198 54.6968C43.4398 54.1643 42.9448 53.6393 42.4123 53.1968C41.8948 52.7393 41.3098 52.3568 40.7473 52.1618C40.1698 51.9593 39.7123 51.9518 39.1273 52.1618C38.5648 52.3793 37.9873 52.7543 37.4473 53.1818C36.6448 53.8118 35.9398 54.5993 35.2273 55.3868C32.7298 58.2068 30.5698 61.4093 28.4173 64.5893C27.4798 66.0218 26.5423 67.4618 25.6123 68.8793C24.4123 70.6943 23.2948 72.6068 21.6748 74.1368C21.1798 74.6168 21.2023 74.5193 21.3898 73.9418C21.4873 73.6568 21.6073 73.2443 21.7498 72.7418C21.9148 72.2618 22.1698 71.7368 22.4773 71.1893C23.6173 69.2918 24.8098 67.4318 25.9948 65.5418C27.2248 63.6818 28.4848 61.8293 29.8273 60.0143C31.4398 57.8468 32.9923 55.4918 34.9423 53.4368C35.4823 52.8818 36.0523 52.3343 36.6973 51.8468C37.3348 51.3593 38.0473 50.9168 38.9023 50.6843C39.3223 50.5568 39.7948 50.5193 40.2523 50.5718C40.7098 50.6243 41.1298 50.7668 41.5123 50.9468C42.2698 51.3143 42.9148 51.8018 43.5073 52.3118C44.9473 53.5943 46.1248 55.0793 47.2348 56.5868C48.9148 58.8743 50.3998 61.2893 51.8923 63.6593C53.0473 65.4968 54.2323 67.2743 55.4323 69.0443C55.7023 69.4268 55.9648 69.8018 56.2348 70.1918C56.7073 70.9268 57.0073 71.3993 57.1723 71.7668C57.3073 72.1493 57.3523 72.4118 57.3673 72.6443C57.3673 72.7568 57.3973 72.8918 57.3823 72.9743C57.3598 73.1243 57.1948 73.1018 56.8648 72.9293C56.5648 72.7493 56.0773 72.4493 55.6723 71.9168C54.3898 70.4093 53.3623 68.7218 52.2748 67.0418C51.2173 65.3543 50.1523 63.6443 49.0798 61.9268C47.4748 59.4143 45.8323 56.8868 43.8973 54.7043L43.9198 54.6743V54.6968Z" fill="#231F20"/>
<path d="M58.0498 42.0597C56.4898 42.4347 54.8623 42.1647 53.4973 41.3322C53.2648 41.1522 53.0248 40.9872 52.7923 40.7997C52.5898 40.5822 52.3723 40.3722 52.1998 40.1322L51.8173 39.4422C51.7273 39.1947 51.6598 38.9472 51.5848 38.6997C51.4573 38.1972 51.4498 37.6797 51.4948 37.1772C51.6223 36.1647 52.0873 35.2572 52.7248 34.5447C53.2873 33.9072 53.9623 33.3747 54.7198 33.0147C55.6723 32.5347 56.9248 32.4072 57.8473 33.0147C58.1323 33.1797 58.0648 33.1947 57.7798 33.2622C57.6373 33.3072 57.4423 33.3297 57.2248 33.4497C57.0073 33.5622 56.7898 33.6597 56.5573 33.7122C56.3548 33.7422 56.1523 33.8547 55.9648 33.9147L55.6873 34.0647C55.5898 34.0947 55.4923 34.1322 55.4023 34.1772C55.0198 34.3422 54.6748 34.5822 54.3448 34.8447C53.7073 35.3847 53.2048 36.0822 52.9123 36.8697C52.7473 37.3422 52.7473 37.8747 52.8748 38.3697C52.9723 38.6097 53.0173 38.8647 53.1748 39.0672C53.2423 39.1722 53.2948 39.2922 53.3698 39.3897L53.6248 39.6747C54.0148 40.0722 54.5173 40.4097 55.0948 40.5897C55.3723 40.7097 55.6798 40.7397 55.9723 40.8072C56.2723 40.8072 56.5873 40.8747 56.8873 40.8297C57.6373 40.7847 58.4023 40.5822 58.9948 40.1397C59.8948 39.4947 60.3748 38.3247 60.1798 37.1997C60.0373 36.3072 59.5798 35.4747 59.0248 34.8372L58.6573 34.4322C58.4248 34.1997 58.2823 34.0497 58.1923 33.9147C58.1173 33.7497 58.0798 33.6222 58.0573 33.4422C58.0498 33.3597 58.0273 33.2772 58.0198 33.2022C58.0198 33.0822 58.1023 33.0072 58.3048 32.9697C58.4998 32.9247 58.8223 32.9397 59.1298 33.1197C60.1048 33.6072 60.7498 34.4997 61.1473 35.4522C61.3498 35.9322 61.4998 36.4347 61.5823 36.9822C61.6723 37.5147 61.6573 38.1297 61.5223 38.6922C61.4773 39.1197 61.2448 39.5247 61.0723 39.9222C60.8173 40.2822 60.5848 40.6722 60.2398 40.9422C59.9323 41.2572 59.5573 41.4597 59.1973 41.6847C58.8148 41.8422 58.4398 42.0372 58.0423 42.1122V42.0822L58.0498 42.0597Z" fill="#231F20"/>
<path d="M43.0046 27.3678L42.5921 28.4928L42.3971 29.0628L42.2996 29.3478L42.2546 29.4753C42.2546 29.4753 42.2621 29.4903 42.2321 29.4978C42.2546 29.5878 42.1421 29.5878 42.7871 29.7603C43.2821 29.8803 43.8296 29.9553 44.3771 30.0153L45.2096 30.0978L45.3971 30.1128H45.4421C45.4421 30.1128 45.5096 30.1353 45.5246 30.1278L45.5546 30.0453L45.6296 29.7678C45.7046 29.4903 45.7721 29.2128 45.8546 28.9428C46.1696 27.8553 46.4921 26.7753 46.8596 25.7103C48.1646 21.9678 49.6346 18.2928 51.2771 14.6928C51.9971 13.0953 52.7321 11.4903 53.5271 9.9303C53.7521 9.4653 54.0071 9.0078 54.2471 8.5428L54.8921 7.3953L54.9896 7.2453C54.9896 7.1928 54.8996 7.1703 54.8546 7.1478L54.4196 6.9678L53.6021 6.6453L53.3921 6.5703C53.3321 6.5253 53.2571 6.5028 53.1971 6.4653C53.0621 6.3978 52.9271 6.3378 52.7921 6.2778C52.1771 6.0153 52.2296 5.9928 52.8671 5.8728C53.1821 5.8353 53.6546 5.7228 54.1871 5.7753C54.4646 5.7978 54.7196 5.8203 55.0721 5.8953C55.5746 6.0228 56.3696 6.2253 56.5346 6.6528C56.5721 6.7203 56.5946 6.7878 56.6171 6.8703C56.6471 6.9528 56.5946 7.0353 56.5871 7.1178L56.4821 7.6128L56.0696 8.3103L55.8746 8.6478C55.7471 8.8728 55.6121 9.0978 55.4921 9.3303C55.2446 9.7953 54.9896 10.2603 54.7496 10.7403C54.2546 11.6853 53.8121 12.6603 53.3096 13.6128C52.3271 15.5253 51.3746 17.4753 50.4521 19.4403C49.3046 21.9228 48.2846 24.5853 47.4521 27.2403C47.2196 27.9303 47.0321 28.6353 46.8146 29.3328L46.5146 30.4878L46.4021 30.9228L46.3496 31.1403C46.3496 31.1403 46.3346 31.2153 46.3196 31.2453H46.2071L45.3146 31.1553C44.5796 31.0878 43.8371 31.0278 43.0796 30.9003C42.7046 30.8328 42.3221 30.7578 41.9246 30.6078C41.7971 30.5553 41.6546 30.5028 41.5496 30.4203L41.3771 30.3003L41.2421 30.1503C41.0696 29.9403 41.0396 29.6403 41.1296 29.3778C41.1371 29.2803 41.1971 29.1528 41.2121 29.0853L41.2796 28.8828C41.8571 27.0603 42.5171 25.2678 43.2071 23.4903C44.2646 20.8053 45.4346 18.1503 46.6121 15.5403C47.5196 13.5078 48.3596 11.4978 49.2296 9.4878C49.4171 9.0453 49.6046 8.6103 49.7996 8.1603C50.1671 7.3353 50.4296 6.8028 50.6696 6.4578C50.9246 6.1128 51.1271 5.9478 51.3596 5.8353C51.4646 5.7903 51.5846 5.7153 51.6671 5.6928C51.8171 5.6628 51.8546 5.8353 51.8171 6.1803C51.7796 6.5253 51.6671 7.0428 51.4196 7.6503C49.9871 11.3178 48.2396 15.0603 46.5746 18.8478C45.3071 21.6453 44.0771 24.4653 43.0346 27.3453H43.0046V27.3678Z" fill="#231F20"/>
<path d="M62.0249 24.6973C61.0049 24.5848 59.9774 24.4798 58.9499 24.4198C58.5749 24.3973 58.1999 24.4123 57.8249 24.3898C56.5049 24.3298 55.1774 24.1573 53.8424 24.1273C53.2499 24.1048 52.6574 24.1273 52.0724 24.1348C51.3224 24.1498 50.5649 24.1573 49.8074 24.1348C49.5749 24.1198 49.5974 24.0598 49.7849 23.9623C49.9724 23.8648 50.3324 23.6923 50.7599 23.5948C52.2824 23.2423 53.8349 23.1148 55.3949 23.1373C55.8599 23.1523 56.3399 23.1298 56.8199 23.1073C57.2999 23.1073 57.7799 23.0923 58.2599 23.0998C59.3099 23.1298 60.3599 23.1823 61.4099 23.2573L63.3449 23.4148C64.3199 23.4898 65.2949 23.6623 66.2624 23.7598C67.0124 23.8573 67.7624 23.8423 68.5049 23.9848C68.6699 24.0148 68.8274 24.0223 68.9924 24.0673C69.5999 24.2173 69.7724 24.3373 69.8474 24.6148C69.8624 24.6748 69.8924 24.7423 69.8924 24.8023C69.9074 24.9973 69.6299 25.1173 69.1799 25.1323C67.8374 25.2148 66.4799 25.1023 65.0924 25.0198C64.0649 24.9823 63.0449 24.8548 62.0099 24.7573V24.7198L62.0249 24.6973Z" fill="#231F20"/>
<path d="M74.5649 13.3868C74.6624 13.4918 74.5874 13.6568 74.4749 13.8443C74.4374 13.9043 74.2874 13.9868 74.2349 13.9643C74.1449 13.9268 74.0474 13.8818 73.9574 13.8368C73.9049 13.8143 73.2524 13.2218 73.0649 12.9893C72.8549 12.7793 72.7124 12.5543 72.5699 12.3218C72.3449 11.8268 72.1124 11.3393 71.9099 10.8518C71.8649 10.7468 71.8349 10.6268 71.8274 10.5068C71.8049 10.0943 71.6624 9.7268 71.4974 9.3743C71.4674 9.3143 71.4599 9.2468 71.3774 9.2093C71.2424 9.1418 70.8749 8.1743 70.8749 8.0393C70.8899 7.6868 70.8149 7.3718 70.8299 7.0118C70.8299 6.9593 70.7924 6.9218 70.8524 6.8543C70.9874 6.6893 70.9199 6.6068 70.8974 6.5093C70.8674 6.3668 70.8674 6.2168 70.8749 6.0518C70.8974 5.9618 70.9649 5.8418 71.0024 5.7443C71.0324 5.6543 71.1824 5.6018 71.2199 5.6093C71.3024 5.6393 71.3549 5.5493 71.4149 5.5043C71.4374 5.4893 71.4599 5.4743 71.4824 5.4668C71.4974 5.4668 71.5649 5.4893 71.6774 5.5193C71.8049 5.5493 71.9249 5.6168 72.0599 5.6843C72.3374 5.8118 72.5399 5.9993 72.5774 6.0443C72.5774 6.0593 72.8099 6.3293 72.9674 6.6443C73.1324 6.9593 73.2974 7.2818 73.3349 7.3493C73.3799 7.4168 73.3574 7.5068 73.3574 7.5893C73.3574 7.6268 73.8224 8.5493 73.8224 8.5868C73.8674 8.7968 73.9799 8.9693 73.8749 9.2243C73.8524 9.2768 73.8749 9.3143 73.8899 9.3518C74.0024 9.6893 74.0324 10.0493 74.0849 10.3943C74.1074 10.5743 74.1824 10.7393 74.2274 10.9043C74.2349 10.9343 74.2274 10.9718 74.2274 11.0093C74.2274 11.0543 74.2199 11.0993 74.2274 11.1368C74.3699 11.5268 74.3849 11.9618 74.5349 12.3368C74.5574 12.4268 74.5649 12.9143 74.5949 13.0193C74.6099 13.0793 74.5124 13.3493 74.5574 13.3868H74.5649Z" fill="#231F20"/>
<path d="M80.1378 17.0701C80.0628 17.1826 79.8978 17.1376 79.7028 17.0251C79.6428 16.9876 79.5303 16.8301 79.5453 16.7776C79.5678 16.6876 79.5978 16.5976 79.6278 16.5151C79.6503 16.4701 80.1303 15.8926 80.2803 15.6751C80.4303 15.4651 80.5953 15.2851 80.7903 15.1426C81.1803 14.8426 81.5628 14.5351 81.9528 14.2426C82.0428 14.1751 82.1403 14.1301 82.2453 14.0926C82.6128 13.9801 82.9128 13.7701 83.2203 13.5526C83.2728 13.5151 83.3328 13.4926 83.3553 13.4101C83.3928 13.2676 84.2628 12.7576 84.4053 12.7426C84.7428 12.6826 85.0803 12.6451 85.4178 12.6001C85.4628 12.6001 85.5003 12.5551 85.5753 12.6001C85.7403 12.7126 85.8153 12.6451 85.9203 12.6301C86.0628 12.6076 86.2053 12.5926 86.3628 12.5926C86.4378 12.5926 86.5353 12.6451 86.6253 12.6826C86.7078 12.7126 86.7528 12.9001 86.7453 12.9301C86.7153 13.0126 86.7978 13.0801 86.8428 13.1551C86.8578 13.1776 86.8728 13.2151 86.8803 13.2376C86.8803 13.2601 86.7603 13.4551 86.6403 13.6726C86.5203 13.8976 86.3928 14.1151 86.3478 14.1226C86.3403 14.1226 86.1078 14.3026 85.8678 14.4826C85.6353 14.6776 85.3578 14.8201 85.3203 14.8726C85.2678 14.9176 85.1928 14.9101 85.1178 14.9176C85.0803 14.9176 84.3528 15.4426 84.3228 15.4576C84.1503 15.5251 84.0153 15.6676 83.7753 15.6151C83.7303 15.6076 83.7003 15.6301 83.6628 15.6451C83.3853 15.8026 83.0703 15.8926 82.7703 16.0126C82.6128 16.0726 82.4778 16.1626 82.3353 16.2376C82.3128 16.2526 82.2753 16.2451 82.2453 16.2526C82.2078 16.2601 82.1628 16.2601 82.1328 16.2826C81.8028 16.4776 81.4278 16.6201 81.0978 16.8226C81.0228 16.8676 80.5728 16.9576 80.4903 17.0251C80.4453 17.0551 80.1903 17.0251 80.1603 17.0701H80.1378Z" fill="#231F20"/>
<path d="M51.5102 74.3627L43.7477 74.7452C42.8027 74.7977 41.8577 74.8952 40.9202 74.9402C37.5902 75.0902 34.2527 75.2177 30.9077 75.2927C29.4227 75.3377 27.9302 75.3827 26.4602 75.4277L25.0352 75.4577C24.5552 75.4427 24.0827 75.4352 23.6027 75.4052C22.6502 75.3527 21.6677 75.2177 20.7527 74.7902C20.1827 74.5052 20.3177 74.4677 20.8427 74.3777C21.0977 74.3477 21.4802 74.1977 21.8927 74.1077C22.1102 74.0477 22.3427 73.9727 22.5752 73.9427C22.8077 73.9202 23.0702 73.8902 23.3327 73.8827C25.2077 73.8002 27.1127 73.8227 29.0252 73.7552C30.9377 73.7027 32.8652 73.6577 34.8002 73.6502C37.1177 73.6352 39.5252 73.3952 41.8877 73.2527L49.7102 72.8027L54.5252 72.5402C56.9627 72.4277 59.4077 72.3077 61.8227 72.1952C63.7052 72.1052 65.5502 71.9327 67.4327 71.8952C67.8452 71.8952 68.2502 71.8577 68.6777 71.8802C69.4577 71.9252 69.9752 72.0227 70.3277 72.1502C70.6802 72.3077 70.8677 72.4877 71.0027 72.7052C71.0627 72.8027 71.1452 72.9077 71.1677 72.9977C71.2427 73.2827 70.6127 73.4627 69.5327 73.5302C66.2327 73.6802 62.7977 73.8377 59.3402 73.9952C56.7452 74.1302 54.1352 74.2652 51.5252 74.4077V74.3627H51.5102Z" fill="#231F20"/>
</svg>
