<svg width="65" height="64" viewBox="0 0 65 64" fill="none" xmlns="http://www.w3.org/2000/svg">
<path d="M18.3333 58.6667C16.3333 58.6667 14.6111 57.9889 13.1667 56.6333C11.7222 55.2778 11 53.6 11 51.6V14.4C11 12.7111 11.5222 11.2 12.5667 9.86666C13.6111 8.53333 14.9778 7.68888 16.6667 7.33333L36.6667 3.4C38.3111 3.04444 39.7778 3.4 41.0667 4.46666C42.3556 5.53333 43 6.91111 43 8.6V40.4C43 41.6889 42.6 42.8333 41.8 43.8333C41 44.8333 39.9778 45.4444 38.7333 45.6667L17.7333 49.8667C17.3333 49.9555 17 50.1667 16.7333 50.5C16.4667 50.8333 16.3333 51.2 16.3333 51.6C16.3333 52.0889 16.5333 52.5 16.9333 52.8333C17.3333 53.1667 17.8 53.3333 18.3333 53.3333H48.3333V13.3333C48.3333 12.5778 48.5889 11.9444 49.1 11.4333C49.6111 10.9222 50.2444 10.6667 51 10.6667C51.7556 10.6667 52.3889 10.9222 52.9 11.4333C53.4111 11.9444 53.6667 12.5778 53.6667 13.3333V53.3333C53.6667 54.8 53.1444 56.0555 52.1 57.1C51.0556 58.1444 49.8 58.6667 48.3333 58.6667H18.3333ZM22.2 43.6C22.8222 43.4667 23.3333 43.1555 23.7333 42.6667C24.1333 42.1778 24.3333 41.6222 24.3333 41V14.5333C24.3333 13.6889 24.0111 13 23.3667 12.4667C22.7222 11.9333 21.9778 11.7556 21.1333 11.9333C20.5111 12.0667 20 12.3778 19.6 12.8667C19.2 13.3556 19 13.9111 19 14.5333V41C19 41.8444 19.3222 42.5333 19.9667 43.0667C20.6111 43.6 21.3556 43.7778 22.2 43.6Z" fill="black"/>
</svg>
