<svg width="40" height="40" viewBox="0 0 40 40" fill="none" xmlns="http://www.w3.org/2000/svg">
<path d="M32.0409 19.3727C32.1659 19.9258 32.1503 20.4852 32.0472 20.9945C31.9472 21.507 31.7722 21.982 31.5659 22.4289C31.4191 22.757 31.2659 23.0758 31.0816 23.3758C30.4128 24.4195 29.5878 25.3133 28.7128 26.1352C28.3222 26.4977 27.9378 26.8664 27.5253 27.2008C27.2659 27.4195 26.9972 27.632 26.7128 27.8258C26.5691 27.9195 26.4128 27.9977 26.2566 28.0695C26.1784 28.107 26.0972 28.1383 26.0159 28.1727C25.9347 28.2039 25.8378 28.207 25.7503 28.2195C25.5222 28.2383 25.5503 28.2195 25.6503 28.032C25.7034 27.9445 25.7472 27.7727 25.8378 27.6477C25.9222 27.5102 26.0284 27.3633 26.1597 27.232C27.1628 26.4102 28.1316 25.5195 29.0566 24.5664C29.6097 23.9945 30.0441 23.282 30.4128 22.5789C30.8128 21.8102 31.1097 20.9758 31.0784 20.1633C31.0691 19.6727 30.8972 19.1727 30.6097 18.807C30.1784 18.2602 29.3472 18.0727 28.5753 18.2039C27.9722 18.307 27.4128 18.5852 26.9128 18.907C26.7972 18.9727 26.7066 19.0664 26.5909 19.1289C26.1816 19.3914 26.0097 19.4227 25.7566 19.3258C25.7003 19.3039 25.6378 19.2914 25.5909 19.2633C25.5097 19.2195 25.4847 19.1383 25.5066 19.007C25.5316 18.882 25.5878 18.6914 25.7378 18.532C26.1472 18.0039 26.7378 17.6352 27.3753 17.357C28.0191 17.0852 28.7566 16.9758 29.5284 17.0664C30.0972 17.1352 30.7097 17.3602 31.1878 17.8039L31.3628 17.9695L31.5097 18.1602L31.6503 18.3539L31.7534 18.5477C31.8253 18.6727 31.8847 18.807 31.9347 18.9445C31.9909 19.0789 32.0316 19.2195 32.0628 19.357L32.0378 19.3664L32.0409 19.3727Z" fill="#231F20"/>
<path d="M30.4437 21.0951C30.5812 22.0045 30.2999 22.7733 29.9749 23.4483C29.8468 23.692 29.7343 23.942 29.5812 24.167C29.0468 24.9608 28.3687 25.6076 27.678 26.2045C27.3655 26.467 27.0655 26.7389 26.7468 26.9858C26.5405 27.1389 26.3374 27.2983 26.1218 27.4389C26.0124 27.5076 25.9124 27.5858 25.7905 27.6389C25.6718 27.6889 25.5499 27.7389 25.428 27.7889C25.2749 27.8451 25.2655 27.792 25.3249 27.642C25.353 27.567 25.3968 27.4608 25.453 27.342C25.4812 27.2826 25.5093 27.217 25.5499 27.1576C25.5905 27.1045 25.6374 27.0483 25.6905 27.0014C26.4249 26.2889 27.203 25.6701 27.9249 24.967C28.3593 24.5483 28.6999 24.0201 28.9874 23.4951C29.3062 22.9233 29.5468 22.2951 29.5562 21.6858C29.5655 21.317 29.4687 20.942 29.2499 20.7483C29.1687 20.6733 29.0749 20.6233 28.9718 20.6014C28.8405 20.5764 28.6937 20.5639 28.5499 20.5639C28.2593 20.5639 27.9593 20.6201 27.678 20.7233C27.2343 20.8826 26.8687 21.1826 26.5124 21.4733C26.4312 21.5358 26.3655 21.6108 26.2843 21.6764C25.9687 21.8983 25.8374 21.9514 25.653 21.9045C25.6124 21.8951 25.5687 21.892 25.5374 21.8795C25.4374 21.8483 25.4405 21.6295 25.5999 21.3326C26.0749 20.4576 27.0218 19.7983 28.1593 19.6108C28.3718 19.5764 28.5937 19.5608 28.8187 19.5764C28.9374 19.5889 29.0343 19.6014 29.1718 19.6295C29.3218 19.6639 29.4687 19.7201 29.5999 19.792C29.8687 19.942 30.0749 20.1639 30.2093 20.392C30.3437 20.6233 30.4218 20.8608 30.4687 21.0889L30.4468 21.0951H30.4437Z" fill="#231F20"/>
<path d="M20.9158 37.1211C20.9158 37.1211 25.9158 37.4867 25.1064 38.4086C24.1971 39.443 17.4814 39.0398 17.4814 39.0398L20.9189 37.1211H20.9158Z" fill="#231F20"/>
<path d="M25.5659 16.1044C20.8909 16.82 14.9597 16.5512 14.4941 15.07C14.0972 13.8137 19.6784 13.5044 20.8409 13.5075C20.8409 13.5075 14.9847 12.9387 11.8722 13.7637C8.83157 14.57 8.52219 15.8106 9.69094 16.7419C10.8597 17.6762 14.6878 17.9325 17.1128 17.845C19.5378 17.7575 23.4191 16.9262 23.8816 16.8075C24.3441 16.6887 25.5659 16.1012 25.5659 16.1012V16.1044Z" fill="#231F20"/>
<path d="M23.0753 35.8744C22.6566 36.4307 22.2191 36.9838 21.6597 37.4338L21.4597 37.6088L21.2409 37.765C21.0941 37.865 20.9503 37.9744 20.7972 38.0682C20.4753 38.2338 20.1722 38.4275 19.8253 38.5369C19.4941 38.6838 19.1378 38.7494 18.7878 38.8338C18.6128 38.8713 18.4316 38.8744 18.2534 38.8963C18.0753 38.9119 17.8941 38.9338 17.7222 38.9275C17.0284 38.9338 16.3253 38.8557 15.6441 38.6744C14.6534 38.3994 13.7034 37.9275 12.9378 37.2463C11.5722 36.0525 10.7159 34.4619 10.1034 32.8588C9.79406 32.0525 9.54719 31.2307 9.34719 30.3994C9.13781 29.5713 8.97844 28.7338 8.84406 27.8963C8.60656 26.4088 8.42531 24.9057 8.29094 23.4213C8.20344 22.4682 8.13469 21.5088 8.10031 20.5525C8.08156 20.0744 8.06594 19.5932 8.08781 19.115C8.10031 18.8744 8.11281 18.6369 8.13156 18.3963C8.13469 18.2775 8.16594 18.1588 8.18469 18.0369C8.21281 17.9182 8.21281 17.7994 8.25656 17.6807C8.34094 17.3838 8.39719 17.2557 8.43469 17.265C8.47531 17.2744 8.51594 17.4213 8.63469 17.6713C8.74406 17.9213 8.92219 18.2775 9.02844 18.7057C9.08781 18.9182 9.15656 19.1494 9.19406 19.3963C9.22844 19.6432 9.24719 19.9025 9.25969 20.1744C9.33469 22.0963 9.42219 24.015 9.61594 25.9213C9.82844 27.8244 10.1253 29.7213 10.6534 31.5588C10.9753 32.6525 11.4159 33.7369 12.0316 34.7088C12.6441 35.6775 13.4284 36.5432 14.3847 37.1182C15.4253 37.7682 16.6722 38.0463 17.9253 38.0057C18.5347 37.9682 19.1409 37.8588 19.7034 37.6119C19.8472 37.5619 19.9753 37.4713 20.1128 37.4057C20.2503 37.3338 20.3847 37.2619 20.5066 37.165L20.8816 36.8932L21.2284 36.5775C21.7816 36.0463 22.2534 35.4182 22.6566 34.7432C23.0472 34.0588 23.3816 33.34 23.6628 32.5963C24.5097 30.3369 24.9441 27.9057 25.1816 25.5057C25.3534 23.6338 25.3441 21.7838 25.2816 19.9338C25.2659 19.5244 25.2347 19.1275 25.2128 18.7182C25.1909 18.34 25.1722 18.0244 25.1597 17.7588C25.1503 17.4963 25.1659 17.2775 25.1691 17.1025C25.1878 16.7463 25.2378 16.5338 25.3159 16.3557C25.3503 16.2744 25.3784 16.1682 25.4128 16.1182C25.5066 15.9494 25.8066 16.5432 26.0378 17.6775C26.5628 21.0432 26.5597 24.665 25.9316 28.2369C25.6941 29.5619 25.3722 30.8807 24.9253 32.1713C24.4753 33.4588 23.9034 34.7275 23.1097 35.8869L23.0878 35.8775L23.0753 35.8744Z" fill="#231F20"/>
<path d="M12.8592 18.3498C12.1186 18.2155 11.3811 18.0405 10.6529 17.7936C10.2873 17.6686 9.9248 17.5311 9.5623 17.3467C9.46543 17.2967 9.39043 17.253 9.26855 17.1998C9.1373 17.1061 8.9873 17.0248 8.8748 16.9155C8.81855 16.8623 8.75918 16.8092 8.70605 16.753L8.57793 16.5686C8.51855 16.4342 8.48418 16.2873 8.47168 16.1405C8.4873 16.0436 8.4998 15.9467 8.53105 15.8561C8.55918 15.7623 8.58105 15.6717 8.64043 15.5873C8.73105 15.4061 8.88105 15.2686 9.0123 15.1186C9.58418 14.6155 10.1592 14.3155 10.7623 14.0592C12.8873 13.2155 15.1154 12.9186 17.3279 12.903C18.3092 12.8967 19.2967 12.9373 20.2686 13.0498C20.8904 13.1342 21.5092 13.2467 22.1186 13.3998C22.4217 13.4905 22.7154 13.5998 23.0061 13.7248L23.4373 13.9123C23.5779 13.9811 23.7092 14.0748 23.8467 14.153C24.1779 14.3686 24.1311 14.3405 23.7873 14.3373C23.6154 14.3342 23.3654 14.3592 23.0811 14.3623C22.9373 14.3623 22.7842 14.3623 22.6217 14.3592C22.4592 14.3592 22.2904 14.3592 22.1186 14.3405C21.5186 14.2498 20.9217 14.1498 20.3186 14.1092C19.7186 14.0467 19.1154 13.9842 18.5092 13.9655C17.2967 13.9155 16.0748 13.9561 14.8529 14.0905C13.3967 14.2498 11.8873 14.6905 10.5967 15.3467C10.3436 15.4748 10.1061 15.6248 9.89668 15.7811L9.75605 15.8967L9.69355 15.9592C9.65918 16.003 9.62168 16.0498 9.6123 16.1061C9.60605 16.2123 9.7123 16.278 9.79355 16.3342C9.9748 16.4498 10.2248 16.5561 10.4561 16.653C10.9342 16.8405 11.4467 16.9873 11.9623 17.1092C12.9592 17.3405 13.9811 17.4842 15.0092 17.5561C16.5686 17.6592 18.1498 17.6373 19.6936 17.4311C20.8936 17.2748 22.0467 16.978 23.1873 16.6373C23.4373 16.5592 23.6811 16.4811 23.9342 16.3998C24.8748 16.1311 25.2029 16.1436 25.4936 16.3436C25.5592 16.3905 25.6404 16.4311 25.6873 16.4811C25.8436 16.6498 25.5186 16.9561 24.8373 17.2811C22.7904 18.1373 20.4529 18.5592 18.1061 18.6842C16.3592 18.7717 14.5967 18.678 12.8529 18.3873V18.3592L12.8592 18.3498Z" fill="#231F20"/>
<path d="M14.8592 5.88678C14.4936 6.4774 14.1092 6.9774 13.8311 7.49303C13.7311 7.68053 13.6717 7.88053 13.5967 8.0649C13.3279 8.71178 13.2498 9.48678 13.4717 10.2024C13.5623 10.5243 13.7592 10.8055 13.9404 11.0837C14.0623 11.2618 14.2123 11.418 14.3467 11.5962C14.4842 11.7712 14.6279 11.9493 14.7842 12.1243C14.8779 12.2368 14.8248 12.2899 14.6592 12.3055C14.4998 12.318 14.1967 12.3243 13.9217 12.1868C13.6748 12.0712 13.4654 11.8962 13.2623 11.7118C13.1686 11.6149 13.0623 11.518 12.9811 11.4087C12.9029 11.293 12.8279 11.1774 12.7654 11.0524C12.4967 10.5618 12.3498 9.99928 12.3467 9.44303C12.3467 9.11178 12.3467 8.7774 12.3811 8.44615C12.4123 8.11178 12.4779 7.77428 12.5904 7.4649C12.8404 6.78678 13.2154 6.22115 13.5342 5.67115C13.7311 5.33365 13.9217 5.0024 14.0529 4.6649C14.2686 4.16803 14.3811 3.61803 14.2998 3.08053C14.2311 2.66178 14.0561 2.27428 13.8561 1.89928C13.8154 1.8149 13.7592 1.7399 13.7279 1.64928C13.6654 1.48365 13.6279 1.36803 13.6404 1.2649C13.6592 1.15553 13.7061 1.07115 13.7748 0.983654C13.8061 0.943029 13.8311 0.899279 13.8623 0.868029C13.9154 0.814904 13.9842 0.805529 14.0873 0.827404C14.1873 0.849279 14.3342 0.896154 14.4373 1.00865C14.7873 1.3149 15.0498 1.71803 15.2592 2.17428C15.4779 2.63053 15.5623 3.17115 15.5529 3.70865C15.5467 4.10865 15.4748 4.50865 15.3561 4.88678C15.2436 5.27428 15.0529 5.58678 14.8873 5.89615L14.8592 5.88365V5.88678Z" fill="#231F20"/>
<path d="M19.7152 6.36994C19.5089 6.73244 19.3277 7.08556 19.2464 7.43869C19.2089 7.56681 19.2246 7.69494 19.2089 7.81994C19.1808 8.27619 19.2808 8.77619 19.5152 9.22931C19.6246 9.42619 19.7621 9.61369 19.9089 9.78556C20.1152 9.99181 20.3152 10.2074 20.5121 10.4543C20.5714 10.5324 20.5214 10.5949 20.3933 10.6356C20.2683 10.6731 20.0433 10.7106 19.8527 10.6293C19.6808 10.5637 19.5339 10.4574 19.3964 10.3418C19.2558 10.2293 19.1246 10.1012 19.0058 9.96681C18.7933 9.67306 18.6308 9.33244 18.5402 8.96994C18.4339 8.54181 18.3152 8.09806 18.3558 7.62931C18.4027 7.11994 18.5933 6.67619 18.7808 6.26994L19.1433 5.54494C19.3214 5.18556 19.4902 4.83244 19.5777 4.46994C19.6558 4.18869 19.5996 3.91056 19.5902 3.65431C19.5839 3.59806 19.5714 3.54181 19.5714 3.48244C19.5777 3.36994 19.5589 3.29806 19.5902 3.23556C19.6246 3.16994 19.6652 3.11994 19.7183 3.06994C19.7433 3.04806 19.7652 3.01994 19.7871 3.00431C19.8246 2.97619 19.8683 2.97931 19.9339 3.00431C19.9964 3.03244 20.0902 3.08556 20.1496 3.17931C20.2496 3.31369 20.3214 3.46994 20.3996 3.63556C20.4589 3.80119 20.4808 3.98244 20.4808 4.15431C20.4933 4.51056 20.4339 4.85119 20.3121 5.15431C20.1433 5.60744 19.9152 5.99806 19.7277 6.37306L19.7058 6.36369L19.7152 6.36994Z" fill="#231F20"/>
<path d="M12.6407 20.37C12.4563 20.3325 12.272 20.2919 12.0876 20.2481C12.022 20.2325 11.9501 20.2356 11.8813 20.2169C11.6438 20.1387 11.4126 20.02 11.1907 19.9075C11.0938 19.8544 10.9907 19.8169 10.8876 19.7731C10.7532 19.7294 10.6345 19.6419 10.5563 19.5106C10.5313 19.4669 10.5938 19.395 10.6813 19.3231C10.7688 19.2544 10.8876 19.1731 10.9563 19.1762C11.0876 19.17 11.1782 19.2294 11.2876 19.2606C11.3938 19.2981 11.497 19.345 11.6063 19.4075C11.7376 19.4856 11.897 19.4575 12.047 19.4919C12.2126 19.5262 12.3813 19.5606 12.5563 19.5856C12.6626 19.6012 12.7688 19.62 12.8782 19.6294C13.0407 19.6544 13.2095 19.6919 13.3751 19.6887C13.5032 19.6919 13.6282 19.645 13.7563 19.645C13.7845 19.645 13.8126 19.6387 13.8407 19.645C13.947 19.6575 13.9782 19.6981 14.0032 19.8262C14.0095 19.8544 14.0157 19.8856 14.0188 19.9137C14.0282 20.0106 13.9876 20.0919 13.9095 20.1419C13.6845 20.3012 13.4438 20.3575 13.197 20.3919C13.1063 20.4044 13.0157 20.4137 12.922 20.42C12.8282 20.42 12.7376 20.4012 12.6438 20.395V20.3762L12.6407 20.37Z" fill="#231F20"/>
<path d="M17.2003 20.651C17.0628 20.6291 16.9222 20.6073 16.7847 20.5854C16.7347 20.5791 16.6847 20.5854 16.6347 20.5729C16.4566 20.5385 16.2816 20.4948 16.1097 20.4479C16.0347 20.4291 15.9566 20.4135 15.8816 20.401C15.7847 20.3823 15.6847 20.3698 15.5972 20.3073C15.5441 20.2729 15.6909 20.0666 15.7909 20.0666C15.9722 20.0791 16.1503 20.0823 16.3316 20.1229C16.4409 20.151 16.5597 20.1198 16.6722 20.1104C16.7972 20.1041 16.9284 20.0948 17.0534 20.0885C17.1316 20.0823 17.2128 20.0791 17.2941 20.0791C17.4159 20.0729 17.5409 20.076 17.6597 20.051C17.7534 20.0385 17.8441 20.001 17.9378 19.9823C17.9597 19.9791 17.9784 19.9698 18.0003 19.9698C18.0784 19.9604 18.1097 20.0166 18.1347 20.1166L18.1534 20.1854C18.1691 20.2604 18.1441 20.3385 18.0941 20.3948C18.0191 20.4573 17.9409 20.5135 17.8597 20.5573C17.8191 20.5791 17.7784 20.6041 17.7378 20.6198C17.6941 20.6291 17.6503 20.6354 17.6066 20.6416C17.4753 20.6573 17.3409 20.6698 17.2034 20.6635V20.6479L17.2003 20.651Z" fill="#231F20"/>
</svg>
