<svg width="88" height="36" viewBox="0 0 88 36" fill="none" xmlns="http://www.w3.org/2000/svg">
<circle cx="12" cy="18" r="12" fill="white"/>
<circle cx="12" cy="18" r="3" fill="black"/>
<path d="M37.52 25H33.68V8.248H38.72C42.392 8.248 45.392 10 45.392 13.432C45.392 15.808 43.424 18.448 39.416 18.448C38.744 18.448 38.12 18.4 37.52 18.256V25ZM37.52 8.68V17.776C37.808 17.872 38.096 17.92 38.384 17.92C40.232 17.92 41.336 15.712 41.336 13.168C41.336 10.216 39.68 8.68 37.904 8.68H37.52ZM45.9438 19.096C45.9438 16.048 47.4558 12.832 51.6318 12.832C55.6398 12.832 57.0318 15.688 57.0318 19C57.0318 22.096 55.8558 25.168 51.3678 25.168C47.1438 25.168 45.9438 22.312 45.9438 19.096ZM49.5198 19.12C49.5198 22.192 49.8558 24.76 51.4878 24.76C53.2398 24.76 53.4558 22.12 53.4798 19.024C53.4558 15.544 53.0958 13.24 51.4878 13.24C49.9278 13.24 49.5198 15.832 49.5198 19.12ZM59.6728 13.048H62.9608V25H59.6248C59.6248 22.504 59.6728 15.544 59.6728 13.048ZM59.4088 9.232C59.4088 8.176 60.2968 7.264 61.3048 7.264C62.3848 7.264 63.2728 8.176 63.2728 9.232C63.2728 10.24 62.3848 11.104 61.3048 11.104C60.2968 11.104 59.4088 10.24 59.4088 9.232ZM66.1588 25V13.048H69.3508V14.968H69.4708C70.1908 13.744 71.5108 12.88 73.1428 12.88C75.5668 12.88 76.5028 14.296 76.5028 16.528C76.5028 18.28 76.5268 23.248 76.5268 25H73.1908V16.768C73.1908 15.352 73.0708 14.056 71.6068 14.056C70.0948 14.056 69.4948 15.568 69.4948 17.56V25H66.1588ZM87.0569 23.128L87.2729 23.344C86.5529 24.256 85.2809 25.168 83.3849 25.168C80.8169 25.168 79.9049 23.824 79.9049 21.808V13.456H78.0809V13.048H79.9049V11.056L83.0249 8.584H83.3129V13.048H86.8409V13.456H83.3129V21.736C83.3129 23.632 83.7689 24.304 84.8729 24.304C85.5449 24.304 86.3129 23.944 87.0569 23.128Z" fill="white"/>
</svg>
