<svg width="179" height="56" viewBox="0 0 179 56" fill="none" xmlns="http://www.w3.org/2000/svg">
<rect width="178.2" height="56" fill="#1F1F1F"/>
<path d="M13.1621 29.957L19.6021 36.397L28.0021 44.797H13.1621L13.1621 29.957Z" fill="#FFFAF0"/>
<path d="M42.8439 26.0392L28.0039 11.1992L42.8439 11.1992L42.8439 26.0392Z" fill="#FFFAF0"/>
<path d="M25.2031 11.1992L41.9036 27.8997C43.7601 29.7562 44.8031 32.2742 44.8031 34.8997C44.8031 40.3671 40.371 44.7992 34.9036 44.7992H33.6031H30.8031L14.1026 28.0987C12.2461 26.2422 11.2031 23.7242 11.2031 21.0987C11.2031 15.6314 15.6353 11.1992 21.1026 11.1992H22.4031H25.2031Z" fill="#FFFAF0"/>
<circle cx="28.0031" cy="27.9992" r="2.8" fill="#1F1F1F"/>
<path d="M67.5136 25.1136H64.3328C64.3328 22.2688 63.5712 20.7904 62.0704 20.6112C61.8912 20.5888 61.712 20.5888 61.5328 20.5888C60.2784 20.656 59.7408 21.6192 59.696 22.896C59.6736 22.9408 59.6736 23.008 59.6736 23.0528C59.6736 27.04 67.8944 25.5392 68.0736 31.2064C68.096 31.3856 68.096 31.5648 68.0736 31.7664C67.9168 33.5136 66.6176 36.1568 62.1152 36.1568C59.2704 36.1568 56.672 34.88 56.672 31.5872C56.672 31.2288 56.6944 30.8704 56.7616 30.4672H57.1872C57.12 30.848 57.0976 31.2288 57.0976 31.5648C57.0976 34.3648 59.1584 35.7312 61.936 35.7312C63.9744 35.7312 64.9376 34.4768 65.0272 33.088C65.0496 32.9984 65.072 32.9088 65.072 32.8192C65.072 31.5424 64.176 30.512 62.1376 29.728C59.6512 28.7872 56.8736 27.824 56.8736 24.8896C56.8736 22.9184 57.9936 20.208 61.936 20.208C66.1472 20.208 67.5136 22.5824 67.5136 24.6208C67.5136 24.7776 67.5136 25.0016 67.5136 25.1136ZM71.4604 36V18.7072H74.5068V26.6368H74.6188C75.2908 25.4944 76.4556 24.688 77.9788 24.688C80.2412 24.688 81.1148 26.0096 81.1148 28.0928V36H78.0236V28.0032C78.0236 27.0848 77.9116 25.8752 76.5452 25.8752C75.134 25.8752 74.574 27.2864 74.574 28.72V36H71.4604ZM95.2145 35.5296L95.2593 35.9104C94.7217 36.112 94.0273 36.2016 93.4449 36.2016C93.2881 36.2016 93.1537 36.1792 93.0193 36.1792C91.9441 36.112 91.0929 35.6192 90.7793 34.2976C89.7265 35.552 88.8529 36.112 87.6209 36.1792C87.4865 36.2016 87.3521 36.2016 87.1953 36.2016C85.6497 36.1568 84.3953 35.0592 84.3953 33.1552C84.3953 30.3328 87.2849 29.1456 89.9057 29.1008C89.5921 26.7712 88.9201 25.36 87.2401 25.36C86.8593 25.36 86.3665 25.4272 85.8513 25.5616L85.7617 25.1808C86.2769 24.9568 87.0161 24.7776 87.7553 24.6656C88.0689 24.6432 88.3825 24.6208 88.6961 24.6208C90.8913 24.6208 92.2801 25.4496 92.7505 27.6672C93.3553 30.8032 93.6465 32.752 93.9153 34.0288C94.1617 35.0816 94.4081 35.44 94.8785 35.5296C94.9905 35.5296 95.1025 35.5296 95.2145 35.5296ZM87.4417 32.5952C87.4417 33.984 88.0017 34.7456 88.8305 34.7456C89.4129 34.7456 90.1297 34.4544 90.6897 33.8944C90.4881 32.9536 90.2641 31.2064 89.9505 29.4592C87.8001 29.7056 87.4417 31.6096 87.4417 32.5952ZM100.962 29.8848V36H97.8483C97.8707 33.1104 97.8707 27.4656 97.8707 24.8224H98.1843L100.671 28.3616H100.783C100.895 26.0992 101.858 24.6208 103.627 24.6208C104.008 24.6208 104.434 24.6656 104.927 24.7776V27.9584C104.367 27.6224 103.65 27.376 103 27.376C101.813 27.376 100.962 28.1376 100.962 29.8848ZM110.523 40.1664H107.454V24.8448H110.411V26.3232H110.501C111.217 25.1584 112.293 24.7104 113.525 24.7104C116.885 24.7104 117.579 27.7568 117.579 30.4448C117.579 33.0656 116.459 36.1344 113.077 36.1344C112.203 36.1344 111.24 35.8432 110.59 35.1712L110.523 35.216V40.1664ZM112.382 35.664C114.085 35.664 114.264 33.2896 114.264 30.5568C114.264 27.5328 114.085 25.4272 112.472 25.4272C110.792 25.4272 110.545 27.7344 110.545 30.7136C110.545 33.5136 110.725 35.664 112.382 35.664ZM129.846 31.9456H130.227C130.16 34.8128 128.278 36.1568 125.881 36.1568C122.969 36.1568 120.617 34.6784 120.617 30.736C120.617 26.256 123.283 24.6432 125.657 24.6432C128.771 24.6432 130.339 26.4352 130.339 29.8848V30.1536H123.933C123.933 30.288 123.933 30.6464 123.933 30.736C123.933 34.1632 124.806 35.5744 126.733 35.5744C128.502 35.5744 129.824 34.096 129.846 31.9456ZM127.293 29.7728C127.293 26.2336 126.733 25.024 125.657 25.024C124.649 25.024 124 26.2784 123.933 29.7728H127.293ZM133.473 36V24.8448H136.453V26.6368H136.565C137.237 25.4944 138.469 24.688 139.992 24.688C142.254 24.688 143.128 26.0096 143.128 28.0928C143.128 29.728 143.15 34.3648 143.15 36H140.037V28.3168C140.037 26.9952 139.925 25.7856 138.558 25.7856C137.147 25.7856 136.587 27.1968 136.587 29.056V36H133.473ZM155.711 31.9456H156.092C156.025 34.8128 154.143 36.1568 151.746 36.1568C148.834 36.1568 146.482 34.6784 146.482 30.736C146.482 26.256 149.148 24.6432 151.522 24.6432C154.636 24.6432 156.204 26.4352 156.204 29.8848V30.1536H149.798C149.798 30.288 149.798 30.6464 149.798 30.736C149.798 34.1632 150.671 35.5744 152.598 35.5744C154.367 35.5744 155.689 34.096 155.711 31.9456ZM153.158 29.7728C153.158 26.2336 152.598 25.024 151.522 25.024C150.514 25.024 149.865 26.2784 149.798 29.7728H153.158ZM162.584 29.8848V36H159.47C159.493 33.1104 159.493 27.4656 159.493 24.8224H159.806L162.293 28.3616H162.405C162.517 26.0992 163.48 24.6208 165.249 24.6208C165.63 24.6208 166.056 24.6656 166.549 24.7776V27.9584C165.989 27.6224 165.272 27.376 164.622 27.376C163.435 27.376 162.584 28.1376 162.584 29.8848Z" fill="#FFFAF0"/>
</svg>
